<svg width="86" height="86" viewBox="0 0 86 86" fill="none" xmlns="http://www.w3.org/2000/svg">
<rect x="0.5" y="0.5" width="85" height="85" fill="white" stroke="#D8D9D9"/>
<path d="M43.0006 44.9645C42.533 44.959 42.075 45.0969 41.6882 45.3596C41.3014 45.6223 41.0044 45.9972 40.8371 46.4339C40.6698 46.8705 40.6403 47.3479 40.7525 47.8018C40.8647 48.2557 41.1133 48.6643 41.4648 48.9727V51.1073C41.4648 51.5146 41.6266 51.9052 41.9146 52.1932C42.2026 52.4813 42.5933 52.643 43.0006 52.643C43.4079 52.643 43.7985 52.4813 44.0865 52.1932C44.3745 51.9052 44.5363 51.5146 44.5363 51.1073V48.9727C44.8878 48.6643 45.1364 48.2557 45.2486 47.8018C45.3609 47.3479 45.3313 46.8705 45.1641 46.4339C44.9968 45.9972 44.6997 45.6223 44.3129 45.3596C43.9261 45.0969 43.4681 44.959 43.0006 44.9645ZM50.6791 38.8216H38.3934V35.7502C38.3912 34.8383 38.6596 33.9462 39.1647 33.1869C39.6699 32.4277 40.389 31.8354 41.2309 31.4851C42.0729 31.1349 42.9999 31.0423 43.8945 31.2193C44.7891 31.3962 45.611 31.8347 46.2563 32.4791C46.8336 33.0689 47.2466 33.7996 47.4541 34.5984C47.5045 34.794 47.593 34.9778 47.7144 35.1392C47.8359 35.3007 47.9879 35.4366 48.1619 35.5393C48.3359 35.642 48.5284 35.7094 48.7284 35.7377C48.9284 35.7659 49.1321 35.7545 49.3277 35.7041C49.5233 35.6537 49.7071 35.5652 49.8685 35.4438C50.03 35.3224 50.1659 35.1703 50.2686 34.9963C50.3713 34.8224 50.4387 34.6299 50.4669 34.4298C50.4952 34.2298 50.4838 34.0262 50.4334 33.8305C50.0836 32.5018 49.3897 31.2888 48.4216 30.3138C47.3469 29.2424 45.9788 28.5135 44.4901 28.2191C43.0014 27.9247 41.4589 28.0781 40.0573 28.6597C38.6557 29.2414 37.4579 30.2253 36.6151 31.4873C35.7723 32.7493 35.3223 34.2327 35.322 35.7502V38.8216C34.1001 38.8216 32.9283 39.307 32.0642 40.171C31.2002 41.035 30.7148 42.2069 30.7148 43.4288V54.1788C30.7148 55.4007 31.2002 56.5725 32.0642 57.4365C32.9283 58.3005 34.1001 58.7859 35.322 58.7859H50.6791C51.901 58.7859 53.0729 58.3005 53.9369 57.4365C54.8009 56.5725 55.2863 55.4007 55.2863 54.1788V43.4288C55.2863 42.2069 54.8009 41.035 53.9369 40.171C53.0729 39.307 51.901 38.8216 50.6791 38.8216ZM52.2148 54.1788C52.2148 54.5861 52.053 54.9767 51.765 55.2647C51.477 55.5527 51.0864 55.7145 50.6791 55.7145H35.322C34.9147 55.7145 34.5241 55.5527 34.2361 55.2647C33.9481 54.9767 33.7863 54.5861 33.7863 54.1788V43.4288C33.7863 43.0215 33.9481 42.6309 34.2361 42.3428C34.5241 42.0548 34.9147 41.893 35.322 41.893H50.6791C51.0864 41.893 51.477 42.0548 51.765 42.3428C52.053 42.6309 52.2148 43.0215 52.2148 43.4288V54.1788Z" fill="#E26559"/>
</svg>
