<svg width="86" height="86" viewBox="0 0 86 86" fill="none" xmlns="http://www.w3.org/2000/svg">
<rect x="0.5" y="0.5" width="85" height="85" fill="white" stroke="#D8D9D9"/>
<path d="M54.4519 28.3218C54.3684 27.9039 54.1427 27.5279 53.8132 27.2577C53.4837 26.9875 53.0707 26.8398 52.6446 26.8398C52.2184 26.8398 51.8055 26.9875 51.476 27.2577C51.1465 27.5279 50.9208 27.9039 50.8373 28.3218L50.3973 30.5173C50.326 30.8744 50.1506 31.2024 49.8931 31.4599C49.6356 31.7173 49.3076 31.8928 48.9505 31.964L46.755 32.4018C46.3359 32.4841 45.9584 32.7094 45.687 33.0393C45.4156 33.3692 45.2673 33.783 45.2673 34.2102C45.2673 34.6373 45.4156 35.0512 45.687 35.3811C45.9584 35.711 46.3359 35.9363 46.755 36.0186L48.9505 36.4564C49.3079 36.5278 49.6361 36.7035 49.8936 36.9615C50.1512 37.2194 50.3264 37.5479 50.3973 37.9054L50.835 40.1009C50.9173 40.52 51.1427 40.8975 51.4725 41.1689C51.8024 41.4403 52.2163 41.5887 52.6434 41.5887C53.0706 41.5887 53.4844 41.4403 53.8143 41.1689C54.1442 40.8975 54.3695 40.52 54.4519 40.1009L54.8896 37.9054C54.961 37.548 55.1368 37.2198 55.3947 36.9623C55.6526 36.7048 55.9811 36.5295 56.3386 36.4587L58.5341 36.0209C58.9532 35.9386 59.3308 35.7133 59.6021 35.3834C59.8735 35.0535 60.0219 34.6396 60.0219 34.2125C60.0219 33.7854 59.8735 33.3715 59.6021 33.0416C59.3308 32.7117 58.9532 32.4864 58.5341 32.4041L56.3386 31.9663C55.9812 31.8949 55.653 31.7192 55.3955 31.4612C55.138 31.2033 54.9627 30.8748 54.8919 30.5173L54.4519 28.3218ZM37.8073 35.4727C37.6855 35.1048 37.4509 34.7846 37.1368 34.5577C36.8227 34.3308 36.4451 34.2086 36.0576 34.2086C35.6701 34.2086 35.2924 34.3308 34.9783 34.5577C34.6642 34.7846 34.4296 35.1048 34.3079 35.4727L33.05 39.2508C32.9596 39.5229 32.807 39.7702 32.6042 39.973C32.4014 40.1757 32.1542 40.3284 31.882 40.4188L28.1039 41.6766C27.736 41.7984 27.4158 42.033 27.1889 42.3471C26.962 42.6612 26.8398 43.0388 26.8398 43.4263C26.8398 43.8139 26.962 44.1915 27.1889 44.5056C27.4158 44.8197 27.736 45.0543 28.1039 45.176L31.882 46.4362C32.1537 46.5261 32.4006 46.6781 32.6034 46.88C32.8061 47.0819 32.959 47.3283 33.05 47.5996L34.3079 51.38C34.4296 51.7479 34.6642 52.0681 34.9783 52.295C35.2924 52.5219 35.6701 52.6441 36.0576 52.6441C36.4451 52.6441 36.8227 52.5219 37.1368 52.295C37.4509 52.0681 37.6855 51.7479 37.8073 51.38L39.0651 47.6019C39.1553 47.33 39.3076 47.0829 39.5099 46.8801C39.7123 46.6774 39.9591 46.5246 40.2308 46.4339L44.0113 45.176C44.3792 45.0543 44.6993 44.8197 44.9262 44.5056C45.1532 44.1915 45.2753 43.8139 45.2753 43.4263C45.2753 43.0388 45.1532 42.6612 44.9262 42.3471C44.6993 42.033 44.3792 41.7984 44.0113 41.6766L40.2331 40.4188C39.9612 40.3286 39.7141 40.1763 39.5114 39.974C39.3086 39.7716 39.1558 39.5248 39.0651 39.2531L37.8073 35.4727ZM50.7083 50.2167C50.5865 49.8488 50.3519 49.5286 50.0378 49.3017C49.7237 49.0748 49.3461 48.9526 48.9586 48.9526C48.5711 48.9526 48.1934 49.0748 47.8793 49.3017C47.5652 49.5286 47.3306 49.8488 47.2089 50.2167L46.8702 51.2303C46.7803 51.5019 46.6283 51.7489 46.4264 51.9516C46.2245 52.1544 45.9781 52.3073 45.7068 52.3983L44.6909 52.7346C44.323 52.8564 44.0028 53.091 43.7759 53.4051C43.549 53.7192 43.4268 54.0968 43.4268 54.4843C43.4268 54.8719 43.549 55.2495 43.7759 55.5636C44.0028 55.8777 44.323 56.1123 44.6909 56.234L45.7045 56.5704C45.9764 56.6606 46.2235 56.8129 46.4263 57.0152C46.629 57.2176 46.7818 57.4644 46.8725 57.7361L47.2089 58.752C47.3306 59.1199 47.5652 59.4401 47.8793 59.667C48.1934 59.8939 48.5711 60.0161 48.9586 60.0161C49.3461 60.0161 49.7237 59.8939 50.0378 59.667C50.3519 59.4401 50.5865 59.1199 50.7083 58.752L51.0469 57.7384C51.1371 57.4665 51.2894 57.2194 51.4917 57.0166C51.6941 56.8139 51.9409 56.6611 52.2126 56.5704L53.2263 56.234C53.5942 56.1123 53.9143 55.8777 54.1412 55.5636C54.3682 55.2495 54.4903 54.8719 54.4903 54.4843C54.4903 54.0968 54.3682 53.7192 54.1412 53.4051C53.9143 53.091 53.5942 52.8564 53.2263 52.7346L52.2126 52.396C51.941 52.3061 51.694 52.1541 51.4913 51.9522C51.2886 51.7502 51.1356 51.5039 51.0446 51.2326L50.7083 50.2167Z" fill="#E26559"/>
</svg>
