<svg width="86" height="86" viewBox="0 0 86 86" fill="none" xmlns="http://www.w3.org/2000/svg">
<rect x="0.5" y="0.5" width="85" height="85" fill="white" stroke="#D8D9D9"/>
<path d="M58.3549 36.1185C58.3561 35.9163 58.3174 35.716 58.2409 35.5289C58.1645 35.3418 58.0519 35.1716 57.9096 35.0281L51.3982 28.5167C51.2547 28.3743 51.0845 28.2617 50.8974 28.1853C50.7103 28.1089 50.5099 28.0701 50.3078 28.0713C50.1057 28.0701 49.9053 28.1089 49.7182 28.1853C49.5311 28.2617 49.3609 28.3743 49.2174 28.5167L44.8714 32.8627L28.086 49.6481C27.9437 49.7916 27.8311 49.9618 27.7546 50.1489C27.6782 50.336 27.6395 50.5363 27.6407 50.7385V57.2499C27.6407 57.6572 27.8024 58.0478 28.0905 58.3358C28.3785 58.6238 28.7691 58.7856 29.1764 58.7856H35.6878C35.9027 58.7973 36.1176 58.7637 36.3187 58.687C36.5198 58.6102 36.7025 58.4921 36.8549 58.3402L53.5482 41.5549L57.9096 37.2856C58.0498 37.1368 58.164 36.9655 58.2474 36.7788C58.2622 36.6564 58.2622 36.5327 58.2474 36.4102C58.2546 36.3388 58.2546 36.2667 58.2474 36.1952L58.3549 36.1185ZM35.0582 55.7142H30.7121V51.3681L45.9617 36.1185L50.3078 40.4645L35.0582 55.7142ZM52.4732 38.2992L48.1271 33.9531L50.3078 31.7877L54.6385 36.1185L52.4732 38.2992Z" fill="#E26559"/>
</svg>
