<svg width="86" height="86" viewBox="0 0 86 86" fill="none" xmlns="http://www.w3.org/2000/svg">
<rect x="0.5" y="0.5" width="85" height="85" fill="white" stroke="#D8D9D9"/>
<path d="M53.7506 55.7141H32.2506C31.8433 55.7141 31.4526 55.8759 31.1646 56.1639C30.8766 56.4519 30.7148 56.8426 30.7148 57.2499C30.7148 57.6572 30.8766 58.0478 31.1646 58.3358C31.4526 58.6238 31.8433 58.7856 32.2506 58.7856H53.7506C54.1579 58.7856 54.5485 58.6238 54.8365 58.3358C55.1245 58.0478 55.2863 57.6572 55.2863 57.2499C55.2863 56.8426 55.1245 56.4519 54.8365 56.1639C54.5485 55.8759 54.1579 55.7141 53.7506 55.7141ZM41.9102 52.1974C42.0563 52.3372 42.2285 52.4468 42.417 52.5199C42.6008 52.6011 42.7996 52.6431 43.0006 52.6431C43.2015 52.6431 43.4003 52.6011 43.5841 52.5199C43.7726 52.4468 43.9449 52.3372 44.0909 52.1974L50.2338 46.0545C50.523 45.7653 50.6854 45.3731 50.6854 44.9641C50.6854 44.5552 50.523 44.163 50.2338 43.8738C49.9446 43.5846 49.5524 43.4221 49.1434 43.4221C48.7345 43.4221 48.3422 43.5846 48.0531 43.8738L44.5363 47.4059V29.607C44.5363 29.1997 44.3745 28.8091 44.0865 28.5211C43.7985 28.2331 43.4079 28.0713 43.0006 28.0713C42.5933 28.0713 42.2026 28.2331 41.9146 28.5211C41.6266 28.8091 41.4648 29.1997 41.4648 29.607V47.4059L37.9481 43.8738C37.8049 43.7306 37.6349 43.617 37.4478 43.5395C37.2607 43.462 37.0602 43.4221 36.8577 43.4221C36.6552 43.4221 36.4547 43.462 36.2676 43.5395C36.0805 43.617 35.9105 43.7306 35.7673 43.8738C35.6242 44.017 35.5106 44.187 35.4331 44.374C35.3556 44.5611 35.3157 44.7616 35.3157 44.9641C35.3157 45.1666 35.3556 45.3672 35.4331 45.5542C35.5106 45.7413 35.6242 45.9113 35.7673 46.0545L41.9102 52.1974Z" fill="#E26559"/>
</svg>
