<svg width="86" height="86" viewBox="0 0 86 86" fill="none" xmlns="http://www.w3.org/2000/svg">
<rect x="0.5" y="0.5" width="85" height="85" fill="white" stroke="#D8D9D9"/>
<path d="M43 52.6433C42.6963 52.6433 42.3993 52.7333 42.1468 52.9021C41.8943 53.0708 41.6974 53.3107 41.5812 53.5913C41.465 53.8719 41.4345 54.1807 41.4938 54.4786C41.5531 54.7765 41.6993 55.0501 41.9141 55.2649C42.1289 55.4797 42.4025 55.6259 42.7004 55.6852C42.9983 55.7445 43.3071 55.714 43.5877 55.5978C43.8683 55.4816 44.1082 55.2847 44.2769 55.0322C44.4456 54.7796 44.5357 54.4827 44.5357 54.179C44.5357 53.7717 44.3739 53.3811 44.0859 53.0931C43.7979 52.8051 43.4073 52.6433 43 52.6433ZM52.2143 26.5361H33.7857C33.3784 26.5361 32.9878 26.6979 32.6998 26.9859C32.4118 27.2739 32.25 27.6646 32.25 28.0718V41.8933C32.25 43.1152 32.7354 44.287 33.5994 45.151C34.4634 46.015 35.6353 46.5004 36.8571 46.5004H38.3929V50.1401C37.6109 51.0267 37.1014 52.1201 36.9255 53.2891C36.7496 54.4582 36.9148 55.6531 37.4012 56.7306C37.8876 57.8081 38.6745 58.7223 39.6676 59.3636C40.6608 60.0049 41.8178 60.346 43 60.346C44.1822 60.346 45.3392 60.0049 46.3324 59.3636C47.3255 58.7223 48.1124 57.8081 48.5988 56.7306C49.0852 55.6531 49.2504 54.4582 49.0745 53.2891C48.8986 52.1201 48.3891 51.0267 47.6071 50.1401V46.5004H49.1429C50.3647 46.5004 51.5366 46.015 52.4006 45.151C53.2646 44.287 53.75 43.1152 53.75 41.8933V28.0718C53.75 27.6646 53.5882 27.2739 53.3002 26.9859C53.0122 26.6979 52.6216 26.5361 52.2143 26.5361ZM43 57.2504C42.382 57.2457 41.7799 57.0548 41.2722 56.7024C40.7645 56.3501 40.3748 55.8528 40.1542 55.2756C39.9336 54.6983 39.8923 54.0679 40.0356 53.4668C40.1789 52.8657 40.5002 52.3218 40.9575 51.9061C41.1166 51.7626 41.2439 51.5873 41.3311 51.3915C41.4184 51.1958 41.4638 50.984 41.4643 50.7697V46.5004H44.5357V50.7697C44.5362 50.984 44.5816 51.1958 44.6689 51.3915C44.7561 51.5873 44.8834 51.7626 45.0425 51.9061C45.4998 52.3218 45.8211 52.8657 45.9644 53.4668C46.1077 54.0679 46.0664 54.6983 45.8458 55.2756C45.6252 55.8528 45.2355 56.3501 44.7278 56.7024C44.2201 57.0548 43.618 57.2457 43 57.2504ZM50.6786 41.8933C50.6786 42.3006 50.5168 42.6912 50.2288 42.9792C49.9408 43.2672 49.5502 43.429 49.1429 43.429H36.8571C36.4498 43.429 36.0592 43.2672 35.7712 42.9792C35.4832 42.6912 35.3214 42.3006 35.3214 41.8933V40.3576H50.6786V41.8933ZM50.6786 37.2861H35.3214V29.6076H50.6786V37.2861Z" fill="#E26559"/>
</svg>
