<svg width="86" height="86" viewBox="0 0 86 86" fill="none" xmlns="http://www.w3.org/2000/svg">
<rect x="0.5" y="0.5" width="85" height="85" fill="white" stroke="#D8D9D9"/>
<path d="M56.0388 46.4081L55.5167 46.7153C55.1665 46.923 54.9131 47.2614 54.8123 47.656C54.7115 48.0505 54.7715 48.4689 54.9792 48.8192C55.1151 49.0485 55.3084 49.2384 55.5399 49.3703C55.7715 49.5023 56.0334 49.5717 56.2999 49.5717C56.5755 49.5716 56.8461 49.4974 57.0831 49.3567L57.6053 49.0496C57.9127 48.826 58.1263 48.4963 58.2047 48.1242C58.2831 47.7522 58.2207 47.3644 58.0297 47.0357C57.8386 46.707 57.5324 46.4609 57.1703 46.345C56.8082 46.2291 56.416 46.2516 56.0696 46.4081H56.0388ZM42.4631 34.7674L43.0006 34.4449L53.7506 40.5878L51.0478 42.1235C50.7519 42.2911 50.5201 42.5522 50.3886 42.8658C50.2571 43.1794 50.2335 43.5278 50.3213 43.8563C50.4091 44.1848 50.6035 44.4749 50.8739 44.681C51.1444 44.8871 51.4756 44.9977 51.8156 44.9953C52.0846 44.9971 52.3494 44.9283 52.5835 44.7956L57.5899 41.8931C57.8263 41.7592 58.0228 41.565 58.1596 41.3302C58.2964 41.0955 58.3684 40.8287 58.3684 40.5571C58.3684 40.2854 58.2964 40.0186 58.1596 39.7839C58.0228 39.5492 57.8263 39.3549 57.5899 39.221L43.7685 31.2506C43.535 31.1159 43.2702 31.0449 43.0006 31.0449C42.7311 31.0449 42.4662 31.1159 42.2328 31.2506L40.9274 32.0031C40.5731 32.2068 40.3141 32.5429 40.2076 32.9374C40.101 33.332 40.1555 33.7527 40.3592 34.1071C40.5628 34.4614 40.8989 34.7204 41.2935 34.8269C41.688 34.9335 42.1088 34.8789 42.4631 34.6753V34.7674ZM30.2696 28.5171C30.1264 28.3739 29.9564 28.2603 29.7693 28.1828C29.5822 28.1053 29.3817 28.0654 29.1792 28.0654C28.9767 28.0654 28.7762 28.1053 28.5891 28.1828C28.402 28.2603 28.232 28.3739 28.0888 28.5171C27.7997 28.8063 27.6372 29.1985 27.6372 29.6074C27.6372 30.0164 27.7997 30.4086 28.0888 30.6978L33.6788 36.2724L28.4113 39.3439C28.175 39.4778 27.9784 39.672 27.8416 39.9068C27.7049 40.1415 27.6328 40.4083 27.6328 40.6799C27.6328 40.9516 27.7049 41.2184 27.8416 41.4531C27.9784 41.6878 28.175 41.8821 28.4113 42.016L42.2328 50.0017C42.469 50.1288 42.7324 50.1973 43.0006 50.2014C43.2686 50.195 43.5314 50.1267 43.7685 50.0017L46.0721 48.6503L48.2988 50.8924L43.016 53.9639L29.9471 46.3928C29.5927 46.1891 29.172 46.1346 28.7774 46.2412C28.3828 46.3477 28.0468 46.6067 27.8431 46.961C27.6395 47.3153 27.5849 47.7361 27.6915 48.1306C27.7981 48.5252 28.057 48.8613 28.4113 49.0649L42.2328 57.0506C42.4662 57.1854 42.7311 57.2564 43.0006 57.2564C43.2702 57.2564 43.535 57.1854 43.7685 57.0506L50.541 53.1346L55.7317 58.3406C55.8745 58.4846 56.0443 58.5988 56.2315 58.6768C56.4186 58.7548 56.6193 58.7949 56.8221 58.7949C57.0248 58.7949 57.2255 58.7548 57.4127 58.6768C57.5998 58.5988 57.7696 58.4846 57.9124 58.3406C58.0564 58.1979 58.1706 58.028 58.2486 57.8409C58.3265 57.6537 58.3667 57.453 58.3667 57.2503C58.3667 57.0476 58.3265 56.8468 58.2486 56.6597C58.1706 56.4725 58.0564 56.3027 57.9124 56.1599L30.2696 28.5171ZM43.0006 46.9456L32.2506 40.6492L35.9363 38.5299L43.7992 46.4081L43.0006 46.9456Z" fill="#E26559"/>
</svg>
