<svg width="86" height="86" viewBox="0 0 86 86" fill="none" xmlns="http://www.w3.org/2000/svg">
<rect x="0.5" y="0.5" width="85" height="85" fill="white" stroke="#D8D9D9"/>
<g clip-path="url(#clip0_956_5937)">
<path d="M52.3618 34.2139C49.3248 34.2139 46.9031 35.7394 45.4065 37.0198L45.3537 37.0651L44.5014 37.9917L46.3829 41.0837L47.7755 39.6875C49.2326 38.4569 50.8593 37.7807 52.3618 37.7807C55.3936 37.7807 57.8606 40.1809 57.8606 43.1309C57.8606 46.081 55.3936 48.4811 52.3618 48.4811C47.7546 48.4811 44.6233 42.3915 44.5921 42.3299C44.4108 41.9635 40.4397 34.2139 33.636 34.2139C28.6372 34.2139 24.5703 38.2139 24.5703 43.1309C24.5703 48.0479 28.6372 52.048 33.636 52.048C36.0845 52.048 38.4943 51.0738 40.6054 49.2302L40.6507 49.1901L41.4964 48.2701L39.6141 45.1781L38.2149 46.5811C36.7569 47.8421 35.2158 48.4811 33.636 48.4811C30.6042 48.4811 28.1371 46.081 28.1371 43.1309C28.1371 40.1809 30.6042 37.7807 33.636 37.7807C38.2431 37.7807 41.3745 43.8703 41.4057 43.932C41.587 44.2983 45.5581 52.048 52.3618 52.048C57.3605 52.048 61.4275 48.0479 61.4275 43.1309C61.4275 38.2139 57.3605 34.2139 52.3618 34.2139Z" fill="#E26559"/>
</g>
<defs>
<clipPath id="clip0_956_5937">
<rect width="36.8571" height="36.8571" fill="white" transform="translate(24.5703 25)"/>
</clipPath>
</defs>
</svg>
