<svg width="86" height="86" viewBox="0 0 86 86" fill="none" xmlns="http://www.w3.org/2000/svg">
<rect x="0.5" y="0.5" width="85" height="85" fill="white" stroke="#D8D9D9"/>
<path d="M55.114 39.6657C54.9864 39.4124 54.7911 39.1995 54.5499 39.0504C54.3086 38.9013 54.0308 38.8219 53.7472 38.8211H46.0687V29.6068C46.0851 29.27 45.9903 28.9371 45.7988 28.6596C45.6073 28.382 45.3297 28.1752 45.009 28.0711C44.7007 27.9696 44.3681 27.9685 44.0591 28.0678C43.7501 28.1671 43.4805 28.3618 43.289 28.6239L31.0033 45.5168C30.8494 45.7393 30.7569 45.9984 30.7354 46.2681C30.7138 46.5378 30.7638 46.8084 30.8804 47.0525C30.9878 47.3316 31.1744 47.5733 31.4172 47.7479C31.66 47.9225 31.9484 48.0224 32.2472 48.0354H39.9258V57.2496C39.926 57.5735 40.0286 57.889 40.219 58.151C40.4093 58.413 40.6775 58.6082 40.9854 58.7086C41.1397 58.7564 41.3 58.7822 41.4615 58.7854C41.7038 58.786 41.9428 58.7293 42.159 58.6198C42.3752 58.5104 42.5625 58.3514 42.7054 58.1557L54.9912 41.2629C55.1566 41.0337 55.2556 40.7634 55.2773 40.4816C55.299 40.1998 55.2425 39.9175 55.114 39.6657ZM42.9972 52.5196V46.4996C42.9972 46.0923 42.8354 45.7017 42.5474 45.4137C42.2594 45.1257 41.8688 44.9639 41.4615 44.9639H35.3187L42.9972 34.3368V40.3568C42.9972 40.7641 43.159 41.1547 43.447 41.4427C43.735 41.7307 44.1256 41.8925 44.5329 41.8925H50.6758L42.9972 52.5196Z" fill="#E26559"/>
</svg>
