<svg width="86" height="86" viewBox="0 0 86 86" fill="none" xmlns="http://www.w3.org/2000/svg">
<rect x="0.5" y="0.5" width="85" height="85" fill="white" stroke="#D8D9D9"/>
<path d="M55.532 32.0799C53.9015 30.449 51.7399 29.4574 49.4402 29.2855C47.1404 29.1135 44.8554 29.7727 43.0006 31.1431C41.0466 29.6898 38.6146 29.0307 36.1942 29.2988C33.7738 29.5668 31.5448 30.7419 29.9562 32.5876C28.3675 34.4332 27.5372 36.8122 27.6324 39.2455C27.7275 41.6789 28.7412 43.9858 30.4691 45.7017L41.9102 57.1427C42.053 57.2867 42.2228 57.4009 42.41 57.4789C42.5971 57.5569 42.7978 57.597 43.0006 57.597C43.2033 57.597 43.404 57.5569 43.5912 57.4789C43.7783 57.4009 43.9482 57.2867 44.0909 57.1427L55.532 45.7017C56.4268 44.8075 57.1366 43.7457 57.6209 42.577C58.1052 41.4084 58.3545 40.1558 58.3545 38.8908C58.3545 37.6258 58.1052 36.3731 57.6209 35.2045C57.1366 34.0359 56.4268 32.9741 55.532 32.0799ZM53.3666 43.5363L43.0006 53.887L32.6345 43.5363C31.721 42.619 31.0987 41.4524 30.8457 40.1828C30.5927 38.9132 30.7203 37.5972 31.2123 36.3998C31.7044 35.2025 32.5391 34.177 33.6117 33.4522C34.6844 32.7274 35.9471 32.3355 37.2416 32.3256C38.971 32.3298 40.628 33.0203 41.8488 34.2452C41.9915 34.3892 42.1614 34.5034 42.3485 34.5814C42.5357 34.6594 42.7364 34.6995 42.9391 34.6995C43.1419 34.6995 43.3426 34.6594 43.5297 34.5814C43.7169 34.5034 43.8867 34.3892 44.0295 34.2452C45.2862 33.1562 46.9097 32.5854 48.5714 32.6481C50.2331 32.7109 51.809 33.4027 52.9799 34.5834C54.1509 35.7641 54.8295 37.3456 54.8785 39.0078C54.9275 40.67 54.3432 42.2887 53.2438 43.5363H53.3666Z" fill="#E26559"/>
</svg>
