<svg width="86" height="86" viewBox="0 0 86 86" fill="none" xmlns="http://www.w3.org/2000/svg">
<rect x="0.5" y="0.5" width="85" height="85" fill="white" stroke="#D8D9D9"/>
<path d="M56.8192 55.7141H52.2121V38.8213C52.2121 38.414 52.0503 38.0234 51.7623 37.7354C51.4743 37.4474 51.0836 37.2856 50.6763 37.2856H46.0692V29.607C46.0692 29.1997 45.9074 28.8091 45.6194 28.5211C45.3314 28.2331 44.9408 28.0713 44.5335 28.0713H35.3192C34.9119 28.0713 34.5213 28.2331 34.2333 28.5211C33.9453 28.8091 33.7835 29.1997 33.7835 29.607V55.7141H29.1763C28.769 55.7141 28.3784 55.8759 28.0904 56.1639C27.8024 56.4519 27.6406 56.8426 27.6406 57.2499C27.6406 57.6572 27.8024 58.0478 28.0904 58.3358C28.3784 58.6238 28.769 58.7856 29.1763 58.7856H56.8192C57.2265 58.7856 57.6171 58.6238 57.9051 58.3358C58.1931 58.0478 58.3549 57.6572 58.3549 57.2499C58.3549 56.8426 58.1931 56.4519 57.9051 56.1639C57.6171 55.8759 57.2265 55.7141 56.8192 55.7141ZM42.9978 55.7141H36.8549V31.1427H42.9978V55.7141ZM49.1406 55.7141H46.0692V40.357H49.1406V55.7141Z" fill="#E26559"/>
</svg>
