<svg width="472" height="271" viewBox="0 0 472 271" fill="none" xmlns="http://www.w3.org/2000/svg">
<path fill-rule="evenodd" clip-rule="evenodd" d="M126.1 206.7C39.0097 206.7 2.85645 148.812 1.11724 146.028L1.09999 146L0 144.3L25.7 69.3V6.89999L74.9 20.1C83.9 15 125.7 -5.80001 175.6 20.1L226.5 6V69.7L228.55 75.6437L222.5 80L221.583 82.1675L217.8 71.2V17.5L174.6 29.4L173.1 28.6C121.9 1.09999 79.7 27.3 78 28.4L76.4 29.4L74.5 28.9L34.5 18.1V70.5L9.59999 143.1C16.1 152.4 51.8 198 126.1 198C153.845 198 176.181 191.675 193.625 183.257L188.541 195.204C171.611 201.997 150.925 206.7 126.1 206.7ZM224.311 90.0757L240.28 136.373L248.25 132.75L232.252 86.374L227 89L224.311 90.0757Z" fill="#E36458"/>
<path d="M51.3001 51.9H42.6001V28.5L62.4001 33.7L60.2001 42.2L51.3001 39.8V51.9Z" fill="#E36458"/>
<path d="M209.6 51.9H200.8V39.8L192 42.2L189.8 33.7L209.6 28.5V51.9Z" fill="#E36458"/>
<path d="M180.7 127.5H155.3C152.3 127.5 149.9 125.1 149.9 122.1V96.7C149.9 93.7 152.3 91.3 155.3 91.3H180.7C183.7 91.3 186.1 93.7 186.1 96.7V122.1C186.1 125.1 183.6 127.5 180.7 127.5ZM158.6 118.8H177.3V100.1H158.6V118.8Z" fill="#E36458"/>
<path d="M98.3 127.5H72.9C69.9 127.5 67.5 125.1 67.5 122.1V96.7C67.5 93.7 69.9 91.3 72.9 91.3H98.3C101.3 91.3 103.7 93.7 103.7 96.7V122.1C103.7 125.1 101.3 127.5 98.3 127.5ZM76.2 118.8H94.9V100.1H76.2V118.8Z" fill="#E36458"/>
<path d="M153.2 163.4H100.3C97.2999 163.4 94.8999 161 94.8999 158V124.2C94.8999 121.2 97.2999 118.8 100.3 118.8H153.2C156.2 118.8 158.6 121.2 158.6 124.2V158C158.6 161 156.2 163.4 153.2 163.4ZM103.7 154.7H149.9V127.5H103.7V154.7Z" fill="#3C4043"/>
<path d="M96.1 99H86V109.1H96.1V99Z" fill="#E36458"/>
<path d="M131.4 163.3H122.1V172.6H131.4V163.3Z" fill="#3C4043"/>
<path d="M131.4 181.1H122.1V190.4H131.4V181.1Z" fill="#3C4043"/>
<path d="M178.2 99H168V109.2H178.2V99Z" fill="#E36458"/>
<path d="M209.885 172.88L210.909 173.976C208.423 176.3 205.582 178.792 202.66 181.354C201.957 181.971 201.248 182.592 200.539 183.216C196.872 186.442 193.171 189.752 189.892 193.015C189.415 193.49 188.68 193.589 188.094 193.257L185.698 191.898C185.29 191.667 185.014 191.258 184.951 190.793C184.889 190.329 185.047 189.861 185.379 189.53C191.861 183.079 199.896 175.563 205.976 169.876L206.54 169.348L206.541 169.348C206.952 168.963 207.356 168.586 207.75 168.218C209.779 166.322 211.558 164.659 212.961 163.32L212.964 163.316C216.475 159.984 220.145 155.72 224.094 151.126L224.094 151.126L224.173 151.034C231.298 142.748 239.588 133.106 248.642 127.737L248.643 127.737C258.192 122.081 266.488 125.468 269.273 126.949C275.382 126.857 279.668 129.779 282.198 132.269C284.013 134.056 285.354 136.042 286.137 137.689C288.136 138.497 289.952 139.706 291.556 141.286C294.679 144.36 296.77 148.674 297.171 152.853C303.711 161.389 302.388 172.448 294.284 183.075L294.283 183.077C288.798 190.254 282.664 196.058 276.826 201.581L276.767 201.637L276.767 201.637L276.594 201.8C271.701 206.433 267.176 210.718 263.517 215.359L263.516 215.36C252.04 229.892 242.796 240.053 239.908 243.176C239.633 243.474 239.248 243.647 238.842 243.657C238.437 243.666 238.044 243.511 237.755 243.226L235.359 240.867C234.781 240.299 234.76 239.374 235.31 238.779C238.196 235.662 247.302 225.646 258.599 211.328L258.6 211.327C262.565 206.307 267.369 201.76 272.365 197.042C278.179 191.546 284.091 185.956 289.301 179.119C290.97 176.926 293.477 173.109 294.618 168.778C295.746 164.498 295.524 159.832 291.935 155.623L291.931 155.617C291.449 155.047 291.15 154.317 291.134 153.561C291.076 150.788 289.656 147.558 287.486 145.421C286.261 144.215 284.865 143.4 283.321 142.966C282.13 142.642 281.177 141.658 280.902 140.45C280.902 140.45 280.9 140.44 280.893 140.417C280.885 140.394 280.875 140.361 280.859 140.319C280.828 140.234 280.783 140.125 280.723 139.992C280.601 139.725 280.425 139.387 280.191 139.002C279.723 138.231 279.039 137.302 278.127 136.405C276.398 134.703 273.496 132.786 269.26 133.068C268.526 133.125 267.82 132.906 267.243 132.514C266.918 132.305 260.318 128.185 252.092 133.058L209.885 172.88ZM209.885 172.88L210.909 173.976C211.322 173.59 211.727 173.211 212.123 172.841C214.155 170.942 215.951 169.263 217.365 167.913C221.09 164.371 224.896 159.949 228.858 155.347L228.862 155.342L228.863 155.341M209.885 172.88L228.863 155.341M228.863 155.341C236.327 146.659 243.84 137.95 252.092 133.058L228.863 155.341Z" fill="#E36458" stroke="#E26559" stroke-width="3" stroke-linejoin="round"/>
<path d="M239 239C234 245 231 258.5 231 266" stroke="#E26559" stroke-width="9" stroke-linecap="round"/>
<path d="M314.166 153.831C321.871 167.177 317.298 184.243 303.952 191.948" stroke="#3C4043" stroke-width="8" stroke-linecap="round"/>
<path d="M329.835 148C340.991 167.324 334.371 192.033 315.047 203.19" stroke="#3C4043" stroke-width="8" stroke-linecap="round"/>
<path d="M279 41.296C279 40.1914 279.895 39.296 281 39.296H288.543C289.648 39.296 290.543 40.1914 290.543 41.296V52.92C290.543 54.0246 291.439 54.92 292.543 54.92H302.362C303.466 54.92 304.362 54.0246 304.362 52.92V41.296C304.362 40.1914 305.257 39.296 306.362 39.296H313.905C315.01 39.296 315.905 40.1914 315.905 41.296V76.552C315.905 77.6566 315.01 78.552 313.905 78.552H306.362C305.257 78.552 304.362 77.6566 304.362 76.552V65.936C304.362 64.8314 303.466 63.936 302.362 63.936H292.543C291.439 63.936 290.543 64.8314 290.543 65.936V76.552C290.543 77.6566 289.648 78.552 288.543 78.552H281C279.895 78.552 279 77.6566 279 76.552V41.296Z" fill="#E26559"/>
<path d="M336.172 47.696C341.13 47.696 344.996 49.1893 347.771 52.176C350.546 55.1253 351.933 59.176 351.933 64.328C351.933 65.3141 351.126 66.064 350.14 66.064H334.267C332.923 66.064 331.943 67.4063 332.773 68.4632C333.057 68.8257 333.376 69.146 333.731 69.424C334.766 70.208 336.006 70.6 337.449 70.6C339.238 70.6 340.963 70.0278 342.621 68.8834C343.501 68.2766 344.706 68.2795 345.465 69.0311L348.589 72.1234C349.344 72.8708 349.392 74.0904 348.594 74.7922C347.289 75.9411 345.793 76.8584 344.108 77.544C341.852 78.4773 339.317 78.944 336.505 78.944C333.176 78.944 330.29 78.3093 327.848 77.04C325.406 75.7333 323.519 73.9227 322.187 71.608C320.892 69.256 320.245 66.5307 320.245 63.432C320.245 60.296 320.911 57.552 322.243 55.2C323.575 52.8107 325.443 50.9627 327.848 49.656C330.253 48.3493 333.028 47.696 336.172 47.696ZM338.883 60.52C339.968 60.52 340.909 59.6306 340.593 58.5922C340.392 57.929 340.065 57.3396 339.613 56.824C338.762 55.8533 337.652 55.368 336.283 55.368C334.988 55.368 333.916 55.8347 333.065 56.768C332.68 57.1903 332.351 57.6775 332.08 58.2296C331.527 59.3544 332.504 60.52 333.757 60.52H338.883Z" fill="#E26559"/>
<path d="M356.671 39C356.671 37.8954 357.567 37 358.671 37H365.882C366.986 37 367.882 37.8954 367.882 39V76.552C367.882 77.6566 366.986 78.552 365.882 78.552H358.671C357.567 78.552 356.671 77.6566 356.671 76.552V39Z" fill="#E26559"/>
<path d="M375.26 39C375.26 37.8954 376.156 37 377.26 37H384.471C385.575 37 386.471 37.8954 386.471 39V76.552C386.471 77.6566 385.575 78.552 384.471 78.552H377.26C376.156 78.552 375.26 77.6566 375.26 76.552V39Z" fill="#E26559"/>
<path d="M408.057 47.696C411.423 47.696 414.365 48.3493 416.88 49.656C419.396 50.9253 421.339 52.736 422.708 55.088C424.113 57.44 424.816 60.184 424.816 63.32C424.816 66.4187 424.113 69.1627 422.708 71.552C421.339 73.904 419.396 75.7333 416.88 77.04C414.365 78.3093 411.423 78.944 408.057 78.944C404.69 78.944 401.73 78.3093 399.177 77.04C396.661 75.7333 394.7 73.904 393.295 71.552C391.926 69.1627 391.241 66.4187 391.241 63.32C391.241 60.184 391.926 57.44 393.295 55.088C394.7 52.736 396.661 50.9253 399.177 49.656C401.73 48.3493 404.69 47.696 408.057 47.696ZM408.057 56.656C406.392 56.656 405.06 57.2907 404.061 58.56C403.062 59.792 402.562 61.416 402.562 63.432C402.562 65.4853 403.062 67.128 404.061 68.36C405.06 69.592 406.392 70.208 408.057 70.208C409.684 70.208 410.998 69.592 411.997 68.36C412.996 67.128 413.495 65.4853 413.495 63.432C413.495 61.416 412.996 59.792 411.997 58.56C410.998 57.2907 409.684 56.656 408.057 56.656Z" fill="#E26559"/>
<path d="M428.345 41.408C428.345 40.3034 429.24 39.408 430.345 39.408H437C438.105 39.408 439 40.3034 439 41.408V49.6L437.284 62.8096C437.155 63.8062 436.306 64.552 435.301 64.552H432.093C431.091 64.552 430.243 63.8102 430.111 62.8169L428.345 49.6V41.408ZM433.45 68.472C435.004 68.472 436.262 68.9573 437.224 69.928C438.223 70.8987 438.723 72.1493 438.723 73.68C438.723 75.248 438.223 76.536 437.224 77.544C436.262 78.5147 435.004 79 433.45 79C431.933 79 430.676 78.5147 429.677 77.544C428.715 76.536 428.234 75.248 428.234 73.68C428.234 72.1493 428.715 70.8987 429.677 69.928C430.676 68.9573 431.933 68.472 433.45 68.472Z" fill="#E26559"/>
<path fill-rule="evenodd" clip-rule="evenodd" d="M248.475 62.5233L248.275 62.6233C233.075 68.8233 219.575 74.3233 212.075 97.6233C211.875 98.3233 212.075 99.1233 212.675 99.5233C213.075 99.7233 213.475 99.7233 213.675 99.4233C213.675 99.4233 228.875 84.2233 248.075 81.5233C248.175 82.7233 248.375 83.8233 248.475 84.9233C249.175 92.1233 249.775 97.9233 255.275 102.023C260.375 105.823 283.075 108.023 311.175 109.323C359.475 111.423 423.575 110.823 439.575 110.423C446.175 110.223 451.675 108.923 455.975 106.723C460.675 104.423 463.975 101.023 465.975 97.0233C467.975 92.7233 468.975 84.3233 469.275 74.3233C469.575 62.4233 468.975 48.3233 467.775 36.8233C466.975 28.6233 465.875 22.6233 460.975 18.0233C456.275 13.5233 448.175 10.4233 433.275 7.92329C408.375 3.72329 370.275 2.42327 336.475 3.22327C301.475 4.12328 270.975 7.32327 264.275 12.2233C249.475 23.0233 248.875 46.7233 248.575 60.3233C248.475 61.0233 248.475 61.8233 248.475 62.5233ZM248.975 65.3233L249.775 65.0233C250.175 64.8233 250.475 64.4233 250.475 63.8233C250.475 63.0233 250.575 61.8233 250.575 60.6233C250.875 47.6233 251.375 24.8233 265.275 14.8233C271.775 10.1233 301.875 7.02328 336.575 6.22327C370.275 5.42327 408.275 6.72331 433.075 10.8233C447.575 13.2233 455.375 16.1233 459.775 20.4233C463.975 24.4233 464.975 29.8233 465.675 37.2233C466.775 48.6233 467.475 62.5233 467.175 74.2233C466.875 83.7233 465.975 91.7233 464.175 95.5233C462.475 99.1233 459.475 102.023 455.175 104.223C450.975 106.323 445.675 107.523 439.375 107.723C423.375 108.123 359.275 108.823 311.075 106.623C283.375 105.423 260.975 103.223 256.175 99.7233C251.675 96.3233 251.075 91.1233 250.475 84.8233C250.275 83.2233 250.175 81.5233 249.875 79.9233C249.775 79.2233 249.275 78.6233 248.675 78.7233C233.875 80.4233 221.275 89.4233 215.575 94.2233C223.075 75.9233 235.275 70.9233 248.975 65.3233Z" fill="#3C4043" stroke="#3C4043" stroke-width="5"/>
<mask id="mask0" mask-type="alpha" maskUnits="userSpaceOnUse" x="254" y="113" width="16" height="25">
<rect x="254" y="115.509" width="12.4996" height="22.0231" rx="1" transform="rotate(-7.58431 254 115.509)" fill="#C4C4C4"/>
</mask>
<g mask="url(#mask0)">
<path d="M257.967 126.39L263.273 118.749C263.879 117.875 265.706 118.463 265.77 119.525C265.967 122.785 266.43 126.813 266.738 129.125C267.006 131.891 266.225 136.999 260.955 135.299C255.685 133.599 256.767 128.651 257.967 126.39Z" fill="#3C4043"/>
<path d="M277.381 131.01C279.338 128.453 280.268 125.165 281.337 122.65C281.603 122.023 282.409 121.906 282.816 122.452C287.561 128.832 285.131 139.968 282.528 141.734C279.774 143.602 274.917 140.946 273.718 138.704C272.519 136.462 275.591 133.35 277.381 131.01Z" fill="#3C4043"/>
<path d="M284.474 145.078C283.483 146.651 284.144 148.424 285.5 149.144C287.762 150.344 289.237 150.148 291.145 148.693C293.053 147.238 294.941 143.384 295.473 140.611C295.928 138.239 295.251 135.623 294.565 133.969C294.301 133.332 293.49 133.274 293.063 133.816C290.131 137.541 285.37 143.657 284.474 145.078Z" fill="#3C4043"/>
<path d="M295.151 155.365C292.146 156.246 292.01 159.586 292.318 161.147C293.875 167.425 299.791 163.154 301.286 160.853C302.513 158.965 303.29 156.732 303.334 154.525C303.347 153.827 302.593 153.433 301.936 153.669C300.122 154.32 298.17 154.481 295.151 155.365Z" fill="#3C4043"/>
<path d="M298.65 168.11C296.919 168.64 296.204 170.037 296.309 170.823C296.898 175.248 301.756 173.401 302.779 172.063C303.536 171.073 304.068 168.797 304.117 166.974C304.137 166.214 303.253 165.874 302.602 166.264C301.405 166.982 299.808 167.754 298.65 168.11Z" fill="#3C4043"/>
</g>
<mask id="mask1" mask-type="alpha" maskUnits="userSpaceOnUse" x="267" y="117" width="27" height="34">
<rect x="267.156" y="118.833" width="24.4039" height="31.5466" transform="rotate(-3.02406 267.156 118.833)" fill="#C4C4C4"/>
</mask>
<g mask="url(#mask1)">
<path d="M254.586 122.478L260.482 115.283C261.156 114.46 262.931 115.192 262.91 116.255C262.846 119.52 262.988 123.573 263.111 125.902C263.158 128.681 261.974 133.71 256.855 131.597C251.737 129.483 253.209 124.637 254.586 122.478Z" fill="#3C4043"/>
<path d="M273.571 128.627C275.724 126.234 276.913 123.03 278.178 120.608C278.494 120.004 279.307 119.951 279.668 120.528C283.891 127.265 280.584 138.173 277.848 139.726C274.955 141.369 270.324 138.336 269.307 136.005C268.29 133.675 271.6 130.818 273.571 128.627Z" fill="#3C4043"/>
<path d="M279.523 143.214C278.409 144.703 278.927 146.524 280.222 147.349C282.381 148.726 283.867 148.647 285.885 147.348C287.902 146.05 290.091 142.358 290.842 139.636C291.484 137.308 291.017 134.646 290.465 132.943C290.252 132.287 289.448 132.165 288.98 132.671C285.761 136.151 280.528 141.869 279.523 143.214Z" fill="#3C4043"/>
<path d="M289.348 154.318C286.282 154.957 285.882 158.276 286.064 159.856C287.117 166.238 293.354 162.451 295.027 160.276C296.401 158.492 297.352 156.328 297.571 154.131C297.641 153.436 296.92 152.983 296.246 153.166C294.386 153.671 292.428 153.676 289.348 154.318Z" fill="#3C4043"/>
<path d="M291.822 167.3C290.055 167.692 289.231 169.027 289.273 169.819C289.509 174.277 294.498 172.821 295.624 171.57C296.458 170.643 297.168 168.416 297.362 166.602C297.443 165.847 296.589 165.437 295.908 165.775C294.659 166.395 293.006 167.038 291.822 167.3Z" fill="#3C4043"/>
</g>
<mask id="mask2" mask-type="alpha" maskUnits="userSpaceOnUse" x="285" y="145" width="18" height="25">
<rect x="285.264" y="147.374" width="14.8805" height="22.6183" rx="1" transform="rotate(-7.58431 285.264 147.374)" fill="#C4C4C4"/>
</mask>
<g mask="url(#mask2)">
<path d="M253.206 120.418L258.512 112.777C259.119 111.903 260.946 112.491 261.01 113.553C261.206 116.813 261.669 120.842 261.977 123.153C262.245 125.92 261.465 131.028 256.194 129.328C250.924 127.627 252.006 122.68 253.206 120.418Z" fill="#3C4043"/>
<path d="M272.621 125.039C274.577 122.482 275.507 119.193 276.576 116.678C276.842 116.051 277.649 115.934 278.055 116.481C282.8 122.86 280.371 133.996 277.767 135.762C275.013 137.63 270.156 134.974 268.957 132.732C267.758 130.49 270.831 127.379 272.621 125.039Z" fill="#3C4043"/>
<path d="M279.714 139.106C278.722 140.679 279.383 142.453 280.74 143.173C283.001 144.373 284.476 144.176 286.384 142.721C288.292 141.266 290.181 137.412 290.712 134.639C291.167 132.267 290.49 129.651 289.804 127.997C289.54 127.361 288.729 127.303 288.303 127.844C285.37 131.569 280.609 137.685 279.714 139.106Z" fill="#3C4043"/>
<path d="M290.391 149.394C287.385 150.274 287.25 153.615 287.558 155.175C289.114 161.453 295.03 157.182 296.526 154.882C297.753 152.994 298.529 150.761 298.573 148.553C298.587 147.855 297.832 147.461 297.175 147.697C295.361 148.348 293.409 148.509 290.391 149.394Z" fill="#3C4043"/>
<path d="M293.889 162.138C292.158 162.669 291.443 164.065 291.548 164.852C292.137 169.277 296.995 167.429 298.018 166.092C298.776 165.102 299.307 162.825 299.356 161.002C299.377 160.243 298.492 159.902 297.841 160.293C296.644 161.01 295.048 161.783 293.889 162.138Z" fill="#3C4043"/>
</g>
<path d="M257.756 142.41C253.743 142.374 252.086 146.752 251.76 148.945C251.145 151.563 252.193 153.771 252.794 154.548C253.389 155.417 254.866 157.892 256.014 160.845C257.45 164.536 260.05 167.471 261.663 168.405C263.276 169.339 270.926 171.768 274.542 167.571C277.434 164.213 275.628 159.336 274.364 157.317L263.776 144.18C263.441 143.605 261.768 142.446 257.756 142.41Z" fill="#3C4043"/>
<path d="M246.047 151.07C244.52 150.529 242.378 151.757 241.498 152.439C233.783 159.695 234.658 167.779 234.587 168.881C234.517 169.984 235.309 175.018 239.037 177.749C242.765 180.479 246.9 176.869 248.778 173.668C250.657 170.467 250.178 164.9 249.469 162.916C248.901 161.33 248.094 156.83 247.761 154.779C247.826 153.768 247.574 151.611 246.047 151.07Z" fill="#3C4043"/>
<path d="M276.474 176.554C275.241 174.924 272.861 174.937 271.825 175.148C268.365 176.919 264.354 177.159 262.78 177.058C261.033 176.762 256.678 176.556 253.233 178.106C248.927 180.044 247.462 185.487 250.511 190.112C253.559 194.737 260.59 193.804 264.323 192.106C268.057 190.408 274.626 183.632 275.53 182.583C276.433 181.534 278.016 178.59 276.474 176.554Z" fill="#3C4043"/>
</svg>
