<svg width="1167" height="196" viewBox="0 0 1167 196" fill="none" xmlns="http://www.w3.org/2000/svg">
<circle cx="713.5" cy="97.5" r="95.5" fill="#FFD5D1"/>
<circle cx="715" cy="98" r="95.5" stroke="#E26559" stroke-width="5"/>
<path d="M702.954 122.343L702.954 122.343L702.952 122.341C702.518 121.907 701.901 121.661 701.284 121.661H662.722C661.483 121.661 660.432 122.712 660.432 123.951V129.452C660.432 133.677 663.943 137.125 668.223 137.125H765.357C769.638 137.125 773.147 133.677 773.206 129.453V129.452V123.951C773.206 122.714 772.216 121.661 770.916 121.661H732.355C731.116 121.661 730.065 122.712 730.065 123.951C730.065 125.188 731.055 126.241 732.355 126.241H768.626V129.452C768.626 131.191 767.167 132.545 765.416 132.545H668.281C666.475 132.545 665.071 131.135 665.071 129.452V126.241H700.353L703.124 129.129L703.126 129.13C703.56 129.564 704.178 129.811 704.794 129.811H726.855C728.094 129.811 729.145 128.76 729.145 127.521C729.145 126.283 728.155 125.231 726.855 125.231H705.725L702.954 122.343Z" fill="#E26559" stroke="#E26559" stroke-width="0.25"/>
<path d="M763.418 123.951C763.418 125.188 764.408 126.241 765.708 126.241C767.006 126.241 767.998 125.249 767.998 123.951V66.7825C767.998 62.4418 764.432 58.875 760.091 58.875H673.489C669.149 58.875 665.582 62.4418 665.582 66.7825V117.69C665.582 118.93 666.633 119.98 667.872 119.98C669.111 119.98 670.162 118.93 670.162 117.69V66.7825C670.162 64.979 671.686 63.4551 673.489 63.4551H760.091C761.894 63.4551 763.418 64.979 763.418 66.7825V123.951Z" fill="#E26559" stroke="#E26559" stroke-width="0.25"/>
<path d="M667.872 73.53H758.979C760.219 73.53 761.269 72.4793 761.269 71.24C761.269 70.0029 760.279 68.95 758.979 68.95H667.872C666.633 68.95 665.582 70.0007 665.582 71.24C665.582 72.4793 666.633 73.53 667.872 73.53Z" fill="#E26559" stroke="#E26559" stroke-width="0.25"/>
<circle cx="97.5" cy="97.5" r="95.5" fill="#FFD5D1"/>
<circle cx="98" cy="98" r="95.5" stroke="#E26559" stroke-width="5"/>
<path d="M123.429 127.903V127.912L123.429 127.921C123.484 130.939 121.009 133.427 117.97 133.427H40.5245C37.4883 133.427 35 130.939 35 127.903V71.0097C35 67.9735 37.4883 65.4852 40.5245 65.4852H117.904C120.941 65.4852 123.429 67.9735 123.429 71.0097V100.304C123.429 101.105 122.785 101.718 122.015 101.718C121.262 101.718 120.601 101.057 120.601 100.304V71.0097C120.601 69.544 119.37 68.3133 117.904 68.3133H40.5245C39.0587 68.3133 37.8281 69.544 37.8281 71.0097V127.903C37.8281 129.369 39.0588 130.599 40.5245 130.599H117.904C119.37 130.599 120.601 129.369 120.601 127.903V107.808C120.601 107.007 121.245 106.394 122.015 106.394C122.767 106.394 123.429 107.055 123.429 107.808V127.903Z" fill="#E26559" stroke="#E26559" stroke-width="2"/>
<path d="M93.8942 145.237H64.4689C63.6687 145.237 63.0549 144.594 63.0549 143.823C63.0549 143.023 63.6987 142.409 64.4689 142.409H93.8942C94.6945 142.409 95.3082 143.053 95.3082 143.823C95.3082 144.594 94.6945 145.237 93.8942 145.237Z" fill="#E26559" stroke="#E26559" stroke-width="2"/>
<path d="M70.5271 145.223L70.468 145.203L70.407 145.191C69.6514 145.04 69.169 144.284 69.3541 143.543L69.3564 143.534L69.3586 143.525L70.6634 137.848L70.6666 137.835L70.6694 137.821C70.8206 137.065 71.5765 136.583 72.3171 136.768L72.3402 136.773L72.3635 136.778C73.119 136.929 73.6015 137.685 73.4163 138.426L73.414 138.435L73.4119 138.444L72.1082 144.116C72.108 144.116 72.1078 144.117 72.1076 144.118C71.9493 144.786 71.3649 145.237 70.7328 145.237C70.6812 145.237 70.6487 145.237 70.62 145.236C70.5934 145.235 70.5793 145.234 70.5713 145.233L70.5705 145.233C70.5634 145.233 70.5542 145.232 70.5271 145.223Z" fill="#E26559" stroke="#E26559" stroke-width="2"/>
<path d="M86.2684 144.115L86.2654 144.097L86.2617 144.079L83.8486 132.274C83.8484 132.274 83.8483 132.273 83.8482 132.273C83.694 131.496 84.2068 130.73 84.9562 130.58C85.7329 130.425 86.5002 130.938 86.6502 131.688L86.6502 131.688L86.651 131.692L89.0642 143.497C89.0644 143.498 89.0645 143.498 89.0646 143.499C89.2143 144.252 88.7356 144.996 88.0221 145.176C87.883 145.186 87.7708 145.209 87.7077 145.221C87.7035 145.222 87.6995 145.223 87.6957 145.224C87.6508 145.233 87.6315 145.236 87.6252 145.237C86.9657 145.234 86.3768 144.766 86.2684 144.115Z" fill="#E26559" stroke="#E26559" stroke-width="2"/>
<path d="M122.08 122.597H43.656C42.8557 122.597 42.2419 121.953 42.2419 121.183C42.2419 120.383 42.8857 119.769 43.656 119.769H122.08C122.88 119.769 123.494 120.413 123.494 121.183C123.494 121.954 122.88 122.597 122.08 122.597Z" fill="#E26559" stroke="#E26559" stroke-width="2"/>
<path d="M153.985 145.237H114.12C111.794 145.237 109.836 143.328 109.836 140.952V139.517C109.836 138.716 110.479 138.103 111.25 138.103C112.05 138.103 112.664 138.746 112.664 139.517V140.952C112.664 141.765 113.307 142.409 114.12 142.409H153.985C154.604 142.409 155.572 141.993 155.572 140.952V52.2848C155.572 51.2436 154.604 50.8281 153.985 50.8281H114.12C113.307 50.8281 112.664 51.4716 112.664 52.2848V59.2659C112.664 60.0663 112.02 60.68 111.25 60.68C110.449 60.68 109.836 60.0362 109.836 59.2659V52.2848C109.836 49.9583 111.745 48 114.12 48H153.985C156.466 48 158.4 49.8675 158.4 52.2848V140.94C158.341 143.333 156.434 145.237 153.985 145.237Z" fill="#E26559" stroke="#E26559" stroke-width="2"/>
<path d="M134.019 133.427C131.003 133.427 128.625 131.024 128.625 127.903C128.625 124.781 131.003 122.378 134.019 122.378C134.82 122.378 135.433 123.022 135.433 123.792C135.433 124.545 134.772 125.206 134.019 125.206C132.476 125.206 131.454 126.453 131.454 127.903C131.454 129.352 132.476 130.599 134.019 130.599C135.485 130.599 136.716 129.369 136.716 127.903C136.716 127.102 137.36 126.489 138.13 126.489C138.93 126.489 139.544 127.132 139.544 127.903C139.544 130.939 137.056 133.427 134.019 133.427Z" fill="#E26559" stroke="#E26559" stroke-width="2"/>
<path d="M146.677 72.7933H147.677V71.7933V69.2488V68.2488H146.677H130.04C129.239 68.2488 128.625 67.605 128.625 66.8347C128.625 66.0821 129.287 65.4207 130.04 65.4207H149.091C149.891 65.4207 150.505 66.0644 150.505 66.8347V74.2073C150.505 75.0252 149.909 75.6214 149.091 75.6214H130.04C129.239 75.6214 128.625 74.9777 128.625 74.2073C128.625 73.407 129.269 72.7933 130.04 72.7933H146.677Z" fill="#E26559" stroke="#E26559" stroke-width="2"/>
<path d="M156.92 86.7127H130.04C129.239 86.7127 128.625 86.069 128.625 85.2987C128.625 84.4983 129.269 83.8846 130.04 83.8846H156.92C157.721 83.8846 158.334 84.5283 158.334 85.2987C158.334 86.1165 157.738 86.7127 156.92 86.7127Z" fill="#E26559" stroke="#E26559" stroke-width="2"/>
<path d="M156.92 114.637H130.04C129.239 114.637 128.625 113.994 128.625 113.223C128.625 112.471 129.287 111.809 130.04 111.809H156.92C157.721 111.809 158.334 112.453 158.334 113.223C158.334 113.994 157.721 114.637 156.92 114.637Z" fill="#E26559" stroke="#E26559" stroke-width="2"/>
<path d="M126.19 53.5677C125.39 53.5677 124.776 52.924 124.776 52.1536V49.4786C124.776 48.6783 125.42 48.0646 126.19 48.0646C126.991 48.0646 127.604 48.7083 127.604 49.4786V52.1536C127.604 52.9715 127.008 53.5677 126.19 53.5677Z" fill="#E26559" stroke="#E26559" stroke-width="2"/>
<path d="M134.019 53.5677C133.219 53.5677 132.605 52.924 132.605 52.1536V49.4786C132.605 48.6783 133.249 48.0646 134.019 48.0646C134.772 48.0646 135.434 48.726 135.434 49.4786V52.1536C135.434 52.9715 134.837 53.5677 134.019 53.5677Z" fill="#E26559" stroke="#E26559" stroke-width="2"/>
<path d="M141.98 53.5677C141.179 53.5677 140.565 52.9239 140.565 52.1536V49.4786C140.565 48.6783 141.209 48.0646 141.98 48.0646C142.732 48.0646 143.394 48.726 143.394 49.4786V52.1536C143.394 52.9715 142.797 53.5677 141.98 53.5677Z" fill="#E26559" stroke="#E26559" stroke-width="2"/>
<path d="M149.091 100.675H130.04C129.239 100.675 128.625 100.031 128.625 99.2607C128.625 98.5081 129.287 97.8467 130.04 97.8467H149.091C149.891 97.8467 150.505 98.4904 150.505 99.2607C150.505 100.031 149.891 100.675 149.091 100.675Z" fill="#E26559" stroke="#E26559" stroke-width="2"/>
<circle cx="193.253" cy="146.253" r="47.2628" fill="#FFD5D1"/>
<mask id="mask0" mask-type="alpha" maskUnits="userSpaceOnUse" x="145" y="98" width="96" height="96">
<circle cx="193.253" cy="146.253" r="46.7628" fill="#EACFFF" stroke="#E26559"/>
</mask>
<g mask="url(#mask0)">
<path d="M184.345 167.533V194.257L200.676 196.732L218.245 190.051L217.008 180.153L212.554 176.936L207.605 175.946H201.666V167.533L206.862 162.584L210.327 157.882L208.347 149.717L204.388 142.788L198.202 136.602L192.015 133.138L185.582 130.663H178.406H175.189L174.447 144.52L171.725 145.263L168.508 147.985V151.449L169.745 154.666L168.508 156.893L170.735 158.625H172.962L174.447 156.893L175.189 158.625L176.921 160.604L184.345 167.533Z" fill="white"/>
<path fill-rule="evenodd" clip-rule="evenodd" d="M174.954 130.416H185.628L192.121 132.913L198.352 136.403L204.586 142.637L208.579 149.624L210.594 157.936L207.049 162.748L201.913 167.639V175.699H207.629L212.655 176.704L217.24 180.015L218.515 190.213L200.703 196.986L184.097 194.47V167.641L176.743 160.777L174.977 158.758L174.376 157.356L173.076 158.872H170.65L168.188 156.958L169.473 154.647L168.26 151.495V147.87L171.607 145.038L174.209 144.329L174.954 130.416ZM175.423 130.911L174.684 144.712L171.843 145.487L168.755 148.099V151.403L170.017 154.685L168.827 156.828L170.82 158.377H172.848L174.517 156.43L175.401 158.491L177.099 160.432L184.592 167.425V194.045L200.649 196.478L217.975 189.889L216.776 180.29L212.452 177.168L207.58 176.194H201.418V167.427L206.676 162.42L210.059 157.829L208.115 149.809L204.189 142.94L198.051 136.801L191.91 133.362L185.536 130.911H175.423Z" fill="#E26559"/>
<path d="M164.301 193.763H184.592V168.028L176.673 160.357L175.436 157.388L172.467 158.872H170.735L169.745 156.398L170.735 154.418L169.003 150.706L169.745 146.5L172.467 145.263L175.436 144.273V130.416H183.602L192.263 132.89L200.181 137.839L206.862 146.5L211.069 156.398L210.327 158.872L202.656 167.038V171.74H204.388L210.327 168.028L215.028 164.316L219.482 157.388L222.204 148.727L221.709 139.076L219.482 132.148L215.77 125.714L206.862 119.528L200.923 116.311L191.273 115.816L181.87 118.538L172.467 124.229L166.776 133.632L164.301 145.263V193.763Z" fill="#FFD5D1"/>
<path fill-rule="evenodd" clip-rule="evenodd" d="M191.244 115.567L200.992 116.067L206.992 119.317L215.957 125.543L219.71 132.047L221.955 139.032L222.454 148.759L219.708 157.494L215.214 164.485L210.469 168.231L204.459 171.987H202.408V166.94L210.106 158.745L210.806 156.412L206.647 146.626L200.012 138.026L192.161 133.119L183.568 130.663H175.684V144.451L172.558 145.493L169.966 146.671L169.26 150.673L171.01 154.422L170.016 156.409L170.902 158.625H172.409L175.563 157.048L176.882 160.215L184.839 167.923V194.01H164.054V145.237L166.542 133.54L172.287 124.049L181.77 118.31L191.244 115.567ZM191.302 116.066L181.97 118.767L172.647 124.41L167.009 133.725L164.549 145.289V193.515H184.345V168.133L176.465 160.499L175.31 157.728L172.525 159.12H170.567L169.474 156.387L170.46 154.415L168.745 150.74L169.524 146.329L172.376 145.032L175.189 144.095V130.168H183.637L192.364 132.662L200.35 137.653L207.078 146.374L211.332 156.383L210.547 158.999L202.903 167.136V171.492H204.317L210.184 167.825L214.842 164.148L219.256 157.282L221.955 148.695L221.464 139.121L219.255 132.249L215.584 125.886L206.733 119.739L200.855 116.555L191.302 116.066Z" fill="#E26559"/>
<path fill-rule="evenodd" clip-rule="evenodd" d="M205.567 119.849C199.444 116.788 186.611 115.132 176.437 122.941C172.409 126.032 169.78 130.295 168.135 134.424C166.494 138.545 165.866 142.451 165.786 144.746V193.719H163.311V144.703L163.312 144.682C163.399 142.108 164.084 137.909 165.836 133.509C167.59 129.105 170.446 124.419 174.93 120.978C186.037 112.454 199.928 114.263 206.673 117.636C213.34 120.969 223.441 128.985 223.441 144.724C223.441 160.431 213.621 169.495 204.571 172.856L204.552 172.863L204.532 172.87C204.256 172.962 203.533 173.185 202.708 173.391L202.108 170.991C202.846 170.806 203.493 170.607 203.73 170.529C211.996 167.451 220.967 159.195 220.967 144.724C220.967 130.275 211.767 122.949 205.567 119.849Z" fill="#E26559"/>
<path fill-rule="evenodd" clip-rule="evenodd" d="M201.171 166.747H203.645V174.418H208.842C211.032 174.418 213.668 175.417 215.778 177.181C217.915 178.967 219.616 181.628 219.729 185.017L219.73 185.038V193.719H217.255V185.08C217.164 182.54 215.898 180.506 214.191 179.079C212.453 177.627 210.363 176.893 208.842 176.893H201.171V166.747Z" fill="#E26559"/>
<path fill-rule="evenodd" clip-rule="evenodd" d="M176.673 131.911V154.622C176.673 158.484 178.206 160.247 178.62 160.537L178.685 160.582L178.743 160.635C180.541 162.27 185.116 166.223 189.013 168.951C192.375 171.304 196.066 169.949 197.492 168.951C202.34 165.557 207.384 161.628 209.783 157.366C208.735 150.8 204.676 142.205 195.3 136.111C188.385 131.616 180.517 131.388 176.673 131.911ZM175.183 129.656C178.956 128.866 188.385 128.665 196.649 134.037C206.877 140.685 211.259 150.173 212.294 157.417L212.35 157.813L212.164 158.168C209.529 163.174 203.829 167.535 198.911 170.978C197.037 172.289 192.151 174.168 187.594 170.978C183.61 168.189 178.995 164.205 177.13 162.513C175.899 161.598 174.199 158.989 174.199 154.622V129.862L175.183 129.656Z" fill="#E26559"/>
<path fill-rule="evenodd" clip-rule="evenodd" d="M172.463 143.489C173.555 143.201 174.64 143.198 175.367 143.303L175.011 145.752C174.581 145.69 173.834 145.686 173.093 145.882C172.356 146.076 171.757 146.429 171.402 146.971C170.229 148.758 169.975 151.768 171.896 154.068L171.912 154.088L172.314 154.613L170.349 156.117L169.979 155.633C167.289 152.391 167.647 148.184 169.333 145.613C170.135 144.39 171.368 143.778 172.463 143.489Z" fill="#E26559"/>
<path fill-rule="evenodd" clip-rule="evenodd" d="M171.972 157.839C172.655 157.839 173.209 157.285 173.209 156.602C173.209 155.919 172.655 155.365 171.972 155.365C171.289 155.365 170.735 155.919 170.735 156.602C170.735 157.285 171.289 157.839 171.972 157.839ZM171.972 160.314C174.022 160.314 175.684 158.652 175.684 156.602C175.684 154.552 174.022 152.89 171.972 152.89C169.922 152.89 168.26 154.552 168.26 156.602C168.26 158.652 169.922 160.314 171.972 160.314Z" fill="#E26559"/>
<path fill-rule="evenodd" clip-rule="evenodd" d="M183.355 193.719V166.995H185.829V193.719H183.355Z" fill="#E26559"/>
<path fill-rule="evenodd" clip-rule="evenodd" d="M205.13 184.811V175.903H207.605V184.811H205.13Z" fill="#E26559"/>
<path fill-rule="evenodd" clip-rule="evenodd" d="M218.492 186.048H184.839V183.574H218.492V186.048Z" fill="#E26559"/>
<path fill-rule="evenodd" clip-rule="evenodd" d="M184.592 146.456V150.416H188.551V146.456H184.592ZM183.602 143.982C182.782 143.982 182.117 144.647 182.117 145.467V151.405C182.117 152.225 182.782 152.89 183.602 152.89H189.541C190.361 152.89 191.025 152.225 191.025 151.405V145.467C191.025 144.647 190.361 143.982 189.541 143.982H183.602Z" fill="#E26559"/>
<path fill-rule="evenodd" clip-rule="evenodd" d="M198.449 146.456V150.416H202.408V146.456H198.449ZM197.459 143.982C196.639 143.982 195.974 144.647 195.974 145.467V151.405C195.974 152.225 196.639 152.89 197.459 152.89H203.398C204.218 152.89 204.883 152.225 204.883 151.405V145.467C204.883 144.647 204.218 143.982 203.398 143.982H197.459Z" fill="#E26559"/>
<path fill-rule="evenodd" clip-rule="evenodd" d="M188.174 160.426C188.659 159.944 189.442 159.947 189.924 160.431C190.527 161.038 191.637 161.777 192.921 161.987C194.126 162.185 195.58 161.938 197.077 160.431C197.558 159.947 198.342 159.944 198.826 160.426C199.311 160.908 199.313 161.691 198.832 162.176C196.766 164.255 194.507 164.755 192.521 164.429C190.612 164.117 189.05 163.063 188.169 162.176C187.687 161.691 187.689 160.908 188.174 160.426Z" fill="#E26559"/>
<path fill-rule="evenodd" clip-rule="evenodd" d="M190.444 155.745C190.78 155.15 191.535 154.941 192.13 155.278C192.575 155.53 193.804 155.881 194.87 155.278C195.465 154.941 196.22 155.15 196.556 155.745C196.893 156.34 196.684 157.095 196.089 157.431C193.988 158.62 191.785 157.926 190.911 157.431C190.316 157.095 190.107 156.34 190.444 155.745Z" fill="#E26559"/>
<path fill-rule="evenodd" clip-rule="evenodd" d="M182.365 140.518C182.365 139.834 182.919 139.28 183.602 139.28L190.036 139.28C190.719 139.28 191.273 139.834 191.273 140.518C191.273 141.201 190.719 141.755 190.036 141.755L183.602 141.755C182.919 141.755 182.365 141.201 182.365 140.518Z" fill="#E26559"/>
<path fill-rule="evenodd" clip-rule="evenodd" d="M195.727 140.518C195.727 139.834 196.281 139.28 196.964 139.28L201.913 139.28C202.597 139.28 203.151 139.834 203.151 140.518C203.151 141.201 202.597 141.755 201.913 141.755L196.964 141.755C196.281 141.755 195.727 141.201 195.727 140.518Z" fill="#E26559"/>
<path d="M183.571 145.931C183.571 145.658 183.793 145.436 184.066 145.436H186.541C186.814 145.436 187.036 145.658 187.036 145.931V148.406C187.036 148.679 186.814 148.9 186.541 148.9H184.066C183.793 148.9 183.571 148.679 183.571 148.406V145.931Z" fill="#E26559"/>
<path d="M197.429 145.931C197.429 145.658 197.65 145.436 197.924 145.436H200.398C200.671 145.436 200.893 145.658 200.893 145.931V148.406C200.893 148.679 200.671 148.9 200.398 148.9H197.924C197.65 148.9 197.429 148.679 197.429 148.406V145.931Z" fill="#E26559"/>
</g>
<path fill-rule="evenodd" clip-rule="evenodd" d="M193.5 191.577C218.395 191.577 238.577 171.395 238.577 146.5C238.577 121.605 218.395 101.423 193.5 101.423C168.605 101.423 148.423 121.605 148.423 146.5C148.423 171.395 168.605 191.577 193.5 191.577ZM193.5 194C219.734 194 241 172.734 241 146.5C241 120.266 219.734 99 193.5 99C167.266 99 146 120.266 146 146.5C146 172.734 167.266 194 193.5 194Z" fill="#E26559" stroke="#E26559" stroke-width="2"/>
<mask id="mask1" mask-type="alpha" maskUnits="userSpaceOnUse" x="312" y="2" width="191" height="191">
<circle cx="407.5" cy="97.5" r="95.5" fill="#CADCFF"/>
</mask>
<g mask="url(#mask1)">
<circle cx="407.5" cy="97.5" r="95.5" fill="#DFE6EC"/>
</g>
<circle cx="408" cy="98" r="95.5" stroke="#3C4043" stroke-width="5"/>
<mask id="mask2" mask-type="alpha" maskUnits="userSpaceOnUse" x="456" y="99" width="94" height="94">
<circle cx="503.258" cy="146.258" r="46.2883" fill="#CADCFF"/>
</mask>
<g mask="url(#mask2)">
<circle cx="503.258" cy="146.258" r="46.2883" fill="#DFE6EC"/>
<path d="M486.051 125.173L482.658 141.653L480.719 143.834L477.084 145.288V148.439L478.296 151.832L481.689 153.77H484.112L490.413 155.224L494.048 157.406L498.411 156.194L501.561 157.406L504.227 156.194L510.043 157.406L511.74 156.194L516.344 153.77H521.434L524.826 152.801L527.008 149.651V146.742L524.826 143.834L521.434 142.622V141.653L518.283 129.536H513.436L504.227 128.324L486.051 125.173Z" fill="white"/>
<path d="M477.084 178.49L475.388 185.033C477.165 186.487 480.719 189.541 480.719 190.122C480.719 190.704 485.405 193.273 487.747 194.485L519.495 192.788L528.946 187.214L527.977 179.702L526.038 176.066L520.707 173.158L513.436 172.673L508.589 173.158L501.561 176.066L494.775 172.673H489.929L484.112 173.158L479.265 175.097L477.084 178.49Z" fill="white"/>
<mask id="mask3" mask-type="alpha" maskUnits="userSpaceOnUse" x="456" y="99" width="94" height="94">
<circle cx="503.258" cy="146.258" r="46.2883" fill="#FF0606"/>
</mask>
<g mask="url(#mask3)">
<path d="M482.173 154.013L481.204 161.525L482.173 165.161L484.839 167.826L502.773 176.066L520.222 167.342L522.645 164.191V160.556L521.434 154.013L515.86 153.286L511.982 155.709L510.043 158.133L505.923 157.163H501.319H497.199H493.321L489.202 154.013L483.87 153.286L482.173 154.013Z" fill="#DFE6EC"/>
<path d="M479.023 127.112L482.173 139.714L485.809 124.689H483.87L480.477 125.416L479.023 127.112Z" fill="#DFE6EC"/>
<path fill-rule="evenodd" clip-rule="evenodd" d="M483.844 124.446H486.117L482.409 139.771L481.938 139.773L478.758 127.05L480.346 125.196L483.844 124.446ZM483.896 124.931L480.608 125.636L479.289 127.175L482.17 138.7L485.501 124.931H483.896ZM515.805 153.034L521.64 153.795L522.888 160.534V164.274L520.38 167.534L502.777 176.335L484.699 168.029L481.956 165.286L480.958 161.542L481.951 153.844L483.836 153.037L489.298 153.781L493.404 156.921H505.952L509.95 157.862L511.819 155.526L515.805 153.034ZM515.915 153.537L512.146 155.893L510.137 158.404L505.895 157.406H493.239L489.105 154.244L483.904 153.535L482.396 154.181L481.451 161.509L482.391 165.035L484.98 167.624L502.769 175.798L520.064 167.15L522.403 164.109V160.578L521.228 154.23L515.915 153.537Z" fill="#3C4043"/>
<path d="M505.439 111.844V109.421L495.987 111.844L489.686 117.903L486.293 123.234L487.99 125.416L510.043 129.293H518.768L521.676 140.441L526.038 127.354L530.158 124.931L527.492 120.569L521.676 115.722L522.403 112.571L520.222 111.844L512.467 110.875L505.439 111.844Z" fill="#DFE6EC"/>
<path fill-rule="evenodd" clip-rule="evenodd" d="M505.681 109.108V111.566L512.465 110.63L520.276 111.607L522.689 112.411L521.946 115.631L527.678 120.408L530.494 125.015L526.24 127.517L521.648 141.292L518.581 129.535H510.022L487.856 125.638L485.997 123.248L489.497 117.748L495.865 111.625L505.681 109.108ZM496.109 112.063L489.875 118.057L486.59 123.22L488.124 125.193L510.065 129.051H518.955L521.704 139.59L525.837 127.191L529.823 124.847L527.307 120.729L521.406 115.812L522.117 112.731L520.168 112.082L512.468 111.119L505.197 112.122V109.733L496.109 112.063Z" fill="#3C4043"/>
<path fill-rule="evenodd" clip-rule="evenodd" d="M493.321 144.803V148.681H497.199V144.803H493.321ZM492.352 142.38C491.549 142.38 490.898 143.031 490.898 143.834V149.65C490.898 150.453 491.549 151.104 492.352 151.104H498.168C498.971 151.104 499.622 150.453 499.622 149.65V143.834C499.622 143.031 498.971 142.38 498.168 142.38H492.352Z" fill="#3C4043"/>
<path fill-rule="evenodd" clip-rule="evenodd" d="M506.893 144.803V148.681H510.77V144.803H506.893ZM505.923 142.38C505.12 142.38 504.469 143.031 504.469 143.834V149.65C504.469 150.453 505.12 151.104 505.923 151.104H511.74C512.543 151.104 513.194 150.453 513.194 149.65V143.834C513.194 143.031 512.543 142.38 511.74 142.38H505.923Z" fill="#3C4043"/>
<path fill-rule="evenodd" clip-rule="evenodd" d="M491.14 138.987C491.14 138.318 491.683 137.775 492.352 137.775L498.653 137.775C499.322 137.775 499.865 138.318 499.865 138.987C499.865 139.656 499.322 140.199 498.653 140.199L492.352 140.199C491.683 140.199 491.14 139.656 491.14 138.987Z" fill="#3C4043"/>
<path fill-rule="evenodd" clip-rule="evenodd" d="M504.227 138.987C504.227 138.318 504.77 137.775 505.439 137.775L510.286 137.775C510.955 137.775 511.497 138.318 511.497 138.987C511.497 139.656 510.955 140.199 510.286 140.199L505.439 140.199C504.77 140.199 504.227 139.656 504.227 138.987Z" fill="#3C4043"/>
<path d="M492.26 144.227C492.26 143.959 492.477 143.742 492.745 143.742H495.168C495.436 143.742 495.653 143.959 495.653 144.227V146.65C495.653 146.918 495.436 147.135 495.168 147.135H492.745C492.477 147.135 492.26 146.918 492.26 146.65V144.227Z" fill="#3C4043"/>
<path d="M505.832 144.227C505.832 143.959 506.049 143.742 506.316 143.742H508.74C509.007 143.742 509.224 143.959 509.224 144.227V146.65C509.224 146.918 509.007 147.135 508.74 147.135H506.316C506.049 147.135 505.832 146.918 505.832 146.65V144.227Z" fill="#3C4043"/>
<path fill-rule="evenodd" clip-rule="evenodd" d="M506.65 107.797V110.847C508.375 110.302 510.625 109.795 513.061 109.612C516.387 109.362 520.184 109.706 523.47 111.509L524.399 112.018L524.01 113.028C523.715 113.797 523.562 114.194 523.48 114.4C523.443 114.494 523.407 114.584 523.373 114.655C523.355 114.692 523.319 114.766 523.263 114.847C523.255 114.859 523.247 114.87 523.239 114.881C523.23 114.9 523.216 114.928 523.198 114.966C523.153 115.062 523.088 115.202 522.996 115.408C524.133 116.048 525.529 116.991 526.871 118.194C528.664 119.802 530.441 121.949 531.308 124.548L531.577 125.355L530.909 125.882C528.407 127.857 525.018 129.165 521.381 129.933C517.731 130.705 513.745 130.952 509.977 130.745L509.895 130.741L486.934 126.34C486.265 129.214 485.492 132.63 484.86 135.629C484.502 137.331 484.19 138.892 483.968 140.139C483.739 141.429 483.627 142.277 483.627 142.622V142.624C483.627 143.96 483.627 147.434 483.475 151.124C483.324 154.769 483.021 158.785 482.372 161.123C481.995 162.477 482.313 163.622 482.897 164.553C483.491 165.501 484.343 166.186 484.919 166.511L502.582 175.222C503.182 175.518 503.429 176.244 503.133 176.844C502.837 177.445 502.11 177.691 501.51 177.395L483.792 168.658L483.766 168.643C482.888 168.156 481.695 167.198 480.844 165.841C479.973 164.453 479.443 162.61 480.036 160.474C480.599 158.449 480.901 154.71 481.054 151.024C481.204 147.386 481.204 143.954 481.204 142.622C481.204 142.023 481.362 140.957 481.582 139.716C481.81 138.431 482.128 136.843 482.489 135.129C483.212 131.7 484.115 127.74 484.839 124.654C485.026 123.86 485.2 123.123 485.357 122.468L485.372 122.406L485.393 122.345C486.891 118.117 492.925 109.597 505.281 107.977L506.65 107.797ZM487.488 123.979L510.191 128.33C513.749 128.519 517.488 128.28 520.88 127.562C523.94 126.915 526.651 125.894 528.694 124.503C527.932 122.781 526.654 121.254 525.253 119.998C523.641 118.553 521.949 117.539 520.923 117.063L519.857 116.568L520.32 115.487C520.684 114.637 520.889 114.179 521.009 113.925L521.012 113.92C521.069 113.8 521.13 113.672 521.211 113.549C521.215 113.537 521.221 113.523 521.227 113.507C521.258 113.43 521.3 113.322 521.359 113.169C518.842 112.07 515.962 111.824 513.242 112.029C510.181 112.259 507.447 113.05 505.903 113.691L504.227 114.385V110.595C493.921 112.485 488.932 119.691 487.699 123.096C487.632 123.376 487.561 123.671 487.488 123.979ZM523.108 115.034L523.11 115.032L523.108 115.034Z" fill="#3C4043"/>
<path fill-rule="evenodd" clip-rule="evenodd" d="M525.175 126.678C525.816 126.871 526.18 127.546 525.987 128.187C525.023 131.4 523.021 139.162 522.643 144.644C522.168 151.528 522.877 156.012 523.828 160.293C524.746 164.421 522.298 167.205 520.877 168.119L520.825 168.152L502.594 177.389C501.997 177.692 501.268 177.453 500.965 176.856C500.663 176.259 500.901 175.53 501.498 175.228L519.613 166.049C520.468 165.472 522.085 163.619 521.463 160.819C520.475 156.375 519.73 151.651 520.225 144.478C520.622 138.715 522.691 130.741 523.666 127.491C523.858 126.85 524.534 126.486 525.175 126.678Z" fill="#3C4043"/>
<path fill-rule="evenodd" clip-rule="evenodd" d="M520.498 141.693L517.59 129.576L519.946 129.01L522.855 141.128L520.498 141.693Z" fill="#3C4043"/>
<path fill-rule="evenodd" clip-rule="evenodd" d="M506.591 157.977C504.698 157.612 503.017 158.032 502.103 158.489L501.635 158.723L501.144 158.543C498.593 157.608 496.488 158.018 494.862 158.886C493.593 159.564 492.609 160.527 491.968 161.373C493.226 162.443 494.822 162.799 496.482 162.738C498.451 162.665 500.362 162 501.49 161.418L502.037 161.136L502.588 161.411C504.678 162.456 506.33 162.901 507.842 162.8C509.074 162.718 510.329 162.265 511.749 161.281C510.061 159.195 508.216 158.291 506.591 157.977ZM507.05 155.598C509.556 156.081 512.232 157.586 514.44 160.846L515.062 161.765L514.2 162.466C512.136 164.143 510.147 165.075 508.004 165.218C506.05 165.349 504.112 164.812 502.044 163.841C500.658 164.468 498.668 165.082 496.571 165.16C494.157 165.249 491.456 164.623 489.49 162.31L488.939 161.662L489.361 160.924C490.103 159.625 491.592 157.885 493.72 156.748C495.784 155.646 498.437 155.123 501.5 156.104C502.864 155.543 504.862 155.175 507.05 155.598Z" fill="#3C4043"/>
<path fill-rule="evenodd" clip-rule="evenodd" d="M487.611 154.996C485.613 154.507 483.631 154.664 482.459 154.948L481.888 152.593C483.382 152.231 485.762 152.048 488.187 152.642C490.64 153.242 493.199 154.656 494.856 157.527L492.756 158.738C491.505 156.568 489.581 155.478 487.611 154.996Z" fill="#3C4043"/>
<path fill-rule="evenodd" clip-rule="evenodd" d="M521.171 154.953C514.819 153.542 512.025 156.986 511.417 158.568L509.155 157.698C510.162 155.079 514.089 150.897 521.697 152.587L521.171 154.953Z" fill="#3C4043"/>
<path fill-rule="evenodd" clip-rule="evenodd" d="M478.517 142.642C479.896 141.819 481.441 141.605 482.474 141.654L482.358 144.075C481.695 144.043 480.646 144.193 479.759 144.723C478.93 145.218 478.2 146.062 478.048 147.59C477.901 149.053 478.517 150.152 479.448 150.993C480.409 151.862 481.646 152.389 482.467 152.595L481.88 154.946C480.762 154.666 479.14 153.982 477.823 152.791C476.475 151.572 475.395 149.763 475.636 147.349C475.871 144.999 477.08 143.5 478.517 142.642Z" fill="#3C4043"/>
<path fill-rule="evenodd" clip-rule="evenodd" d="M525.333 142.648C523.953 141.824 522.409 141.61 521.376 141.66L521.491 144.08C522.155 144.049 523.203 144.199 524.09 144.728C524.919 145.223 525.649 146.067 525.802 147.595C525.948 149.058 525.332 150.157 524.402 150.999C523.441 151.867 522.203 152.395 521.382 152.6L521.97 154.951C523.087 154.672 524.709 153.988 526.027 152.796C527.374 151.578 528.455 149.768 528.213 147.354C527.978 145.004 526.769 143.505 525.333 142.648Z" fill="#3C4043"/>
<path fill-rule="evenodd" clip-rule="evenodd" d="M478.133 125.806C480.923 122.783 484.847 123.221 486.454 123.788L485.648 126.074C484.59 125.7 482.161 125.466 480.328 127.048C480.914 130.225 482.458 136.826 483.591 141.359L481.24 141.947C480.03 137.106 478.322 129.79 477.828 126.827L477.73 126.242L478.133 125.806Z" fill="#3C4043"/>
<path fill-rule="evenodd" clip-rule="evenodd" d="M485.533 174.126C484.507 174.172 483.788 174.246 483.437 174.333C478.021 175.687 476.599 180.84 476.599 183.336V190.607H474.176V183.336C474.176 180.34 475.857 173.73 482.849 171.982L482.849 171.982C483.467 171.828 484.414 171.75 485.425 171.705C486.47 171.658 487.695 171.643 488.929 171.643C490.165 171.643 491.421 171.658 492.531 171.674C492.701 171.676 492.866 171.678 493.027 171.68C493.931 171.693 494.704 171.704 495.26 171.704L495.26 174.127C494.685 174.127 493.891 174.116 492.99 174.104C492.829 174.101 492.665 174.099 492.498 174.097C491.389 174.082 490.147 174.067 488.929 174.067C487.709 174.067 486.525 174.082 485.533 174.126Z" fill="#3C4043"/>
<path fill-rule="evenodd" clip-rule="evenodd" d="M518.559 174.187C519.585 174.232 520.304 174.306 520.655 174.394C526.071 175.748 527.492 180.9 527.492 183.397V190.667H529.916V183.397C529.916 180.401 528.235 173.791 521.243 172.043L521.243 172.043C520.625 171.888 519.677 171.811 518.667 171.766C517.622 171.719 516.397 171.704 515.163 171.704C513.927 171.704 512.671 171.719 511.56 171.734C511.391 171.737 511.226 171.739 511.064 171.741C510.161 171.754 509.388 171.764 508.832 171.764L508.832 174.188C509.406 174.188 510.201 174.177 511.102 174.164C511.263 174.162 511.427 174.16 511.593 174.158C512.702 174.142 513.945 174.127 515.163 174.127C516.383 174.127 517.566 174.142 518.559 174.187Z" fill="#3C4043"/>
<path fill-rule="evenodd" clip-rule="evenodd" d="M516.777 178.02C515.549 179.827 513.75 181.666 511.254 182.751C505.439 185.279 498.257 185.835 492.276 182.714C489.834 181.44 488.055 179.59 486.857 177.809C485.674 176.051 485 174.273 484.849 173.066L487.253 172.765C487.345 173.497 487.833 174.919 488.868 176.456C489.887 177.971 491.381 179.514 493.397 180.566C498.565 183.262 504.953 182.848 510.287 180.529C512.25 179.675 513.723 178.202 514.773 176.657C515.827 175.107 516.409 173.549 516.618 172.643L518.979 173.188C518.703 174.383 518.001 176.218 516.777 178.02Z" fill="#3C4043"/>
</g>
</g>
<circle cx="503.5" cy="146.5" r="45" stroke="#3C4043" stroke-width="5"/>
<circle cx="809.773" cy="146.258" r="46.2883" fill="#FFD5D1"/>
<path d="M803.472 171.946L809.531 172.916L819.709 169.765L824.314 164.676L826.495 157.89L832.069 157.648L833.765 152.801L832.069 149.65L830.13 148.196L826.737 148.439L826.98 145.046L832.069 140.684V134.14L829.888 126.87L823.829 121.78H817.043L817.77 113.056L812.439 108.936L809.288 108.451L804.926 108.936L800.079 115.722L801.291 121.296L792.809 123.477L788.446 127.839L786.265 135.594L787.477 142.38L791.597 145.046V147.469L790.385 147.712L785.538 149.65L784.811 153.77L786.75 157.648L791.839 158.133L794.748 164.676L798.867 169.28L803.472 171.946Z" fill="white"/>
<mask id="mask4" mask-type="alpha" maskUnits="userSpaceOnUse" x="763" y="99" width="94" height="94">
<circle cx="809.773" cy="146.258" r="46.2883" fill="#C4C4C4"/>
</mask>
<g mask="url(#mask4)">
<path d="M782.388 192.303H836.431V182.852L834.492 178.247L830.13 175.097L826.01 174.612H822.133L820.436 169.523L817.043 170.977L809.046 172.916L802.745 171.704L798.14 169.523L796.444 174.612H794.263L789.173 175.097L785.781 176.793L783.357 180.428L782.388 184.791V192.303Z" fill="#FFD5D1"/>
<path d="M784.811 157.648L787.477 165.888L790.87 157.648H784.811Z" fill="#FFD5D1"/>
<path d="M827.707 157.648L831.099 165.888L834.492 157.648H827.707Z" fill="#FFD5D1"/>
<path fill-rule="evenodd" clip-rule="evenodd" d="M784.478 157.405H791.232L787.45 166.59L784.478 157.405ZM785.144 157.89L787.504 165.185L790.508 157.89H785.144ZM827.345 157.405H834.854L831.099 166.524L827.345 157.405ZM828.068 157.89L831.099 165.251L834.13 157.89H828.068ZM797.997 169.187L802.821 171.472L809.04 172.668L816.966 170.746L820.583 169.196L822.307 174.37H826.024L830.221 174.863L834.689 178.091L836.673 182.803V192.546H782.145V184.764L783.13 180.332L785.615 176.605L789.105 174.86L794.251 174.37H796.269L797.997 169.187ZM820.289 169.849L817.12 171.208L809.052 173.164L802.669 171.936L798.284 169.859L796.618 174.854H794.274L789.241 175.334L785.946 176.981L783.584 180.525L782.63 184.817V192.061H836.189V182.901L834.295 178.404L830.039 175.33L825.996 174.854H821.958L820.289 169.849Z" fill="#E26559"/>
<path fill-rule="evenodd" clip-rule="evenodd" d="M800.564 149.408V153.286H804.441V149.408H800.564ZM799.594 146.984C798.791 146.984 798.14 147.636 798.14 148.439V154.255C798.14 155.058 798.791 155.709 799.594 155.709H805.411C806.214 155.709 806.865 155.058 806.865 154.255V148.439C806.865 147.636 806.214 146.984 805.411 146.984H799.594Z" fill="#E26559"/>
<path fill-rule="evenodd" clip-rule="evenodd" d="M814.135 149.408V153.286H818.013V149.408H814.135ZM813.166 146.984C812.363 146.984 811.712 147.636 811.712 148.439V154.255C811.712 155.058 812.363 155.709 813.166 155.709H818.982C819.785 155.709 820.436 155.058 820.436 154.255V148.439C820.436 147.636 819.785 146.984 818.982 146.984H813.166Z" fill="#E26559"/>
<path fill-rule="evenodd" clip-rule="evenodd" d="M803.959 162.734C804.362 162.2 805.122 162.094 805.656 162.497C806.891 163.429 810.044 164.668 812.921 162.497C813.455 162.094 814.215 162.2 814.618 162.734C815.021 163.268 814.914 164.028 814.38 164.431C810.277 167.527 805.869 165.694 804.196 164.431C803.662 164.028 803.556 163.268 803.959 162.734Z" fill="#E26559"/>
<path fill-rule="evenodd" clip-rule="evenodd" d="M806.867 158.372C807.27 157.838 808.03 157.731 808.564 158.134C808.653 158.202 808.892 158.33 809.181 158.365C809.436 158.397 809.716 158.358 810.012 158.134C810.546 157.731 811.306 157.838 811.709 158.372C812.112 158.906 812.006 159.666 811.472 160.069C809.696 161.409 807.808 160.6 807.104 160.069C806.57 159.666 806.464 158.906 806.867 158.372Z" fill="#E26559"/>
<path fill-rule="evenodd" clip-rule="evenodd" d="M798.383 143.592C798.383 142.922 798.925 142.38 799.594 142.38L805.895 142.38C806.565 142.38 807.107 142.922 807.107 143.592C807.107 144.261 806.565 144.803 805.895 144.803L799.594 144.803C798.925 144.803 798.383 144.261 798.383 143.592Z" fill="#E26559"/>
<path fill-rule="evenodd" clip-rule="evenodd" d="M811.469 143.592C811.469 142.922 812.012 142.38 812.681 142.38L817.528 142.38C818.197 142.38 818.74 142.922 818.74 143.592C818.74 144.261 818.197 144.803 817.528 144.803L812.681 144.803C812.012 144.803 811.469 144.261 811.469 143.592Z" fill="#E26559"/>
<path d="M799.502 148.831C799.502 148.564 799.719 148.347 799.987 148.347H802.411C802.678 148.347 802.895 148.564 802.895 148.831V151.255C802.895 151.523 802.678 151.74 802.411 151.74H799.987C799.719 151.74 799.502 151.523 799.502 151.255V148.831Z" fill="#E26559"/>
<path d="M813.074 148.831C813.074 148.564 813.291 148.347 813.558 148.347H815.982C816.25 148.347 816.467 148.564 816.467 148.831V151.255C816.467 151.523 816.25 151.74 815.982 151.74H813.558C813.291 151.74 813.074 151.523 813.074 151.255V148.831Z" fill="#E26559"/>
<path fill-rule="evenodd" clip-rule="evenodd" d="M809.055 135.831L809.997 137.024C811.077 138.392 813.209 140.174 816.002 140.959C818.738 141.727 822.187 141.564 826.06 138.952L827.949 137.678V157.715L827.942 157.781C827.636 160.531 826.331 164.58 823.39 167.94C820.411 171.343 815.793 173.987 809.028 173.885C802.266 173.782 797.642 171.011 794.664 167.543C791.721 164.116 790.412 160.043 790.148 157.278L790.143 157.221V137.435L792.112 139.01C793.57 140.177 796.152 141.492 799.06 141.605C801.894 141.715 805.142 140.693 808.102 137.015L809.055 135.831ZM792.566 142.203V157.104C792.8 159.429 793.941 162.981 796.503 165.964C799.05 168.931 803.029 171.37 809.064 171.462C815.095 171.553 819.04 169.229 821.566 166.343C824.107 163.442 825.252 159.919 825.525 157.579V142.086C821.774 144.026 818.279 144.116 815.346 143.292C812.669 142.54 810.509 141.043 809.062 139.605C805.848 143.036 802.25 144.155 798.966 144.027C796.516 143.932 794.291 143.147 792.566 142.203Z" fill="#E26559"/>
<path fill-rule="evenodd" clip-rule="evenodd" d="M797.827 120.326L820.519 120.326L820.601 120.338C822.857 120.647 826.161 121.785 828.873 124.217C831.628 126.687 833.73 130.462 833.522 135.883C833.302 141.612 830.348 145.074 827.056 145.972L826.418 143.634C828.457 143.078 830.91 140.724 831.1 135.79C831.279 131.13 829.504 128.038 827.255 126.021C824.995 123.994 822.214 123.022 820.351 122.75H797.97C790.598 123.655 787.235 130.174 787.235 135.836C787.235 137.961 788.015 139.896 789.039 141.479C790.068 143.068 791.296 144.232 792.067 144.793L790.642 146.753C789.635 146.021 788.198 144.64 787.005 142.796C785.808 140.946 784.811 138.559 784.811 135.836C784.811 129.4 788.697 121.4 797.756 120.335L797.827 120.326Z" fill="#E26559"/>
<path fill-rule="evenodd" clip-rule="evenodd" d="M803.482 111.836C802.268 113.244 801.657 115.019 801.551 116.403C801.412 118.233 802.094 120.442 802.46 121.308L800.229 122.253C799.794 121.228 798.954 118.603 799.135 116.219C799.276 114.362 800.067 112.086 801.646 110.254C803.254 108.388 805.672 106.997 808.957 106.997C812.246 106.997 814.762 108.441 816.437 110.279C818.077 112.078 818.982 114.333 818.982 116.109C818.982 117.833 818.768 119.125 818.486 120.132C818.257 120.95 817.98 121.578 817.791 122.007C817.751 122.098 817.715 122.18 817.684 122.253L815.453 121.308C815.498 121.201 815.544 121.096 815.591 120.989C815.777 120.565 815.974 120.116 816.153 119.479C816.372 118.696 816.558 117.625 816.558 116.109C816.558 115.048 815.961 113.354 814.646 111.912C813.367 110.509 811.476 109.421 808.957 109.421C806.432 109.421 804.667 110.461 803.482 111.836Z" fill="#E26559"/>
<path fill-rule="evenodd" clip-rule="evenodd" d="M783.953 150.354C785.741 146.48 789.808 146.667 791.412 146.743L791.297 149.164C789.508 149.079 787.194 149.115 786.154 151.37C785.088 153.677 786.34 155.427 787.198 156.628C787.216 156.652 787.234 156.677 787.251 156.701L785.279 158.11C785.247 158.064 785.211 158.016 785.174 157.964C784.332 156.798 782.286 153.967 783.953 150.354Z" fill="#E26559"/>
<path fill-rule="evenodd" clip-rule="evenodd" d="M834.381 150.38C832.592 146.505 828.526 146.693 826.922 146.769L827.037 149.19C828.826 149.105 831.139 149.141 832.18 151.395C833.245 153.703 831.994 155.453 831.135 156.653C831.118 156.678 831.1 156.702 831.083 156.727L833.055 158.135C833.087 158.09 833.122 158.041 833.16 157.989C834.002 156.824 836.048 153.993 834.381 150.38Z" fill="#E26559"/>
<path fill-rule="evenodd" clip-rule="evenodd" d="M782.818 156.436H792.06L787.747 169.529L782.818 156.436ZM786.32 158.859L787.594 162.246L788.71 158.859H786.32Z" fill="#E26559"/>
<path fill-rule="evenodd" clip-rule="evenodd" d="M825.904 156.436H835.726L831.142 169.281L825.904 156.436ZM829.509 158.859L830.991 162.494L832.288 158.859H829.509Z" fill="#E26559"/>
<path fill-rule="evenodd" clip-rule="evenodd" d="M823.102 172.768C823.495 174.495 823.511 176.559 822.452 178.373L822.42 178.428L822.383 178.479C821.696 179.415 820.689 180.132 819.61 180.688C818.522 181.249 817.283 181.684 816.047 182.021C813.579 182.695 810.994 183.008 809.35 183.093L809.319 183.094H809.288C807.518 183.094 804.772 182.882 802.238 182.232C800.971 181.908 799.71 181.462 798.639 180.848C797.575 180.239 796.607 179.41 796.074 178.278C795.146 176.305 795.216 174.248 795.623 172.549C796.028 170.855 796.79 169.415 797.4 168.571L799.365 169.99C798.924 170.6 798.305 171.753 797.98 173.113C797.655 174.467 797.645 175.924 798.267 177.247C798.51 177.763 799.02 178.273 799.844 178.745C800.66 179.213 801.695 179.591 802.84 179.885C805.114 180.468 807.633 180.668 809.257 180.671C810.766 180.591 813.156 180.298 815.41 179.683C816.543 179.374 817.61 178.992 818.501 178.533C819.373 178.084 820.007 177.596 820.391 177.096C820.999 176.011 821.048 174.665 820.739 173.305C820.424 171.921 819.775 170.697 819.248 170.037L821.14 168.523C821.905 169.48 822.71 171.042 823.102 172.768Z" fill="#E26559"/>
<path fill-rule="evenodd" clip-rule="evenodd" d="M800.806 180.913V171.461H803.229V180.913H800.806Z" fill="#E26559"/>
<path fill-rule="evenodd" clip-rule="evenodd" d="M815.104 180.913L815.104 171.704L817.528 171.704L817.528 180.913L815.104 180.913Z" fill="#E26559"/>
<path fill-rule="evenodd" clip-rule="evenodd" d="M807.834 181.882L807.834 172.673L810.257 172.673L810.257 181.882L807.834 181.882Z" fill="#E26559"/>
<path fill-rule="evenodd" clip-rule="evenodd" d="M785.568 175.656C787.759 174.116 790.363 173.4 792.081 173.4H796.686V175.824H792.081C790.891 175.824 788.77 176.368 786.962 177.639C785.196 178.881 783.842 180.727 783.842 183.336V192.303H781.418V183.336C781.418 179.742 783.336 177.226 785.568 175.656Z" fill="#E26559"/>
<path fill-rule="evenodd" clip-rule="evenodd" d="M833.25 175.656C831.059 174.116 828.455 173.4 826.737 173.4H822.133V175.824H826.737C827.927 175.824 830.049 176.368 831.857 177.639C833.623 178.881 834.977 180.727 834.977 183.336V192.303H837.4V183.336C837.4 179.742 835.483 177.226 833.25 175.656Z" fill="#E26559"/>
</g>
<circle cx="810.5" cy="146.5" r="45" stroke="#E26559" stroke-width="5"/>
<circle cx="1023.5" cy="96.5" r="95.5" fill="#DFE6EC"/>
<circle cx="1024" cy="98" r="95.5" stroke="#3C4043" stroke-width="5"/>
<circle cx="1119.26" cy="145.773" r="46.2883" fill="#DFE6EC"/>
<path d="M1099.63 149.408V143.834H1097.45L1093.57 146.985L1094.05 150.62L1097.45 153.528L1099.63 154.74L1102.29 163.464L1109.32 169.523L1104.47 173.401L1111.74 183.822L1116.35 180.186L1118.77 181.883L1120.47 181.156L1125.56 184.549L1132.59 173.401L1129.44 170.25V168.554L1134.77 164.919L1137.43 160.072L1138.89 153.528H1140.83L1143.25 150.62L1143.98 147.47L1140.83 143.834H1138.89L1137.92 149.408L1134.77 146.258L1132.59 140.926L1131.86 135.352L1132.59 131.232L1134.77 127.355V125.658L1129.44 121.054L1123.14 118.63H1113.68L1105.69 122.023L1102.29 126.385L1105.69 130.021V136.322L1104.47 142.623L1102.29 147.47L1099.63 149.408Z" fill="white"/>
<mask id="mask5" mask-type="alpha" maskUnits="userSpaceOnUse" x="1072" y="99" width="94" height="94">
<circle cx="1119.26" cy="145.773" r="46.2883" fill="#C4C4C4"/>
</mask>
<g mask="url(#mask5)">
<path d="M1099.11 129.389V149.114L1103.21 146.618L1104.66 140.126L1105.62 132.385L1104.66 128.64L1102.25 126.143L1100.8 127.142L1099.11 129.389Z" fill="#DFE6EC"/>
<path d="M1132.89 128.64L1131.44 130.887V134.882L1132.89 140.875L1135.3 146.618L1138.19 149.864L1137.71 130.887V127.142L1135.3 126.143L1132.89 128.64Z" fill="#DFE6EC"/>
<path d="M1091.87 192.061H1145.19L1145.67 183.822L1144.23 179.327L1138.92 174.583L1135.3 173.834H1132.89L1125.65 185.32L1120.34 181.574L1118.41 182.573L1116.48 181.574L1111.66 185.32L1104.66 174.583H1100.8L1096.22 176.081L1093.32 179.826L1091.87 183.572V192.061Z" fill="#DFE6EC"/>
<path fill-rule="evenodd" clip-rule="evenodd" d="M1102.28 125.827L1104.88 128.517L1105.87 132.369L1104.9 140.167L1103.43 146.771L1098.87 149.546V129.308L1100.63 126.965L1102.28 125.827ZM1135.24 125.856L1137.95 126.98V130.884L1138.45 150.518L1135.09 146.749L1132.66 140.951L1131.2 134.911V130.816L1132.7 128.489L1135.24 125.856ZM1135.36 126.43L1133.08 128.791L1131.68 130.958V134.853L1133.12 140.799L1135.51 146.486L1137.94 149.209L1137.47 130.887L1137.47 127.304L1135.36 126.43ZM1100.97 127.319L1099.35 129.47V148.683L1103 146.464L1104.42 140.084L1105.38 132.401L1104.44 128.762L1102.22 126.459L1100.97 127.319ZM1132.75 173.592H1135.32L1139.03 174.359L1144.44 179.19L1145.92 183.79L1145.42 192.304H1091.63V183.527L1093.11 179.706L1096.07 175.874L1100.76 174.341H1104.79L1111.72 184.967L1116.45 181.288L1118.41 182.3L1120.36 181.291L1125.58 184.974L1132.75 173.592ZM1133.02 174.076L1125.72 185.665L1120.32 181.857L1118.41 182.846L1116.51 181.861L1111.6 185.673L1104.53 174.825H1100.84L1096.36 176.288L1093.53 179.947L1092.11 183.617V191.819H1144.96L1145.43 183.853L1144.02 179.464L1138.81 174.807L1135.27 174.076H1133.02Z" fill="#3C4043"/>
<path fill-rule="evenodd" clip-rule="evenodd" d="M1110.53 144.319V148.197H1114.41V144.319H1110.53ZM1109.56 141.896C1108.76 141.896 1108.11 142.547 1108.11 143.35V149.166C1108.11 149.969 1108.76 150.62 1109.56 150.62H1115.38C1116.18 150.62 1116.83 149.969 1116.83 149.166V143.35C1116.83 142.547 1116.18 141.896 1115.38 141.896H1109.56Z" fill="#3C4043"/>
<path fill-rule="evenodd" clip-rule="evenodd" d="M1124.1 144.319V148.197H1127.98V144.319H1124.1ZM1123.14 141.896C1122.33 141.896 1121.68 142.547 1121.68 143.35V149.166C1121.68 149.969 1122.33 150.62 1123.14 150.62H1128.95C1129.75 150.62 1130.41 149.969 1130.41 149.166V143.35C1130.41 142.547 1129.75 141.896 1128.95 141.896H1123.14Z" fill="#3C4043"/>
<path fill-rule="evenodd" clip-rule="evenodd" d="M1112.97 158.11C1113.39 157.584 1114.15 157.494 1114.68 157.908C1116.32 159.199 1120.49 160.924 1124.32 157.908C1124.85 157.494 1125.61 157.584 1126.03 158.11C1126.44 158.636 1126.35 159.398 1125.82 159.812C1120.74 163.818 1115.25 161.446 1113.18 159.812C1112.65 159.398 1112.56 158.636 1112.97 158.11Z" fill="#3C4043"/>
<path fill-rule="evenodd" clip-rule="evenodd" d="M1116.26 153.416C1116.59 152.834 1117.33 152.629 1117.92 152.958C1118.35 153.205 1119.56 153.549 1120.6 152.958C1121.18 152.629 1121.92 152.834 1122.25 153.416C1122.58 153.998 1122.38 154.738 1121.79 155.067C1119.74 156.232 1117.58 155.552 1116.72 155.067C1116.14 154.738 1115.93 153.998 1116.26 153.416Z" fill="#3C4043"/>
<path fill-rule="evenodd" clip-rule="evenodd" d="M1108.35 138.503C1108.35 137.833 1108.89 137.291 1109.56 137.291L1115.86 137.291C1116.53 137.291 1117.08 137.833 1117.08 138.503C1117.08 139.172 1116.53 139.714 1115.86 139.714L1109.56 139.714C1108.89 139.714 1108.35 139.172 1108.35 138.503Z" fill="#3C4043"/>
<path fill-rule="evenodd" clip-rule="evenodd" d="M1115.14 145.288C1115.14 144.619 1115.68 144.077 1116.35 144.077L1122.65 144.077C1123.32 144.077 1123.86 144.619 1123.86 145.288C1123.86 145.958 1123.32 146.5 1122.65 146.5L1116.35 146.5C1115.68 146.5 1115.14 145.958 1115.14 145.288Z" fill="#3C4043"/>
<path fill-rule="evenodd" clip-rule="evenodd" d="M1121.44 138.503C1121.44 137.833 1121.98 137.291 1122.65 137.291L1127.5 137.291C1128.17 137.291 1128.71 137.833 1128.71 138.503C1128.71 139.172 1128.17 139.714 1127.5 139.714L1122.65 139.714C1121.98 139.714 1121.44 139.172 1121.44 138.503Z" fill="#3C4043"/>
<path d="M1109.47 143.5C1109.47 143.233 1109.69 143.016 1109.96 143.016H1112.38C1112.65 143.016 1112.86 143.233 1112.86 143.5V145.924C1112.86 146.191 1112.65 146.408 1112.38 146.408H1109.96C1109.69 146.408 1109.47 146.191 1109.47 145.924V143.5Z" fill="#3C4043"/>
<path d="M1123.04 143.5C1123.04 143.233 1123.26 143.016 1123.53 143.016H1125.95C1126.22 143.016 1126.44 143.233 1126.44 143.5V145.924C1126.44 146.191 1126.22 146.408 1125.95 146.408H1123.53C1123.26 146.408 1123.04 146.191 1123.04 145.924V143.5Z" fill="#3C4043"/>
<path fill-rule="evenodd" clip-rule="evenodd" d="M1118.77 119.6C1108.79 119.6 1104.19 125.12 1103.17 127.578L1100.93 126.646C1102.33 123.288 1107.81 117.176 1118.77 117.176C1129.73 117.176 1135.21 123.288 1136.61 126.646L1134.38 127.578C1133.35 125.12 1128.75 119.6 1118.77 119.6Z" fill="#3C4043"/>
<path fill-rule="evenodd" clip-rule="evenodd" d="M1100.6 130.008V147.288C1101.22 146.664 1102.03 145.539 1102.88 143.594C1104.91 138.924 1104.79 134.64 1104.73 132.636C1104.72 132.368 1104.72 132.141 1104.72 131.959C1104.72 131.846 1104.66 131.544 1104.45 131.078C1104.26 130.642 1103.98 130.157 1103.65 129.708C1103.32 129.256 1102.96 128.878 1102.63 128.626C1102.28 128.356 1102.09 128.324 1102.05 128.324C1101.92 128.324 1101.64 128.423 1101.27 128.881C1100.97 129.238 1100.74 129.673 1100.6 130.008ZM1099.39 127.343C1099.93 126.69 1100.83 125.901 1102.05 125.901C1102.86 125.901 1103.58 126.292 1104.11 126.705C1104.67 127.134 1105.18 127.695 1105.6 128.273C1106.03 128.854 1106.4 129.49 1106.67 130.099C1106.93 130.678 1107.14 131.346 1107.14 131.959C1107.14 132.11 1107.15 132.311 1107.15 132.555C1107.22 134.521 1107.37 139.353 1105.1 144.56C1104.09 146.889 1103.03 148.367 1102.04 149.255C1101.1 150.103 1100.04 150.554 1099.12 150.349L1098.17 150.138V129.565L1098.25 129.364C1098.44 128.822 1098.83 128.027 1099.39 127.343Z" fill="#3C4043"/>
<path fill-rule="evenodd" clip-rule="evenodd" d="M1137.23 130.25V147.531C1136.6 146.907 1135.79 145.781 1134.95 143.836C1132.92 139.167 1133.04 134.883 1133.1 132.878C1133.1 132.61 1133.11 132.383 1133.11 132.202C1133.11 132.088 1133.17 131.787 1133.37 131.321C1133.57 130.884 1133.85 130.4 1134.18 129.951C1134.51 129.498 1134.87 129.12 1135.19 128.868C1135.54 128.599 1135.74 128.566 1135.78 128.566C1135.91 128.566 1136.18 128.666 1136.56 129.124C1136.85 129.48 1137.09 129.915 1137.23 130.25ZM1138.43 127.585C1137.9 126.932 1137 126.143 1135.78 126.143C1134.97 126.143 1134.25 126.535 1133.72 126.947C1133.16 127.376 1132.65 127.938 1132.23 128.515C1131.8 129.096 1131.43 129.733 1131.16 130.341C1130.9 130.92 1130.69 131.588 1130.69 132.202C1130.69 132.353 1130.68 132.553 1130.67 132.798C1130.61 134.763 1130.46 139.595 1132.73 144.802C1133.74 147.131 1134.8 148.609 1135.78 149.498C1136.73 150.345 1137.78 150.796 1138.71 150.591L1139.65 150.38V129.807L1139.58 129.606C1139.38 129.064 1139 128.269 1138.43 127.585Z" fill="#3C4043"/>
<path fill-rule="evenodd" clip-rule="evenodd" d="M1098.17 155.225V149.166H1100.6V155.225C1100.6 155.935 1100.92 157.276 1101.7 158.964C1102.47 160.616 1103.62 162.487 1105.15 164.245C1108.2 167.761 1112.68 170.735 1118.53 170.735C1125.99 170.735 1130.62 167.433 1133.42 163.84C1134.83 162.029 1135.78 160.134 1136.38 158.538C1136.99 156.909 1137.19 155.685 1137.19 155.225V149.408H1139.61V155.225C1139.61 156.097 1139.3 157.63 1138.65 159.386C1137.98 161.175 1136.92 163.294 1135.33 165.33C1132.13 169.432 1126.83 173.158 1118.53 173.158C1111.78 173.158 1106.68 169.71 1103.32 165.834C1101.63 163.896 1100.36 161.83 1099.51 159.983C1098.67 158.172 1098.17 156.453 1098.17 155.225Z" fill="#3C4043"/>
<path fill-rule="evenodd" clip-rule="evenodd" d="M1095.1 143.596C1096.52 142.611 1098.2 142.277 1099.23 142.147L1099.54 144.552C1098.63 144.665 1097.42 144.937 1096.48 145.587C1095.62 146.182 1094.93 147.126 1095.02 148.863C1095.1 150.371 1095.81 151.294 1096.68 151.889C1097.61 152.516 1098.73 152.77 1099.44 152.802L1099.33 155.223C1098.27 155.175 1096.69 154.823 1095.32 153.895C1093.91 152.935 1092.72 151.354 1092.6 148.984C1092.47 146.359 1093.6 144.638 1095.1 143.596Z" fill="#3C4043"/>
<path fill-rule="evenodd" clip-rule="evenodd" d="M1142.79 143.612C1141.42 142.616 1139.8 142.279 1138.8 142.148L1138.49 144.551C1139.34 144.663 1140.49 144.931 1141.37 145.572C1142.17 146.156 1142.84 147.103 1142.76 148.866C1142.69 150.396 1142 151.319 1141.17 151.904C1140.3 152.522 1139.25 152.771 1138.59 152.803L1138.7 155.223C1139.74 155.174 1141.26 154.817 1142.58 153.88C1143.94 152.91 1145.07 151.329 1145.18 148.981C1145.3 146.382 1144.24 144.663 1142.79 143.612Z" fill="#3C4043"/>
<path fill-rule="evenodd" clip-rule="evenodd" d="M1093.33 183.368C1093.4 181.967 1094.05 179.801 1095.76 178.015C1097.46 176.254 1100.29 174.763 1104.94 174.855L1104.98 172.432C1099.74 172.329 1096.23 174.029 1094.02 176.336C1091.83 178.605 1091 181.366 1090.9 183.278L1090.9 183.307V191.092H1093.33V183.368Z" fill="#3C4043"/>
<path fill-rule="evenodd" clip-rule="evenodd" d="M1144.46 183.13C1144.39 181.728 1143.74 179.562 1142.03 177.777C1140.33 176.015 1137.5 174.525 1132.85 174.616L1132.81 172.193C1138.04 172.091 1141.56 173.791 1143.77 176.097C1145.95 178.367 1146.79 181.128 1146.88 183.04L1146.89 183.069V191.096H1144.46V183.13Z" fill="#3C4043"/>
<path fill-rule="evenodd" clip-rule="evenodd" d="M1107.93 168.23L1109.74 169.846L1106.24 173.755L1112.06 182.589L1116.85 179.17L1118.72 180.573L1120.4 179.133L1125.26 182.604L1132.07 172.713L1134.07 174.088L1125.86 186.009L1120.54 182.209L1118.82 183.678L1116.82 182.173L1111.43 186.024L1103.19 173.531L1107.93 168.23Z" fill="#3C4043"/>
<path fill-rule="evenodd" clip-rule="evenodd" d="M1115.9 181.438L1107.17 170.775L1109.05 169.24L1117.77 179.904L1115.9 181.438Z" fill="#3C4043"/>
<path fill-rule="evenodd" clip-rule="evenodd" d="M1121.36 181.496L1130.81 171.317L1129.03 169.668L1119.58 179.847L1121.36 181.496Z" fill="#3C4043"/>
<path fill-rule="evenodd" clip-rule="evenodd" d="M1132.21 174.5L1128.09 170.38L1129.81 168.666L1133.93 172.786L1132.21 174.5Z" fill="#3C4043"/>
</g>
<circle cx="1119.5" cy="146.5" r="45" stroke="#3C4043" stroke-width="5"/>
<path d="M380.099 147.375H435.744C439.887 147.375 443.168 143.68 443.168 139.188V99.0833C443.168 97.8717 442.237 96.7812 441.054 96.7812C439.878 96.7812 438.941 97.8128 438.941 99.0833V139.188C438.941 141.153 437.428 142.771 435.744 142.771H380.099C378.414 142.771 376.902 141.153 376.902 139.188V54.8125C376.902 52.7916 378.323 51.2292 380.099 51.2292H435.744C437.478 51.2292 438.941 52.7462 438.941 54.8125V91.9479C438.941 93.1595 439.872 94.25 441.054 94.25C442.231 94.25 443.168 93.2185 443.168 91.9479V54.8125C443.168 50.2676 439.934 46.625 435.744 46.625H380.099C375.909 46.625 372.674 50.2676 372.674 54.8125V139.188C372.674 143.68 375.956 147.375 380.099 147.375Z" fill="#3C4043" stroke="#3C4043" stroke-width="0.75"/>
<path d="M407.261 139.281H408.577C409.759 139.281 410.691 138.191 410.691 136.979C410.691 135.768 409.759 134.677 408.577 134.677H407.261C406.085 134.677 405.147 135.709 405.147 136.979C405.147 138.191 406.079 139.281 407.261 139.281Z" fill="#3C4043" stroke="#3C4043" stroke-width="0.75"/>
<path d="M374.739 131.239H441.052C442.288 131.239 443.166 130.142 443.166 128.937C443.166 127.726 442.234 126.635 441.052 126.635H374.739C373.557 126.635 372.625 127.726 372.625 128.937C372.625 130.149 373.557 131.239 374.739 131.239Z" fill="#3C4043" stroke="#3C4043" stroke-width="0.75"/>
<path d="M374.739 63.3643H441.052C442.288 63.3643 443.166 62.2669 443.166 61.0622C443.166 59.8506 442.234 58.7601 441.052 58.7601H374.739C373.557 58.7601 372.625 59.8506 372.625 61.0622C372.625 62.2738 373.557 63.3643 374.739 63.3643Z" fill="#3C4043" stroke="#3C4043" stroke-width="0.75"/>
<path d="M1003.9 145.751H1044.63C1048.92 145.751 1052.37 142.239 1052.37 137.957V100.124C1052.37 98.9341 1051.37 97.9309 1050.18 97.9309C1048.99 97.9309 1047.99 98.9341 1047.99 100.124V137.957C1047.99 139.764 1046.44 141.316 1044.63 141.316H1003.9C1002.15 141.316 1000.64 139.774 1000.64 137.957V58.3601C1000.64 56.4937 1002.1 55.0009 1003.9 55.0009H1044.63C1046.49 55.0009 1047.99 56.4576 1047.99 58.3601V93.3925C1047.99 94.5823 1048.99 95.5855 1050.18 95.5855C1051.37 95.5855 1052.37 94.5823 1052.37 93.3925V58.3601C1052.37 54.0257 1048.96 50.615 1044.63 50.615H1003.9C999.708 50.615 996.251 54.0781 996.251 58.3601V138.006C996.251 142.188 999.755 145.751 1003.9 145.751Z" fill="#3C4043" stroke="#3C4043" stroke-width="0.75"/>
<path d="M1035.67 53.926L1035.67 53.926L1035.66 53.9365L1033.58 59.2213H1015L1012.91 53.9415C1012.47 52.7542 1011.1 52.1255 1009.91 52.623C1008.72 53.0668 1008.09 54.438 1008.59 55.636L1011.29 62.4044C1011.62 63.3054 1012.51 63.8572 1013.43 63.8572H1035.2C1036.11 63.8572 1037.02 63.3084 1037.29 62.338L1039.98 55.6329L1039.99 55.6263L1039.99 55.6195C1040.43 54.4347 1039.86 53.124 1038.68 52.6274C1037.46 52.1145 1036.16 52.7692 1035.67 53.926Z" fill="#3C4043" stroke="#3C4043"/>
<path d="M1023.65 137.078H1025.03C1026.28 137.078 1027.34 136.019 1027.34 134.76C1027.34 133.501 1026.28 132.442 1025.03 132.442H1023.65C1022.39 132.442 1021.33 133.501 1021.33 134.76C1021.33 136.019 1022.39 137.078 1023.65 137.078Z" fill="#3C4043" stroke="#3C4043"/>
</svg>
