<svg width="551" height="448" viewBox="0 0 551 448" fill="none" xmlns="http://www.w3.org/2000/svg">
<circle cx="405.5" cy="349.5" r="95.5" fill="#FFD5D1"/>
<circle cx="407" cy="350" r="95.5" stroke="#E26559" stroke-width="5"/>
<path d="M394.954 374.343L394.954 374.343L394.952 374.341C394.518 373.907 393.901 373.661 393.284 373.661H354.722C353.483 373.661 352.432 374.712 352.432 375.951V381.452C352.432 385.677 355.943 389.125 360.223 389.125H457.357C461.638 389.125 465.147 385.677 465.206 381.453V381.452V375.951C465.206 374.714 464.216 373.661 462.916 373.661H424.355C423.116 373.661 422.065 374.712 422.065 375.951C422.065 377.188 423.055 378.241 424.355 378.241H460.626V381.452C460.626 383.191 459.167 384.545 457.416 384.545H360.281C358.475 384.545 357.071 383.135 357.071 381.452V378.241H392.353L395.124 381.129L395.126 381.13C395.56 381.564 396.178 381.811 396.794 381.811H418.855C420.094 381.811 421.145 380.76 421.145 379.521C421.145 378.283 420.155 377.231 418.855 377.231H397.725L394.954 374.343Z" fill="#E26559" stroke="#E26559" stroke-width="0.25"/>
<path d="M455.418 375.951C455.418 377.188 456.408 378.241 457.708 378.241C459.006 378.241 459.998 377.249 459.998 375.951V318.782C459.998 314.442 456.432 310.875 452.091 310.875H365.489C361.149 310.875 357.582 314.442 357.582 318.782V369.69C357.582 370.93 358.633 371.98 359.872 371.98C361.111 371.98 362.162 370.93 362.162 369.69V318.782C362.162 316.979 363.686 315.455 365.489 315.455H452.091C453.894 315.455 455.418 316.979 455.418 318.782V375.951Z" fill="#E26559" stroke="#E26559" stroke-width="0.25"/>
<path d="M359.872 325.53H450.979C452.219 325.53 453.269 324.479 453.269 323.24C453.269 322.003 452.279 320.95 450.979 320.95H359.872C358.633 320.95 357.582 322.001 357.582 323.24C357.582 324.479 358.633 325.53 359.872 325.53Z" fill="#E26559" stroke="#E26559" stroke-width="0.25"/>
<circle cx="501.773" cy="398.258" r="46.2883" fill="#FFD5D1"/>
<path d="M495.472 423.946L501.531 424.916L511.709 421.765L516.314 416.676L518.495 409.89L524.069 409.648L525.765 404.801L524.069 401.65L522.13 400.196L518.737 400.439L518.98 397.046L524.069 392.684V386.14L521.888 378.87L515.829 373.78H509.043L509.77 365.056L504.439 360.936L501.288 360.451L496.926 360.936L492.079 367.722L493.291 373.296L484.809 375.477L480.446 379.839L478.265 387.594L479.477 394.38L483.597 397.046V399.469L482.385 399.712L477.538 401.65L476.811 405.77L478.75 409.648L483.839 410.133L486.748 416.676L490.867 421.28L495.472 423.946Z" fill="white"/>
<mask id="mask0" mask-type="alpha" maskUnits="userSpaceOnUse" x="455" y="351" width="94" height="94">
<circle cx="501.773" cy="398.258" r="46.2883" fill="#C4C4C4"/>
</mask>
<g mask="url(#mask0)">
<path d="M474.388 444.303H528.431V434.852L526.492 430.247L522.13 427.097L518.01 426.612H514.133L512.436 421.523L509.043 422.977L501.046 424.916L494.745 423.704L490.14 421.523L488.444 426.612H486.263L481.173 427.097L477.781 428.793L475.357 432.428L474.388 436.791V444.303Z" fill="#FFD5D1"/>
<path d="M476.811 409.648L479.477 417.888L482.87 409.648H476.811Z" fill="#FFD5D1"/>
<path d="M519.707 409.648L523.099 417.888L526.492 409.648H519.707Z" fill="#FFD5D1"/>
<path fill-rule="evenodd" clip-rule="evenodd" d="M476.478 409.405H483.232L479.45 418.59L476.478 409.405ZM477.144 409.89L479.504 417.185L482.508 409.89H477.144ZM519.345 409.405H526.854L523.099 418.524L519.345 409.405ZM520.068 409.89L523.099 417.251L526.13 409.89H520.068ZM489.997 421.187L494.821 423.472L501.04 424.668L508.966 422.746L512.583 421.196L514.307 426.37H518.024L522.221 426.863L526.689 430.091L528.673 434.803V444.546H474.145V436.764L475.13 432.332L477.615 428.605L481.105 426.86L486.251 426.37H488.269L489.997 421.187ZM512.289 421.849L509.12 423.208L501.052 425.164L494.669 423.936L490.284 421.859L488.618 426.854H486.274L481.241 427.334L477.946 428.981L475.584 432.525L474.63 436.817V444.061H528.189V434.901L526.295 430.404L522.039 427.33L517.996 426.854H513.958L512.289 421.849Z" fill="#E26559"/>
<path fill-rule="evenodd" clip-rule="evenodd" d="M492.564 401.408V405.286H496.441V401.408H492.564ZM491.594 398.984C490.791 398.984 490.14 399.636 490.14 400.439V406.255C490.14 407.058 490.791 407.709 491.594 407.709H497.411C498.214 407.709 498.865 407.058 498.865 406.255V400.439C498.865 399.636 498.214 398.984 497.411 398.984H491.594Z" fill="#E26559"/>
<path fill-rule="evenodd" clip-rule="evenodd" d="M506.135 401.408V405.286H510.013V401.408H506.135ZM505.166 398.984C504.363 398.984 503.712 399.636 503.712 400.439V406.255C503.712 407.058 504.363 407.709 505.166 407.709H510.982C511.785 407.709 512.436 407.058 512.436 406.255V400.439C512.436 399.636 511.785 398.984 510.982 398.984H505.166Z" fill="#E26559"/>
<path fill-rule="evenodd" clip-rule="evenodd" d="M495.959 414.734C496.362 414.2 497.122 414.094 497.656 414.497C498.891 415.429 502.044 416.668 504.921 414.497C505.455 414.094 506.215 414.2 506.618 414.734C507.021 415.268 506.914 416.028 506.38 416.431C502.277 419.527 497.869 417.694 496.196 416.431C495.662 416.028 495.556 415.268 495.959 414.734Z" fill="#E26559"/>
<path fill-rule="evenodd" clip-rule="evenodd" d="M498.867 410.372C499.27 409.838 500.03 409.731 500.564 410.134C500.653 410.202 500.892 410.33 501.181 410.365C501.436 410.397 501.716 410.358 502.012 410.134C502.546 409.731 503.306 409.838 503.709 410.372C504.112 410.906 504.006 411.666 503.472 412.069C501.696 413.409 499.808 412.6 499.104 412.069C498.57 411.666 498.464 410.906 498.867 410.372Z" fill="#E26559"/>
<path fill-rule="evenodd" clip-rule="evenodd" d="M490.383 395.592C490.383 394.922 490.925 394.38 491.594 394.38L497.895 394.38C498.565 394.38 499.107 394.922 499.107 395.592C499.107 396.261 498.565 396.803 497.895 396.803L491.594 396.803C490.925 396.803 490.383 396.261 490.383 395.592Z" fill="#E26559"/>
<path fill-rule="evenodd" clip-rule="evenodd" d="M503.469 395.592C503.469 394.922 504.012 394.38 504.681 394.38L509.528 394.38C510.197 394.38 510.74 394.922 510.74 395.592C510.74 396.261 510.197 396.803 509.528 396.803L504.681 396.803C504.012 396.803 503.469 396.261 503.469 395.592Z" fill="#E26559"/>
<path d="M491.502 400.831C491.502 400.564 491.719 400.347 491.987 400.347H494.411C494.678 400.347 494.895 400.564 494.895 400.831V403.255C494.895 403.523 494.678 403.74 494.411 403.74H491.987C491.719 403.74 491.502 403.523 491.502 403.255V400.831Z" fill="#E26559"/>
<path d="M505.074 400.831C505.074 400.564 505.291 400.347 505.558 400.347H507.982C508.25 400.347 508.467 400.564 508.467 400.831V403.255C508.467 403.523 508.25 403.74 507.982 403.74H505.558C505.291 403.74 505.074 403.523 505.074 403.255V400.831Z" fill="#E26559"/>
<path fill-rule="evenodd" clip-rule="evenodd" d="M501.055 387.831L501.997 389.024C503.077 390.392 505.209 392.174 508.002 392.959C510.738 393.727 514.187 393.564 518.06 390.952L519.949 389.678V409.715L519.942 409.781C519.636 412.531 518.331 416.58 515.39 419.94C512.411 423.343 507.793 425.987 501.028 425.885C494.266 425.782 489.642 423.011 486.664 419.543C483.721 416.116 482.412 412.043 482.148 409.278L482.143 409.221V389.435L484.112 391.01C485.57 392.177 488.152 393.492 491.06 393.605C493.894 393.715 497.142 392.693 500.102 389.015L501.055 387.831ZM484.566 394.203V409.104C484.8 411.429 485.941 414.981 488.503 417.964C491.05 420.931 495.029 423.37 501.064 423.462C507.095 423.553 511.04 421.229 513.566 418.343C516.107 415.442 517.252 411.919 517.525 409.579V394.086C513.774 396.026 510.279 396.116 507.346 395.292C504.669 394.54 502.509 393.043 501.062 391.605C497.848 395.036 494.25 396.155 490.966 396.027C488.516 395.932 486.291 395.147 484.566 394.203Z" fill="#E26559"/>
<path fill-rule="evenodd" clip-rule="evenodd" d="M489.827 372.326L512.519 372.326L512.601 372.338C514.857 372.647 518.161 373.785 520.873 376.217C523.628 378.687 525.73 382.462 525.522 387.883C525.302 393.612 522.348 397.074 519.056 397.972L518.418 395.634C520.457 395.078 522.91 392.724 523.1 387.79C523.279 383.13 521.504 380.038 519.255 378.021C516.995 375.994 514.214 375.022 512.351 374.75H489.97C482.598 375.655 479.235 382.174 479.235 387.836C479.235 389.961 480.015 391.896 481.039 393.479C482.068 395.068 483.296 396.232 484.067 396.793L482.642 398.753C481.635 398.021 480.198 396.64 479.005 394.796C477.808 392.946 476.811 390.559 476.811 387.836C476.811 381.4 480.697 373.4 489.756 372.335L489.827 372.326Z" fill="#E26559"/>
<path fill-rule="evenodd" clip-rule="evenodd" d="M495.482 363.836C494.268 365.244 493.657 367.019 493.551 368.403C493.412 370.233 494.094 372.442 494.46 373.308L492.229 374.253C491.794 373.228 490.954 370.603 491.135 368.219C491.276 366.362 492.067 364.086 493.646 362.254C495.254 360.388 497.672 358.997 500.957 358.997C504.246 358.997 506.762 360.441 508.437 362.279C510.077 364.078 510.982 366.333 510.982 368.109C510.982 369.833 510.768 371.125 510.486 372.132C510.257 372.95 509.98 373.578 509.791 374.007C509.751 374.098 509.715 374.18 509.684 374.253L507.453 373.308C507.498 373.201 507.544 373.096 507.591 372.989C507.777 372.565 507.974 372.116 508.153 371.479C508.372 370.696 508.558 369.625 508.558 368.109C508.558 367.048 507.961 365.354 506.646 363.912C505.367 362.509 503.476 361.421 500.957 361.421C498.432 361.421 496.667 362.461 495.482 363.836Z" fill="#E26559"/>
<path fill-rule="evenodd" clip-rule="evenodd" d="M475.953 402.354C477.741 398.48 481.808 398.667 483.412 398.743L483.297 401.164C481.508 401.079 479.194 401.115 478.154 403.37C477.088 405.677 478.34 407.427 479.198 408.628C479.216 408.652 479.234 408.677 479.251 408.701L477.279 410.11C477.247 410.064 477.211 410.016 477.174 409.964C476.332 408.798 474.286 405.967 475.953 402.354Z" fill="#E26559"/>
<path fill-rule="evenodd" clip-rule="evenodd" d="M526.381 402.38C524.592 398.505 520.526 398.693 518.922 398.769L519.037 401.19C520.826 401.105 523.139 401.141 524.18 403.395C525.245 405.703 523.994 407.453 523.135 408.653C523.118 408.678 523.1 408.702 523.083 408.727L525.055 410.135C525.087 410.09 525.122 410.041 525.16 409.989C526.002 408.824 528.048 405.993 526.381 402.38Z" fill="#E26559"/>
<path fill-rule="evenodd" clip-rule="evenodd" d="M474.818 408.436H484.06L479.747 421.529L474.818 408.436ZM478.32 410.859L479.594 414.246L480.71 410.859H478.32Z" fill="#E26559"/>
<path fill-rule="evenodd" clip-rule="evenodd" d="M517.904 408.436H527.726L523.142 421.281L517.904 408.436ZM521.509 410.859L522.991 414.494L524.288 410.859H521.509Z" fill="#E26559"/>
<path fill-rule="evenodd" clip-rule="evenodd" d="M515.102 424.768C515.495 426.495 515.511 428.559 514.452 430.373L514.42 430.428L514.383 430.479C513.696 431.415 512.689 432.132 511.61 432.688C510.522 433.249 509.283 433.684 508.047 434.021C505.579 434.695 502.994 435.008 501.35 435.093L501.319 435.094H501.288C499.518 435.094 496.772 434.882 494.238 434.232C492.971 433.908 491.71 433.462 490.639 432.848C489.575 432.239 488.607 431.41 488.074 430.278C487.146 428.305 487.216 426.248 487.623 424.549C488.028 422.855 488.79 421.415 489.4 420.571L491.365 421.99C490.924 422.6 490.305 423.753 489.98 425.113C489.655 426.467 489.645 427.924 490.267 429.247C490.51 429.763 491.02 430.273 491.844 430.745C492.66 431.213 493.695 431.591 494.84 431.885C497.114 432.468 499.633 432.668 501.257 432.671C502.766 432.591 505.156 432.298 507.41 431.683C508.543 431.374 509.61 430.992 510.501 430.533C511.373 430.084 512.007 429.596 512.391 429.096C512.999 428.011 513.048 426.665 512.739 425.305C512.424 423.921 511.775 422.697 511.248 422.037L513.14 420.523C513.905 421.48 514.71 423.042 515.102 424.768Z" fill="#E26559"/>
<path fill-rule="evenodd" clip-rule="evenodd" d="M492.806 432.913V423.461H495.229V432.913H492.806Z" fill="#E26559"/>
<path fill-rule="evenodd" clip-rule="evenodd" d="M507.104 432.913L507.104 423.704L509.528 423.704L509.528 432.913L507.104 432.913Z" fill="#E26559"/>
<path fill-rule="evenodd" clip-rule="evenodd" d="M499.834 433.882L499.834 424.673L502.257 424.673L502.257 433.882L499.834 433.882Z" fill="#E26559"/>
<path fill-rule="evenodd" clip-rule="evenodd" d="M477.568 427.656C479.759 426.116 482.363 425.4 484.081 425.4H488.686V427.824H484.081C482.891 427.824 480.77 428.368 478.962 429.639C477.196 430.881 475.842 432.727 475.842 435.336V444.303H473.418V435.336C473.418 431.742 475.336 429.226 477.568 427.656Z" fill="#E26559"/>
<path fill-rule="evenodd" clip-rule="evenodd" d="M525.25 427.656C523.059 426.116 520.455 425.4 518.737 425.4H514.133V427.824H518.737C519.927 427.824 522.049 428.368 523.857 429.639C525.623 430.881 526.977 432.727 526.977 435.336V444.303H529.4V435.336C529.4 431.742 527.483 429.226 525.25 427.656Z" fill="#E26559"/>
</g>
<circle cx="502.5" cy="398.5" r="45" stroke="#E26559" stroke-width="5"/>
<circle cx="97.5" cy="348.5" r="95.5" fill="#DFE6EC"/>
<circle cx="98" cy="350" r="95.5" stroke="#3C4043" stroke-width="5"/>
<circle cx="193.258" cy="397.773" r="46.2883" fill="#DFE6EC"/>
<path d="M173.628 401.408V395.834H171.446L167.569 398.985L168.054 402.62L171.446 405.528L173.628 406.74L176.293 415.464L183.321 421.523L178.474 425.401L185.745 435.822L190.349 432.186L192.773 433.883L194.469 433.156L199.559 436.549L206.587 425.401L203.436 422.25V420.554L208.768 416.919L211.434 412.072L212.888 405.528H214.826L217.25 402.62L217.977 399.47L214.826 395.834H212.888L211.918 401.408L208.768 398.258L206.587 392.926L205.86 387.352L206.587 383.232L208.768 379.355V377.658L203.436 373.054L197.135 370.63H187.684L179.686 374.023L176.293 378.385L179.686 382.021V388.322L178.474 394.623L176.293 399.47L173.628 401.408Z" fill="white"/>
<mask id="mask1" mask-type="alpha" maskUnits="userSpaceOnUse" x="146" y="351" width="94" height="94">
<circle cx="193.258" cy="397.773" r="46.2883" fill="#C4C4C4"/>
</mask>
<g mask="url(#mask1)">
<path d="M173.11 381.389V401.114L177.212 398.618L178.659 392.126L179.624 384.385L178.659 380.64L176.247 378.143L174.799 379.142L173.11 381.389Z" fill="#DFE6EC"/>
<path d="M206.887 380.64L205.439 382.887V386.882L206.887 392.875L209.299 398.618L212.195 401.864L211.712 382.887V379.142L209.299 378.143L206.887 380.64Z" fill="#DFE6EC"/>
<path d="M165.873 444.061H219.191L219.674 435.822L218.226 431.327L212.918 426.583L209.299 425.834H206.887L199.649 437.32L194.341 433.574L192.411 434.573L190.481 433.574L185.656 437.32L178.659 426.583H174.799L170.215 428.081L167.32 431.826L165.873 435.572V444.061Z" fill="#DFE6EC"/>
<path fill-rule="evenodd" clip-rule="evenodd" d="M176.278 377.827L178.878 380.517L179.87 384.369L178.898 392.167L177.426 398.771L172.868 401.546V381.308L174.629 378.965L176.278 377.827ZM209.24 377.856L211.954 378.98V382.884L212.453 402.518L209.092 398.749L206.656 392.951L205.197 386.911V382.816L206.696 380.489L209.24 377.856ZM209.359 378.43L207.078 380.791L205.681 382.958V386.853L207.118 392.799L209.507 398.486L211.935 401.209L211.469 382.887L211.47 379.304L209.359 378.43ZM174.969 379.319L173.353 381.47V400.683L176.998 398.464L178.42 392.084L179.378 384.401L178.441 380.762L176.215 378.459L174.969 379.319ZM206.753 425.592H209.324L213.031 426.359L218.436 431.19L219.918 435.79L219.42 444.304H165.63V435.527L167.107 431.706L170.069 427.874L174.761 426.341H178.791L185.715 436.967L190.455 433.288L192.411 434.3L194.361 433.291L199.58 436.974L206.753 425.592ZM207.02 426.076L199.718 437.665L194.322 433.857L192.411 434.846L190.507 433.861L185.596 437.673L178.528 426.825H174.838L170.361 428.288L167.533 431.947L166.115 435.617V443.819H218.962L219.429 435.853L218.015 431.464L212.805 426.807L209.274 426.076H207.02Z" fill="#3C4043"/>
<path fill-rule="evenodd" clip-rule="evenodd" d="M184.533 396.319V400.197H188.411V396.319H184.533ZM183.564 393.896C182.761 393.896 182.11 394.547 182.11 395.35V401.166C182.11 401.969 182.761 402.62 183.564 402.62H189.38C190.183 402.62 190.834 401.969 190.834 401.166V395.35C190.834 394.547 190.183 393.896 189.38 393.896H183.564Z" fill="#3C4043"/>
<path fill-rule="evenodd" clip-rule="evenodd" d="M198.105 396.319V400.197H201.982V396.319H198.105ZM197.135 393.896C196.332 393.896 195.681 394.547 195.681 395.35V401.166C195.681 401.969 196.332 402.62 197.135 402.62H202.952C203.755 402.62 204.406 401.969 204.406 401.166V395.35C204.406 394.547 203.755 393.896 202.952 393.896H197.135Z" fill="#3C4043"/>
<path fill-rule="evenodd" clip-rule="evenodd" d="M186.974 410.11C187.388 409.584 188.15 409.494 188.676 409.908C190.316 411.199 194.494 412.924 198.324 409.908C198.85 409.494 199.612 409.584 200.026 410.11C200.44 410.636 200.35 411.398 199.824 411.812C194.736 415.818 189.252 413.446 187.176 411.812C186.651 411.398 186.56 410.636 186.974 410.11Z" fill="#3C4043"/>
<path fill-rule="evenodd" clip-rule="evenodd" d="M190.264 405.416C190.594 404.834 191.333 404.629 191.916 404.958C192.352 405.205 193.555 405.549 194.6 404.958C195.182 404.629 195.921 404.834 196.251 405.416C196.581 405.998 196.376 406.738 195.793 407.067C193.736 408.232 191.578 407.552 190.722 407.067C190.14 406.738 189.935 405.998 190.264 405.416Z" fill="#3C4043"/>
<path fill-rule="evenodd" clip-rule="evenodd" d="M182.352 390.503C182.352 389.833 182.895 389.291 183.564 389.291L189.865 389.291C190.534 389.291 191.077 389.833 191.077 390.503C191.077 391.172 190.534 391.714 189.865 391.714L183.564 391.714C182.895 391.714 182.352 391.172 182.352 390.503Z" fill="#3C4043"/>
<path fill-rule="evenodd" clip-rule="evenodd" d="M189.138 397.288C189.138 396.619 189.68 396.077 190.349 396.077L196.65 396.077C197.32 396.077 197.862 396.619 197.862 397.288C197.862 397.958 197.32 398.5 196.65 398.5L190.349 398.5C189.68 398.5 189.138 397.958 189.138 397.288Z" fill="#3C4043"/>
<path fill-rule="evenodd" clip-rule="evenodd" d="M195.439 390.503C195.439 389.833 195.981 389.291 196.65 389.291L201.497 389.291C202.167 389.291 202.709 389.833 202.709 390.503C202.709 391.172 202.167 391.714 201.497 391.714L196.65 391.714C195.981 391.714 195.439 391.172 195.439 390.503Z" fill="#3C4043"/>
<path d="M183.472 395.5C183.472 395.233 183.689 395.016 183.957 395.016H186.38C186.648 395.016 186.865 395.233 186.865 395.5V397.924C186.865 398.191 186.648 398.408 186.38 398.408H183.957C183.689 398.408 183.472 398.191 183.472 397.924V395.5Z" fill="#3C4043"/>
<path d="M197.043 395.5C197.043 395.233 197.26 395.016 197.528 395.016H199.952C200.219 395.016 200.436 395.233 200.436 395.5V397.924C200.436 398.191 200.219 398.408 199.952 398.408H197.528C197.26 398.408 197.043 398.191 197.043 397.924V395.5Z" fill="#3C4043"/>
<path fill-rule="evenodd" clip-rule="evenodd" d="M192.773 371.6C182.795 371.6 178.194 377.12 177.17 379.578L174.933 378.646C176.332 375.288 181.813 369.176 192.773 369.176C203.734 369.176 209.214 375.288 210.614 378.646L208.376 379.578C207.352 377.12 202.751 371.6 192.773 371.6Z" fill="#3C4043"/>
<path fill-rule="evenodd" clip-rule="evenodd" d="M174.597 382.008V399.288C175.224 398.664 176.033 397.539 176.879 395.594C178.909 390.924 178.788 386.64 178.731 384.636C178.723 384.368 178.717 384.141 178.717 383.959C178.717 383.846 178.659 383.544 178.453 383.078C178.26 382.642 177.98 382.157 177.65 381.708C177.317 381.256 176.962 380.878 176.634 380.626C176.284 380.356 176.089 380.324 176.051 380.324C175.919 380.324 175.643 380.423 175.267 380.881C174.974 381.238 174.739 381.673 174.597 382.008ZM173.394 379.343C173.931 378.69 174.826 377.901 176.051 377.901C176.861 377.901 177.576 378.292 178.111 378.705C178.669 379.134 179.178 379.695 179.602 380.273C180.03 380.854 180.401 381.49 180.67 382.099C180.926 382.678 181.14 383.346 181.14 383.959C181.14 384.11 181.147 384.311 181.154 384.555C181.215 386.521 181.365 391.353 179.101 396.56C178.089 398.889 177.031 400.367 176.043 401.255C175.1 402.103 174.044 402.554 173.122 402.349L172.174 402.138V381.565L172.247 381.364C172.444 380.822 172.832 380.027 173.394 379.343Z" fill="#3C4043"/>
<path fill-rule="evenodd" clip-rule="evenodd" d="M211.231 382.25V399.531C210.604 398.907 209.795 397.781 208.949 395.836C206.919 391.167 207.04 386.883 207.097 384.878C207.105 384.61 207.111 384.383 207.111 384.202C207.111 384.088 207.169 383.787 207.375 383.321C207.568 382.884 207.848 382.4 208.178 381.951C208.511 381.498 208.866 381.12 209.194 380.868C209.544 380.599 209.739 380.566 209.777 380.566C209.909 380.566 210.185 380.666 210.561 381.124C210.854 381.48 211.088 381.915 211.231 382.25ZM212.434 379.585C211.897 378.932 211.002 378.143 209.777 378.143C208.967 378.143 208.252 378.535 207.716 378.947C207.158 379.376 206.65 379.938 206.226 380.515C205.798 381.096 205.427 381.733 205.158 382.341C204.902 382.92 204.687 383.588 204.687 384.202C204.687 384.353 204.681 384.553 204.674 384.798C204.613 386.763 204.463 391.595 206.727 396.802C207.739 399.131 208.796 400.609 209.785 401.498C210.727 402.345 211.784 402.796 212.705 402.591L213.654 402.38V381.807L213.581 381.606C213.384 381.064 212.996 380.269 212.434 379.585Z" fill="#3C4043"/>
<path fill-rule="evenodd" clip-rule="evenodd" d="M172.174 407.225V401.166H174.597V407.225C174.597 407.935 174.922 409.276 175.704 410.964C176.469 412.616 177.62 414.487 179.147 416.245C182.202 419.761 186.68 422.735 192.531 422.735C199.986 422.735 204.618 419.433 207.418 415.84C208.831 414.029 209.782 412.134 210.378 410.538C210.987 408.909 211.191 407.685 211.191 407.225V401.408H213.615V407.225C213.615 408.097 213.305 409.63 212.648 411.386C211.98 413.175 210.917 415.294 209.33 417.33C206.132 421.432 200.828 425.158 192.531 425.158C185.78 425.158 180.685 421.71 177.318 417.834C175.633 415.896 174.361 413.83 173.505 411.983C172.666 410.172 172.174 408.453 172.174 407.225Z" fill="#3C4043"/>
<path fill-rule="evenodd" clip-rule="evenodd" d="M169.098 395.596C170.518 394.611 172.2 394.277 173.235 394.147L173.535 396.552C172.632 396.665 171.417 396.937 170.48 397.587C169.624 398.182 168.935 399.126 169.021 400.863C169.097 402.371 169.807 403.294 170.684 403.889C171.609 404.516 172.726 404.77 173.44 404.802L173.33 407.223C172.267 407.175 170.694 406.823 169.325 405.895C167.908 404.935 166.719 403.354 166.601 400.984C166.47 398.359 167.598 396.638 169.098 395.596Z" fill="#3C4043"/>
<path fill-rule="evenodd" clip-rule="evenodd" d="M216.792 395.612C215.422 394.616 213.8 394.279 212.803 394.148L212.488 396.551C213.343 396.663 214.486 396.931 215.367 397.572C216.171 398.156 216.842 399.103 216.758 400.866C216.685 402.396 215.996 403.319 215.173 403.904C214.301 404.522 213.252 404.771 212.588 404.803L212.703 407.223C213.736 407.174 215.256 406.817 216.575 405.88C217.943 404.91 219.067 403.329 219.179 400.981C219.303 398.382 218.239 396.663 216.792 395.612Z" fill="#3C4043"/>
<path fill-rule="evenodd" clip-rule="evenodd" d="M167.327 435.368C167.402 433.967 168.047 431.801 169.763 430.015C171.456 428.254 174.287 426.763 178.935 426.855L178.983 424.432C173.743 424.329 170.233 426.029 168.016 428.336C165.834 430.605 164.998 433.366 164.905 435.278L164.903 435.307V443.092H167.327V435.368Z" fill="#3C4043"/>
<path fill-rule="evenodd" clip-rule="evenodd" d="M218.462 435.13C218.386 433.728 217.742 431.562 216.025 429.777C214.332 428.015 211.501 426.525 206.853 426.616L206.805 424.193C212.045 424.091 215.555 425.791 217.772 428.097C219.954 430.367 220.791 433.128 220.884 435.04L220.885 435.069V443.096H218.462V435.13Z" fill="#3C4043"/>
<path fill-rule="evenodd" clip-rule="evenodd" d="M181.934 420.23L183.74 421.846L180.242 425.755L186.064 434.589L190.852 431.17L192.722 432.573L194.401 431.133L199.26 434.604L206.073 424.713L208.069 426.088L199.857 438.009L194.537 434.209L192.823 435.678L190.817 434.173L185.425 438.024L177.191 425.531L181.934 420.23Z" fill="#3C4043"/>
<path fill-rule="evenodd" clip-rule="evenodd" d="M189.896 433.438L181.172 422.775L183.048 421.24L191.772 431.904L189.896 433.438Z" fill="#3C4043"/>
<path fill-rule="evenodd" clip-rule="evenodd" d="M195.357 433.496L204.809 423.317L203.033 421.668L193.581 431.847L195.357 433.496Z" fill="#3C4043"/>
<path fill-rule="evenodd" clip-rule="evenodd" d="M206.215 426.5L202.095 422.38L203.808 420.666L207.928 424.786L206.215 426.5Z" fill="#3C4043"/>
</g>
<circle cx="193.5" cy="398.5" r="45" stroke="#3C4043" stroke-width="5"/>
<path d="M77.8978 397.751H118.63C122.918 397.751 126.375 394.239 126.375 389.957V352.124C126.375 350.934 125.372 349.931 124.182 349.931C122.992 349.931 121.989 350.934 121.989 352.124V389.957C121.989 391.764 120.437 393.316 118.63 393.316H77.8978C76.1492 393.316 74.6369 391.774 74.6369 389.957V310.36C74.6369 308.494 76.1001 307.001 77.8978 307.001H118.63C120.49 307.001 121.989 308.458 121.989 310.36V345.393C121.989 346.582 122.992 347.585 124.182 347.585C125.372 347.585 126.375 346.582 126.375 345.393V310.36C126.375 306.026 122.964 302.615 118.63 302.615H77.8978C73.7076 302.615 70.251 306.078 70.251 310.36V390.006C70.251 394.188 73.7551 397.751 77.8978 397.751Z" fill="#3C4043" stroke="#3C4043" stroke-width="0.75"/>
<path d="M109.669 305.926L109.669 305.926L109.664 305.936L107.578 311.221H88.9982L86.914 305.941C86.473 304.754 85.1033 304.125 83.905 304.623C82.7191 305.067 82.0927 306.438 82.5939 307.636L85.2915 314.404C85.6179 315.305 86.5059 315.857 87.4297 315.857H109.196C110.113 315.857 111.017 315.308 111.292 314.338L113.984 307.633L113.986 307.626L113.989 307.62C114.425 306.435 113.861 305.124 112.682 304.627C111.464 304.114 110.156 304.769 109.669 305.926Z" fill="#3C4043" stroke="#3C4043"/>
<path d="M97.6495 389.078H99.0252C100.284 389.078 101.343 388.019 101.343 386.76C101.343 385.501 100.284 384.442 99.0252 384.442H97.6495C96.3907 384.442 95.3315 385.501 95.3315 386.76C95.3315 388.019 96.3907 389.078 97.6495 389.078Z" fill="#3C4043" stroke="#3C4043"/>
<circle cx="97.5" cy="97.5" r="95.5" fill="#FFD5D1"/>
<circle cx="98" cy="98" r="95.5" stroke="#E26559" stroke-width="5"/>
<path d="M123.429 127.903V127.912L123.429 127.921C123.484 130.939 121.009 133.427 117.97 133.427H40.5245C37.4883 133.427 35 130.939 35 127.903V71.0097C35 67.9735 37.4883 65.4852 40.5245 65.4852H117.904C120.941 65.4852 123.429 67.9735 123.429 71.0097V100.304C123.429 101.105 122.785 101.718 122.015 101.718C121.262 101.718 120.601 101.057 120.601 100.304V71.0097C120.601 69.544 119.37 68.3133 117.904 68.3133H40.5245C39.0587 68.3133 37.8281 69.544 37.8281 71.0097V127.903C37.8281 129.369 39.0588 130.599 40.5245 130.599H117.904C119.37 130.599 120.601 129.369 120.601 127.903V107.808C120.601 107.007 121.245 106.394 122.015 106.394C122.767 106.394 123.429 107.055 123.429 107.808V127.903Z" fill="#E26559" stroke="#E26559" stroke-width="2"/>
<path d="M93.8942 145.237H64.4689C63.6687 145.237 63.0549 144.594 63.0549 143.823C63.0549 143.023 63.6987 142.409 64.4689 142.409H93.8942C94.6945 142.409 95.3082 143.053 95.3082 143.823C95.3082 144.594 94.6945 145.237 93.8942 145.237Z" fill="#E26559" stroke="#E26559" stroke-width="2"/>
<path d="M70.5271 145.223L70.468 145.203L70.407 145.191C69.6514 145.04 69.169 144.284 69.3541 143.543L69.3564 143.534L69.3586 143.525L70.6634 137.848L70.6666 137.835L70.6694 137.821C70.8206 137.065 71.5765 136.583 72.3171 136.768L72.3402 136.773L72.3635 136.778C73.119 136.929 73.6015 137.685 73.4163 138.426L73.414 138.435L73.4119 138.444L72.1082 144.116C72.108 144.116 72.1078 144.117 72.1076 144.118C71.9493 144.786 71.3649 145.237 70.7328 145.237C70.6812 145.237 70.6487 145.237 70.62 145.236C70.5934 145.235 70.5793 145.234 70.5713 145.233L70.5705 145.233C70.5634 145.233 70.5542 145.232 70.5271 145.223Z" fill="#E26559" stroke="#E26559" stroke-width="2"/>
<path d="M86.2684 144.115L86.2654 144.097L86.2617 144.079L83.8486 132.274C83.8484 132.274 83.8483 132.273 83.8482 132.273C83.694 131.496 84.2068 130.73 84.9562 130.58C85.7329 130.425 86.5002 130.938 86.6502 131.688L86.6502 131.688L86.651 131.692L89.0642 143.497C89.0644 143.498 89.0645 143.498 89.0646 143.499C89.2143 144.252 88.7356 144.996 88.0221 145.176C87.883 145.186 87.7708 145.209 87.7077 145.221C87.7035 145.222 87.6995 145.223 87.6957 145.224C87.6508 145.233 87.6315 145.236 87.6252 145.237C86.9657 145.234 86.3768 144.766 86.2684 144.115Z" fill="#E26559" stroke="#E26559" stroke-width="2"/>
<path d="M122.08 122.597H43.656C42.8557 122.597 42.2419 121.953 42.2419 121.183C42.2419 120.383 42.8857 119.769 43.656 119.769H122.08C122.88 119.769 123.494 120.413 123.494 121.183C123.494 121.954 122.88 122.597 122.08 122.597Z" fill="#E26559" stroke="#E26559" stroke-width="2"/>
<path d="M153.985 145.237H114.12C111.794 145.237 109.836 143.328 109.836 140.952V139.517C109.836 138.716 110.479 138.103 111.25 138.103C112.05 138.103 112.664 138.746 112.664 139.517V140.952C112.664 141.765 113.307 142.409 114.12 142.409H153.985C154.604 142.409 155.572 141.993 155.572 140.952V52.2848C155.572 51.2436 154.604 50.8281 153.985 50.8281H114.12C113.307 50.8281 112.664 51.4716 112.664 52.2848V59.2659C112.664 60.0663 112.02 60.68 111.25 60.68C110.449 60.68 109.836 60.0362 109.836 59.2659V52.2848C109.836 49.9583 111.745 48 114.12 48H153.985C156.466 48 158.4 49.8675 158.4 52.2848V140.94C158.341 143.333 156.434 145.237 153.985 145.237Z" fill="#E26559" stroke="#E26559" stroke-width="2"/>
<path d="M134.019 133.427C131.003 133.427 128.625 131.024 128.625 127.903C128.625 124.781 131.003 122.378 134.019 122.378C134.82 122.378 135.433 123.022 135.433 123.792C135.433 124.545 134.772 125.206 134.019 125.206C132.476 125.206 131.454 126.453 131.454 127.903C131.454 129.352 132.476 130.599 134.019 130.599C135.485 130.599 136.716 129.369 136.716 127.903C136.716 127.102 137.36 126.489 138.13 126.489C138.93 126.489 139.544 127.132 139.544 127.903C139.544 130.939 137.056 133.427 134.019 133.427Z" fill="#E26559" stroke="#E26559" stroke-width="2"/>
<path d="M146.677 72.7933H147.677V71.7933V69.2488V68.2488H146.677H130.04C129.239 68.2488 128.625 67.605 128.625 66.8347C128.625 66.0821 129.287 65.4207 130.04 65.4207H149.091C149.891 65.4207 150.505 66.0644 150.505 66.8347V74.2073C150.505 75.0252 149.909 75.6214 149.091 75.6214H130.04C129.239 75.6214 128.625 74.9777 128.625 74.2073C128.625 73.407 129.269 72.7933 130.04 72.7933H146.677Z" fill="#E26559" stroke="#E26559" stroke-width="2"/>
<path d="M156.92 86.7127H130.04C129.239 86.7127 128.625 86.069 128.625 85.2987C128.625 84.4983 129.269 83.8846 130.04 83.8846H156.92C157.721 83.8846 158.334 84.5283 158.334 85.2987C158.334 86.1165 157.738 86.7127 156.92 86.7127Z" fill="#E26559" stroke="#E26559" stroke-width="2"/>
<path d="M156.92 114.637H130.04C129.239 114.637 128.625 113.994 128.625 113.223C128.625 112.471 129.287 111.809 130.04 111.809H156.92C157.721 111.809 158.334 112.453 158.334 113.223C158.334 113.994 157.721 114.637 156.92 114.637Z" fill="#E26559" stroke="#E26559" stroke-width="2"/>
<path d="M126.19 53.5677C125.39 53.5677 124.776 52.924 124.776 52.1536V49.4786C124.776 48.6783 125.42 48.0646 126.19 48.0646C126.991 48.0646 127.604 48.7083 127.604 49.4786V52.1536C127.604 52.9715 127.008 53.5677 126.19 53.5677Z" fill="#E26559" stroke="#E26559" stroke-width="2"/>
<path d="M134.019 53.5677C133.219 53.5677 132.605 52.924 132.605 52.1536V49.4786C132.605 48.6783 133.249 48.0646 134.019 48.0646C134.772 48.0646 135.434 48.726 135.434 49.4786V52.1536C135.434 52.9715 134.837 53.5677 134.019 53.5677Z" fill="#E26559" stroke="#E26559" stroke-width="2"/>
<path d="M141.98 53.5677C141.179 53.5677 140.565 52.9239 140.565 52.1536V49.4786C140.565 48.6783 141.209 48.0646 141.98 48.0646C142.732 48.0646 143.394 48.726 143.394 49.4786V52.1536C143.394 52.9715 142.797 53.5677 141.98 53.5677Z" fill="#E26559" stroke="#E26559" stroke-width="2"/>
<path d="M149.091 100.675H130.04C129.239 100.675 128.625 100.031 128.625 99.2607C128.625 98.5081 129.287 97.8467 130.04 97.8467H149.091C149.891 97.8467 150.505 98.4904 150.505 99.2607C150.505 100.031 149.891 100.675 149.091 100.675Z" fill="#E26559" stroke="#E26559" stroke-width="2"/>
<circle cx="193.253" cy="146.253" r="47.2628" fill="#FFD5D1"/>
<mask id="mask2" mask-type="alpha" maskUnits="userSpaceOnUse" x="145" y="98" width="96" height="96">
<circle cx="193.253" cy="146.253" r="46.7628" fill="#EACFFF" stroke="#E26559"/>
</mask>
<g mask="url(#mask2)">
<path d="M184.345 167.533V194.257L200.676 196.732L218.245 190.051L217.008 180.153L212.554 176.936L207.605 175.946H201.666V167.533L206.862 162.584L210.327 157.882L208.347 149.717L204.388 142.788L198.202 136.602L192.015 133.138L185.582 130.663H178.406H175.189L174.447 144.52L171.725 145.263L168.508 147.985V151.449L169.745 154.666L168.508 156.893L170.735 158.625H172.962L174.447 156.893L175.189 158.625L176.921 160.604L184.345 167.533Z" fill="white"/>
<path fill-rule="evenodd" clip-rule="evenodd" d="M174.954 130.416H185.628L192.121 132.913L198.352 136.403L204.586 142.637L208.579 149.624L210.594 157.936L207.049 162.748L201.913 167.639V175.699H207.629L212.655 176.704L217.24 180.015L218.515 190.213L200.703 196.986L184.097 194.47V167.641L176.743 160.777L174.977 158.758L174.376 157.356L173.076 158.872H170.65L168.188 156.958L169.473 154.647L168.26 151.495V147.87L171.607 145.038L174.209 144.329L174.954 130.416ZM175.423 130.911L174.684 144.712L171.843 145.487L168.755 148.099V151.403L170.017 154.685L168.827 156.828L170.82 158.377H172.848L174.517 156.43L175.401 158.491L177.099 160.432L184.592 167.425V194.045L200.649 196.478L217.975 189.889L216.776 180.29L212.452 177.168L207.58 176.194H201.418V167.427L206.676 162.42L210.059 157.829L208.115 149.809L204.189 142.94L198.051 136.801L191.91 133.362L185.536 130.911H175.423Z" fill="#E26559"/>
<path d="M164.301 193.763H184.592V168.028L176.673 160.357L175.436 157.388L172.467 158.872H170.735L169.745 156.398L170.735 154.418L169.003 150.706L169.745 146.5L172.467 145.263L175.436 144.273V130.416H183.602L192.263 132.89L200.181 137.839L206.862 146.5L211.069 156.398L210.327 158.872L202.656 167.038V171.74H204.388L210.327 168.028L215.028 164.316L219.482 157.388L222.204 148.727L221.709 139.076L219.482 132.148L215.77 125.714L206.862 119.528L200.923 116.311L191.273 115.816L181.87 118.538L172.467 124.229L166.776 133.632L164.301 145.263V193.763Z" fill="#FFD5D1"/>
<path fill-rule="evenodd" clip-rule="evenodd" d="M191.244 115.567L200.992 116.067L206.992 119.317L215.957 125.543L219.71 132.047L221.955 139.032L222.454 148.759L219.708 157.494L215.214 164.485L210.469 168.231L204.459 171.987H202.408V166.94L210.106 158.745L210.806 156.412L206.647 146.626L200.012 138.026L192.161 133.119L183.568 130.663H175.684V144.451L172.558 145.493L169.966 146.671L169.26 150.673L171.01 154.422L170.016 156.409L170.902 158.625H172.409L175.563 157.048L176.882 160.215L184.839 167.923V194.01H164.054V145.237L166.542 133.54L172.287 124.049L181.77 118.31L191.244 115.567ZM191.302 116.066L181.97 118.767L172.647 124.41L167.009 133.725L164.549 145.289V193.515H184.345V168.133L176.465 160.499L175.31 157.728L172.525 159.12H170.567L169.474 156.387L170.46 154.415L168.745 150.74L169.524 146.329L172.376 145.032L175.189 144.095V130.168H183.637L192.364 132.662L200.35 137.653L207.078 146.374L211.332 156.383L210.547 158.999L202.903 167.136V171.492H204.317L210.184 167.825L214.842 164.148L219.256 157.282L221.955 148.695L221.464 139.121L219.255 132.249L215.584 125.886L206.733 119.739L200.855 116.555L191.302 116.066Z" fill="#E26559"/>
<path fill-rule="evenodd" clip-rule="evenodd" d="M205.567 119.849C199.444 116.788 186.611 115.132 176.437 122.941C172.409 126.032 169.78 130.295 168.135 134.424C166.494 138.545 165.866 142.451 165.786 144.746V193.719H163.311V144.703L163.312 144.682C163.399 142.108 164.084 137.909 165.836 133.509C167.59 129.105 170.446 124.419 174.93 120.978C186.037 112.454 199.928 114.263 206.673 117.636C213.34 120.969 223.441 128.985 223.441 144.724C223.441 160.431 213.621 169.495 204.571 172.856L204.552 172.863L204.532 172.87C204.256 172.962 203.533 173.185 202.708 173.391L202.108 170.991C202.846 170.806 203.493 170.607 203.73 170.529C211.996 167.451 220.967 159.195 220.967 144.724C220.967 130.275 211.767 122.949 205.567 119.849Z" fill="#E26559"/>
<path fill-rule="evenodd" clip-rule="evenodd" d="M201.171 166.747H203.645V174.418H208.842C211.032 174.418 213.668 175.417 215.778 177.181C217.915 178.967 219.616 181.628 219.729 185.017L219.73 185.038V193.719H217.255V185.08C217.164 182.54 215.898 180.506 214.191 179.079C212.453 177.627 210.363 176.893 208.842 176.893H201.171V166.747Z" fill="#E26559"/>
<path fill-rule="evenodd" clip-rule="evenodd" d="M176.673 131.911V154.622C176.673 158.484 178.206 160.247 178.62 160.537L178.685 160.582L178.743 160.635C180.541 162.27 185.116 166.223 189.013 168.951C192.375 171.304 196.066 169.949 197.492 168.951C202.34 165.557 207.384 161.628 209.783 157.366C208.735 150.8 204.676 142.205 195.3 136.111C188.385 131.616 180.517 131.388 176.673 131.911ZM175.183 129.656C178.956 128.866 188.385 128.665 196.649 134.037C206.877 140.685 211.259 150.173 212.294 157.417L212.35 157.813L212.164 158.168C209.529 163.174 203.829 167.535 198.911 170.978C197.037 172.289 192.151 174.168 187.594 170.978C183.61 168.189 178.995 164.205 177.13 162.513C175.899 161.598 174.199 158.989 174.199 154.622V129.862L175.183 129.656Z" fill="#E26559"/>
<path fill-rule="evenodd" clip-rule="evenodd" d="M172.463 143.489C173.555 143.201 174.64 143.198 175.367 143.303L175.011 145.752C174.581 145.69 173.834 145.686 173.093 145.882C172.356 146.076 171.757 146.429 171.402 146.971C170.229 148.758 169.975 151.768 171.896 154.068L171.912 154.088L172.314 154.613L170.349 156.117L169.979 155.633C167.289 152.391 167.647 148.184 169.333 145.613C170.135 144.39 171.368 143.778 172.463 143.489Z" fill="#E26559"/>
<path fill-rule="evenodd" clip-rule="evenodd" d="M171.972 157.839C172.655 157.839 173.209 157.285 173.209 156.602C173.209 155.919 172.655 155.365 171.972 155.365C171.289 155.365 170.735 155.919 170.735 156.602C170.735 157.285 171.289 157.839 171.972 157.839ZM171.972 160.314C174.022 160.314 175.684 158.652 175.684 156.602C175.684 154.552 174.022 152.89 171.972 152.89C169.922 152.89 168.26 154.552 168.26 156.602C168.26 158.652 169.922 160.314 171.972 160.314Z" fill="#E26559"/>
<path fill-rule="evenodd" clip-rule="evenodd" d="M183.355 193.719V166.995H185.829V193.719H183.355Z" fill="#E26559"/>
<path fill-rule="evenodd" clip-rule="evenodd" d="M205.13 184.811V175.903H207.605V184.811H205.13Z" fill="#E26559"/>
<path fill-rule="evenodd" clip-rule="evenodd" d="M218.492 186.048H184.839V183.574H218.492V186.048Z" fill="#E26559"/>
<path fill-rule="evenodd" clip-rule="evenodd" d="M184.592 146.456V150.416H188.551V146.456H184.592ZM183.602 143.982C182.782 143.982 182.117 144.647 182.117 145.467V151.405C182.117 152.225 182.782 152.89 183.602 152.89H189.541C190.361 152.89 191.025 152.225 191.025 151.405V145.467C191.025 144.647 190.361 143.982 189.541 143.982H183.602Z" fill="#E26559"/>
<path fill-rule="evenodd" clip-rule="evenodd" d="M198.449 146.456V150.416H202.408V146.456H198.449ZM197.459 143.982C196.639 143.982 195.974 144.647 195.974 145.467V151.405C195.974 152.225 196.639 152.89 197.459 152.89H203.398C204.218 152.89 204.883 152.225 204.883 151.405V145.467C204.883 144.647 204.218 143.982 203.398 143.982H197.459Z" fill="#E26559"/>
<path fill-rule="evenodd" clip-rule="evenodd" d="M188.174 160.426C188.659 159.944 189.442 159.947 189.924 160.431C190.527 161.038 191.637 161.777 192.921 161.987C194.126 162.185 195.58 161.938 197.077 160.431C197.558 159.947 198.342 159.944 198.826 160.426C199.311 160.908 199.313 161.691 198.832 162.176C196.766 164.255 194.507 164.755 192.521 164.429C190.612 164.117 189.05 163.063 188.169 162.176C187.687 161.691 187.689 160.908 188.174 160.426Z" fill="#E26559"/>
<path fill-rule="evenodd" clip-rule="evenodd" d="M190.444 155.745C190.78 155.15 191.535 154.941 192.13 155.278C192.575 155.53 193.804 155.881 194.87 155.278C195.465 154.941 196.22 155.15 196.556 155.745C196.893 156.34 196.684 157.095 196.089 157.431C193.988 158.62 191.785 157.926 190.911 157.431C190.316 157.095 190.107 156.34 190.444 155.745Z" fill="#E26559"/>
<path fill-rule="evenodd" clip-rule="evenodd" d="M182.365 140.518C182.365 139.834 182.919 139.28 183.602 139.28L190.036 139.28C190.719 139.28 191.273 139.834 191.273 140.518C191.273 141.201 190.719 141.755 190.036 141.755L183.602 141.755C182.919 141.755 182.365 141.201 182.365 140.518Z" fill="#E26559"/>
<path fill-rule="evenodd" clip-rule="evenodd" d="M195.727 140.518C195.727 139.834 196.281 139.28 196.964 139.28L201.913 139.28C202.597 139.28 203.151 139.834 203.151 140.518C203.151 141.201 202.597 141.755 201.913 141.755L196.964 141.755C196.281 141.755 195.727 141.201 195.727 140.518Z" fill="#E26559"/>
<path d="M183.571 145.931C183.571 145.658 183.793 145.436 184.066 145.436H186.541C186.814 145.436 187.036 145.658 187.036 145.931V148.406C187.036 148.679 186.814 148.9 186.541 148.9H184.066C183.793 148.9 183.571 148.679 183.571 148.406V145.931Z" fill="#E26559"/>
<path d="M197.429 145.931C197.429 145.658 197.65 145.436 197.924 145.436H200.398C200.671 145.436 200.893 145.658 200.893 145.931V148.406C200.893 148.679 200.671 148.9 200.398 148.9H197.924C197.65 148.9 197.429 148.679 197.429 148.406V145.931Z" fill="#E26559"/>
</g>
<path fill-rule="evenodd" clip-rule="evenodd" d="M193.5 191.577C218.395 191.577 238.577 171.395 238.577 146.5C238.577 121.605 218.395 101.423 193.5 101.423C168.605 101.423 148.423 121.605 148.423 146.5C148.423 171.395 168.605 191.577 193.5 191.577ZM193.5 194C219.734 194 241 172.734 241 146.5C241 120.266 219.734 99 193.5 99C167.266 99 146 120.266 146 146.5C146 172.734 167.266 194 193.5 194Z" fill="#E26559" stroke="#E26559" stroke-width="2"/>
<mask id="mask3" mask-type="alpha" maskUnits="userSpaceOnUse" x="312" y="2" width="191" height="191">
<circle cx="407.5" cy="97.5" r="95.5" fill="#CADCFF"/>
</mask>
<g mask="url(#mask3)">
<circle cx="407.5" cy="97.5" r="95.5" fill="#DFE6EC"/>
</g>
<circle cx="408" cy="98" r="95.5" stroke="#3C4043" stroke-width="5"/>
<mask id="mask4" mask-type="alpha" maskUnits="userSpaceOnUse" x="456" y="99" width="94" height="94">
<circle cx="503.258" cy="146.258" r="46.2883" fill="#CADCFF"/>
</mask>
<g mask="url(#mask4)">
<circle cx="503.258" cy="146.258" r="46.2883" fill="#DFE6EC"/>
<path d="M486.051 125.173L482.658 141.653L480.719 143.834L477.084 145.288V148.439L478.296 151.832L481.689 153.77H484.112L490.413 155.224L494.048 157.406L498.411 156.194L501.561 157.406L504.227 156.194L510.043 157.406L511.74 156.194L516.344 153.77H521.434L524.826 152.801L527.008 149.651V146.742L524.826 143.834L521.434 142.622V141.653L518.283 129.536H513.436L504.227 128.324L486.051 125.173Z" fill="white"/>
<path d="M477.084 178.49L475.388 185.033C477.165 186.487 480.719 189.541 480.719 190.122C480.719 190.704 485.405 193.273 487.747 194.485L519.495 192.788L528.946 187.214L527.977 179.702L526.038 176.066L520.707 173.158L513.436 172.673L508.589 173.158L501.561 176.066L494.775 172.673H489.929L484.112 173.158L479.265 175.097L477.084 178.49Z" fill="white"/>
<mask id="mask5" mask-type="alpha" maskUnits="userSpaceOnUse" x="456" y="99" width="94" height="94">
<circle cx="503.258" cy="146.258" r="46.2883" fill="#FF0606"/>
</mask>
<g mask="url(#mask5)">
<path d="M482.173 154.013L481.204 161.525L482.173 165.161L484.839 167.826L502.773 176.066L520.222 167.342L522.645 164.191V160.556L521.434 154.013L515.86 153.286L511.982 155.709L510.043 158.133L505.923 157.163H501.319H497.199H493.321L489.202 154.013L483.87 153.286L482.173 154.013Z" fill="#DFE6EC"/>
<path d="M479.023 127.112L482.173 139.714L485.809 124.689H483.87L480.477 125.416L479.023 127.112Z" fill="#DFE6EC"/>
<path fill-rule="evenodd" clip-rule="evenodd" d="M483.844 124.446H486.117L482.409 139.771L481.938 139.773L478.758 127.05L480.346 125.196L483.844 124.446ZM483.896 124.931L480.608 125.636L479.289 127.175L482.17 138.7L485.501 124.931H483.896ZM515.805 153.034L521.64 153.795L522.888 160.534V164.274L520.38 167.534L502.777 176.335L484.699 168.029L481.956 165.286L480.958 161.542L481.951 153.844L483.836 153.037L489.298 153.781L493.404 156.921H505.952L509.95 157.862L511.819 155.526L515.805 153.034ZM515.915 153.537L512.146 155.893L510.137 158.404L505.895 157.406H493.239L489.105 154.244L483.904 153.535L482.396 154.181L481.451 161.509L482.391 165.035L484.98 167.624L502.769 175.798L520.064 167.15L522.403 164.109V160.578L521.228 154.23L515.915 153.537Z" fill="#3C4043"/>
<path d="M505.439 111.844V109.421L495.987 111.844L489.686 117.903L486.293 123.234L487.99 125.416L510.043 129.293H518.768L521.676 140.441L526.038 127.354L530.158 124.931L527.492 120.569L521.676 115.722L522.403 112.571L520.222 111.844L512.467 110.875L505.439 111.844Z" fill="#DFE6EC"/>
<path fill-rule="evenodd" clip-rule="evenodd" d="M505.681 109.108V111.566L512.465 110.63L520.276 111.607L522.689 112.411L521.946 115.631L527.678 120.408L530.494 125.015L526.24 127.517L521.648 141.292L518.581 129.535H510.022L487.856 125.638L485.997 123.248L489.497 117.748L495.865 111.625L505.681 109.108ZM496.109 112.063L489.875 118.057L486.59 123.22L488.124 125.193L510.065 129.051H518.955L521.704 139.59L525.837 127.191L529.823 124.847L527.307 120.729L521.406 115.812L522.117 112.731L520.168 112.082L512.468 111.119L505.197 112.122V109.733L496.109 112.063Z" fill="#3C4043"/>
<path fill-rule="evenodd" clip-rule="evenodd" d="M493.321 144.803V148.681H497.199V144.803H493.321ZM492.352 142.38C491.549 142.38 490.898 143.031 490.898 143.834V149.65C490.898 150.453 491.549 151.104 492.352 151.104H498.168C498.971 151.104 499.622 150.453 499.622 149.65V143.834C499.622 143.031 498.971 142.38 498.168 142.38H492.352Z" fill="#3C4043"/>
<path fill-rule="evenodd" clip-rule="evenodd" d="M506.893 144.803V148.681H510.77V144.803H506.893ZM505.923 142.38C505.12 142.38 504.469 143.031 504.469 143.834V149.65C504.469 150.453 505.12 151.104 505.923 151.104H511.74C512.543 151.104 513.194 150.453 513.194 149.65V143.834C513.194 143.031 512.543 142.38 511.74 142.38H505.923Z" fill="#3C4043"/>
<path fill-rule="evenodd" clip-rule="evenodd" d="M491.14 138.987C491.14 138.318 491.683 137.775 492.352 137.775L498.653 137.775C499.322 137.775 499.865 138.318 499.865 138.987C499.865 139.656 499.322 140.199 498.653 140.199L492.352 140.199C491.683 140.199 491.14 139.656 491.14 138.987Z" fill="#3C4043"/>
<path fill-rule="evenodd" clip-rule="evenodd" d="M504.227 138.987C504.227 138.318 504.77 137.775 505.439 137.775L510.286 137.775C510.955 137.775 511.497 138.318 511.497 138.987C511.497 139.656 510.955 140.199 510.286 140.199L505.439 140.199C504.77 140.199 504.227 139.656 504.227 138.987Z" fill="#3C4043"/>
<path d="M492.26 144.227C492.26 143.959 492.477 143.742 492.745 143.742H495.168C495.436 143.742 495.653 143.959 495.653 144.227V146.65C495.653 146.918 495.436 147.135 495.168 147.135H492.745C492.477 147.135 492.26 146.918 492.26 146.65V144.227Z" fill="#3C4043"/>
<path d="M505.832 144.227C505.832 143.959 506.049 143.742 506.316 143.742H508.74C509.007 143.742 509.224 143.959 509.224 144.227V146.65C509.224 146.918 509.007 147.135 508.74 147.135H506.316C506.049 147.135 505.832 146.918 505.832 146.65V144.227Z" fill="#3C4043"/>
<path fill-rule="evenodd" clip-rule="evenodd" d="M506.65 107.797V110.847C508.375 110.302 510.625 109.795 513.061 109.612C516.387 109.362 520.184 109.706 523.47 111.509L524.399 112.018L524.01 113.028C523.715 113.797 523.562 114.194 523.48 114.4C523.443 114.494 523.407 114.584 523.373 114.655C523.355 114.692 523.319 114.766 523.263 114.847C523.255 114.859 523.247 114.87 523.239 114.881C523.23 114.9 523.216 114.928 523.198 114.966C523.153 115.062 523.088 115.202 522.996 115.408C524.133 116.048 525.529 116.991 526.871 118.194C528.664 119.802 530.441 121.949 531.308 124.548L531.577 125.355L530.909 125.882C528.407 127.857 525.018 129.165 521.381 129.933C517.731 130.705 513.745 130.952 509.977 130.745L509.895 130.741L486.934 126.34C486.265 129.214 485.492 132.63 484.86 135.629C484.502 137.331 484.19 138.892 483.968 140.139C483.739 141.429 483.627 142.277 483.627 142.622V142.624C483.627 143.96 483.627 147.434 483.475 151.124C483.324 154.769 483.021 158.785 482.372 161.123C481.995 162.477 482.313 163.622 482.897 164.553C483.491 165.501 484.343 166.186 484.919 166.511L502.582 175.222C503.182 175.518 503.429 176.244 503.133 176.844C502.837 177.445 502.11 177.691 501.51 177.395L483.792 168.658L483.766 168.643C482.888 168.156 481.695 167.198 480.844 165.841C479.973 164.453 479.443 162.61 480.036 160.474C480.599 158.449 480.901 154.71 481.054 151.024C481.204 147.386 481.204 143.954 481.204 142.622C481.204 142.023 481.362 140.957 481.582 139.716C481.81 138.431 482.128 136.843 482.489 135.129C483.212 131.7 484.115 127.74 484.839 124.654C485.026 123.86 485.2 123.123 485.357 122.468L485.372 122.406L485.393 122.345C486.891 118.117 492.925 109.597 505.281 107.977L506.65 107.797ZM487.488 123.979L510.191 128.33C513.749 128.519 517.488 128.28 520.88 127.562C523.94 126.915 526.651 125.894 528.694 124.503C527.932 122.781 526.654 121.254 525.253 119.998C523.641 118.553 521.949 117.539 520.923 117.063L519.857 116.568L520.32 115.487C520.684 114.637 520.889 114.179 521.009 113.925L521.012 113.92C521.069 113.8 521.13 113.672 521.211 113.549C521.215 113.537 521.221 113.523 521.227 113.507C521.258 113.43 521.3 113.322 521.359 113.169C518.842 112.07 515.962 111.824 513.242 112.029C510.181 112.259 507.447 113.05 505.903 113.691L504.227 114.385V110.595C493.921 112.485 488.932 119.691 487.699 123.096C487.632 123.376 487.561 123.671 487.488 123.979ZM523.108 115.034L523.11 115.032L523.108 115.034Z" fill="#3C4043"/>
<path fill-rule="evenodd" clip-rule="evenodd" d="M525.175 126.678C525.816 126.871 526.18 127.546 525.987 128.187C525.023 131.4 523.021 139.162 522.643 144.644C522.168 151.528 522.877 156.012 523.828 160.293C524.746 164.421 522.298 167.205 520.877 168.119L520.825 168.152L502.594 177.389C501.997 177.692 501.268 177.453 500.965 176.856C500.663 176.259 500.901 175.53 501.498 175.228L519.613 166.049C520.468 165.472 522.085 163.619 521.463 160.819C520.475 156.375 519.73 151.651 520.225 144.478C520.622 138.715 522.691 130.741 523.666 127.491C523.858 126.85 524.534 126.486 525.175 126.678Z" fill="#3C4043"/>
<path fill-rule="evenodd" clip-rule="evenodd" d="M520.498 141.693L517.59 129.576L519.946 129.01L522.855 141.128L520.498 141.693Z" fill="#3C4043"/>
<path fill-rule="evenodd" clip-rule="evenodd" d="M506.591 157.977C504.698 157.612 503.017 158.032 502.103 158.489L501.635 158.723L501.144 158.543C498.593 157.608 496.488 158.018 494.862 158.886C493.593 159.564 492.609 160.527 491.968 161.373C493.226 162.443 494.822 162.799 496.482 162.738C498.451 162.665 500.362 162 501.49 161.418L502.037 161.136L502.588 161.411C504.678 162.456 506.33 162.901 507.842 162.8C509.074 162.718 510.329 162.265 511.749 161.281C510.061 159.195 508.216 158.291 506.591 157.977ZM507.05 155.598C509.556 156.081 512.232 157.586 514.44 160.846L515.062 161.765L514.2 162.466C512.136 164.143 510.147 165.075 508.004 165.218C506.05 165.349 504.112 164.812 502.044 163.841C500.658 164.468 498.668 165.082 496.571 165.16C494.157 165.249 491.456 164.623 489.49 162.31L488.939 161.662L489.361 160.924C490.103 159.625 491.592 157.885 493.72 156.748C495.784 155.646 498.437 155.123 501.5 156.104C502.864 155.543 504.862 155.175 507.05 155.598Z" fill="#3C4043"/>
<path fill-rule="evenodd" clip-rule="evenodd" d="M487.611 154.996C485.613 154.507 483.631 154.664 482.459 154.948L481.888 152.593C483.382 152.231 485.762 152.048 488.187 152.642C490.64 153.242 493.199 154.656 494.856 157.527L492.756 158.738C491.505 156.568 489.581 155.478 487.611 154.996Z" fill="#3C4043"/>
<path fill-rule="evenodd" clip-rule="evenodd" d="M521.171 154.953C514.819 153.542 512.025 156.986 511.417 158.568L509.155 157.698C510.162 155.079 514.089 150.897 521.697 152.587L521.171 154.953Z" fill="#3C4043"/>
<path fill-rule="evenodd" clip-rule="evenodd" d="M478.517 142.642C479.896 141.819 481.441 141.605 482.474 141.654L482.358 144.075C481.695 144.043 480.646 144.193 479.759 144.723C478.93 145.218 478.2 146.062 478.048 147.59C477.901 149.053 478.517 150.152 479.448 150.993C480.409 151.862 481.646 152.389 482.467 152.595L481.88 154.946C480.762 154.666 479.14 153.982 477.823 152.791C476.475 151.572 475.395 149.763 475.636 147.349C475.871 144.999 477.08 143.5 478.517 142.642Z" fill="#3C4043"/>
<path fill-rule="evenodd" clip-rule="evenodd" d="M525.333 142.648C523.953 141.824 522.409 141.61 521.376 141.66L521.491 144.08C522.155 144.049 523.203 144.199 524.09 144.728C524.919 145.223 525.649 146.067 525.802 147.595C525.948 149.058 525.332 150.157 524.402 150.999C523.441 151.867 522.203 152.395 521.382 152.6L521.97 154.951C523.087 154.672 524.709 153.988 526.027 152.796C527.374 151.578 528.455 149.768 528.213 147.354C527.978 145.004 526.769 143.505 525.333 142.648Z" fill="#3C4043"/>
<path fill-rule="evenodd" clip-rule="evenodd" d="M478.133 125.806C480.923 122.783 484.847 123.221 486.454 123.788L485.648 126.074C484.59 125.7 482.161 125.466 480.328 127.048C480.914 130.225 482.458 136.826 483.591 141.359L481.24 141.947C480.03 137.106 478.322 129.79 477.828 126.827L477.73 126.242L478.133 125.806Z" fill="#3C4043"/>
<path fill-rule="evenodd" clip-rule="evenodd" d="M485.533 174.126C484.507 174.172 483.788 174.246 483.437 174.333C478.021 175.687 476.599 180.84 476.599 183.336V190.607H474.176V183.336C474.176 180.34 475.857 173.73 482.849 171.982L482.849 171.982C483.467 171.828 484.414 171.75 485.425 171.705C486.47 171.658 487.695 171.643 488.929 171.643C490.165 171.643 491.421 171.658 492.531 171.674C492.701 171.676 492.866 171.678 493.027 171.68C493.931 171.693 494.704 171.704 495.26 171.704L495.26 174.127C494.685 174.127 493.891 174.116 492.99 174.104C492.829 174.101 492.665 174.099 492.498 174.097C491.389 174.082 490.147 174.067 488.929 174.067C487.709 174.067 486.525 174.082 485.533 174.126Z" fill="#3C4043"/>
<path fill-rule="evenodd" clip-rule="evenodd" d="M518.559 174.187C519.585 174.232 520.304 174.306 520.655 174.394C526.071 175.748 527.492 180.9 527.492 183.397V190.667H529.916V183.397C529.916 180.401 528.235 173.791 521.243 172.043L521.243 172.043C520.625 171.888 519.677 171.811 518.667 171.766C517.622 171.719 516.397 171.704 515.163 171.704C513.927 171.704 512.671 171.719 511.56 171.734C511.391 171.737 511.226 171.739 511.064 171.741C510.161 171.754 509.388 171.764 508.832 171.764L508.832 174.188C509.406 174.188 510.201 174.177 511.102 174.164C511.263 174.162 511.427 174.16 511.593 174.158C512.702 174.142 513.945 174.127 515.163 174.127C516.383 174.127 517.566 174.142 518.559 174.187Z" fill="#3C4043"/>
<path fill-rule="evenodd" clip-rule="evenodd" d="M516.777 178.02C515.549 179.827 513.75 181.666 511.254 182.751C505.439 185.279 498.257 185.835 492.276 182.714C489.834 181.44 488.055 179.59 486.857 177.809C485.674 176.051 485 174.273 484.849 173.066L487.253 172.765C487.345 173.497 487.833 174.919 488.868 176.456C489.887 177.971 491.381 179.514 493.397 180.566C498.565 183.262 504.953 182.848 510.287 180.529C512.25 179.675 513.723 178.202 514.773 176.657C515.827 175.107 516.409 173.549 516.618 172.643L518.979 173.188C518.703 174.383 518.001 176.218 516.777 178.02Z" fill="#3C4043"/>
</g>
</g>
<circle cx="503.5" cy="146.5" r="45" stroke="#3C4043" stroke-width="5"/>
<path d="M380.099 147.375H435.744C439.887 147.375 443.168 143.68 443.168 139.188V99.0833C443.168 97.8717 442.237 96.7812 441.054 96.7812C439.878 96.7812 438.941 97.8128 438.941 99.0833V139.188C438.941 141.153 437.428 142.771 435.744 142.771H380.099C378.414 142.771 376.902 141.153 376.902 139.188V54.8125C376.902 52.7916 378.323 51.2292 380.099 51.2292H435.744C437.478 51.2292 438.941 52.7462 438.941 54.8125V91.9479C438.941 93.1595 439.872 94.25 441.054 94.25C442.231 94.25 443.168 93.2185 443.168 91.9479V54.8125C443.168 50.2676 439.934 46.625 435.744 46.625H380.099C375.909 46.625 372.674 50.2676 372.674 54.8125V139.188C372.674 143.68 375.956 147.375 380.099 147.375Z" fill="#3C4043" stroke="#3C4043" stroke-width="0.75"/>
<path d="M407.261 139.281H408.577C409.759 139.281 410.691 138.191 410.691 136.979C410.691 135.768 409.759 134.677 408.577 134.677H407.261C406.085 134.677 405.147 135.709 405.147 136.979C405.147 138.191 406.079 139.281 407.261 139.281Z" fill="#3C4043" stroke="#3C4043" stroke-width="0.75"/>
<path d="M374.739 131.239H441.052C442.288 131.239 443.166 130.142 443.166 128.937C443.166 127.726 442.234 126.635 441.052 126.635H374.739C373.557 126.635 372.625 127.726 372.625 128.937C372.625 130.149 373.557 131.239 374.739 131.239Z" fill="#3C4043" stroke="#3C4043" stroke-width="0.75"/>
<path d="M374.739 63.3643H441.052C442.288 63.3643 443.166 62.2669 443.166 61.0622C443.166 59.8506 442.234 58.7601 441.052 58.7601H374.739C373.557 58.7601 372.625 59.8506 372.625 61.0622C372.625 62.2738 373.557 63.3643 374.739 63.3643Z" fill="#3C4043" stroke="#3C4043" stroke-width="0.75"/>
</svg>
