<svg width="144" height="144" viewBox="0 0 144 144" fill="none" xmlns="http://www.w3.org/2000/svg">
<g opacity="0.1">
<path d="M41 2H5C3.34315 2 2 3.34315 2 5V41" stroke="#E26559" stroke-width="3.5"/>
<path d="M41 142H5C3.34315 142 2 140.657 2 139V103" stroke="#E26559" stroke-width="3.5"/>
<path d="M103 2H139C140.657 2 142 3.34315 142 5V41" stroke="#E26559" stroke-width="3.5"/>
<path d="M103 142H139C140.657 142 142 140.657 142 139V103" stroke="#E26559" stroke-width="3.5"/>
</g>
<path d="M40.6705 106C40.8663 106 41.0606 105.966 41.2445 105.899L49.0838 103.03C52.23 101.874 55.0883 100.05 57.462 97.6839L101.715 53.4371C102.025 53.1287 102.201 52.7109 102.205 52.2739C102.209 51.8369 102.042 51.4157 101.738 51.1012L105.507 47.3558C105.821 47.0438 105.998 46.6198 106 46.1772C106.002 45.7345 105.827 45.3093 105.516 44.9949L100.061 39.4941C99.9061 39.3379 99.7219 39.2139 99.5189 39.1291C99.3159 39.0443 99.0982 39.0005 98.8782 39C98.6579 38.9985 98.4396 39.041 98.2361 39.1249C98.0325 39.2089 97.8478 39.3327 97.6927 39.4891L93.9242 43.2575L92.0997 41.409C91.682 40.9833 91.1836 40.6451 90.6336 40.4142C90.0837 40.1832 89.4933 40.0641 88.8968 40.0638H88.8814C88.2874 40.0622 87.6991 40.1783 87.1504 40.4056C86.6017 40.6328 86.1035 40.9667 85.6847 41.3877L72.7394 54.3326C72.5842 54.4877 72.4612 54.6718 72.3772 54.8745C72.2932 55.0772 72.25 55.2945 72.25 55.5139C72.25 55.7332 72.2932 55.9505 72.3772 56.1532C72.4612 56.3559 72.5842 56.54 72.7394 56.6952C73.0527 57.0085 73.4777 57.1845 73.9208 57.1845C74.1403 57.1845 74.3575 57.1413 74.5602 57.0573C74.763 56.9733 74.9472 56.8503 75.1023 56.6952L88.0481 43.7516C88.1574 43.6415 88.2876 43.5542 88.431 43.4949C88.5745 43.4356 88.7283 43.4054 88.8835 43.4062H88.8872C89.0428 43.4062 89.1968 43.4372 89.3403 43.4974C89.4837 43.5576 89.6137 43.6459 89.7226 43.757L90.4101 44.454L67.8719 66.9871L47.3166 87.5393C44.95 89.9127 43.126 92.7707 41.97 95.9164L39.1017 103.756C39.0093 104.008 38.9793 104.279 39.014 104.546C39.0488 104.812 39.1474 105.066 39.3015 105.287C39.4555 105.507 39.6604 105.687 39.8988 105.811C40.1373 105.935 40.4017 106 40.6705 106ZM98.8694 43.0382L101.967 46.1622L99.3773 48.7361L96.2742 45.6335L98.8694 43.0382ZM98.171 52.256L76.8358 73.588L71.4157 68.1686L92.7505 46.8363L98.171 52.256ZM45.1073 97.0641C46.096 94.3744 47.6558 91.9308 49.6795 89.9015L69.0524 70.5313L74.4728 75.9506L55.1 95.3213C53.0704 97.3448 50.6263 98.9044 47.936 99.8928L43.4754 101.526L45.1073 97.0641Z" fill="#3C4043"/>
<path fill-rule="evenodd" clip-rule="evenodd" d="M71.67 99.0913C77.7402 96.8713 84.2347 94.5 89.7727 94.5C94.2059 94.5 98.0499 96.1387 101.015 98.1296C103.971 100.114 106.14 102.505 107.248 104.168C107.708 104.858 107.521 105.789 106.832 106.248C106.142 106.708 105.211 106.521 104.752 105.832C103.861 104.495 101.973 102.386 99.3432 100.62C96.7232 98.8613 93.4532 97.5 89.7727 97.5C84.8789 97.5 78.9348 99.6287 72.7005 101.909C72.5601 101.96 72.4195 102.012 72.2788 102.063C66.3534 104.231 60.1525 106.5 55 106.5C54.1716 106.5 53.5 105.828 53.5 105C53.5 104.172 54.1716 103.5 55 103.5C59.6151 103.5 65.4034 101.383 71.6473 99.0996L71.67 99.0913Z" fill="#3C4043"/>
</svg>