<svg width="596" height="420" viewBox="0 0 596 420" fill="none" xmlns="http://www.w3.org/2000/svg">
<g filter="url(#filter0_d_948_5949)">
<rect x="40.5" y="36" width="515" height="340" fill="white"/>
</g>
<rect x="188.5" y="13" width="220" height="386" stroke="#B55147" stroke-width="2"/>
<path d="M340.884 142.934C344.874 137.5 353.333 124.138 355.249 114.164C357.643 101.697 358.122 91.1485 353.333 77.243C348.545 63.3375 340.884 54.227 324.124 50.8705C307.365 47.514 282.944 54.227 271.931 64.776C260.918 75.325 252.299 89.2305 248.947 105.533C245.595 121.836 249.905 141.975 260.918 148.688C271.931 155.401 289.169 167.868 324.124 158.278C352.088 150.606 363.868 124.394 366.262 112.246M287.733 147.25C288.988 158.171 290.768 177.195 292.071 199.093M292.071 199.093C293.42 221.742 294.258 247.467 293.479 270.481C293.366 273.824 293.294 276.858 293.258 279.606M292.071 199.093C269.972 202.658 233.936 212.624 228.836 213.9C224.239 215.051 209.363 215.978 202.5 216.298M292.071 199.093C294.869 198.641 297.444 198.293 299.704 198.077C315.793 196.543 340.564 193.282 350.939 191.843M293.258 279.606C292.863 310.519 297.141 305.22 300.16 296.215M293.258 279.606C294.01 277.742 294.725 275.973 295.394 274.317M293.258 279.606C282.174 307.088 262.95 355.242 260.439 363.504C257.758 372.327 252.618 382.844 250.384 387C249.107 385.881 246.074 382.397 244.159 377.41C241.765 371.176 240.807 366.381 228.836 363.504C219.259 361.203 218.142 349.439 218.78 343.845M300.16 296.215C300.506 295.181 300.836 294.1 301.14 293.018M300.16 296.215C299.992 289.19 299.831 282.685 299.704 277.674M300.16 296.215C300.624 315.627 301.14 339.003 301.14 345.763C301.14 357.271 294.915 366.861 303.056 356.312C311.196 345.763 368.177 333.775 383.5 338.57" stroke="black" stroke-width="3" stroke-linecap="round" stroke-linejoin="round"/>
<rect width="26" height="27" transform="translate(187.5 12)" fill="#B55147"/>
<path fill-rule="evenodd" clip-rule="evenodd" d="M199.453 17.6889C199.853 17.6889 200.196 17.973 200.274 18.3678C200.926 21.6556 203.474 24.2256 206.734 24.8832C207.125 24.9621 207.407 25.3087 207.407 25.7113C207.407 26.1138 207.125 26.4604 206.734 26.5393C203.474 27.1969 200.926 29.7669 200.274 33.0547C200.196 33.4495 199.853 33.7336 199.453 33.7336C199.054 33.7336 198.711 33.4495 198.633 33.0547C197.981 29.7669 195.433 27.1969 192.173 26.5393C191.782 26.4604 191.5 26.1138 191.5 25.7113C191.5 25.3087 191.782 24.9621 192.173 24.8832C195.433 24.2256 197.981 21.6556 198.633 18.3678C198.711 17.973 199.054 17.6889 199.453 17.6889ZM194.924 25.7113C196.892 26.6855 198.488 28.2947 199.453 30.2795C200.419 28.2947 202.015 26.6855 203.983 25.7113C202.015 24.737 200.419 23.1278 199.453 21.143C198.488 23.1278 196.892 24.737 194.924 25.7113Z" fill="white"/>
<path fill-rule="evenodd" clip-rule="evenodd" d="M206.291 16C206.384 16.5263 206.587 17.0053 206.874 17.4046C207.015 17.6021 207.177 17.78 207.356 17.9346C207.693 18.2266 208.09 18.435 208.523 18.5334C208.09 18.6317 207.693 18.8401 207.356 19.1321C207.177 19.2867 207.015 19.4647 206.874 19.6622C206.587 20.0614 206.384 20.5404 206.291 21.0667C206.198 20.5404 205.994 20.0614 205.708 19.6622C205.566 19.4647 205.404 19.2867 205.226 19.1321C204.889 18.8401 204.492 18.6317 204.058 18.5334C204.492 18.435 204.889 18.2266 205.226 17.9346C205.404 17.78 205.566 17.6021 205.708 17.4046C205.994 17.0053 206.198 16.5263 206.291 16Z" fill="white"/>
<path fill-rule="evenodd" clip-rule="evenodd" d="M207.128 30.2147C206.928 30.2147 206.757 30.3568 206.717 30.5542C206.553 31.3813 205.912 32.0279 205.092 32.1933C204.897 32.2328 204.756 32.4061 204.756 32.6074C204.756 32.8086 204.897 32.9819 205.092 33.0214C205.912 33.1868 206.553 33.8334 206.717 34.6606C206.757 34.8579 206.928 35 207.128 35C207.327 35 207.499 34.8579 207.538 34.6606C207.702 33.8334 208.343 33.1868 209.163 33.0214C209.359 32.9819 209.5 32.8086 209.5 32.6074C209.5 32.4061 209.359 32.2328 209.163 32.1933C208.343 32.0279 207.702 31.3813 207.538 30.5542C207.499 30.3568 207.327 30.2147 207.128 30.2147ZM207.989 32.6074C207.645 32.8323 207.351 33.1285 207.128 33.4758C206.905 33.1285 206.611 32.8323 206.267 32.6074C206.611 32.3824 206.905 32.0862 207.128 31.7389C207.351 32.0862 207.645 32.3824 207.989 32.6074Z" fill="white"/>
<rect width="104" height="27" transform="translate(213.5 12)" fill="#E26559"/>
<path d="M229.936 29.5H227.848L226.228 27.16H226.132H224.44V29.5H222.496V21.1H226.132C228.376 21.1 229.78 22.264 229.78 24.148C229.78 25.408 229.144 26.332 228.052 26.8L229.936 29.5ZM227.812 24.148C227.812 23.224 227.212 22.684 226.024 22.684H224.44V25.612H226.024C227.212 25.612 227.812 25.06 227.812 24.148ZM237.512 26.296C237.512 26.44 237.488 26.644 237.476 26.8H232.592C232.772 27.604 233.456 28.096 234.44 28.096C235.124 28.096 235.616 27.892 236.06 27.472L237.056 28.552C236.456 29.236 235.556 29.596 234.392 29.596C232.16 29.596 230.708 28.192 230.708 26.272C230.708 24.34 232.184 22.948 234.152 22.948C236.048 22.948 237.512 24.22 237.512 26.296ZM234.164 24.364C233.312 24.364 232.7 24.88 232.568 25.708H235.748C235.616 24.892 235.004 24.364 234.164 24.364ZM241.879 29.596C239.779 29.596 238.279 28.216 238.279 26.272C238.279 24.328 239.779 22.948 241.879 22.948C243.235 22.948 244.303 23.536 244.771 24.592L243.319 25.372C242.971 24.76 242.455 24.484 241.867 24.484C240.919 24.484 240.175 25.144 240.175 26.272C240.175 27.4 240.919 28.06 241.867 28.06C242.455 28.06 242.971 27.796 243.319 27.172L244.771 27.964C244.303 28.996 243.235 29.596 241.879 29.596ZM248.838 29.596C246.786 29.596 245.286 28.216 245.286 26.272C245.286 24.328 246.786 22.948 248.838 22.948C250.89 22.948 252.378 24.328 252.378 26.272C252.378 28.216 250.89 29.596 248.838 29.596ZM248.838 28.06C249.774 28.06 250.482 27.388 250.482 26.272C250.482 25.156 249.774 24.484 248.838 24.484C247.902 24.484 247.182 25.156 247.182 26.272C247.182 27.388 247.902 28.06 248.838 28.06ZM258.514 23.044H260.29V28.42C260.29 30.82 258.994 31.924 256.666 31.924C255.442 31.924 254.254 31.624 253.498 31.036L254.242 29.692C254.794 30.136 255.694 30.424 256.522 30.424C257.842 30.424 258.418 29.824 258.418 28.66V28.384C257.926 28.924 257.218 29.188 256.378 29.188C254.59 29.188 253.15 27.952 253.15 26.068C253.15 24.184 254.59 22.948 256.378 22.948C257.278 22.948 258.022 23.248 258.514 23.872V23.044ZM256.75 27.652C257.734 27.652 258.442 27.016 258.442 26.068C258.442 25.12 257.734 24.484 256.75 24.484C255.766 24.484 255.046 25.12 255.046 26.068C255.046 27.016 255.766 27.652 256.75 27.652ZM265.956 22.948C267.48 22.948 268.632 23.836 268.632 25.804V29.5H266.76V26.092C266.76 25.048 266.28 24.568 265.452 24.568C264.552 24.568 263.904 25.12 263.904 26.308V29.5H262.032V23.044H263.82V23.8C264.324 23.248 265.08 22.948 265.956 22.948ZM271.265 22.144C270.569 22.144 270.101 21.688 270.101 21.1C270.101 20.512 270.569 20.056 271.265 20.056C271.961 20.056 272.429 20.488 272.429 21.064C272.429 21.688 271.961 22.144 271.265 22.144ZM270.329 29.5V23.044H272.201V29.5H270.329ZM275.858 28.06H279.254V29.5H273.494V28.372L276.782 24.484H273.578V23.044H279.146V24.172L275.858 28.06ZM281.39 22.144C280.694 22.144 280.226 21.688 280.226 21.1C280.226 20.512 280.694 20.056 281.39 20.056C282.086 20.056 282.554 20.488 282.554 21.064C282.554 21.688 282.086 22.144 281.39 22.144ZM280.454 29.5V23.044H282.326V29.5H280.454ZM287.987 22.948C289.511 22.948 290.663 23.836 290.663 25.804V29.5H288.791V26.092C288.791 25.048 288.311 24.568 287.483 24.568C286.583 24.568 285.935 25.12 285.935 26.308V29.5H284.063V23.044H285.851V23.8C286.355 23.248 287.111 22.948 287.987 22.948ZM297.314 23.044H299.09V28.42C299.09 30.82 297.794 31.924 295.466 31.924C294.242 31.924 293.054 31.624 292.298 31.036L293.042 29.692C293.594 30.136 294.494 30.424 295.322 30.424C296.642 30.424 297.218 29.824 297.218 28.66V28.384C296.726 28.924 296.018 29.188 295.178 29.188C293.39 29.188 291.95 27.952 291.95 26.068C291.95 24.184 293.39 22.948 295.178 22.948C296.078 22.948 296.822 23.248 297.314 23.872V23.044ZM295.55 27.652C296.534 27.652 297.242 27.016 297.242 26.068C297.242 25.12 296.534 24.484 295.55 24.484C294.566 24.484 293.846 25.12 293.846 26.068C293.846 27.016 294.566 27.652 295.55 27.652ZM301.541 29.596C300.893 29.596 300.377 29.104 300.377 28.42C300.377 27.724 300.893 27.268 301.541 27.268C302.189 27.268 302.705 27.724 302.705 28.42C302.705 29.104 302.189 29.596 301.541 29.596ZM304.681 29.596C304.033 29.596 303.517 29.104 303.517 28.42C303.517 27.724 304.033 27.268 304.681 27.268C305.329 27.268 305.845 27.724 305.845 28.42C305.845 29.104 305.329 29.596 304.681 29.596ZM307.822 29.596C307.174 29.596 306.658 29.104 306.658 28.42C306.658 27.724 307.174 27.268 307.822 27.268C308.47 27.268 308.986 27.724 308.986 28.42C308.986 29.104 308.47 29.596 307.822 29.596Z" fill="white"/>
<defs>
<filter id="filter0_d_948_5949" x="0.5" y="0" width="595" height="420" filterUnits="userSpaceOnUse" color-interpolation-filters="sRGB">
<feFlood flood-opacity="0" result="BackgroundImageFix"/>
<feColorMatrix in="SourceAlpha" type="matrix" values="0 0 0 0 0 0 0 0 0 0 0 0 0 0 0 0 0 0 127 0" result="hardAlpha"/>
<feOffset dy="4"/>
<feGaussianBlur stdDeviation="20"/>
<feComposite in2="hardAlpha" operator="out"/>
<feColorMatrix type="matrix" values="0 0 0 0 0 0 0 0 0 0 0 0 0 0 0 0 0 0 0.12 0"/>
<feBlend mode="normal" in2="BackgroundImageFix" result="effect1_dropShadow_948_5949"/>
<feBlend mode="normal" in="SourceGraphic" in2="effect1_dropShadow_948_5949" result="shape"/>
</filter>
</defs>
</svg>
