<svg width="133" height="80" viewBox="0 0 133 80" fill="none" xmlns="http://www.w3.org/2000/svg">
<path d="M21.5809 21.9714C20.8547 21.8429 20.1089 21.7145 19.3771 21.6139C18.6202 21.4854 17.9526 21.41 17.1622 21.3821C17.1622 21.9184 17.1622 22.4323 17.1622 22.9658C26.8628 22.9407 36.5774 22.5077 46.2669 22.2256C55.9676 21.9184 65.6655 21.6111 75.3661 21.3541C80.8771 21.2005 86.3489 21.0469 91.857 20.9184C92.6307 20.8933 93.2815 20.4072 93.2815 19.7955C93.2173 16.7035 93.3457 13.6059 93.734 10.539C94.0552 7.46931 94.8373 4.47783 95.4518 1.46121C94.639 1.61484 93.8317 1.7936 93.0189 1.97516C97.8148 5.52807 102.412 9.31279 107.144 12.9718C111.873 16.603 116.669 20.2089 121.492 23.7618C124.247 25.7841 127.034 27.7784 129.816 29.7476C129.88 29.2113 129.981 28.6722 130.079 28.1359C117.864 34.8619 106.887 42.9425 97.6835 52.1488C95.0328 54.8079 92.5022 57.52 90.1392 60.3328C91.0135 60.5115 91.8905 60.7182 92.762 60.897C92.8262 55.1682 92.9268 49.4394 92.9575 43.6855C92.9575 43.0989 92.276 42.5096 91.4967 42.5347C72.0646 43.7386 52.6437 44.9145 33.2284 46.0904C27.7343 46.42 22.229 46.7524 16.7264 47.0624C17.1789 47.42 17.6314 47.7775 18.0839 48.1378C18.7487 39.546 18.2487 30.9542 16.6119 22.4379C16.4974 21.8485 15.5421 21.5161 14.8606 21.6698C14.0534 21.8262 13.7433 22.4379 13.8718 23.0524C15.4583 31.3369 15.9443 39.7751 15.3606 48.1378C15.327 48.6992 16.0253 49.2607 16.7236 49.2104C36.1389 48.0093 55.5598 46.9367 74.9751 45.8083C80.486 45.5038 85.9885 45.1687 91.4939 44.8363C91.0079 44.4787 90.4911 44.0709 90.0386 43.6855C89.9744 49.4422 89.9744 55.1682 89.9409 60.897C89.9409 62.0478 91.8235 62.3522 92.5637 61.4584C100.6 51.8667 110.348 43.2274 121.52 35.8618C124.696 33.7642 128.001 31.795 131.366 29.9012C132.014 29.5437 132.31 28.7784 131.629 28.2896C121.783 21.3346 112.127 14.2008 102.829 6.75984C100.209 4.66218 97.5522 2.56451 95.0887 0.341149C94.3457 -0.323624 92.8905 0.0562534 92.6279 0.852305C91.5916 3.89686 91.0721 7.14251 90.6867 10.2876C90.3319 13.4606 90.2677 16.6309 90.4241 19.8011C90.9101 19.4157 91.3961 19.0582 91.8542 18.6783C72.4668 19.4436 53.0432 20.0581 33.6446 20.6977C28.1561 20.8765 22.6451 21.0553 17.1594 21.3876C15.8941 21.4631 15.8605 22.9993 17.1594 22.9714C17.9498 22.9462 18.6146 22.8708 19.3743 22.7423C20.1062 22.6138 20.8519 22.5133 21.5781 22.3848C21.8435 22.329 21.8435 21.9966 21.5809 21.9714Z" fill="#3C4043"/>
<path d="M13.3853 24.3749C13.9523 23.6599 14.8098 23.0705 15.8126 22.7661C15.5388 22.5091 15.2791 22.2298 15.0221 21.9728C12.6367 24.4783 10.5474 27.1402 8.43302 29.7993C6.31021 32.4304 4.18741 35.0672 2.05064 37.7263C1.11213 38.8771 0.23508 40.0279 0.126147 41.4328C0.0116273 42.9691 0.366359 44.5528 0.514397 46.089C0.804886 49.1811 1.11492 52.3038 1.41938 55.3958C1.75735 58.9739 2.24895 62.5547 2.45565 66.1104C2.50592 67.0573 3.99467 67.3646 4.64269 66.5964C9.743 60.4599 14.2288 53.9881 18.5387 47.494C19.3347 46.2901 17.0499 45.2427 16.2595 46.4465C11.9831 52.9658 7.26826 59.2839 2.62044 65.6496C3.34666 65.806 4.07568 65.9568 4.80749 66.1104C4.39969 63.0659 4.22371 59.999 3.94439 56.9293C3.65391 53.8624 3.37739 50.8179 3.10366 47.751C2.95562 46.2147 2.81038 44.6813 2.66793 43.1478C2.60368 42.4328 2.42212 41.6674 2.51989 40.9747C2.60089 40.3128 3.05338 39.7485 3.47514 39.2122C5.46667 36.6286 7.50568 34.0449 9.53072 31.464C11.8323 28.5228 14.2121 25.6067 16.2231 22.5398C16.5444 22.0538 15.8964 21.4924 15.2623 21.7745C14.0501 22.3108 13.2065 23.1041 12.8015 24.1766C12.687 24.4504 13.1898 24.604 13.3853 24.3749Z" fill="#3C4043"/>
<path d="M4.04321 66.5197C5.62973 66.6482 7.28329 66.5197 8.88657 66.4192C10.5066 66.3158 12.1211 66.2153 13.7243 66.1119C16.9644 65.908 20.1877 65.7041 23.4306 65.4723C29.8241 65.0365 36.24 64.5785 42.6559 64.1176C49.0662 63.6847 55.4654 63.1959 61.8757 62.7378C65.018 62.5339 68.2106 62.4054 71.3194 62.0199C72.716 61.8663 74.0427 61.5088 75.1768 60.8189C76.2465 60.1792 77.0705 59.3357 77.8666 58.5173C82.2686 54.0175 86.6762 49.5149 91.0782 45.0151C91.4665 44.6073 91.1425 43.9398 90.6257 43.6828C89.9777 43.4007 89.3269 43.6325 88.9387 44.0431C85.1204 47.9535 81.3273 51.8668 77.537 55.7521C75.9169 57.4168 74.3947 59.5117 71.6462 60.048C70.2496 60.3049 68.7944 60.3552 67.3699 60.4558C65.8141 60.5591 64.2443 60.6876 62.6885 60.7882C50.136 61.7099 37.5835 62.654 25.0506 63.5757C21.4837 63.8578 17.9364 64.1371 14.3751 64.4472C12.6573 64.5757 10.9284 64.7014 9.20778 64.855C7.42854 65.0086 5.5627 65.1092 3.86166 65.517C3.13544 65.6762 3.32816 66.4415 4.04321 66.5197Z" fill="#3C4043"/>
<path d="M74.4921 62.3488C74.8021 61.941 75.1568 61.5555 75.4138 61.1449C74.8468 61.0164 74.3021 60.8907 73.7323 60.7874C73.4223 66.667 72.7882 72.5243 71.4782 78.3564C71.3302 78.9709 71.9978 79.7362 72.9027 79.4793C77.6651 78.1497 80.3214 74.365 83.0783 71.245C84.7262 69.354 86.4105 67.4631 88.0976 65.5693C88.9383 64.5973 89.8154 63.628 90.6896 62.6812C91.3991 61.8348 92.8292 60.7623 92.6979 59.6897C92.6337 59.2567 92.1784 58.9244 91.5946 59.0249C90.2371 59.307 89.5863 60.5611 88.8405 61.3795C88.0333 62.3264 87.1926 63.2454 86.3798 64.1923C84.7933 65.9827 83.2375 67.7982 81.651 69.5887C80.2264 71.2255 78.869 72.8874 77.3467 74.446C75.9836 75.8007 74.3775 77.1051 72.2882 77.7196C72.7575 78.0799 73.2491 78.4625 73.7184 78.8452C75.0283 72.8846 75.7741 66.8262 75.5283 60.7902C75.4948 60.0249 73.925 59.7679 73.7658 60.5863C73.6681 61.1226 73.6848 61.6365 73.6681 62.17C73.6681 62.5303 74.2686 62.6309 74.4921 62.3488Z" fill="#3C4043"/>
<path d="M93.0859 3.76498C93.8987 2.89351 94.2534 1.51369 93.9322 0.463459C93.8009 0.0305182 93.0859 -0.0979663 92.7311 0.209282C88.5526 3.32645 84.536 6.5749 80.5501 9.82335C79.7429 10.4881 78.9022 11.2032 78.3855 12.0216C77.8017 12.9433 77.6062 13.9153 77.4749 14.9097C77.2849 17.161 77.2179 19.4095 77.0866 21.6608C77.0224 22.8395 79.3575 22.8395 79.4217 21.6608C79.5474 19.5128 79.6452 17.3928 79.81 15.2421C79.8742 14.3231 79.9999 13.4014 80.5837 12.583C81.1339 11.8177 81.8825 11.178 82.6562 10.5635C86.3488 7.3905 90.1726 4.27054 93.7367 1.02489C93.3819 0.971816 92.9881 0.949466 92.6334 0.896396C92.9602 1.3042 93.2814 1.66172 93.2814 2.17567C93.2479 2.68682 93.0189 3.14768 92.6976 3.58062C92.5328 3.78732 92.8932 3.94374 93.0859 3.76498Z" fill="#3C4043"/>
<path d="M131.146 30.5868C131.437 30.9946 131.822 30.6622 132.02 30.3829C132.152 30.1287 132.118 29.922 131.889 29.7209C131.311 29.1316 130.275 29.3131 129.817 29.922C129.266 30.7153 130.079 31.637 129.752 32.4806C129.431 33.4023 128.493 34.1425 127.618 34.7821C126.582 35.5475 125.546 36.2904 124.476 37.0558C120.23 40.1255 116.021 43.2957 111.94 46.4939C103.681 52.9601 95.7428 59.6637 88.1007 66.5684C85.9611 68.4873 83.8886 70.4285 81.816 72.3726C79.6765 74.3948 77.671 76.4645 75.4812 78.4337C76.1627 78.6628 76.8274 78.8667 77.4727 79.0985C77.4392 77.9729 77.2492 76.9254 76.7157 75.8752C76.4699 75.4171 75.5985 75.3138 75.4169 75.8752C75.0454 76.9505 74.9979 78.0008 75.1432 79.0985C75.2745 80.0454 76.6152 80.3247 77.347 79.5566C79.0285 77.7438 80.9418 76.0288 82.7853 74.2887C84.5701 72.6016 86.4136 70.8866 88.2291 69.1995C91.9496 65.8254 95.74 62.4764 99.5973 59.1776C107.337 52.6025 115.368 46.2369 123.63 40.0724C124.797 39.2037 125.998 38.335 127.166 37.4915C128.264 36.6983 129.431 35.9301 130.336 35.0363C131.182 34.2179 131.892 33.3213 132.023 32.2487C132.087 31.7348 131.892 31.2739 131.828 30.7656C131.769 30.3801 132.023 30.2293 131.375 30.3801C130.018 30.7125 131.118 30.355 131.054 30.584C130.99 30.841 131.702 30.3019 131.317 30.355C131.18 30.3578 131.048 30.4583 131.146 30.5868Z" fill="#3C4043"/>
<path d="M88.7794 50.5623C88.0644 50.9981 87.3828 51.3556 86.7991 51.8947C86.1566 52.5092 85.5058 53.146 84.8578 53.7605C83.6316 54.9644 82.3971 56.1906 81.2295 57.4196C78.8022 59.9502 76.2269 62.4836 74.2689 65.2432C73.6852 66.0616 75.1264 66.651 75.808 65.9611C78.1877 63.4779 80.2603 60.8468 82.5954 58.3385C83.7573 57.0872 84.9249 55.8331 86.1567 54.6041C86.7404 54.0175 87.3186 53.403 87.9666 52.8136C88.2292 52.5315 88.5504 52.2773 88.7152 51.9701C88.8744 51.6098 89.0699 51.3053 89.299 50.9729C89.4582 50.7411 89.1034 50.3556 88.7794 50.5623Z" fill="#3C4043"/>
<path d="M89.7839 53.3994C88.8733 53.7318 88.1639 54.472 87.4488 55.0614C86.6751 55.6759 85.9601 56.3406 85.2115 56.9803C83.7228 58.3126 82.2647 59.6924 80.843 61.0723C79.4185 62.4046 78.0889 63.7593 76.7622 65.1642C76.1142 65.8542 75.4466 66.572 74.8042 67.2619C74.1869 67.9518 73.2763 68.6948 73.0696 69.5635C72.9384 70.0746 73.6366 70.6109 74.2874 70.2785C75.1924 69.8707 75.7287 69.0523 76.3265 68.3848C76.9689 67.6697 77.6029 66.9798 78.2845 66.262C79.6419 64.8291 81.0329 63.399 82.4295 61.994C83.8205 60.6114 85.178 59.2595 86.6081 57.9272C87.3511 57.2624 88.0633 56.5976 88.7784 55.9328C89.4543 55.2932 90.2671 54.6815 90.6219 53.8882C90.8202 53.5 90.2029 53.2458 89.7839 53.3994Z" fill="#3C4043"/>
<path d="M90.3349 56.4944C86.93 59.1032 83.7569 61.8657 80.7766 64.7538C79.2879 66.1867 77.8634 67.6168 76.4836 69.0776C75.1093 70.5328 73.4222 72.0188 72.5675 73.7031C72.2743 74.2924 73.3245 74.65 73.8272 74.2924C74.6903 73.6528 75.3048 72.8595 75.9668 72.0942C76.6009 71.4043 77.2154 70.6865 77.8662 69.9966C79.2907 68.4882 80.7152 67.0051 82.2039 65.547C85.0558 62.6841 88.1003 59.8965 91.1784 57.1592C91.6616 56.7262 90.8851 56.0838 90.3349 56.4944Z" fill="#3C4043"/>
<path d="M80.5809 19.6434C80.6452 19.6434 80.6452 19.5903 80.5809 19.5903C80.5474 19.5931 80.5474 19.6434 80.5809 19.6434Z" fill="#3C4043"/>
<path d="M79.9056 19.5687C79.0593 19.5939 78.2521 20.3871 78.5426 21.024C78.6403 21.2809 78.9615 21.3815 79.2576 21.253C81.7519 20.334 84.1456 19.1581 86.4165 17.904C87.584 17.2644 88.6873 16.6275 89.7878 15.9348C90.7598 15.3734 92.2151 14.784 92.5056 13.812C92.5698 13.5075 92.3156 13.1724 91.8939 13.1724C90.5951 13.2478 89.6565 14.1947 88.6873 14.8092C87.6511 15.4739 86.5478 16.1387 85.4473 16.7783C83.2435 18.0827 80.9782 19.281 78.7744 20.5882C78.9643 20.6385 79.2269 20.6888 79.4224 20.7418C79.0956 20.334 79.1934 19.848 79.9419 19.7447C80.062 19.7447 80.0313 19.5687 79.9056 19.5687Z" fill="#3C4043"/>
<path d="M80.874 18.4436C83.0443 17.3682 84.9213 16.0638 86.8653 14.7622C87.8373 14.1225 88.7479 13.4577 89.6529 12.793C90.6249 12.0779 91.6612 11.388 92.5326 10.5948C93.3455 9.85177 92.1137 8.90768 91.2059 9.51938C90.2339 10.1339 89.3903 10.8517 88.4826 11.5137C87.5105 12.2315 86.572 12.8963 85.6335 13.6114C83.818 14.9661 81.9075 16.2705 80.1897 17.7536C79.7735 18.1084 80.3237 18.7229 80.874 18.4436Z" fill="#3C4043"/>
<path d="M78.316 15.22C80.9723 13.5078 83.6901 11.871 86.3128 10.1057C87.6452 9.23425 88.9356 8.34044 90.2344 7.47176C91.4606 6.62823 92.9829 5.80983 93.994 4.76239C94.6057 4.09762 93.4103 3.27922 92.5639 3.65909C91.8545 3.99148 91.2707 4.50542 90.6227 4.93836C90.0054 5.3713 89.3909 5.83217 88.7457 6.29305C87.4804 7.21479 86.2151 8.13374 84.9861 9.02755C82.4611 10.8683 80.0589 12.7872 77.5982 14.6558C77.1177 15.0412 77.7993 15.5524 78.316 15.22Z" fill="#3C4043"/>
<path d="M85.7961 20.488C86.3799 20.488 86.3799 19.7729 85.7961 19.7729C85.2123 19.7729 85.2123 20.488 85.7961 20.488Z" fill="#3C4043"/>
<path d="M3.39218 59.6896C5.02897 58.6673 6.26075 57.2344 7.48975 55.93C8.73829 54.5753 9.95611 53.2429 11.1516 51.8631C12.3526 50.5084 13.5034 49.1286 14.6207 47.7236C15.171 47.0309 15.724 46.369 16.2575 45.679C16.8022 44.9612 17.5172 44.221 17.7798 43.4026C17.9697 42.7881 17.048 42.3803 16.4809 42.7881C15.724 43.3495 15.2631 44.1428 14.7296 44.8327C14.185 45.5506 13.6319 46.2879 13.0649 47.0058C11.9476 48.4135 10.7941 49.7934 9.66004 51.1732C8.50925 52.5809 7.3473 53.9356 6.163 55.3155C4.99545 56.6199 3.6687 57.9494 2.88941 59.4577C2.78047 59.6896 3.20224 59.7901 3.39218 59.6896Z" fill="#3C4043"/>
<path d="M2.25816 56.2122C7.76908 51.584 12.4644 46.4948 16.7854 41.1487C17.467 40.3303 15.7827 39.5398 15.1207 40.3834C10.9086 45.6792 6.24401 50.7404 1.51518 55.7514C1.19397 56.0838 1.88667 56.5167 2.25816 56.2122Z" fill="#3C4043"/>
<path d="M2.60221 50.3332C3.32843 49.8193 4.158 49.4114 4.80602 48.8249C5.40096 48.2607 5.96798 47.6992 6.55175 47.1378C7.71929 45.9619 8.83656 44.7832 9.9231 43.5849C10.9929 42.3811 11.9956 41.1549 12.9509 39.9035C13.4537 39.2639 13.9536 38.5991 14.4396 37.9343C14.8921 37.2947 15.4927 36.6299 15.6575 35.8897C15.7999 35.3004 14.9257 34.8144 14.3112 35.2752C13.6771 35.7864 13.3224 36.4512 12.8866 37.0657C12.4509 37.7304 11.9817 38.3449 11.5124 38.9846C10.5516 40.2638 9.53205 41.5431 8.49579 42.7944C7.49304 44.0206 6.44001 45.2245 5.35906 46.4004C4.80881 46.9898 4.2418 47.5763 3.68875 48.1657C3.12174 48.7802 2.75024 49.4701 2.21675 50.1069C2.06871 50.3053 2.40669 50.484 2.60221 50.3332Z" fill="#3C4043"/>
<path d="M1.92057 45.113C1.46808 45.2917 0.998833 45.5208 0.496063 45.6269C0.674826 45.856 0.834028 46.1129 1.01558 46.342C3.75289 44.0907 6.23042 41.7137 8.64092 39.2585C9.82522 38.0575 10.9593 36.8313 12.0765 35.5771C12.638 34.9626 13.205 34.3258 13.758 33.7113C14.325 33.0717 14.9758 32.4851 15.0401 31.689C15.0903 31.203 14.3585 30.974 13.8725 31.1528C13.0318 31.4851 12.6128 32.203 12.11 32.7895C11.5598 33.4292 11.0067 34.0688 10.4565 34.6833C9.33922 35.9626 8.2024 37.1888 7.05162 38.4429C4.78636 40.926 2.4373 43.3533 0.183219 45.8336C-0.171513 46.2163 0.624542 46.7023 1.01279 46.3448C1.36752 46.0124 1.8703 45.7582 2.30603 45.5012C2.58535 45.3197 2.23061 44.9873 1.92057 45.113Z" fill="#3C4043"/>
<path d="M0.799804 43.2999C3.35834 40.7162 5.93364 38.1325 8.46425 35.5265C9.70721 34.2472 10.9418 32.9428 12.1512 31.6384C12.7853 30.9485 13.4333 30.2558 14.0673 29.5659C14.6344 28.9514 15.5086 28.3146 15.4081 27.4962C15.3745 27.1386 15.003 26.8817 14.5338 26.9599C13.5311 27.1386 13.0618 27.9319 12.5088 28.5436C11.9082 29.2084 11.3245 29.8759 10.7239 30.5407C9.49772 31.8703 8.29666 33.2501 7.0956 34.6048C4.71583 37.3393 2.3975 40.1045 0.0680029 42.8642C-0.219693 43.1966 0.47859 43.6323 0.799804 43.2999Z" fill="#3C4043"/>
<path d="M21.6957 49.4104C19.8941 52.0695 17.9863 54.6811 16.1093 57.3122C15.1708 58.5915 14.21 59.8959 13.224 61.1473C12.7547 61.7869 12.2687 62.4014 11.7688 63.0159C11.2827 63.6024 10.5426 64.2672 10.3778 64.9851C10.3275 65.2392 10.6683 65.5465 11.0118 65.3677C11.7045 64.9851 12.1151 64.3203 12.5508 63.784C13.0536 63.1192 13.5704 62.4796 14.0564 61.8148C15.0926 60.4853 16.0814 59.1027 17.0339 57.748C18.9109 55.0637 20.4974 52.3041 21.9554 49.4886C22.0169 49.3852 21.7767 49.2819 21.6957 49.4104Z" fill="#3C4043"/>
<path d="M26.8939 48.1057C24.8046 50.9185 22.6986 53.706 20.6903 56.5439C19.7015 57.9516 18.6988 59.3566 17.7128 60.7644C16.7408 62.1442 15.6067 63.524 15.09 65.0603C14.9923 65.3424 15.4447 65.5714 15.7073 65.3424C17.0341 64.2167 17.9055 62.7838 18.844 61.4291C19.8356 59.9739 20.8411 58.541 21.8439 57.083C23.8187 54.22 25.7124 51.3263 27.595 48.4381C27.8324 48.0806 27.1677 47.7734 26.8939 48.1057Z" fill="#3C4043"/>
<path d="M31.3461 48.5932C30.1031 50.23 28.8211 51.8668 27.6591 53.5539C27.0921 54.3723 26.5251 55.1907 25.9581 56.0091C25.4246 56.8023 24.676 57.671 24.4526 58.5397C24.3548 58.8972 24.9218 59.2045 25.2765 58.9252C26.0391 58.3107 26.5418 57.4168 27.0279 56.6487C27.6116 55.8052 28.1898 54.9365 28.7736 54.0651C29.9076 52.3528 30.9132 50.6155 31.9494 48.8753C32.1421 48.543 31.5919 48.286 31.3461 48.5932Z" fill="#3C4043"/>
<path d="M37.0805 48.5412C36.1755 49.664 35.2538 50.7897 34.332 51.9405C33.8795 52.5047 33.388 53.0661 32.9522 53.6276C32.564 54.1415 31.997 54.7281 31.8824 55.3398C31.807 55.7252 32.3182 56.2112 32.8265 55.904C33.455 55.5716 33.8293 55.0074 34.2343 54.5214C34.7203 53.9069 35.156 53.2952 35.6253 52.6807C36.5135 51.4796 37.4269 50.2785 38.3151 49.1026C38.7815 48.463 37.5805 47.9239 37.0805 48.5412Z" fill="#3C4043"/>
<path d="M42.8284 47.9532C41.9709 48.9504 41.1162 49.9475 40.2531 50.9195C39.8341 51.4083 39.4459 51.8944 39.0409 52.3776C38.647 52.8636 38.1638 53.2965 38.1778 53.8859C38.1945 54.3719 38.7783 54.5507 39.2643 54.397C39.9123 54.168 40.1861 53.654 40.5464 53.2211C40.9514 52.6848 41.3871 52.1737 41.7726 51.6374C42.5351 50.6151 43.3116 49.5648 44.0742 48.5453C44.563 47.9001 43.3479 47.3638 42.8284 47.9532Z" fill="#3C4043"/>
<path d="M49.0323 47.2644C47.9625 47.8259 47.0576 48.5437 46.3928 49.4124C45.8258 50.1554 44.9515 51.4095 45.552 52.2279C45.809 52.5854 46.3928 52.6106 46.7699 52.3536C47.4458 51.8955 47.5128 50.8732 47.9318 50.2308C48.4011 49.5409 49.0659 48.9012 49.8787 48.418C50.7194 47.9013 49.9373 46.7505 49.0323 47.2644Z" fill="#3C4043"/>
<path d="M52.8897 47.9777C52.2249 48.4637 51.6412 49.0531 51.2194 49.7179C50.8479 50.2793 50.3619 50.9971 50.8004 51.6088C50.9485 51.8155 51.3339 51.9161 51.5741 51.7653C52.1914 51.4077 52.2222 50.8435 52.5182 50.3324C52.8227 49.7179 53.2919 49.2067 53.845 48.7207C54.4288 48.2347 53.521 47.4917 52.8897 47.9777Z" fill="#3C4043"/>
<path d="M57.8758 49.283C58.6244 49.283 58.6244 48.3892 57.8758 48.3892C57.1329 48.3864 57.1329 49.283 57.8758 49.283Z" fill="#3C4043"/>
</svg>
