<svg width="60" height="60" viewBox="0 0 60 60" fill="none" xmlns="http://www.w3.org/2000/svg">
<g clip-path="url(#clip0_500_19645)">
<path d="M30 0C46.582 0 60 13.418 60 30C60 46.582 46.582 60 30 60C13.418 60 0 46.582 0 30C0 13.418 13.418 0 30 0ZM30 56.3086C44.4727 56.3086 56.25 44.4727 56.25 30C56.25 15.5273 44.4727 3.75 30 3.75C15.5273 3.75 3.75 15.5273 3.75 30C3.75 44.4727 15.5273 56.3086 30 56.3086ZM27.9492 31.875H16.875C15.8203 31.875 15 31.0547 15 30C15 28.9453 15.8203 28.125 16.875 28.125H43.125C44.1797 28.125 45 28.9453 45 30C45 31.0547 44.1797 31.875 43.125 31.875H27.9492Z" fill="#B1B3B4"/>
</g>
<defs>
<clipPath id="clip0_500_19645">
<rect width="60" height="60" fill="white"/>
</clipPath>
</defs>
</svg>
