<svg width="24" height="24" viewBox="0 0 24 24" fill="none" xmlns="http://www.w3.org/2000/svg">
<g clip-path="url(#clip0_729_6113)">
<path d="M0 12C0 18.6274 5.37258 24 12 24C18.6274 24 24 18.6274 24 12C24 5.37258 18.6274 0 12 0C5.37258 0 0 5.37258 0 12Z" fill="#4F86C6"/>
<path d="M12 0C18.6328 0 24 5.36719 24 12C24 18.6328 18.6328 24 12 24C5.36719 24 0 18.6328 0 12C0 5.36719 5.36719 0 12 0ZM12 22.5234C17.7891 22.5234 22.5 17.7891 22.5 12C22.5 6.21094 17.7891 1.5 12 1.5C6.21094 1.5 1.5 6.21094 1.5 12C1.5 17.7891 6.21094 22.5234 12 22.5234Z" fill="#4F86C6"/>
<path d="M9.83539 18.0002L4.7998 12.8809L6.0587 11.601L9.83539 15.4405L17.9409 7.2002L19.1998 8.48003L9.83539 18.0002Z" fill="#F8F8F8"/>
</g>
<defs>
<clipPath id="clip0_729_6113">
<rect width="24" height="24" fill="white"/>
</clipPath>
</defs>
</svg>
