<svg width="25" height="24" viewBox="0 0 25 24" fill="none" xmlns="http://www.w3.org/2000/svg">
<path d="M20.3709 8.6001C20.2963 8.42882 20.1754 8.28183 20.0216 8.17578C19.8678 8.06974 19.6874 8.00888 19.5009 8.0001H14.9209L16.1909 3.2601C16.2313 3.11177 16.237 2.95612 16.2075 2.80523C16.178 2.65434 16.1142 2.51229 16.0209 2.3901C15.9277 2.26908 15.8081 2.17101 15.6711 2.10341C15.5342 2.03581 15.3836 2.00047 15.2309 2.0001H8.23085C8.00509 1.99236 7.78336 2.0613 7.60178 2.19567C7.42019 2.33004 7.28945 2.52194 7.23085 2.7401L4.55085 12.7401C4.51041 12.8884 4.5047 13.0441 4.53419 13.195C4.56367 13.3459 4.62755 13.4879 4.72085 13.6101C4.81504 13.7325 4.93628 13.8313 5.07507 13.899C5.21387 13.9667 5.36645 14.0013 5.52085 14.0001H9.39085L7.58085 20.7401C7.52155 20.9574 7.53737 21.1884 7.62576 21.3957C7.71414 21.6029 7.86991 21.7742 8.06781 21.8818C8.26572 21.9895 8.49418 22.0271 8.71616 21.9887C8.93814 21.9503 9.14064 21.838 9.29085 21.6701L20.1909 9.6701C20.3206 9.52798 20.4067 9.35143 20.4386 9.16163C20.4705 8.97184 20.447 8.77686 20.3709 8.6001ZM10.5809 17.2801L11.6509 13.2801C11.6913 13.1318 11.697 12.9761 11.6675 12.8252C11.638 12.6743 11.5742 12.5323 11.4809 12.4101C11.3877 12.2891 11.2681 12.191 11.1311 12.1234C10.9942 12.0558 10.8436 12.0205 10.6909 12.0201H6.85085L8.99085 4.0001H13.9209L12.6509 8.7401C12.6101 8.89115 12.6053 9.04967 12.637 9.2029C12.6686 9.35613 12.7357 9.4998 12.833 9.62235C12.9303 9.74491 13.0549 9.84293 13.197 9.90854C13.339 9.97414 13.4945 10.0055 13.6509 10.0001H17.2209L10.5809 17.2801Z" fill="white"/>
</svg>
