<svg width="588" height="596" viewBox="0 0 588 596" fill="none" xmlns="http://www.w3.org/2000/svg">
<rect width="588" height="596" fill="#E26559"/>
<rect x="91.3779" y="406" width="88.2437" height="88.5612" rx="2" fill="white"/>
<mask id="mask0_880_6179" style="mask-type:alpha" maskUnits="userSpaceOnUse" x="91" y="406" width="89" height="89">
<rect x="91.3779" y="406" width="88.2437" height="88.5612" rx="2" fill="white"/>
</mask>
<g mask="url(#mask0_880_6179)">
<g opacity="0.35">
<path fill-rule="evenodd" clip-rule="evenodd" d="M164.897 466.388L145.348 446.769C145.282 446.703 145.216 446.653 145.151 446.62L145.915 445.853C146.342 445.457 146.753 445.16 147.148 444.963L172.244 439.223L166.524 464.409C166.327 464.805 166.032 465.217 165.637 465.646L164.897 466.388Z" fill="#AA4C43"/>
<path fill-rule="evenodd" clip-rule="evenodd" d="M145.151 446.619C145.217 446.653 145.283 446.702 145.348 446.768L164.898 466.388L125.926 505.5C123.198 508.237 119.902 509.615 116.04 509.631C112.211 509.615 108.932 508.237 106.204 505.5C103.476 502.762 102.103 499.471 102.087 495.628C102.104 491.751 103.476 488.445 106.204 485.707L145.151 446.619Z" fill="#AA4C43"/>
</g>
</g>
<path fill-rule="evenodd" clip-rule="evenodd" d="M155.685 450.06L136.136 430.44C136.071 430.375 136.004 430.325 135.939 430.292L136.703 429.525C137.13 429.129 137.541 428.832 137.936 428.634L163.032 422.894L157.312 448.081C157.115 448.477 156.82 448.889 156.425 449.318L155.685 450.06Z" fill="#3C4043"/>
<path fill-rule="evenodd" clip-rule="evenodd" d="M135.939 430.292C136.005 430.325 136.071 430.375 136.136 430.441L155.686 450.06L108.496 497.419C105.768 500.157 102.473 501.535 98.6109 501.551C94.7814 501.535 91.5027 500.157 88.7746 497.419C86.0466 494.682 84.674 491.391 84.6577 487.548C84.6745 483.671 86.0466 480.364 88.7746 477.627L135.939 430.292Z" fill="white"/>
<path d="M245.783 483.471L236.895 466.575H224.931V483.471H209.72V423.435H236.468C252.277 423.435 261.336 430.983 261.336 444.362C261.336 453.539 257.49 460.143 250.483 463.659L263.045 483.471H245.783ZM224.931 454.568H236.468C243.048 454.568 246.894 451.223 246.894 444.877C246.894 438.616 243.048 435.443 236.468 435.443H224.931V454.568Z" fill="white"/>
<path d="M277.199 416.146C281.729 416.146 284.976 419.405 284.976 423.95C284.976 428.581 281.729 431.84 277.199 431.84C272.67 431.84 269.423 428.581 269.423 423.95C269.423 419.405 272.67 416.146 277.199 416.146ZM284.463 483.471H269.765V437.244H284.463V483.471Z" fill="white"/>
<path d="M340.997 419.833V483.471H326.213V477.381C322.966 481.67 318.265 484.071 312.369 484.071C299.379 484.071 290.834 474.465 290.834 460.143C290.834 445.992 299.294 436.643 312.027 436.643C318.095 436.643 322.966 439.045 326.213 443.333V419.833H340.997ZM315.958 472.579C322.111 472.579 326.213 467.604 326.213 460.486C326.213 453.367 322.111 448.479 315.958 448.479C309.805 448.479 305.703 453.367 305.618 460.486C305.703 467.604 309.805 472.579 315.958 472.579Z" fill="white"/>
<path d="M397.873 419.833V483.471H383.089V477.381C379.841 481.67 375.141 484.071 369.245 484.071C356.255 484.071 347.709 474.465 347.709 460.143C347.709 445.992 356.17 436.643 368.903 436.643C374.97 436.643 379.841 439.045 383.089 443.333V419.833H397.873ZM372.834 472.579C378.987 472.579 383.089 467.604 383.089 460.486C383.089 453.367 378.987 448.479 372.834 448.479C366.681 448.479 362.579 453.367 362.493 460.486C362.579 467.604 366.681 472.579 372.834 472.579Z" fill="white"/>
<path d="M428.513 436.729C444.75 436.729 452.783 447.45 451.757 464.345H419.369C420.822 469.834 424.753 472.922 430.222 472.922C434.239 472.922 438.17 471.292 441.246 468.205L449.023 475.838C444.323 480.983 437.401 483.985 428.94 483.985C413.9 483.985 404.5 474.551 404.5 460.486C404.5 446.163 414.242 436.729 428.513 436.729ZM419.113 456.369H437.572C437.572 450.709 433.982 447.021 428.684 447.021C423.557 447.021 420.053 450.794 419.113 456.369Z" fill="white"/>
<path d="M504 437.526L475.312 507.975H460.23L470.721 483.664L452.115 437.526H467.771L478.344 467.4L488.836 437.526H504Z" fill="white"/>
<path fill-rule="evenodd" clip-rule="evenodd" d="M98.3725 88C90.4349 88 84 94.3841 84 102.259V168.802C84 176.678 90.4349 183.062 98.3725 183.062H165.444C173.382 183.062 179.817 176.678 179.817 168.802V102.259C179.817 94.3841 173.382 88 165.444 88H98.3725ZM155.863 111.765V135.531H131.908V159.296H107.954V111.765H155.863Z" fill="white"/>
<path d="M205.134 166.719V103.051H235.992C243.274 103.051 248.887 104.828 252.831 108.38C256.837 111.872 258.839 116.748 258.839 123.01C258.839 127.766 257.625 131.77 255.198 135.021C252.831 138.212 249.372 140.439 244.821 141.704C248.219 142.607 250.95 144.925 253.013 148.657L263.026 166.719H244.639L233.534 146.49C232.806 145.226 231.865 144.323 230.712 143.781C229.62 143.239 228.345 142.968 226.889 142.968H221.883V166.719H205.134ZM221.883 131.228H232.988C239.602 131.228 242.91 128.639 242.91 123.461C242.91 118.344 239.602 115.785 232.988 115.785H221.883V131.228Z" fill="white"/>
<path d="M267.856 114.611V100.071H284.877V114.611H267.856ZM268.311 166.719V122.287H284.513V166.719H268.311Z" fill="white"/>
<path d="M311.389 167.712C307.566 167.712 304.167 166.779 301.194 164.913C298.281 163.047 295.975 160.367 294.276 156.875C292.637 153.383 291.818 149.259 291.818 144.503C291.818 139.687 292.637 135.563 294.276 132.131C295.975 128.639 298.281 125.96 301.194 124.093C304.167 122.227 307.566 121.294 311.389 121.294C314.241 121.294 316.85 121.896 319.217 123.1C321.644 124.244 323.495 125.749 324.77 127.615V103.051H340.972V166.719H325.134V160.578C323.981 162.745 322.16 164.491 319.672 165.816C317.184 167.08 314.423 167.712 311.389 167.712ZM316.577 155.882C319.005 155.882 321.007 154.979 322.585 153.173C324.163 151.367 324.952 148.477 324.952 144.503C324.952 140.469 324.163 137.579 322.585 135.834C321.007 134.027 319.005 133.124 316.577 133.124C314.089 133.124 312.056 134.027 310.479 135.834C308.901 137.579 308.112 140.469 308.112 144.503C308.112 148.477 308.901 151.367 310.479 153.173C312.056 154.979 314.089 155.882 316.577 155.882Z" fill="white"/>
<path d="M367.836 167.712C364.012 167.712 360.614 166.779 357.641 164.913C354.728 163.047 352.422 160.367 350.723 156.875C349.084 153.383 348.265 149.259 348.265 144.503C348.265 139.687 349.084 135.563 350.723 132.131C352.422 128.639 354.728 125.96 357.641 124.093C360.614 122.227 364.012 121.294 367.836 121.294C370.688 121.294 373.297 121.896 375.664 123.1C378.091 124.244 379.942 125.749 381.216 127.615V103.051H397.419V166.719H381.58V160.578C380.427 162.745 378.607 164.491 376.119 165.816C373.631 167.08 370.87 167.712 367.836 167.712ZM373.024 155.882C375.451 155.882 377.454 154.979 379.032 153.173C380.61 151.367 381.398 148.477 381.398 144.503C381.398 140.469 380.61 137.579 379.032 135.834C377.454 134.027 375.451 133.124 373.024 133.124C370.536 133.124 368.503 134.027 366.925 135.834C365.348 137.579 364.559 140.469 364.559 144.503C364.559 148.477 365.348 151.367 366.925 153.173C368.503 154.979 370.536 155.882 373.024 155.882Z" fill="white"/>
<path d="M431.2 167.712C425.739 167.712 421.005 166.779 417 164.913C413.056 162.986 410.022 160.277 407.898 156.785C405.774 153.293 404.712 149.169 404.712 144.413C404.712 139.897 405.713 135.894 407.716 132.402C409.779 128.91 412.57 126.201 416.09 124.274C419.67 122.287 423.736 121.294 428.287 121.294C432.778 121.294 436.662 122.227 439.939 124.093C443.276 125.96 445.825 128.639 447.585 132.131C449.405 135.563 450.316 139.596 450.316 144.232V147.754H420.186C420.732 150.644 421.946 152.721 423.827 153.986C425.708 155.25 428.318 155.882 431.655 155.882C433.961 155.882 436.358 155.551 438.846 154.889C441.395 154.166 443.64 153.143 445.582 151.818L449.588 162.384C447.282 164.01 444.46 165.304 441.122 166.268C437.785 167.231 434.477 167.712 431.2 167.712ZM429.016 131.679C426.588 131.679 424.586 132.402 423.008 133.847C421.491 135.292 420.52 137.399 420.095 140.168H437.026C436.844 137.339 436.055 135.231 434.659 133.847C433.324 132.402 431.443 131.679 429.016 131.679Z" fill="white"/>
<path d="M459.227 182.975L468.239 163.649L449.942 122.287H466.964L476.795 147.483L486.99 122.287H503.011L475.612 182.975H459.227Z" fill="white"/>
<path d="M194.562 206.194C194.347 205.82 193.616 205.792 193.565 206.612L194.582 207.492L194.562 206.194Z" fill="#883D35"/>
<path d="M191.087 210.996C191.39 212.058 192.29 213.341 193.47 212.938C192.46 211.785 193.058 211.673 191.945 210.378C191.996 209.558 192.653 209.078 193.068 209.315C192.826 208.973 193.636 208.148 193.007 207.537C191.86 208.33 191.491 209.692 191.894 211.199C191.55 211.44 191.338 211.095 191.114 210.964L191.087 210.996Z" fill="#883D35"/>
<path d="M213.179 286.966L212.924 286.474C212.937 286.624 213.043 286.796 213.179 286.966Z" fill="#883D35"/>
<path d="M255.089 316.107C254.715 315.988 254.506 316.036 254.454 316.131C254.823 316.19 255.13 316.224 255.089 316.107Z" fill="#883D35"/>
<path d="M262.871 320.457C262.71 320.35 262.554 320.303 262.393 320.196C262.529 320.365 262.723 320.5 262.871 320.457Z" fill="#883D35"/>
<path d="M213.179 286.966L213.834 288.239C214.183 288.058 213.562 287.537 213.179 286.966Z" fill="#883D35"/>
<path d="M192.597 222.232C192.574 221.962 192.463 221.73 192.322 221.5C192.342 221.74 192.39 221.947 192.408 222.157C192.469 222.152 192.532 222.177 192.594 222.202L192.597 222.232Z" fill="#883D35"/>
<path d="M198.966 269.232L198.754 268.888C198.568 268.843 198.355 268.831 198.141 268.819L198.966 269.232Z" fill="#883D35"/>
<path d="M191.502 253.369C191.596 253.753 192.611 253.546 193.065 253.537C192.603 253.456 192.314 253.269 192.104 252.954C191.926 253 191.725 253.138 191.472 253.371L191.502 253.369Z" fill="#883D35"/>
<path d="M188.359 225.92L188.195 225.42C188.195 225.42 188.313 225.743 188.359 225.92Z" fill="#883D35"/>
<path d="M205.678 279.871C205.678 279.871 205.487 280.129 205.495 280.219C205.61 280.149 205.66 280.023 205.678 279.871Z" fill="#883D35"/>
<path d="M232.73 369.077C232.73 369.077 232.611 369.087 232.552 369.093C232.649 369.174 232.74 369.196 232.73 369.077Z" fill="#883D35"/>
<path d="M232.646 388.278L232.475 388.051C232.299 388.127 232.121 388.172 231.948 388.278L232.646 388.278Z" fill="#883D35"/>
<path d="M278.094 326.255C278.094 326.255 278.064 326.257 278.031 326.23C277.579 326.269 277.823 326.278 278.094 326.255Z" fill="#883D35"/>
<path d="M392.071 272.711C391.876 274.693 389.878 270.512 389.966 273.315C390.265 272.897 392.299 275.019 392.071 272.711Z" fill="#883D35"/>
<path d="M192.419 222.64C192.437 222.85 192.428 223.093 192.386 223.308C192.45 223 192.432 222.79 192.419 222.64Z" fill="#883D35"/>
<path d="M389.936 273.318L389.96 273.588C389.949 273.468 389.944 273.408 389.936 273.318Z" fill="#883D35"/>
<path d="M315.056 330.974C314.981 330.799 314.847 330.659 314.714 330.52C314.721 330.61 314.795 330.754 315.056 330.974Z" fill="#883D35"/>
<path d="M287.806 326.208L288.465 326.453C288.211 326.324 287.992 326.252 287.806 326.208Z" fill="#883D35"/>
<path d="M329.429 330.043C329.801 330.132 329.935 330.272 330.437 330.108C330.402 330.051 330.339 330.026 330.273 329.971C330.103 330.107 329.837 330.19 329.429 330.043Z" fill="#883D35"/>
<path d="M344.426 329.301C344.426 329.301 344.235 329.197 344.137 329.115C343.986 329.128 343.81 329.203 343.659 329.216L344.423 329.271L344.426 329.301Z" fill="#883D35"/>
<path d="M241.612 327.479C241.233 327.663 240.876 327.754 240.514 327.785C241.276 327.81 240.785 329.878 241.612 327.479Z" fill="#883D35"/>
<path d="M192.019 222.221C192.271 222.32 192.401 222.43 192.422 222.67C192.409 222.52 192.394 222.34 192.381 222.19C192.225 222.143 192.102 222.123 191.989 222.224L192.019 222.221Z" fill="#883D35"/>
<path d="M330.016 322.013L332.275 322.152C331.629 322.056 330.805 322.006 330.016 322.013Z" fill="#883D35"/>
<path d="M304.257 251.436L303.828 251.745C304.007 251.7 304.18 251.594 304.257 251.436Z" fill="#883D35"/>
<path d="M338.949 321.731C339.372 322.057 339.814 322.261 340.246 322.345C340.329 322.247 340.445 322.177 340.494 322.052L338.949 321.731Z" fill="#883D35"/>
<path d="M238.103 342.863C238.747 340.813 237.138 341.525 236.534 340.852C236.948 338.247 237.856 339.983 238.774 339.36C238.937 337.714 238.135 336.15 238.552 334.996C238.793 334.975 238.959 334.78 239.11 335.13C238.669 333.172 240.668 330.281 240.105 327.971C240.278 327.866 240.396 327.825 240.52 327.845C239.766 327.91 239.115 327.754 238.67 327.52C238.985 326.586 238.497 325.51 239.465 325.457C239.24 326.02 239.526 326.177 239.71 326.554L239.708 325.466C241.22 325.034 239.621 326.924 240.498 327.242C240.811 325.22 240.619 322.637 241.541 321.349C242.798 321.483 240.626 324.843 242.379 323.333L241.13 325.405C243.592 324.377 240.512 326.697 243.023 325.877C244.424 323.097 243.696 322.404 245.163 319.678C244.782 318.774 244.148 319.524 243.767 318.619C244.315 314.038 247.998 316.624 247.75 313.018C247.32 311.906 246.057 310.987 247.79 309.236L248.719 310.517C250.133 307.887 247.632 308.101 249.852 305.674C250.098 306.409 249.264 308.022 249.598 307.661C251.454 306.292 249.486 306.008 250.217 304.615L251.454 304.872C252.691 301.955 253.636 298.458 255.212 295.24C255.424 295.584 255.456 296.307 256.201 295.79C257.089 293.749 258.373 291.734 259.821 289.857C261.338 288.064 262.917 286.297 264.491 284.832L264.631 282.916C264.879 282.622 265.427 282.636 265.345 283.096C266.679 282.014 264.849 282.625 265.015 281.734C265.524 280.935 266.268 281.113 266.143 281.788C267.173 278.919 269.974 274.054 272.981 272.648L272.794 273.299C274.735 271.863 273.068 269.769 275.425 268.932L275.25 269.37C279.275 266.032 283.211 261.645 287.404 260.62C287.099 258.832 292.009 258.381 291.141 256.4C294.179 255.716 293.669 256.486 297.63 255.239C298.66 254.849 298.46 253.233 299.642 252.497L300.151 253.481L301.394 251.682L302.833 252.526L303.891 251.77C303.387 251.904 302.703 251.721 302.644 251.393C304.29 250.043 307.509 250.402 307.738 250.957C309.131 250.202 310.478 249.271 311.974 248.659C312.015 249.139 311.252 249.446 310.746 249.913C312.873 248.159 311.502 250.936 313.43 249.35C313.081 249.168 313.431 248.655 313.413 248.445C314.72 248.816 317.211 248.119 319.079 247.596L318.845 248.402C322.265 247.927 326.007 246.941 329.938 246.755C328.513 246.424 328.761 245.073 329.934 244.942L330.429 246.109C331.156 245.381 329.207 245.669 330.71 244.785C332.208 244.898 331.735 246.118 330.917 246.49L332.702 246.065C332.794 246.42 332.384 246.606 332.303 247.066C333.03 246.339 335.312 248.169 336.367 247.02L336.458 247.375C338.383 247.512 339.777 247.483 341.084 247.492C342.398 247.591 343.619 247.668 345.154 247.869C345.376 246.913 346.587 247.232 347.664 246.686C349.869 247.615 352.221 248.834 354.823 249.79C356.84 249.949 355.65 249.175 356.72 248.902C356.556 249.823 359.208 250.653 357.581 250.793C359.147 251.354 360.097 251.816 361.224 252.203C362.347 252.56 363.594 252.937 365.578 253.764C365.378 253.207 365.008 252.785 365.423 252.659C366.174 252.927 366.744 253.906 366.408 254.237L366.197 254.255C368.7 254.766 370.424 257.157 372.083 259.161C373.608 261.358 374.878 263.425 376.879 264.1L376.658 263.998C377.752 264.72 378.821 265.505 379.866 266.353C380.786 267.876 378.674 265.911 378.976 267.305C382.681 269.799 382.273 272.826 384.502 275.446C383.709 277.177 384.517 279.163 385.165 281.404C385.837 283.584 386.292 286.053 385.366 287.644L386.018 287.467C386.638 288.321 385.588 288.471 385.426 289.06C385.939 289.016 386.05 288.19 386.37 288.737C386.564 292.408 385.185 296.153 383.093 299.386C380.972 302.62 378.046 305.32 375.157 307.744C372.995 309.441 376.197 311.373 372.312 312.461C372.359 311.944 372.373 311.398 372.39 310.883C368.608 315.651 362.348 317.004 357.093 319.812C357.366 319.456 357.245 319.104 357.807 318.935C356.405 318.511 353.386 320.13 353.505 320.815C352.576 320.955 353.152 320.241 352.526 320.022C351.199 319.773 349.669 321.748 348.815 321.006C348.685 320.896 349.121 320.677 349.324 320.569C348.585 321.146 345.542 321.075 346.436 321.935C344.147 321.799 342.174 322.875 340.287 322.462C339.176 323.676 336.345 322.166 336.026 323.765C336.131 322.154 331.946 322.573 330.493 323.333C330.967 322.838 329.206 322.838 329.785 322.154C328.117 322.176 326.59 322.428 326.848 323.313C323.794 321.338 320.558 324.668 318.912 322.119C313.896 322.761 309.207 322.952 304.677 322.887C304.998 321.318 309.652 323.185 309.626 321.465C305.34 321.772 302.73 322.842 298.553 321.931C297.487 321.539 299.26 321.326 299.664 321.08C295.358 321.147 291.562 319.719 287.688 319.87C287.735 319.715 288.155 319.649 288.574 319.583C287.838 319.495 286.918 319.029 286.859 319.76L287.612 319.695C288.575 321.003 284.232 321.345 283.969 321.821C285.666 320.013 280.391 320.466 282.969 318.31C282.457 318.354 281.774 318.533 281.788 319.046C281.094 318.743 280.945 318.423 281.791 318.018C279.102 317.826 279.823 318.792 277.492 318.175C277.585 317.835 278.1 317.821 278.436 317.49C277.07 317.849 275.704 318.208 273.783 317.405C273.951 317.24 273.799 316.89 274.39 317.051C271.004 316.162 268.057 317.201 264.609 315.23C266.184 314.127 263.529 314.325 263.808 312.971L261.717 312.667L262.279 313.556C260.557 312.948 258.756 313.193 257.428 312.218L258.885 312.214L255.639 311.193L257.23 312.387C255.252 312.345 256.763 314.029 254.623 312.792C255.115 312.87 252.948 312.028 252.395 310.897C251.396 310.922 250.363 310.92 249.259 310.078C249.122 309.545 250.155 308.852 250.094 308.495C248.784 309.151 246.187 306.835 244.595 307.395C245.075 307.323 245.415 306.689 245.37 306.512L244.286 306.968C243.684 306.324 243.638 306.147 244.027 305.72C241.904 304.331 243.887 307.637 241.637 305.472C241.883 305.511 241.84 305.364 242.336 305.473C239.9 303.626 236.967 303.061 234.915 301.091C234.993 299.513 237.131 302.141 236.975 300.673C233.501 298.764 229.223 297.378 226.381 294.69L226.824 295.256C225.191 296.394 225.236 292.672 223.155 292.125C223.628 292.326 224.335 291.722 224.099 291.802C223.17 290.884 222.153 290.004 220.895 289.145C219.665 288.253 218.106 287.42 216.596 286.098L217.297 286.129C216.565 284.68 214.718 282.964 213.775 281.534C213.102 281.471 212.548 280.672 212.351 281.565C211.825 278.618 209.93 277.058 208.261 275.297C206.506 273.603 204.755 271.94 204.591 269.324C204.873 269.784 205.638 270.202 205.423 269.827L203.003 266.74C202.424 267.424 202.818 267.421 202.695 268.459C202.011 268.276 201.038 267.543 200.626 266.642C201.923 267.951 201.783 265.968 201.859 265.085C201.696 265.31 201.324 265.221 201.126 265.39C201.488 262.88 199.466 265.864 199.058 262.877L199.511 262.838C198.8 261.992 197.837 261.379 197.528 260.257C198.215 259.413 198.389 261.09 199.125 260.816C198.456 259.392 196.178 258.68 196.486 256.961C197.018 257.49 197.396 258.364 197.927 258.893C198.343 257.014 198.004 256.952 197.725 255.827L197.735 255.947C197.54 255.088 197.403 254.193 197.265 253.298L197.206 254.028C194.205 253.016 195.35 250.439 193.045 248.34C195.227 250.419 194.03 248.497 195.142 248.371C195.262 247.636 195.32 246.542 195.702 246.751C194.527 245.794 195.851 244.593 194.125 243.229C194.416 243.083 193.861 241.922 194.808 241.992C194.222 240.47 194.274 242.491 193.816 242.47C192.166 240.223 194.033 236.497 192.137 233.153C191.058 230.132 189.982 229.62 189.272 226.658C189.823 225.644 190.585 227.452 190.585 227.452C191.084 225.838 190.864 224.678 190.614 223.188C190.914 223.495 191.192 223.199 191.611 222.77C191.601 221.592 190.383 221.908 190.98 220.376C191.37 220.675 191.982 221.076 192.335 221.65C192.123 220.247 191.422 218.796 191.389 217.348C192.061 217.049 192.139 218.311 192.55 218.851C192.441 217.228 192.614 214.643 191.708 213.996L191.216 214.975C191.255 214.367 192.082 214.81 192.211 215.252C192.764 216.746 191.587 217.18 191.198 217.244L191.108 216.193C188.808 216.995 190.986 220.436 190.766 222.48L189.317 221.516L190.45 223.746C190.034 224.205 189.177 224.49 188.997 223.447C188.156 224.97 189.48 224.827 188.681 226.134C188.543 226.297 188.475 226.213 188.402 226.068L188.895 227.567C188.568 227.293 187.825 227.84 188.019 226.917C187.226 229.705 189.241 231.255 188.271 232.336L188.16 232.104C189.085 235.803 189.307 232.368 190.9 235.012L188.389 237.253L189.53 237.457C189.564 237.847 189.628 238.597 189.168 238.546C190.191 239.849 189.597 238.237 190.476 238.918C189.859 240.935 191.84 243.848 190.329 244.643C191.31 245.103 190.504 242.784 191.595 244.534C189.891 245.557 192.506 246.663 192.121 248.54C191.037 248.3 191.104 246.602 190.721 248.509C192.529 249.049 191.338 251.811 192.147 253.102C193.45 252.718 193.605 255.939 195.054 257.961C194.629 257.967 196.111 262.495 196.844 264.669L196.603 264.689C198.014 264.508 198.838 266.674 199.865 268.037C199.135 268.371 198.73 268.255 197.975 267.594C198.227 268.056 198.452 268.551 198.734 269.01C199.29 269.114 199.773 269.435 200.42 270.256L199.34 270.409C200.557 272.209 202.492 273.524 203.565 276.123C204.411 275.717 204.475 272.931 206.617 274.893C206.254 275.257 205.607 275.857 205.015 275.333C205.211 275.498 205.845 275.806 205.982 276.338L204.637 275.879C205.046 277.114 205.589 276.009 206.089 276.873C205.484 277.258 206.105 277.779 205.546 277.978C205.349 277.813 205.288 277.093 204.85 276.949C205.39 277.931 205.842 279.313 205.658 279.993C205.933 279.667 206.428 279.413 207.024 279.997C208.409 281.631 206.783 281.076 207.283 282.302C207.989 282.393 208.444 283.805 209.299 283.157C209.675 283.639 209.377 284.057 209.317 284.425C210.311 285.035 212.89 288.199 212.869 286.539L212.725 286.279C212.725 286.279 212.82 286.331 212.886 286.386C216.03 288.353 217.663 292.173 220.61 294.308L220.359 294.571C222.273 295.647 224.158 297.45 225.83 297.82C226.318 298.201 226.616 299.204 226.147 299.395C227.638 300.144 228.015 299.93 229.573 301.821C227.894 301.361 229.701 302.596 227.939 301.176C229.465 302.677 229.534 303.487 232 303.911C230.845 304.251 232.704 305.754 233.705 306.092L232.798 304.719C233.814 305.236 234.624 305.832 235.406 306.46L234.315 307.188C237.354 310.766 242.37 309.067 244.169 312.691C245.578 312.479 242.329 311.065 243.693 310.676C245.391 311.709 246.461 314.277 247.057 314.498C249.304 316.27 250.141 313.992 252.586 315.596C252.416 315.036 252.562 313.905 254.694 314.327C256.469 315.202 256.282 316.911 254.962 316.752C254.495 316.611 254.323 316.384 254.404 316.256C253.758 316.16 252.866 316.025 253.442 316.732L253.841 316.425C254.607 317.206 257.181 318.194 256.335 318.599C257.901 318.798 257.211 318.192 256.245 317.549C258.414 319.116 259.986 319.042 262.371 320.288C262.036 319.924 261.864 319.334 262.238 319.453C265.731 321.239 264.107 319.293 266.648 319.891C267.861 320.936 265.669 321.214 268.362 321.467C269.776 322.374 268.372 322.645 267.626 322.8C270.201 322.73 271.823 324.646 273.14 325.138L271.804 325.132C272.593 325.124 273.214 325.283 273.837 325.471L273.355 324.455C274.052 324.788 274.672 324.946 274.55 325.289C275.431 324.941 274.359 323.764 276.028 323.409C276.876 324.092 279.061 323.723 279.129 324.866C276.18 323.759 279.204 326.099 276.55 325.601C277.096 325.585 277.689 325.776 278.383 326.079C278.456 326.224 278.217 326.274 278.006 326.292C280.728 327.933 279.655 325.335 282.691 326.042C282.16 326.571 283.141 327.394 283.656 327.38C282.417 327.093 283.282 326.203 284.507 325.977C286.373 326.844 286.696 326.001 287.721 326.275L286.59 325.828C287.119 325.269 288.054 325.552 289.453 325.583C289.497 326.093 288.157 325.694 288.607 325.988C290.299 325.178 291.827 327.767 294.067 327.333C294.967 327.921 293.989 328.549 294.784 328.964C297.295 328.507 297.263 330.263 299.87 329.858C299.243 328.914 299.107 329.107 300.968 328.494C299.573 328.523 298.152 328.585 296.752 328.554C297.701 328.291 298.615 327.971 299.559 327.648C298.333 327.511 296.874 327.848 296.152 327.577C297.505 327.068 297.34 327.264 296.846 326.46C298.346 328.024 300.282 326.165 302.136 327.246L301.831 329.357C304.71 330.713 307.219 328.805 311.001 329.72L309.807 329.248C310.378 328.473 312.181 329.316 313.465 329.055C313.313 329.763 314.067 330.061 314.563 330.533C314.517 329.992 317.407 330.772 317.801 329.348L319.466 330.354C322.575 330.843 323.1 328.47 326.07 328.76C325.165 329.533 326.515 330.052 324.494 330.557C325.499 330.592 326.391 330.727 326.41 330.242C326.996 330.705 329.184 329.309 330.123 329.984C330.552 329.675 330.668 328.909 331.796 328.964C331.93 329.104 331.827 329.324 331.827 329.324C331.829 328.991 333.575 328.811 332.598 328.049C335.733 330.258 341.146 327.527 344.016 329.125C346.191 328.636 348.815 328.079 350.751 327.641C350.648 327.861 350.782 328.001 350.415 327.972C353.279 328.089 351.706 325.685 354.894 325.683C356.72 326.433 353.402 326.688 354.48 326.867C355.487 329.048 358.113 325.679 360.561 326.255L360.099 326.537C361.941 326.772 363.682 324.416 366.185 323.506C366.185 323.506 366.145 323.751 366.304 323.828C367.544 321.999 370.449 320.117 372.367 318.411C372.196 319.605 371.636 319.441 372.561 319.966C373.469 319.224 371.497 318.879 373.255 317.428C374.134 317.413 375.753 316.821 376.538 317.479L374.77 318.81C376.476 319.238 377.083 317.1 378.126 316.527L378.354 317.052C380.884 314.688 379.942 313.621 382.519 311.102L381.972 311.089C382.19 308.682 383.706 310.426 384.094 308.217L385.587 308.633C386.18 307.403 387.11 304.089 387.927 301.933C388.282 303.596 387.295 306.249 386.779 308.017C387.157 307.47 387.773 306.511 388.269 305.561C388.701 304.587 389.016 303.654 388.884 303.181C388.747 303.707 388.691 304.467 388.234 304.809C388.095 302.826 388.621 300.816 389.543 298.47C390.76 299.212 391.569 297.661 392.223 295.731C392.535 294.767 392.777 293.689 393.154 292.78C393.438 291.849 393.826 291.06 394.426 290.615C393.918 285.762 394.926 280.87 393.033 275.44C391.549 277.955 392.508 273.913 390.472 274.964C389.922 273.863 389.791 273.391 389.871 273.263C389.818 271.937 389.675 270.62 389.529 269.272C389.707 268.169 390.485 270.157 390.881 269.821C389.776 267.195 391.18 268.344 390.796 266.352C390.31 267.059 389.311 266.026 388.725 264.505L389.029 266.987C386.034 264.282 388.843 263.044 385.496 260.489C385.936 260.663 386.379 260.867 386.821 261.071C386.061 260.35 384.87 258.85 383.483 257.549C382.041 256.312 380.461 255.239 379.152 255.2C379.086 254.782 379.17 253.989 379.912 254.5C378.353 252.608 375.793 251.437 373.617 250.143C371.414 248.881 369.156 248.047 367.875 246.555L368.457 246.263C367.61 245.943 366.641 246.328 365.893 245.395C366.061 245.229 366.472 245.073 366.12 244.861C365.6 244.815 363.555 244.688 362.639 243.921L363.814 243.82C362.816 243.15 361.895 242.685 360.963 242.432C360.033 242.21 359.116 242.137 358.231 242.092C356.465 242.032 354.822 241.992 352.922 241.792C353.369 240.272 349.967 238.841 348.215 238.236L348.317 238.015C345.633 237.52 343.317 237.417 341.028 237.643C338.775 237.927 336.585 238.236 334.122 238.538C332.625 237.729 329.992 237.471 327.151 237.624C324.312 237.807 321.265 238.038 318.748 238.073C319.55 238.216 318.854 239.303 318 239.618C316.807 239.509 315.102 241.227 314.978 239.786L315.4 239.75C314.26 238.488 312.008 239.497 310.19 239.895L310.355 241.815C307.673 240.987 304.759 242.416 302.093 243.552C299.509 244.922 297.283 246.231 295.531 245.626C294.704 246.603 293.393 247.26 292.594 248.205L292.18 247.273C289.125 248.472 287.713 249.349 284.391 251.689L284.695 250.636C282.668 251.777 284.01 254.684 282.385 255.912L280.974 255.035C279.371 256.17 277.662 257.133 276.061 258.298C274.458 259.433 272.929 260.713 272.056 262.571C271.947 262.369 271.73 261.964 272.144 261.475C270.76 262.682 266.251 265.698 268.281 266.703C267.292 265.791 265.392 269.49 264.499 271.471L263.935 270.552C263.758 272.744 264.023 272.993 262.716 275.1C262.229 275.444 261.763 274.97 262.456 274.548C260.792 275.688 262.241 276.289 260.397 277.808L260.425 276.717C259.16 278.246 259.532 278.335 259.492 279.638C259.047 280.825 257.063 282.476 256.161 282.221C256.451 282.771 256.471 284.069 255.598 284.869C255.229 284.81 255.281 284.352 255.32 284.107C252.818 286.437 253.632 288.846 251.595 290.23C251.28 290.106 251.069 290.124 250.866 290.232C252.286 288.025 253.441 286.263 253.396 286.448C252.623 285.94 251.346 287.682 251.16 285.522C250.835 287.393 250.565 290.621 249.152 292.193C249.034 292.233 248.886 292.276 248.732 292.259L248.712 292.019C248.439 292.375 248.294 292.81 248.239 293.238C247.766 293.732 247.46 294.061 247.142 294.602C246.37 294.456 245.545 296.522 245.047 297.441C245.993 297.844 245.181 299.002 246.544 298.25C246.401 298.353 246.523 298.01 246.803 297.382C246.851 297.226 246.928 297.069 246.918 296.949L246.928 297.069C247.301 296.462 247.719 295.671 248.187 294.754C248.242 295.747 248.171 296.69 247.112 297.446C247.453 298.233 247.769 299.082 247.898 299.524C245.975 300.113 244.002 302.246 243.057 302.207C242.174 305.365 240.107 309.23 241.092 311.866C240.959 312.785 240.185 312.609 239.745 312.798C239.789 312.25 240.044 311.684 239.921 311.302C239.625 313.171 237.954 316.337 239.063 317.239C237.648 319.144 238.404 315.573 237.418 318.589L237.188 318.035C232.885 323.089 236.818 328.586 232.074 334.161C232.374 333.773 232.507 333.55 232.778 333.526C229.195 340.605 229.107 349.136 226.035 356.503C225.278 358.653 226.16 359.031 226.615 360.443L225.463 360.814C225.806 361.631 226.18 362.445 226.521 363.232C227.253 366.464 223.52 368.96 225.704 373.186L226.381 372.584C226.302 374.132 227.479 377.235 226.592 377.16C226.755 377.297 227.469 377.478 227.224 378.164L226.662 378.333C227.247 379.492 227.89 380.616 228.588 381.674C229.109 384.562 226.154 381.974 227.725 386.131C228.583 387.629 231.327 389.54 231.354 388.782C231.091 388.2 230.913 387.188 231.402 386.874L232.317 387.974C233.938 387.412 235.81 387.282 235.477 384.106C234.83 383.648 234.269 383.122 233.677 382.598L234.175 381.679L234.89 383.28C235.209 382.043 234.364 381.753 233.652 381.24C234.021 380.936 234.201 380.558 234.253 380.1C233.543 379.617 232.804 379.136 232.086 378.563C232.658 378.151 233.562 379.132 233.622 377.706C232.676 376.941 232.396 378.99 231.539 377.492C232.074 376.297 232.7 376.516 231.849 375.44C232.253 375.194 232.572 375.378 232.824 375.84C232.164 374.869 232.136 373.118 231.243 372.62C232.054 371.463 230.743 368.915 232.358 368.988C231.936 368.662 231.04 367.076 231.043 366.048C231.975 366.996 232.046 366.053 232.104 364.96C232.222 363.861 232.385 362.578 233.383 362.885C231.737 361.394 233.167 357.886 232.672 355.299C232.778 355.471 232.987 355.786 232.882 355.976C233.281 354.612 233.863 354.32 234.372 353.521C232.997 353.064 233.17 350.843 232.597 349.471C234.363 348.111 233.964 350.896 235.401 350.652C234.232 350.48 235.008 347.481 233.943 347.814C235.094 346.718 234.614 346.79 235.95 346.433C234.283 345.76 235.993 345.16 235.239 343.804C236.617 342.175 236.967 343.777 237.053 341.593C237.863 340.768 237.942 342.756 237.942 342.756L238.103 342.863ZM254.918 294.993C254.738 295.371 254.585 295.717 254.453 295.94C254.558 295.749 254.685 295.466 254.918 294.993ZM257.157 291.355C256.858 291.774 256.51 292.317 256.135 292.894C255.765 292.835 255.526 292.523 255.769 292.169C255.858 292.494 256.552 291.739 257.157 291.355ZM246.36 295.757C246.575 295.074 246.869 294.958 247.112 294.967C246.955 295.253 246.805 295.628 246.602 296.099C246.605 296.129 246.64 296.186 246.675 296.244C246.542 296.104 246.406 295.934 246.36 295.757Z" fill="#883D35"/>
<path d="M246.904 297.494C246.904 297.494 246.919 297.674 246.837 297.772C246.982 297.699 247.125 297.596 247.238 297.495C247.198 297.378 247.125 297.233 247.084 297.116C247.034 297.241 246.982 297.336 246.932 297.461L246.904 297.494Z" fill="#883D35"/>
<path d="M212.886 286.386L212.894 286.476C212.894 286.476 212.878 286.296 212.903 286.233C212.911 286.323 212.911 286.323 212.886 286.386Z" fill="#883D35"/>
<path d="M300.23 253.686L300.119 253.454L299.876 253.807L300.23 253.686Z" fill="#883D35"/>
<path d="M201.91 264.96C201.91 264.96 202.014 264.769 201.996 264.559C201.939 264.594 201.924 264.777 201.91 264.96Z" fill="#883D35"/>
<path d="M197.778 255.732C197.737 255.252 197.605 254.78 197.562 254.27C197.558 254.935 197.687 255.377 197.778 255.732Z" fill="#883D35"/>
<path d="M195.622 248.3C195.436 248.255 195.285 248.268 195.165 248.279L195.62 248.27L195.622 248.3Z" fill="#883D35"/>
<path d="M288.561 319.432C288.561 319.432 288.775 319.444 288.865 319.437C289.589 319.375 289.101 319.356 288.561 319.432Z" fill="#883D35"/>
<path d="M252.473 310.739C252.898 310.733 253.352 310.724 253.754 310.811C253.178 310.467 252.733 310.233 252.473 310.739Z" fill="#883D35"/>
<path d="M255.334 311.521C254.81 311.083 254.277 310.887 253.754 310.811C254.235 311.102 254.753 311.481 255.334 311.521Z" fill="#883D35"/>
<path d="M193.358 215.517L193.449 215.176C193.449 215.176 193.327 215.157 193.292 215.099L193.328 215.519L193.358 215.517Z" fill="#883D35"/>
<path d="M193.288 215.069L193.252 214.649C193.208 214.834 193.191 214.987 193.288 215.069Z" fill="#883D35"/>
<path d="M193.085 213.757L193.223 214.652C193.257 214.347 193.348 214.006 193.085 213.757Z" fill="#883D35"/>
<path d="M192.119 225.507L192.493 225.626C192.493 225.626 192.302 225.522 192.119 225.507Z" fill="#883D35"/>
<path d="M192.293 228.606C192.352 227.875 193.046 226.758 192.775 225.723L192.463 225.629C193.019 226.095 191.626 227.907 192.291 228.575L192.293 228.606Z" fill="#883D35"/>
<path d="M189.226 239.569C188.938 240.107 188.545 240.836 188.198 239.627C187.691 243.267 188.945 238.777 189.463 242.329L189.226 239.569Z" fill="#883D35"/>
<path d="M191.09 250.684C190.459 249.347 190.53 250.883 190.316 250.871C190.961 251.662 191.127 251.829 191.09 250.684Z" fill="#883D35"/>
<path d="M226.432 299.884L225.757 300.516C226.748 301.096 225.975 300.226 226.432 299.884Z" fill="#883D35"/>
<path d="M238.614 302.437C238.402 302.092 238.22 301.745 238.009 301.4L237.135 301.838C237.638 302.037 238.083 302.27 238.614 302.437Z" fill="#883D35"/>
<path d="M241.248 311.551L240.752 311.442L242.593 312.01L241.248 311.551Z" fill="#883D35"/>
<path d="M341.82 330.432L341.391 329.32C340.625 329.597 340.583 330.87 341.82 330.432Z" fill="#883D35"/>
<path d="M382.805 311.954C383.566 311.98 384.715 311.216 384.844 310.238C384.087 310.968 383.065 311.448 382.805 311.954Z" fill="#883D35"/>
<path d="M307.834 241.094C308.087 240.861 308.343 240.658 308.599 240.455C308.072 240.681 307.552 240.998 307.03 241.284L307.834 241.094Z" fill="#883D35"/>
<path d="M208.639 364.675C208.439 364.813 208.02 365.242 208.171 365.229L208.936 364.589L208.639 364.675Z" fill="#883D35"/>
<path d="M207.754 366.384C208.188 366.135 208.873 365.623 209.514 364.963C208.744 365.543 209.023 365.247 208.112 365.96C207.961 365.973 208.234 365.617 208.518 365.381C208.317 365.519 208.588 365.133 208.073 365.51C207.61 366.124 207.683 366.269 208.263 365.947C208.125 366.11 207.927 366.278 207.786 366.411L207.754 366.384Z" fill="#883D35"/>
<path d="M212.905 374.042L212.954 373.917C212.954 373.917 212.902 374.012 212.905 374.042Z" fill="#883D35"/>
<path d="M216.415 378.517C216.415 378.517 216.295 378.528 216.212 378.625C216.303 378.618 216.363 378.612 216.415 378.517Z" fill="#883D35"/>
<path d="M216.298 379.978C216.298 379.978 216.293 379.918 216.29 379.888C216.236 379.953 216.211 380.015 216.298 379.978Z" fill="#883D35"/>
<path d="M212.905 374.042L212.78 374.355C213.035 374.152 212.913 374.132 212.905 374.042Z" fill="#883D35"/>
<path d="M210.362 365.646C210.362 365.646 210.214 365.689 210.129 365.757C210.189 365.752 210.219 365.749 210.25 365.746L210.362 365.646Z" fill="#883D35"/>
<path d="M210.613 372.818L210.611 372.788C210.611 372.788 210.382 372.959 210.267 373.029L210.613 372.818Z" fill="#883D35"/>
<path d="M209.166 371.522C209.166 371.522 209.79 371.015 210.071 370.749C209.788 370.985 209.642 371.058 209.585 371.093C209.472 371.193 209.334 371.356 209.166 371.522Z" fill="#883D35"/>
<path d="M208.162 368.313L208.043 368.323C208.043 368.323 208.132 368.316 208.162 368.313Z" fill="#883D35"/>
<path d="M211.407 373.929C211.407 373.929 211.239 374.095 211.214 374.157L211.407 373.929Z" fill="#883D35"/>
<path d="M243.65 364.333C243.65 364.333 243.718 364.417 243.75 364.444C243.715 364.387 243.65 364.333 243.65 364.333Z" fill="#883D35"/>
<path d="M248.212 365.846L248.215 365.876L248.519 366.243L248.212 365.846Z" fill="#883D35"/>
<path d="M232.055 396.249C231.656 395.135 231.865 394.029 231.372 392.892C231.512 393.454 231.735 395.702 232.055 396.249Z" fill="#883D35"/>
<path d="M210.311 365.741C210.311 365.741 210.37 365.736 210.375 365.795C210.373 365.765 210.37 365.736 210.311 365.741Z" fill="#883D35"/>
<path d="M231.372 392.892L231.332 392.774C231.337 392.834 231.34 392.865 231.372 392.892Z" fill="#883D35"/>
<path d="M219.912 384.595C219.912 384.595 220.078 384.4 220.16 384.302C220.105 384.367 220.02 384.435 219.912 384.595Z" fill="#883D35"/>
<path d="M221.851 384.882C221.851 384.882 221.744 385.041 221.861 385.001C221.858 384.972 221.915 384.937 221.913 384.907C221.828 384.974 221.769 384.979 221.818 384.855L221.851 384.882Z" fill="#883D35"/>
<path d="M222.987 386.084C222.987 386.084 223.068 385.987 223.096 385.954L223.036 385.96L222.987 386.084Z" fill="#883D35"/>
<path d="M240.291 368.369C240.485 368.503 240.711 368.665 240.908 368.83C240.449 368.446 240.451 368.113 240.291 368.369Z" fill="#883D35"/>
<path d="M210.026 365.977C210.197 365.842 210.282 365.774 210.312 365.771L210.252 365.776C210.252 365.776 210.082 365.912 210.026 365.977Z" fill="#883D35"/>
<path d="M226.775 380.349L226.858 380.614C226.858 380.614 226.84 380.404 226.775 380.349Z" fill="#883D35"/>
<path d="M232.872 378.163L232.862 378.044C232.862 378.044 232.805 378.079 232.872 378.163Z" fill="#883D35"/>
<path d="M227.474 381.075C227.281 381.303 227.204 381.461 227.154 381.586C227.212 381.551 227.239 381.518 227.324 381.451L227.474 381.075Z" fill="#883D35"/>
<path d="M240.676 366.129C240.478 366.297 241.386 366.975 241.822 367.452C241.86 367.902 241.115 366.998 240.632 366.677C240.723 367.032 241.368 367.823 241.222 367.896C241.091 367.786 240.998 367.764 240.86 367.564C241.379 368.306 240.476 368.051 241.131 368.962C241.036 368.91 240.97 368.855 240.905 368.8C241.36 369.154 241.786 369.51 242.053 369.79C242 369.885 242.441 370.421 241.854 369.958C241.912 369.923 241.713 369.728 241.545 369.531L241.691 369.821C240.848 369.198 241.539 369.471 240.948 368.947C241.042 369.332 241.506 370.139 241.166 370.077C240.381 369.419 241.18 369.532 240.355 369.119L240.845 369.168C239.492 368.256 241.054 369.12 239.632 368.123C239.153 368.194 239.749 368.778 239.272 368.879C239.645 369.331 239.926 369.428 240.297 369.85C240.721 370.901 238.083 368.468 238.852 369.641C239.29 370.147 240.276 371.03 239.557 370.789L238.729 369.984C238.413 370.192 239.867 371.216 239.028 370.986C238.726 370.649 238.926 370.511 238.77 370.464C237.915 370.054 239.151 371.006 239.043 371.166L238.23 370.541C238.113 370.944 238.424 371.733 238.279 372.169C238.047 371.947 237.843 371.692 237.559 371.565C237.621 372.286 236.747 372.36 235.961 372.398L236.537 373.104C236.537 373.104 236.158 372.925 236.054 372.783C235.655 372.726 236.48 373.139 236.716 373.421C236.697 373.544 236.214 373.222 236.045 373.025C236.411 373.75 236.744 374.809 235.749 374.532L235.578 374.305C235.126 374.343 236.847 375.647 236.032 375.354L235.929 375.212C235.223 375.484 235.524 376.516 234.127 376.152C235.136 376.942 233.293 376.344 234.747 377.368C233.82 377.176 233.613 376.891 232.832 376.988C232.687 377.061 233.658 377.764 233.709 378.001L232.936 377.493L233.636 378.219L232.65 377.699L232.764 377.962C232.764 377.962 233.199 378.075 233.395 378.24C233.614 378.674 232.526 378.375 232.111 378.138L232.462 379.045C232.14 378.831 232.097 378.684 231.928 378.487C232.571 379.248 231.068 378.016 231.645 378.722C231.834 378.797 232.098 379.046 232.259 379.153C231.698 378.99 231.538 379.246 231.596 379.573L231.078 379.194C230.707 379.468 230.857 380.15 230.589 380.566C230.92 380.538 231.884 381.15 231.899 381.33L231.011 380.893C231.499 381.274 231.411 380.949 231.942 381.478C231.769 381.583 230.901 381.023 230.697 380.769L230.881 381.146C230.627 381.016 230.524 380.874 230.204 380.69C230.693 381.071 229.159 380.538 230.005 381.191L229.751 381.061C229.645 381.252 229.576 381.499 229.616 381.617C229.684 381.702 229.722 381.789 229.73 381.879C230.439 382.362 230.253 382.318 230.776 382.757C230.472 382.753 229.896 382.409 229.882 382.592C230.159 382.991 230.415 383.15 230.756 383.575C230.192 383.018 230.174 383.171 229.799 382.689C229.817 382.899 229.877 382.894 230.188 383.684C230.395 383.968 230.495 384.081 230.669 384.338C230.715 384.515 230.407 384.118 230.193 383.744L230.185 383.654C230.458 384.356 230.028 383.939 229.74 383.42C229.425 382.933 229.193 382.348 229.559 383.435L229.549 383.315C229.645 383.73 229.742 384.145 229.841 384.59C229.74 384.478 229.615 383.733 229.38 383.118C229.857 385.133 229.25 383.009 229.526 384.466C229.293 383.519 229.23 383.131 229.149 382.896C229.128 382.656 229.249 384.067 228.982 382.367L229.057 383.237C229.129 384.077 229.013 382.727 228.995 382.517C229.051 383.177 229.062 383.297 229.103 383.777C228.926 384.548 228.695 382.21 228.928 381.736C228.975 381.581 228.075 384.893 228.399 383.354L228.763 382.295C228.543 382.918 228.443 382.806 228.405 382.718C228.367 382.631 228.389 382.538 227.963 382.877C228.131 382.712 228.324 382.483 228.324 382.483C228.76 381.902 228.316 382.393 227.865 382.795C227.89 382.732 228.226 382.401 228.451 382.2C228.694 381.847 227.543 382.581 228.012 382.027C228.094 381.929 228.212 381.888 228.272 381.883C227.954 382.062 228.025 381.481 227.474 382.133C227.586 381.67 226.858 382.035 227.058 381.534C226.286 382.084 227.065 380.899 226.077 381.769C227.09 380.836 226.559 380.67 225.98 380.992C226.323 380.751 226.187 380.581 226.644 380.24C226.51 380.1 226.181 380.158 225.71 380.682C226.654 379.302 224.256 381.079 225.637 379.48C224.703 379.56 224.002 379.529 223.414 379.398C224.427 378.465 223.897 379.719 224.935 378.724C224.181 378.788 223.137 379.361 223.058 378.794C223.101 378.579 223.545 378.45 223.746 378.312C222.992 378.376 223.194 377.543 222.36 377.735C222.443 377.638 222.591 377.595 222.679 377.557C222.586 377.535 222.686 377.284 222.237 377.716L222.418 377.7C221.869 378.382 220.835 378.713 220.466 379.016C221.858 377.899 220.505 378.408 222.268 377.018C222.148 377.028 221.889 377.201 221.581 377.5C221.598 377.347 221.766 377.182 222.168 376.906C221.716 376.944 221.305 377.463 221.133 377.236C221.359 377.035 221.477 376.995 221.76 376.759C221.238 377.046 220.719 377.362 220.751 377.027C220.894 376.924 221.029 376.731 221.095 376.786C220.743 376.574 219.506 377.376 219.597 376.673C220.621 375.859 219.805 376.262 220.617 375.467L220.195 375.503L219.872 375.984C219.736 375.814 219.016 376.269 219.163 375.863L219.6 375.645L219.163 375.501L218.99 375.969C218.436 376.228 217.982 376.962 218.007 376.537C218.127 376.527 217.871 376.367 218.282 375.848C217.963 376.027 217.614 376.208 217.709 375.898C217.929 375.637 218.639 375.062 218.805 374.867C218.065 375.444 218.274 374.7 217.474 375.283C217.675 375.145 218.096 374.746 218.179 374.648L217.552 375.125C217.652 374.875 217.737 374.807 218.103 374.473C218.017 374.178 217.13 375.524 217.345 374.841C217.405 374.835 217.488 374.738 217.606 374.697C217.595 374.215 216.804 374.554 216.854 374.067C217.6 373.217 217.248 374.063 217.854 373.346C217.384 373.175 216.207 373.608 216.103 373.103L216.056 373.258C214.842 374.33 216.413 372.472 215.715 372.834C215.833 372.794 216.395 372.262 216.285 372.392C216.251 372.002 215.571 372.212 214.905 372.239L215.249 371.998C215.399 371.622 215.087 371.528 215.094 371.255C214.751 371.496 214.74 371.376 214.354 371.833C215.636 369.788 212.659 371.887 213.725 370.164C213.761 370.221 214.077 370.013 214.044 369.985L213.461 369.914C212.987 370.408 213.185 370.24 212.86 370.691C212.516 370.932 212.192 371.051 212.127 370.996C212.599 370.835 212.942 370.231 213.155 369.88C212.984 370.016 212.816 370.181 212.678 370.344C213.41 369.314 211.635 371.28 212.02 370.461L212.304 370.225C212.093 370.243 211.661 370.522 211.646 370.342C212.202 369.75 211.994 370.161 212.504 369.724C212.343 369.617 211.144 370.506 211.604 369.862C211.808 369.754 211.906 369.836 212.109 369.728C212.68 368.953 212.48 369.092 212.494 368.909L212.571 368.389L212.438 368.611C210.758 369.904 211.855 368.541 210.644 369.279C211.8 368.606 211.241 368.805 211.915 368.173C212.048 367.95 212.175 367.667 212.373 367.499C211.741 367.916 212.629 366.933 211.708 367.526C211.903 367.327 211.635 367.381 212.171 366.911C211.87 366.937 211.84 367.303 211.557 367.538C210.626 368.011 211.959 366.204 210.679 366.858C210.023 367.005 209.256 367.615 208.658 367.727C208.926 367.311 209.511 367.049 209.511 367.049C209.686 366.611 209.56 366.561 209.176 366.685C209.377 366.547 209.512 366.354 209.733 366.093C209.577 366.046 208.88 366.771 209.085 366.33C209.341 366.127 209.767 365.788 210.026 365.614C209.727 365.67 209.205 365.957 208.906 366.013C209.237 365.622 209.533 365.536 209.822 365.36C209.52 365.386 209.151 365.327 208.526 365.834L208.399 366.117C208.399 366.117 208.873 365.623 209.018 365.55C209.598 365.228 208.989 365.915 208.763 366.116L208.552 366.134C207.389 367.443 209.082 366.3 209.166 366.565L208.17 367.345L209.096 366.813C208.906 367.071 208.404 367.597 208.193 367.615C207.875 368.156 208.633 367.427 208.227 368.005C208.174 368.101 208.116 368.136 208.056 368.141L208.44 368.017C208.212 368.188 207.826 368.644 207.871 368.459C207.538 369.183 208.878 368.161 208.274 368.908L208.183 368.916C208.794 368.954 208.893 368.341 209.882 367.833L208.391 369.563L209.098 368.958C209.098 368.958 209.111 369.108 208.83 369.374C209.41 369.053 209.108 369.078 209.595 368.734C209.142 369.469 210.276 368.888 209.241 369.913C209.81 369.472 209.501 369.408 210 369.214C208.882 370.337 210.365 369.213 209.964 369.851C209.339 370.358 209.517 369.95 209.116 370.589C210.195 369.711 209.157 371.069 209.454 370.983C210.269 370.218 210.026 370.934 210.476 370.865C210.193 371.101 210.392 371.659 210.278 372.092L210.137 372.224C210.985 371.487 211.013 371.817 211.284 371.794C210.808 372.258 210.577 372.398 210.286 372.544L210.417 372.654C210.703 372.448 210.876 372.342 211.059 372.357L210.437 372.894C210.631 373.028 211.472 372.563 211.28 373.154C211.841 372.622 212.686 371.492 213.283 371.38C212.975 371.679 212.471 372.175 212.293 372.221C212.353 372.216 212.611 372.043 212.534 372.2L211.929 372.585C211.804 372.898 212.416 372.241 212.426 372.361C212.005 372.76 212.183 372.714 211.814 373.018C211.754 373.023 211.914 372.767 211.714 372.905C211.727 373.055 211.577 373.431 211.271 373.76C211.524 373.526 211.86 373.195 211.983 373.215C212.177 373.349 211.514 373.769 211.389 374.082C211.733 373.841 211.525 374.252 212.17 373.622C212.205 373.679 211.927 373.975 211.759 374.141C212.138 373.957 212.242 374.462 212.816 373.718L212.811 373.658L212.871 373.653C213.785 373.332 213.074 374.602 213.621 374.616L213.396 374.817C213.818 374.78 213.901 375.045 214.481 374.724C214.516 374.781 214.19 375.232 213.935 375.435C214.236 375.409 214.492 375.206 214.292 375.707C213.795 375.931 213.989 376.065 213.878 375.833C213.846 376.168 213.545 376.557 214.3 376.16C213.673 376.637 213.729 376.934 213.968 376.883L214.258 376.375C214.409 376.362 214.452 376.509 214.492 376.627L213.727 377.267C213.162 378.464 215.843 376.45 214.591 378.13C215.195 377.745 214.758 377.601 215.445 377.119C215.496 377.357 214.624 378.52 214.66 378.577C214.467 379.168 215.927 377.773 215.847 378.264C216.068 378.003 216.737 377.311 217.156 377.245C217.207 377.482 216.26 378.47 215.933 378.559C215.873 378.564 215.923 378.439 216.038 378.368C215.888 378.381 215.712 378.457 215.496 378.777L215.78 378.542C215.595 378.86 215.824 379.052 215.34 379.426C215.694 379.305 215.826 379.082 215.868 378.866C215.674 379.427 216.171 379.203 216.116 379.631C216.224 379.471 216.5 379.145 216.532 379.172C216.493 379.78 217.142 378.848 217.454 378.942C217.163 379.451 216.463 379.783 217.003 379.706C216.853 380.082 216.334 380.398 216.073 380.542C216.748 380.272 216.099 381.204 216.087 381.417L215.791 381.503C215.969 381.457 216.002 381.485 216.067 381.54L216.536 380.986C216.536 380.986 216.554 381.196 216.328 381.396C216.73 381.12 217.136 380.541 217.745 380.217C217.56 380.535 218.258 380.173 217.588 380.865C217.577 380.382 216.919 381.557 216.605 381.433C216.725 381.423 216.755 381.42 216.741 381.603C216.688 381.698 216.6 381.736 216.54 381.741C216.155 382.56 217.428 381.121 217.632 381.375C217.206 381.714 216.938 382.13 217.056 382.09C216.955 381.977 217.667 381.433 218.046 381.249C217.902 381.685 218.438 381.215 218.479 381.333L218.521 381.118C218.947 380.779 218.958 380.899 219.201 380.908C218.893 381.207 218.905 380.994 218.8 381.184C219.605 380.662 218.365 382.128 218.98 381.864C218.794 382.182 218.25 382.561 218.15 382.812C218.823 382.512 217.817 383.536 218.438 383.331C218.906 382.777 218.763 382.88 219.403 382.553L218.71 382.613L219.666 382.077C219.565 381.965 219.129 382.184 219.176 382.029C219.695 381.712 219.555 381.845 219.941 381.389C219.287 382.261 220.657 381.237 220.286 381.873L218.995 383.102C218.637 383.888 220.07 382.889 220.031 383.497L220.156 383.184C220.725 382.742 220.41 383.313 220.703 383.197C220.252 383.599 220.18 383.817 219.931 384.11C220.24 383.811 220.105 384.367 221.008 383.564L220.58 384.236C220.591 384.718 222.083 383.351 222.177 383.736C221.632 384.115 221.422 384.496 220.95 384.657C221.018 384.742 221.001 384.895 221.312 384.626C221.094 384.917 222.102 384.286 221.779 384.768C222.01 384.627 222.459 384.195 222.499 384.313C222.417 384.411 222.274 384.514 222.274 384.514C222.499 384.313 222.688 384.387 223.096 383.839C221.981 385.355 223.846 384.439 222.894 385.73C223.201 385.764 223.543 385.856 223.734 385.96C223.591 386.063 223.508 386.161 223.533 386.098C223.343 386.719 224.867 385.017 224.718 385.755C224.215 386.614 224.188 385.951 224.038 386.327C222.705 387.771 224.634 386.548 224.094 387.682L223.973 387.693C223.766 388.466 224.878 387.615 225.092 387.99C225.092 387.99 224.982 388.12 224.932 388.245C225.664 387.578 226.119 387.569 226.48 387.538C226.085 388.237 226.202 387.834 225.91 388.675C226.06 388.662 226.407 387.393 226.678 387.37C226.569 387.863 226.588 388.436 226.333 389.364L226.074 389.175C225.788 390.439 226.404 389.479 226.462 389.807L226.292 390.305C226.74 390.569 227.076 389.18 227.389 389.637L227.441 389.179C227.85 387.935 227.465 390.174 227.813 389.268L227.675 390.851C227.871 390.653 228.286 389.832 228.489 389.724C228.341 390.824 228.002 391.126 227.709 391.604C227.845 391.774 228.23 392.013 228.349 391.277C228.297 391.372 228.205 391.713 228.146 391.385C228.418 390.304 228.59 389.836 228.824 390.088C228.806 393.414 229.471 391.604 229.884 394.652C230.094 394.271 230.371 394.671 230.694 395.247C231.017 395.824 231.423 396.666 231.672 396.735L231.667 396.675C231.646 396.435 231.598 396.228 231.552 396.05C231.362 395.251 231.344 395.04 231.342 395.01C231.324 394.8 231.492 394.998 231.071 392.918C231.098 392.523 231.128 392.52 231.176 392.727C231.371 393.225 231.593 393.689 231.842 394.121C232.123 394.913 231.919 395.021 232.104 395.761C232.355 395.498 232.509 396.936 232.851 397.39C232.548 396.328 232.516 395.605 232.71 395.74L232.168 394.728C231.974 392.478 233.093 396.674 232.923 394.331L233.111 395.463C233.094 394.558 233.706 393.901 232.99 391.574C233.131 391.804 233.454 392.381 233.452 392.714C233.698 392.39 233.64 391.368 233.636 390.612C233.63 389.827 233.611 389.254 234.048 389.398L234.336 389.917C234.31 389.617 233.879 388.838 234.264 389.077C234.4 389.247 234.549 389.567 234.604 389.501C234.523 389.267 234.205 388.387 234.511 388.421L234.806 389.031C235.589 388.601 234.407 386.858 234.411 386.193C235.461 387.101 236.076 386.836 236.394 386.658L236.555 386.765C236.828 386.409 236.81 385.836 236.62 385.399C236.406 385.025 236.129 384.625 236.038 384.27C237.443 384.724 237.079 383.667 238.021 383.677C237.772 383.608 237.153 383.117 237.08 382.972C237.356 383.008 236.468 382.208 237.497 382.876C238.515 383.423 238.364 383.073 238.504 382.94L237.154 382.059C239.351 382.898 237.143 380.518 239.041 381.413C238.772 381.104 238.852 380.976 238.583 380.667L239.292 381.15C239.644 380.999 239.819 380.923 239.904 380.493L240.364 380.907C240.535 380.771 238.494 379.284 238.597 379.063L239.689 379.756C239.902 379.405 241.053 379.729 240.33 378.733C240.491 378.84 240.755 379.09 240.76 379.15C240.901 379.017 241.878 379.084 240.426 378.09C241.335 378.768 240.768 377.819 240.485 377.36L241.137 377.878C240.402 377.095 240.143 376.906 240.079 376.518C240.2 376.508 240.658 376.892 240.439 376.82C240.904 376.931 239.9 376.201 240.393 376.28L240.76 376.671C240.931 376.536 240.704 376.374 240.269 375.897C240.09 375.58 240.678 375.711 241.294 376.172C240.934 375.87 240.529 375.391 240.775 375.431C241.002 375.593 241.135 375.732 241.173 375.82C241.849 375.913 240.721 374.801 241.538 375.123C241.765 375.285 241.863 375.368 241.958 375.42C241.763 375.618 241.595 375.784 241.56 375.726C242.179 376.217 242.412 376.106 243.15 376.92C242.805 376.435 241.986 375.387 242.416 375.441C242.481 375.496 242.544 375.521 242.64 375.573L242.708 375.658C242.708 375.658 242.763 375.593 242.692 375.478C242.845 375.495 242.938 375.517 242.996 375.482C243.514 375.861 243.423 375.506 243.509 375.438C242.854 374.89 243.035 374.874 242.429 374.533C242.489 374.528 242.497 374.618 242.472 374.681C242.472 374.681 242.477 374.741 242.48 374.771L242.414 374.716C242.414 374.716 242.337 374.874 242.284 374.969C242.012 374.629 241.773 374.317 242.246 374.519C241.878 374.127 241.478 373.708 241.279 373.513C242.305 374.151 242.959 374.337 243.542 374.77C243.403 374.208 243.807 373.962 242.762 372.751C242.684 372.547 243.174 372.958 243.398 373.09C243.471 373.235 243.414 373.27 243.58 373.437C243.393 373.03 243.838 372.901 243.042 372.123C243.57 372.259 243.717 372.911 243.807 372.541L244.041 372.793C245.801 373.488 242.656 370.101 244.834 371.062C244.708 371.013 244.645 370.988 244.482 370.851C245.793 370.92 245.015 368.931 246.73 369.449C247.129 369.505 246.631 369.004 246.376 368.512L247.066 369.118L246.501 368.199C246.22 367.407 248.486 369.389 247.792 368.028L247.331 367.614C247.512 367.598 247.461 366.998 247.934 367.562C247.866 367.477 247.526 367.053 247.785 367.243L248.118 367.577L247.862 366.722C248.322 366.773 249.109 368.157 249.482 367.913C249.462 367.673 248.882 366.574 248.623 366.385C248.562 366.39 248.311 366.291 247.976 365.926L247.95 365.626C247.009 364.559 246.15 363.393 245.171 362.963L245.545 363.777L245.021 363.339L245.157 363.146C244.638 362.767 244.953 363.254 245.135 363.601C244.871 363.351 244.674 363.187 244.549 363.137L245.257 364.316C244.859 363.927 244.605 363.435 244.263 363.343C244.583 363.89 245.184 364.171 245.313 364.613C244.795 364.235 244.457 363.84 244.712 364.332C244.448 364.083 244.309 363.883 244.236 363.738C244.423 364.146 244.086 364.114 244.562 364.708C243.915 364.249 244.359 365.179 243.458 364.228C243.662 364.483 244.023 365.147 243.973 365.272C243.01 363.964 243.571 365.549 242.401 364.289C243.287 365.422 242.385 365.167 242.756 365.951C242.688 365.866 242.549 365.666 242.612 365.691C242.401 365.709 242.076 365.465 241.795 365.368C242.626 366.204 242.629 366.597 243.045 367.196C242.079 366.553 242.136 366.155 241.313 365.41C242.007 366.076 241.757 366.339 242.376 366.83C241.767 366.459 242.029 366.678 241.279 366.078C242.338 367.105 241.365 366.373 241.911 367.081C241.215 366.748 240.862 366.174 241.026 366.674C240.614 366.467 240.387 365.943 240.387 365.943L240.676 366.129ZM238.601 372.383C238.601 372.383 238.593 372.293 238.621 372.26C238.621 372.26 238.626 372.32 238.601 372.383ZM238.3 372.771C238.3 372.771 238.416 372.701 238.471 372.636C238.697 372.798 238.929 373.02 238.901 373.052C238.768 372.913 238.554 372.901 238.333 372.799L238.3 372.771ZM243.499 375.681C243.499 375.681 243.411 375.718 243.25 375.611C243.248 375.581 243.242 375.521 243.237 375.461L243.169 375.376C243.169 375.376 243.401 375.598 243.469 375.683L243.499 375.681Z" fill="#883D35"/>
<path d="M242.726 374.81C242.663 374.785 242.601 374.76 242.538 374.735L242.736 374.93L242.726 374.81Z" fill="#883D35"/>
<path d="M212.954 373.917C212.954 373.917 212.979 373.855 213.007 373.822L212.952 373.887L212.954 373.917Z" fill="#883D35"/>
<path d="M232.843 377.441L233.004 377.577L232.872 377.438L232.843 377.441Z" fill="#883D35"/>
<path d="M213.224 369.964C213.224 369.964 213.333 369.834 213.36 369.802C213.333 369.834 213.279 369.899 213.224 369.964Z" fill="#883D35"/>
<path d="M212.563 368.994L212.657 368.683C212.58 368.841 212.558 368.934 212.563 368.994Z" fill="#883D35"/>
<path d="M212.269 368.052C212.269 368.052 212.071 368.22 211.986 368.288L212.269 368.052Z" fill="#883D35"/>
<path d="M222.776 377.609C222.776 377.609 222.776 377.609 222.836 377.604C223.012 377.559 222.923 377.566 222.776 377.609Z" fill="#883D35"/>
<path d="M218.41 375.928C218.41 375.928 218.701 375.782 218.789 375.744C218.781 375.654 218.776 375.594 218.41 375.928Z" fill="#883D35"/>
<path d="M226.772 380.319L226.743 380.322L226.774 380.348L226.772 380.319Z" fill="#883D35"/>
<path d="M218.925 375.913C219.002 375.756 218.91 375.734 218.793 375.774C218.801 375.864 218.809 375.953 218.925 375.913Z" fill="#883D35"/>
<path d="M209.879 364.962C209.879 364.962 209.794 365.029 209.767 365.062L209.886 365.051L209.879 364.962Z" fill="#883D35"/>
<path d="M209.763 365.032L209.644 365.043C209.644 365.043 209.679 365.1 209.763 365.032Z" fill="#883D35"/>
<path d="M209.439 365.151L209.675 365.07C209.675 365.07 209.668 364.98 209.439 365.151Z" fill="#883D35"/>
<path d="M210.404 366.126L210.629 365.925C210.629 365.925 210.516 366.026 210.404 366.126Z" fill="#883D35"/>
<path d="M210.726 366.34C210.726 366.34 211.068 365.737 210.83 365.787L210.632 365.955C211.003 365.682 210.266 366.652 210.695 366.343L210.726 366.34Z" fill="#883D35"/>
<path d="M208.977 370.027L208.944 369.637C208.753 369.895 208.48 370.251 208.324 370.204C207.889 371.148 208.793 369.65 208.977 370.027Z" fill="#883D35"/>
<path d="M209.275 371.029C209.062 371.017 208.94 371.36 208.799 371.493C209.09 371.347 209.15 371.342 209.275 371.029Z" fill="#883D35"/>
<path d="M213.913 375.891L213.351 376.422C213.502 376.409 213.577 376.222 213.913 375.891Z" fill="#883D35"/>
<path d="M217.705 374.084L217.973 373.668L217.434 374.108L217.705 374.084Z" fill="#883D35"/>
<path d="M214.25 378.401L214.132 378.441L214.463 378.413L214.25 378.401Z" fill="#883D35"/>
<path d="M222.252 386.39L222.922 385.697C222.743 385.743 221.956 386.475 222.252 386.39Z" fill="#883D35"/>
<path d="M227.423 390.389C227.357 391.03 227.463 391.565 227.633 391.067C227.525 390.864 227.506 390.292 227.423 390.389Z" fill="#883D35"/>
<path d="M238.543 382.665L238.746 382.92L238.63 382.627L238.543 382.665Z" fill="#883D35"/>
</svg>
