<svg width="171" height="42" viewBox="0 0 171 42" fill="none" xmlns="http://www.w3.org/2000/svg">
<path d="M78.4834 26.9038C78.2751 26.9038 78.0669 26.7789 77.9628 26.5914L75.1308 21.1982H75.0059H71.7158C71.3826 21.1982 71.1327 21.4689 71.1327 21.7812V26.2999C71.1327 26.6331 70.862 26.883 70.5496 26.883H66.3433C66.0101 26.883 65.7603 26.6123 65.7603 26.2999V6.87166C65.7603 6.53849 66.031 6.2886 66.3433 6.2886H75.0059C77.7337 6.2886 79.8369 6.91331 81.3362 8.18354C82.8355 9.45377 83.5851 11.2238 83.5851 13.5143C83.5851 15.0553 83.2728 16.4088 82.6481 17.5333C82.1066 18.4911 81.3778 19.2616 80.4408 19.8655C80.1701 20.0321 80.0659 20.4069 80.2534 20.6776L83.6476 25.9876C83.8975 26.3832 83.6059 26.883 83.1478 26.883H78.4834V26.9038ZM71.1327 16.3255C71.1327 16.6587 71.4034 16.9086 71.7158 16.9086H75.0475C76.1511 16.9086 76.9841 16.6378 77.588 16.0756C78.1918 15.5342 78.4834 14.7429 78.4834 13.7017C78.4834 12.7022 78.1918 11.9318 77.588 11.3903C76.9841 10.8489 76.1511 10.5782 75.0475 10.5782H71.7158C71.3826 10.5782 71.1327 10.8489 71.1327 11.1613V16.3255Z" fill="#3C4043"/>
<path d="M87.9165 11.0156H91.9355C92.2686 11.0156 92.5185 11.2863 92.5185 11.5987V26.3208C92.5185 26.654 92.2478 26.9039 91.9355 26.9039H87.9165C87.5834 26.9039 87.3335 26.6332 87.3335 26.3208V11.5987C87.3335 11.2655 87.6042 11.0156 87.9165 11.0156Z" fill="#3C4043"/>
<path d="M112.863 5.68473V26.3207C112.863 26.6539 112.593 26.9038 112.28 26.9038H108.22C107.887 26.9038 107.637 26.6331 107.637 26.3207C107.637 25.821 107.054 25.5503 106.679 25.8626C106.366 26.1333 106.012 26.3416 105.638 26.529C104.846 26.9038 103.951 27.112 102.951 27.112C101.473 27.112 100.182 26.7789 99.0782 26.0917C97.9538 25.4045 97.1 24.4466 96.4753 23.1972C95.8506 21.9478 95.5591 20.511 95.5591 18.8868C95.5591 17.2834 95.8714 15.8674 96.4753 14.6596C97.0792 13.4519 97.933 12.5148 99.0366 11.8485C100.14 11.1821 101.41 10.8489 102.847 10.8489C103.868 10.8489 104.784 11.0363 105.596 11.432C105.992 11.6194 106.366 11.8693 106.72 12.14C107.095 12.4523 107.678 12.1816 107.678 11.6819V5.70555C107.678 5.37238 107.949 5.1225 108.261 5.1225H112.28C112.613 5.10167 112.863 5.37238 112.863 5.68473ZM106.7 21.8854C107.324 21.1565 107.637 20.1987 107.637 19.0117C107.637 17.8248 107.324 16.8669 106.7 16.1381C106.075 15.4093 105.242 15.0553 104.222 15.0553C103.201 15.0553 102.368 15.4301 101.744 16.1589C101.098 16.8877 100.786 17.8456 100.786 19.0325C100.786 20.1987 101.098 21.1565 101.744 21.9062C102.389 22.635 103.201 23.0098 104.222 23.0098C105.242 22.989 106.075 22.635 106.7 21.8854Z" fill="#3C4043"/>
<path d="M133.353 5.68473V26.3207C133.353 26.6539 133.082 26.9038 132.77 26.9038H128.709C128.376 26.9038 128.126 26.6331 128.126 26.3207C128.126 25.821 127.543 25.5503 127.169 25.8626C126.856 26.1333 126.502 26.3416 126.127 26.529C125.336 26.9038 124.441 27.112 123.441 27.112C121.963 27.112 120.672 26.7789 119.568 26.0917C118.444 25.4045 117.59 24.4466 116.965 23.1972C116.34 21.9478 116.049 20.511 116.049 18.8868C116.049 17.2834 116.361 15.8674 116.965 14.6596C117.569 13.4519 118.423 12.5148 119.526 11.8485C120.63 11.1821 121.9 10.8489 123.337 10.8489C124.357 10.8489 125.274 11.0363 126.086 11.432C126.481 11.6194 126.856 11.8693 127.21 12.14C127.585 12.4523 128.168 12.1816 128.168 11.6819V5.70555C128.168 5.37238 128.439 5.1225 128.751 5.1225H132.812C133.082 5.10167 133.353 5.37238 133.353 5.68473ZM127.189 21.8854C127.814 21.1565 128.126 20.1987 128.126 19.0117C128.126 17.8248 127.814 16.8669 127.189 16.1381C126.565 15.4093 125.732 15.0553 124.711 15.0553C123.691 15.0553 122.858 15.4301 122.233 16.1589C121.588 16.8877 121.276 17.8456 121.276 19.0325C121.276 20.1987 121.588 21.1565 122.233 21.9062C122.879 22.635 123.691 23.0098 124.711 23.0098C125.732 22.989 126.565 22.635 127.189 21.8854Z" fill="#3C4043"/>
<path d="M150.762 13.1188C152.157 14.6389 152.844 16.742 152.844 19.4074C152.844 19.5324 152.844 19.6573 152.844 19.7614C152.844 20.0738 152.573 20.3445 152.261 20.3445H142.62C142.183 20.3445 141.891 20.8026 142.099 21.1983C142.349 21.698 142.682 22.0937 143.099 22.406C143.723 22.885 144.494 23.1348 145.389 23.1348C146.077 23.1348 146.743 22.9891 147.368 22.7184C147.846 22.5101 148.284 22.2394 148.721 21.8854C148.95 21.6772 149.304 21.698 149.533 21.9063L151.47 23.8428C151.699 24.0719 151.699 24.4467 151.47 24.6758C150.741 25.3838 149.866 25.946 148.888 26.3625C147.722 26.8414 146.41 27.0913 144.931 27.0913C143.224 27.0913 141.745 26.7581 140.454 26.0918C139.184 25.4254 138.205 24.4884 137.539 23.2806C136.873 22.0728 136.519 20.6568 136.519 19.0534C136.519 17.4292 136.852 15.9924 137.539 14.743C138.226 13.4936 139.184 12.5357 140.454 11.8694C141.704 11.203 143.161 10.849 144.806 10.849C147.368 10.8282 149.367 11.5987 150.762 13.1188ZM147.118 17.5542C147.492 17.5542 147.763 17.221 147.701 16.8462C147.597 16.2423 147.347 15.7425 146.951 15.3261C146.41 14.7638 145.702 14.4931 144.827 14.4931C143.994 14.4931 143.307 14.7638 142.766 15.3261C142.37 15.7217 142.078 16.2006 141.87 16.7837C141.745 17.1585 142.037 17.5542 142.432 17.5542H147.118Z" fill="#3C4043"/>
<path d="M162.048 31.7766C161.027 32.4846 159.757 32.8594 158.258 32.8594C157.383 32.8594 156.55 32.7345 155.78 32.4638C155.176 32.2555 154.572 31.9432 153.989 31.5475C153.739 31.381 153.656 31.027 153.823 30.7563L155.384 28.1533C155.551 27.8618 155.926 27.7785 156.217 27.9659C156.405 28.0909 156.592 28.195 156.779 28.2783C157.113 28.424 157.467 28.4865 157.841 28.4865C158.695 28.4865 159.341 28.0909 159.757 27.2787L160.007 26.7998C160.09 26.654 160.09 26.4666 160.028 26.3L153.906 11.8486C153.739 11.4529 154.031 11.0365 154.447 11.0365H158.508C158.758 11.0365 158.966 11.1822 159.049 11.4113L162.11 19.7823C162.298 20.3029 163.047 20.2821 163.214 19.7615L165.942 11.4321C166.025 11.1822 166.254 11.0365 166.504 11.0365H170.419C170.835 11.0365 171.106 11.4529 170.96 11.8278L164.463 28.4865C163.88 29.9441 163.047 31.0478 162.048 31.7766Z" fill="#3C4043"/>
<path d="M91.7478 8.95402H88.1245C87.708 8.95402 87.354 8.60002 87.354 8.18355V4.53945C87.354 4.12298 87.708 3.76898 88.1245 3.76898H91.7686C92.185 3.76898 92.539 4.12298 92.539 4.53945V8.18355C92.5182 8.62084 92.185 8.95402 91.7478 8.95402ZM88.5826 7.70461H91.2688V5.01839H88.5826V7.70461Z" fill="#E36458"/>
<path d="M91.3525 4.91437H89.9365V6.35119H91.3525V4.91437Z" fill="#E36458"/>
<path d="M26.2583 41.7926C8.05866 41.7926 0.541407 29.6526 0.229056 29.1528L0 28.7988L5.35162 13.1812V0.18741L15.5967 2.9361C17.4709 1.87411 26.175 -2.45717 36.5659 2.9361L47.1651 0V13.2645L52.5167 28.778L52.2876 29.132C51.9753 29.6526 44.458 41.7926 26.2583 41.7926ZM1.99905 28.5489C3.35257 30.4855 10.7865 39.981 26.2583 39.981C41.7718 39.981 49.1641 30.4855 50.5176 28.5489L45.3534 13.5769V2.39469L36.3577 4.87268L36.0454 4.70609C25.3838 -1.02035 16.5963 4.43539 16.2423 4.66445L15.9091 4.87268L15.5135 4.76856L7.18408 2.51963V13.4311L1.99905 28.5489Z" fill="#E36458"/>
<path d="M10.6822 9.55792H8.87061V4.68524L12.9936 5.76806L12.5355 7.53805L10.6822 7.03829V9.55792Z" fill="#E36458"/>
<path d="M43.6455 9.55792H41.813V7.03829L39.9806 7.53805L39.5225 5.76806L43.6455 4.68524V9.55792Z" fill="#E36458"/>
<path d="M37.628 25.3005H32.3388C31.7141 25.3005 31.2144 24.8008 31.2144 24.1761V18.8869C31.2144 18.2622 31.7141 17.7625 32.3388 17.7625H37.628C38.2527 17.7625 38.7524 18.2622 38.7524 18.8869V24.1761C38.7524 24.8008 38.2318 25.3005 37.628 25.3005ZM33.026 23.4889H36.92V19.5949H33.026V23.4889Z" fill="#E36458"/>
<path d="M20.4693 25.3005H15.1801C14.5554 25.3005 14.0557 24.8008 14.0557 24.1761V18.8869C14.0557 18.2622 14.5554 17.7625 15.1801 17.7625H20.4693C21.094 17.7625 21.5937 18.2622 21.5937 18.8869V24.1761C21.5937 24.8008 21.094 25.3005 20.4693 25.3005ZM15.8673 23.4889H19.7613V19.5949H15.8673V23.4889Z" fill="#E36458"/>
<path d="M31.9013 32.7761H20.8857C20.261 32.7761 19.7612 32.2763 19.7612 31.6516V24.6133C19.7612 23.9886 20.261 23.4888 20.8857 23.4888H31.9013C32.526 23.4888 33.0258 23.9886 33.0258 24.6133V31.6516C33.0258 32.2763 32.526 32.7761 31.9013 32.7761ZM21.5937 30.9644H31.2141V25.3004H21.5937V30.9644Z" fill="#3C4043"/>
<path d="M19.9279 19.4074H17.8247V21.5106H19.9279V19.4074Z" fill="#E36458"/>
<path d="M27.3624 32.7553H25.4258V34.6919H27.3624V32.7553Z" fill="#3C4043"/>
<path d="M27.3624 36.4618H25.4258V38.3984H27.3624V36.4618Z" fill="#3C4043"/>
<path d="M37.1074 19.3866H34.9834V21.5106H37.1074V19.3866Z" fill="#E36458"/>
</svg>
