<svg width="149" height="36" viewBox="0 0 149 36" fill="none" xmlns="http://www.w3.org/2000/svg">
<rect x="2.61414" width="31.2645" height="31.2645" rx="2" fill="white"/>
<mask id="mask0_268_6244" style="mask-type:alpha" maskUnits="userSpaceOnUse" x="2" y="0" width="32" height="32">
<rect x="2.61414" width="31.2645" height="31.2645" rx="2" fill="white"/>
</mask>
<g mask="url(#mask0_268_6244)">
<g opacity="0.35">
<path fill-rule="evenodd" clip-rule="evenodd" d="M28.662 21.3188L21.7358 14.3925C21.7125 14.3693 21.6891 14.3518 21.6659 14.3401L21.9366 14.0693C22.0879 13.9296 22.2336 13.8248 22.3734 13.7549L31.2648 11.7286L29.2385 20.62C29.1686 20.7598 29.064 20.9053 28.924 21.0567L28.662 21.3188Z" fill="#AA4C43"/>
<path fill-rule="evenodd" clip-rule="evenodd" d="M21.6659 14.3398C21.6892 14.3515 21.7126 14.369 21.7358 14.3922L28.6621 21.3184L14.8545 35.126C13.888 36.0926 12.7204 36.5789 11.3521 36.5847C9.99528 36.5789 8.83363 36.0926 7.8671 35.126C6.90057 34.1595 6.41424 32.9978 6.40848 31.6411C6.41441 30.2726 6.90056 29.1052 7.86709 28.1386L21.6659 14.3398Z" fill="#AA4C43"/>
</g>
</g>
<path fill-rule="evenodd" clip-rule="evenodd" d="M25.3979 15.5541L18.4716 8.62785C18.4484 8.60462 18.425 8.58715 18.4017 8.57545L18.6725 8.30469C18.8238 8.16494 18.9694 8.06013 19.1092 7.99025L28.0007 5.96391L25.9743 14.8554C25.9044 14.9951 25.7998 15.1406 25.6599 15.2921L25.3979 15.5541Z" fill="#3C4043"/>
<path fill-rule="evenodd" clip-rule="evenodd" d="M18.4017 8.57563C18.4249 8.58733 18.4483 8.6048 18.4715 8.62803L25.3978 15.5543L8.67879 32.2733C7.71226 33.2398 6.54467 33.7261 5.17636 33.7319C3.81959 33.7261 2.65793 33.2398 1.6914 32.2733C0.724871 31.3068 0.238547 30.1451 0.232782 28.7883C0.238721 27.4198 0.724869 26.2524 1.6914 25.2859L18.4017 8.57563Z" fill="white"/>
<path d="M57.3192 27.3491L54.1704 21.3845H49.9316V27.3491H44.5422V6.1551H54.019C59.6203 6.1551 62.8296 8.81949 62.8296 13.5427C62.8296 16.7824 61.4672 19.1137 58.9844 20.3551L63.4352 27.3491H57.3192ZM49.9316 17.1457H54.019C56.3503 17.1457 57.7128 15.9649 57.7128 13.7244C57.7128 11.5142 56.3503 10.3939 54.019 10.3939H49.9316V17.1457Z" fill="#E26559"/>
<path d="M68.4501 3.58154C70.0548 3.58154 71.2053 4.73207 71.2053 6.33676C71.2053 7.97173 70.0548 9.12226 68.4501 9.12226C66.8454 9.12226 65.6949 7.97173 65.6949 6.33676C65.6949 4.73207 66.8454 3.58154 68.4501 3.58154ZM71.0236 27.3491H65.816V11.0297H71.0236V27.3491Z" fill="#E26559"/>
<path d="M91.0534 4.88346V27.3491H85.8154V25.1994C84.6649 26.7133 82.9997 27.561 80.9105 27.561C76.3084 27.561 73.2807 24.17 73.2807 19.1137C73.2807 14.118 76.2781 10.8178 80.7894 10.8178C82.9391 10.8178 84.6649 11.6655 85.8154 13.1794V4.88346H91.0534ZM82.1822 23.5039C84.3621 23.5039 85.8154 21.7478 85.8154 19.2348C85.8154 16.7218 84.3621 14.996 82.1822 14.996C80.0022 14.996 78.5489 16.7218 78.5186 19.2348C78.5489 21.7478 80.0022 23.5039 82.1822 23.5039Z" fill="#E26559"/>
<path d="M111.204 4.88346V27.3491H105.966V25.1994C104.816 26.7133 103.151 27.561 101.061 27.561C96.4593 27.561 93.4316 24.17 93.4316 19.1137C93.4316 14.118 96.429 10.8178 100.94 10.8178C103.09 10.8178 104.816 11.6655 105.966 13.1794V4.88346H111.204ZM102.333 23.5039C104.513 23.5039 105.966 21.7478 105.966 19.2348C105.966 16.7218 104.513 14.996 102.333 14.996C100.153 14.996 98.6998 16.7218 98.6695 19.2348C98.6998 21.7478 100.153 23.5039 102.333 23.5039Z" fill="#E26559"/>
<path d="M122.06 10.8481C127.813 10.8481 130.659 14.6327 130.295 20.5973H118.82C119.335 22.535 120.728 23.625 122.666 23.625C124.089 23.625 125.481 23.0498 126.571 21.9598L129.327 24.6544C127.661 26.4711 125.209 27.5308 122.211 27.5308C116.883 27.5308 113.552 24.2003 113.552 19.2348C113.552 14.1785 117.004 10.8481 122.06 10.8481ZM118.73 17.7815H125.269C125.269 15.7832 123.998 14.4813 122.121 14.4813C120.304 14.4813 119.063 15.8135 118.73 17.7815Z" fill="#E26559"/>
<path d="M148.805 11.1293L138.641 35.9998H133.297L137.014 27.4175L130.422 11.1293H135.969L139.715 21.6758L143.432 11.1293H148.805Z" fill="#E26559"/>
</svg>
