<svg width="19" height="18" viewBox="0 0 19 18" fill="none" xmlns="http://www.w3.org/2000/svg">
<path d="M11 6H11.75C11.9489 6 12.1397 5.92098 12.2803 5.78033C12.421 5.63968 12.5 5.44891 12.5 5.25C12.5 5.05109 12.421 4.86032 12.2803 4.71967C12.1397 4.57902 11.9489 4.5 11.75 4.5H11C10.8011 4.5 10.6103 4.57902 10.4697 4.71967C10.329 4.86032 10.25 5.05109 10.25 5.25C10.25 5.44891 10.329 5.63968 10.4697 5.78033C10.6103 5.92098 10.8011 6 11 6ZM11 9H11.75C11.9489 9 12.1397 8.92098 12.2803 8.78033C12.421 8.63968 12.5 8.44891 12.5 8.25C12.5 8.05109 12.421 7.86032 12.2803 7.71967C12.1397 7.57902 11.9489 7.5 11.75 7.5H11C10.8011 7.5 10.6103 7.57902 10.4697 7.71967C10.329 7.86032 10.25 8.05109 10.25 8.25C10.25 8.44891 10.329 8.63968 10.4697 8.78033C10.6103 8.92098 10.8011 9 11 9ZM7.25 6H8C8.19891 6 8.38968 5.92098 8.53033 5.78033C8.67098 5.63968 8.75 5.44891 8.75 5.25C8.75 5.05109 8.67098 4.86032 8.53033 4.71967C8.38968 4.57902 8.19891 4.5 8 4.5H7.25C7.05109 4.5 6.86032 4.57902 6.71967 4.71967C6.57902 4.86032 6.5 5.05109 6.5 5.25C6.5 5.44891 6.57902 5.63968 6.71967 5.78033C6.86032 5.92098 7.05109 6 7.25 6ZM7.25 9H8C8.19891 9 8.38968 8.92098 8.53033 8.78033C8.67098 8.63968 8.75 8.44891 8.75 8.25C8.75 8.05109 8.67098 7.86032 8.53033 7.71967C8.38968 7.57902 8.19891 7.5 8 7.5H7.25C7.05109 7.5 6.86032 7.57902 6.71967 7.71967C6.57902 7.86032 6.5 8.05109 6.5 8.25C6.5 8.44891 6.57902 8.63968 6.71967 8.78033C6.86032 8.92098 7.05109 9 7.25 9ZM16.25 15H15.5V2.25C15.5 2.05109 15.421 1.86032 15.2803 1.71967C15.1397 1.57902 14.9489 1.5 14.75 1.5H4.25C4.05109 1.5 3.86032 1.57902 3.71967 1.71967C3.57902 1.86032 3.5 2.05109 3.5 2.25V15H2.75C2.55109 15 2.36032 15.079 2.21967 15.2197C2.07902 15.3603 2 15.5511 2 15.75C2 15.9489 2.07902 16.1397 2.21967 16.2803C2.36032 16.421 2.55109 16.5 2.75 16.5H16.25C16.4489 16.5 16.6397 16.421 16.7803 16.2803C16.921 16.1397 17 15.9489 17 15.75C17 15.5511 16.921 15.3603 16.7803 15.2197C16.6397 15.079 16.4489 15 16.25 15ZM10.25 15H8.75V12H10.25V15ZM14 15H11.75V11.25C11.75 11.0511 11.671 10.8603 11.5303 10.7197C11.3897 10.579 11.1989 10.5 11 10.5H8C7.80109 10.5 7.61032 10.579 7.46967 10.7197C7.32902 10.8603 7.25 11.0511 7.25 11.25V15H5V3H14V15Z" fill="white"/>
</svg>
