<svg width="20" height="20" viewBox="0 0 20 20" fill="none" xmlns="http://www.w3.org/2000/svg">
<g clip-path="url(#clip0_1263_1972)">
<path d="M11.2249 9.98095L18.1333 3.09109C18.2698 2.9321 18.3411 2.72759 18.333 2.51842C18.3249 2.30925 18.238 2.11083 18.0896 1.96282C17.9412 1.8148 17.7422 1.72809 17.5325 1.72001C17.3228 1.71193 17.1177 1.78308 16.9583 1.91924L10.0499 8.80909L3.14161 1.91092C2.98469 1.75442 2.77186 1.6665 2.54995 1.6665C2.32803 1.6665 2.1152 1.75442 1.95828 1.91092C1.80136 2.06742 1.7132 2.27968 1.7132 2.50101C1.7132 2.72233 1.80136 2.93459 1.95828 3.09109L8.87495 9.98095L1.95828 16.8708C1.87104 16.9453 1.80019 17.037 1.75017 17.1401C1.70015 17.2432 1.67205 17.3555 1.66761 17.47C1.66318 17.5844 1.68252 17.6986 1.72441 17.8052C1.76631 17.9119 1.82986 18.0088 1.91107 18.0897C1.99228 18.1707 2.0894 18.2341 2.19634 18.2759C2.30328 18.3177 2.41772 18.337 2.53249 18.3326C2.64726 18.3281 2.75987 18.3001 2.86325 18.2502C2.96664 18.2003 3.05857 18.1297 3.13328 18.0427L10.0499 11.1528L16.9583 18.0427C17.1177 18.1788 17.3228 18.25 17.5325 18.2419C17.7422 18.2338 17.9412 18.1471 18.0896 17.9991C18.238 17.8511 18.3249 17.6527 18.333 17.4435C18.3411 17.2343 18.2698 17.0298 18.1333 16.8708L11.2249 9.98095Z" fill="#B1B3B4"/>
</g>
<defs>
<clipPath id="clip0_1263_1972">
<rect width="20" height="20" fill="white"/>
</clipPath>
</defs>
</svg>
