<svg width="60" height="60" viewBox="0 0 60 60" fill="none" xmlns="http://www.w3.org/2000/svg">
<g clip-path="url(#clip0_483_5536)">
<path d="M30 0C46.582 0 60 13.418 60 30C60 46.582 46.582 60 30 60C13.418 60 0 46.582 0 30C0 13.418 13.418 0 30 0ZM30 56.3086C44.4727 56.3086 56.25 44.4727 56.25 30C56.25 15.5273 44.4727 3.75 30 3.75C15.5273 3.75 3.75 15.5273 3.75 30C3.75 44.4727 15.5273 56.3086 30 56.3086Z" fill="#65CB9D"/>
<path d="M24.589 45L12 32.2017L15.1472 29.0021L24.589 38.6008L44.8528 18L48 21.1996L24.589 45Z" fill="#65CB9D"/>
</g>
<defs>
<clipPath id="clip0_483_5536">
<rect width="60" height="60" fill="white"/>
</clipPath>
</defs>
</svg>
