<svg width="19" height="18" viewBox="0 0 19 18" fill="none" xmlns="http://www.w3.org/2000/svg">
<path d="M6.635 3H8.21C8.40891 3 8.59968 2.92098 8.74033 2.78033C8.88098 2.63968 8.96 2.44891 8.96 2.25C8.96 2.05109 8.88098 1.86032 8.74033 1.71967C8.59968 1.57902 8.40891 1.5 8.21 1.5H6.635C6.43609 1.5 6.24532 1.57902 6.10467 1.71967C5.96402 1.86032 5.885 2.05109 5.885 2.25C5.885 2.44891 5.96402 2.63968 6.10467 2.78033C6.24532 2.92098 6.43609 3 6.635 3ZM2.75 8.46C2.94891 8.46 3.13968 8.38098 3.28033 8.24033C3.42098 8.09968 3.5 7.90891 3.5 7.71V6.135C3.5 5.93609 3.42098 5.74532 3.28033 5.60467C3.13968 5.46402 2.94891 5.385 2.75 5.385C2.55109 5.385 2.36032 5.46402 2.21967 5.60467C2.07902 5.74532 2 5.93609 2 6.135V7.71C2 7.90891 2.07902 8.09968 2.21967 8.24033C2.36032 8.38098 2.55109 8.46 2.75 8.46ZM11.345 3C11.345 3.19891 11.424 3.38968 11.5647 3.53033C11.7053 3.67098 11.8961 3.75 12.095 3.75C12.2939 3.75 12.4847 3.67098 12.6253 3.53033C12.766 3.38968 12.845 3.19891 12.845 3V2.25C12.845 2.05109 12.766 1.86032 12.6253 1.71967C12.4847 1.57902 12.2939 1.5 12.095 1.5H11.345C11.1461 1.5 10.9553 1.57902 10.8147 1.71967C10.674 1.86032 10.595 2.05109 10.595 2.25C10.595 2.44891 10.674 2.63968 10.8147 2.78033C10.9553 2.92098 11.1461 3 11.345 3ZM16.25 5.655H12.845C12.845 5.45609 12.766 5.26532 12.6253 5.12467C12.4847 4.98402 12.2939 4.905 12.095 4.905C11.8961 4.905 11.7053 4.98402 11.5647 5.12467C11.424 5.26532 11.345 5.45609 11.345 5.655H6.905C6.70609 5.655 6.51532 5.73402 6.37467 5.87467C6.23402 6.01532 6.155 6.20609 6.155 6.405V10.845C5.95609 10.845 5.76532 10.924 5.62467 11.0647C5.48402 11.2053 5.405 11.3961 5.405 11.595C5.405 11.7939 5.48402 11.9847 5.62467 12.1253C5.76532 12.266 5.95609 12.345 6.155 12.345V15.75C6.155 15.9489 6.23402 16.1397 6.37467 16.2803C6.51532 16.421 6.70609 16.5 6.905 16.5H16.25C16.4489 16.5 16.6397 16.421 16.7803 16.2803C16.921 16.1397 17 15.9489 17 15.75V6.405C17 6.20609 16.921 6.01532 16.7803 5.87467C16.6397 5.73402 16.4489 5.655 16.25 5.655ZM15.5 15H7.655V11.6025V7.155H15.5V15ZM3.5 1.5H2.75C2.55109 1.5 2.36032 1.57902 2.21967 1.71967C2.07902 1.86032 2 2.05109 2 2.25V3C2 3.19891 2.07902 3.38968 2.21967 3.53033C2.36032 3.67098 2.55109 3.75 2.75 3.75C2.94891 3.75 3.13968 3.67098 3.28033 3.53033C3.42098 3.38968 3.5 3.19891 3.5 3C3.69891 3 3.88968 2.92098 4.03033 2.78033C4.17098 2.63968 4.25 2.44891 4.25 2.25C4.25 2.05109 4.17098 1.86032 4.03033 1.71967C3.88968 1.57902 3.69891 1.5 3.5 1.5ZM3.5 10.845C3.5 10.6461 3.42098 10.4553 3.28033 10.3147C3.13968 10.174 2.94891 10.095 2.75 10.095C2.55109 10.095 2.36032 10.174 2.21967 10.3147C2.07902 10.4553 2 10.6461 2 10.845V11.595C2 11.7939 2.07902 11.9847 2.21967 12.1253C2.36032 12.266 2.55109 12.345 2.75 12.345H3.5C3.69891 12.345 3.88968 12.266 4.03033 12.1253C4.17098 11.9847 4.25 11.7939 4.25 11.595C4.25 11.3961 4.17098 11.2053 4.03033 11.0647C3.88968 10.924 3.69891 10.845 3.5 10.845Z" fill="white"/>
</svg>
