<svg width="110" height="143" viewBox="0 0 110 143" fill="none" xmlns="http://www.w3.org/2000/svg">
<path d="M4.33614 1.95463C4.46343 1.13604 3.90303 0.369253 3.08444 0.24196C2.26585 0.114667 1.49906 0.675073 1.37176 1.49366L4.33614 1.95463ZM95.8315 141.525C96.2793 142.222 97.2073 142.424 97.9043 141.977L109.262 134.679C109.959 134.231 110.161 133.303 109.713 132.606C109.265 131.909 108.337 131.707 107.64 132.155L97.5446 138.642L91.0581 128.546C90.6103 127.849 89.6823 127.647 88.9853 128.095C88.2883 128.543 88.0864 129.471 88.5342 130.168L95.8315 141.525ZM1.37176 1.49366C-2.55893 26.7709 3.05504 41.0503 13.7551 49.8262C19.031 54.1534 25.4418 57.0538 32.2709 59.3231C39.086 61.5878 46.4478 63.2625 53.5907 65.063C68.0248 68.7012 81.585 72.8769 90.0521 83.3016C98.4512 93.6425 102.125 110.543 95.6278 140.396L98.5591 141.034C105.136 110.819 101.626 92.7929 92.3808 81.4102C83.2036 70.1113 68.6587 65.7671 54.3239 62.1539C47.0823 60.3287 39.8936 58.6948 33.2169 56.4762C26.5541 54.2621 20.5317 51.5043 15.6576 47.5066C6.05757 39.6329 0.504356 26.5958 4.33614 1.95463L1.37176 1.49366Z" fill="#E26559"/>
</svg>
