<svg width="375" height="277" viewBox="0 0 375 277" fill="none" xmlns="http://www.w3.org/2000/svg">
<rect width="376" height="277" transform="matrix(-1 0 0 1 376 0)" fill="#EDEDED"/>
<g style="mix-blend-mode:multiply">
<path fill-rule="evenodd" clip-rule="evenodd" d="M168.888 160.635L196.562 132.961C197.577 131.945 199.223 131.945 200.239 132.961L208.8 141.522V121.799C208.8 120.363 207.636 119.199 206.2 119.199H169.8C168.364 119.199 167.2 120.363 167.2 121.799V158.199C167.2 159.314 167.902 160.265 168.888 160.635ZM176.077 160.801H206.2C207.636 160.801 208.8 159.637 208.8 158.201V148.878L198.4 138.478L176.077 160.801ZM169.8 114H206.2C210.508 114 214 117.492 214 121.8V158.2C214 162.508 210.508 166 206.2 166H169.8C165.492 166 162 162.508 162 158.2V121.8C162 117.492 165.492 114 169.8 114ZM178.899 137.4C175.309 137.4 172.399 134.49 172.399 130.9C172.399 127.31 175.309 124.4 178.899 124.4C182.489 124.4 185.399 127.31 185.399 130.9C185.399 134.49 182.489 137.4 178.899 137.4ZM178.9 132.199C179.618 132.199 180.2 131.617 180.2 130.899C180.2 130.181 179.618 129.599 178.9 129.599C178.182 129.599 177.6 130.181 177.6 130.899C177.6 131.617 178.182 132.199 178.9 132.199Z" fill="#DFDFDF"/>
</g>
</svg>
