<svg width="128" height="128" viewBox="0 0 128 128" fill="none" xmlns="http://www.w3.org/2000/svg">
<rect opacity="0.2" width="128" height="128" rx="3" fill="#667176"/>
<g style="mix-blend-mode:multiply">
<path fill-rule="evenodd" clip-rule="evenodd" d="M44.8878 84.6347L72.5617 56.9608C73.5771 55.9454 75.2233 55.9454 76.2387 56.9608L84.8002 65.5223V45.7992C84.8002 44.3633 83.6361 43.1992 82.2002 43.1992H45.8002C44.3643 43.1992 43.2002 44.3633 43.2002 45.7992V82.1992C43.2002 83.3141 43.9019 84.2652 44.8878 84.6347ZM52.0767 84.801H82.1997C83.6356 84.801 84.7997 83.6369 84.7997 82.201V72.8779L74.3997 62.4779L52.0767 84.801ZM45.8 38H82.2C86.5078 38 90 41.4922 90 45.8V82.2C90 86.5078 86.5078 90 82.2 90H45.8C41.4922 90 38 86.5078 38 82.2V45.8C38 41.4922 41.4922 38 45.8 38ZM54.8987 61.4003C51.3088 61.4003 48.3987 58.4901 48.3987 54.9003C48.3987 51.3104 51.3088 48.4003 54.8987 48.4003C58.4885 48.4003 61.3987 51.3104 61.3987 54.9003C61.3987 58.4901 58.4885 61.4003 54.8987 61.4003ZM54.9003 56.1993C55.6183 56.1993 56.2003 55.6173 56.2003 54.8993C56.2003 54.1813 55.6183 53.5993 54.9003 53.5993C54.1824 53.5993 53.6003 54.1813 53.6003 54.8993C53.6003 55.6173 54.1824 56.1993 54.9003 56.1993Z" fill="#DFDFDF"/>
</g>
</svg>
