<svg width="10" height="21" viewBox="0 0 10 21" fill="none" xmlns="http://www.w3.org/2000/svg">
<path d="M9.46713 0H6.01438C4.01324 0 2.37499 1.68997 2.37499 3.73068V6.70672H0.570854C0.415324 6.70672 0.30127 6.82363 0.30127 6.98306V10.0335C0.30127 10.1929 0.415324 10.3098 0.570854 10.3098H2.37499V10.4268H2.41647V20.4603C2.41647 20.6197 2.53052 20.7366 2.68605 20.7366H6.29433C6.44986 20.7366 6.56392 20.6197 6.56392 20.4603V10.278H9.18718C9.30124 10.278 9.42566 10.161 9.42566 10.0335L9.66414 6.98306C9.66414 6.82363 9.55008 6.70672 9.42566 6.70672H6.52244V4.53846C6.52244 4.01765 6.91645 3.61376 7.42452 3.61376H9.45677C9.6123 3.61376 9.72635 3.49685 9.72635 3.33742V0.286975C9.73672 0.116916 9.62266 0 9.46713 0Z" fill="#3C4043"/>
</svg>
