<svg width="310" height="232" viewBox="0 0 310 232" fill="none" xmlns="http://www.w3.org/2000/svg">
<path d="M234.408 36.5312C214.174 8.14829 175.769 1.01413 143.174 6.05327C107.816 11.5182 73.8401 31.4969 52.2055 60.0528C32.0514 86.6564 24.2592 122.723 39.9427 153.456C57.5337 187.924 101.766 196.708 136.616 202.05C157.645 205.271 178.978 206.439 200.231 205.438C219.954 204.509 240.725 202.59 259.292 195.444C291.001 183.241 309.114 152.082 307.771 118.544C306.359 83.2502 283.981 51.9099 256.46 31.3651C226.831 9.2466 189.133 -2.08604 152.214 0.317408C82.462 4.8594 9.27124 62.7731 11.0663 137.391C11.9081 172.403 31.2434 204.178 63.5623 218.454C97.525 233.454 138.777 233.944 174.813 227.676C211.225 221.342 248.359 206.473 276.666 182.289C289.4 171.407 300.654 157.891 306.372 141.961C312.121 125.944 310.826 109.01 303.984 93.545C289.642 61.1221 257.504 37.8182 225.197 25.5082C187.487 11.142 145.964 10.8892 106.822 19.0987C73.4349 26.1022 33.3867 37.9791 13.6403 68.2103C-5.50625 97.5233 -2.81009 138.938 11.3118 169.715C18.0686 184.44 28.1529 197.676 41.266 207.287C57.0583 218.858 76.4129 223.885 95.5364 226.503C131.869 231.475 170.631 232.512 206.304 222.897C223.374 218.296 239.309 210.953 253.599 200.521C255.465 199.159 253.658 196.01 251.769 197.389C223.861 217.766 189.284 225.034 155.298 226.018C138.333 226.506 121.31 225.581 104.44 223.783C85.7618 221.794 66.6261 218.223 50.2036 208.635C21.326 191.774 6.11302 158.085 4.243 125.632C3.21606 107.81 5.79248 89.1651 14.7857 73.4937C23.3145 58.6327 37.2647 48.1819 52.4135 40.7091C85.4848 24.399 125.13 16.6069 161.848 17.3702C196.611 18.0935 231.304 27.8875 259.799 48.1771C287.152 67.6514 314.105 101.054 303.944 136.692C294.56 169.61 262.102 191.428 232.833 205.289C200.365 220.663 164.208 228.219 128.305 227.249C93.5273 226.31 53.5783 218.679 31.8239 188.773C11.1413 160.342 10.5824 122.64 24.4177 91.1778C38.2602 59.6984 64.3558 34.4289 95.0574 19.3865C158.557 -11.7204 240.9 5.69523 283.297 63.4674C302.99 90.3033 311.065 125.976 296.19 156.974C279.415 191.931 241.058 198.91 205.871 201.221C167.343 203.754 127.913 199.409 91.1142 187.559C73.9853 182.042 57.4684 173.676 47.1869 158.346C38.1513 144.874 34.375 128.207 35.3523 112.115C37.4485 77.593 61.8229 48.1831 89.849 30.0466C119.161 11.0767 156.478 1.83787 190.802 10.8408C207.237 15.1506 222.563 23.6552 232.809 37.4662C233.508 38.4037 235.103 37.5098 234.408 36.5312Z" fill="#8A8C8E"/>
</svg>
