<svg width="144" height="144" viewBox="0 0 144 144" fill="none" xmlns="http://www.w3.org/2000/svg">
<g opacity="0.1">
<path d="M41 2H5C3.34315 2 2 3.34315 2 5V41" stroke="#E26559" stroke-width="3.5"/>
<path d="M41 142H5C3.34315 142 2 140.657 2 139V103" stroke="#E26559" stroke-width="3.5"/>
<path d="M103 2H139C140.657 2 142 3.34315 142 5V41" stroke="#E26559" stroke-width="3.5"/>
<path d="M103 142H139C140.657 142 142 140.657 142 139V103" stroke="#E26559" stroke-width="3.5"/>
</g>
<path d="M89.914 67.7359H89.4876C88.4847 67.7359 87.5395 67.9837 86.7053 68.4224C86.2179 65.496 83.7111 63.2604 80.7016 63.2604H80.2752C79.1511 63.2604 78.0974 63.5721 77.192 64.1152C76.3264 61.7631 74.096 60.0844 71.4875 60.0844H71.062C70.093 60.0844 69.1774 60.3158 68.3636 60.7269V51.2024C68.3636 47.7829 65.6322 44.9999 62.2743 44.9999H61.8487C58.4917 44.9999 55.7594 47.7821 55.7594 51.2024V74.8745L52.8101 77.155C50.5737 78.8846 49.1555 81.4008 48.8172 84.24C48.4798 87.0801 49.2657 89.8692 51.0315 92.0927L60.021 103.412V107.966C60.021 110.558 62.0912 112.667 64.6361 112.667H86.9605C89.5054 112.667 91.5756 110.558 91.5756 107.966L91.5765 103.64C94.4333 100.011 96 95.4949 96 90.8527V73.9367C96.0034 70.5181 93.2719 67.7359 89.914 67.7359ZM92.6124 90.8536C92.6124 94.8896 91.1857 98.8108 88.5958 101.895C88.3322 102.208 88.1889 102.606 88.1889 103.018V107.966C88.1889 108.654 87.6404 109.213 86.9648 109.213H64.6386C63.9638 109.213 63.4145 108.654 63.4145 107.966V102.801C63.4145 102.406 63.2814 102.022 63.0372 101.715L53.6697 89.9202C52.4863 88.4289 51.9581 86.5594 52.1853 84.6554C52.4116 82.7522 53.3628 81.0649 54.8616 79.9052L55.7602 79.211V84.9826C55.7602 85.936 56.5198 86.7097 57.4557 86.7097C58.3916 86.7097 59.1512 85.936 59.1512 84.9826V75.7492C59.1512 75.7371 59.1512 75.725 59.1512 75.7129V51.2024C59.1512 49.687 60.3618 48.4539 61.8496 48.4539H62.2751C63.7629 48.4539 64.9735 49.687 64.9735 51.2024V66.2869C64.9735 66.2869 64.9735 66.2869 64.9735 66.2878C64.9735 66.2887 64.9735 66.2878 64.9735 66.2887L64.9828 78.8362C64.9837 79.7895 65.7424 80.5615 66.6783 80.5615H66.6791C67.615 80.5606 68.3746 79.7878 68.3738 78.8328L68.3645 66.2878C68.3645 64.7732 69.575 63.5401 71.0628 63.5401H71.4884C72.9762 63.5401 74.1867 64.7732 74.1867 66.2878V69.4638V69.4646V69.4655L74.1961 78.8371C74.1969 79.7904 74.9556 80.5624 75.8916 80.5624C75.8924 80.5624 75.8924 80.5624 75.8932 80.5624C76.8292 80.5615 77.5879 79.7878 77.587 78.8336L77.5777 69.4638C77.5777 67.9492 78.7883 66.7161 80.2761 66.7161H80.7025C82.1903 66.7161 83.4008 67.9492 83.4008 69.4638V73.4376C83.3941 73.4998 83.3822 73.5611 83.383 73.625L83.3924 78.838C83.3941 79.7904 84.1528 80.5615 85.0878 80.5615C85.0887 80.5615 85.0895 80.5615 85.0912 80.5615C86.0271 80.5598 86.785 79.7852 86.7833 78.8311L86.7749 74.1137C86.7808 74.055 86.7918 73.9989 86.7918 73.9384C86.7918 72.423 88.0024 71.1899 89.4893 71.1899H89.9157C91.4035 71.1899 92.6141 72.423 92.6141 73.9384V90.8536H92.6124Z" fill="#3C4043"/>
<path d="M51.2977 58.9629C50.7283 58.9629 50.1717 58.669 49.8486 58.1347C48.4209 55.7747 47.6665 53.0506 47.6665 50.2573C47.6665 42.028 54.1711 35.3333 62.1665 35.3333C70.1619 35.3333 76.6665 42.028 76.6665 50.2573C76.6665 52.3962 76.236 54.4614 75.3862 56.3967C74.9992 57.2802 73.9874 57.6715 73.1308 57.274C72.2724 56.8749 71.8914 55.8353 72.2793 54.9527C72.9279 53.4744 73.2561 51.8952 73.2561 50.2582C73.2569 43.9634 68.2824 38.8425 62.1665 38.8425C56.0506 38.8425 51.0761 43.9634 51.0761 50.2573C51.0761 52.3944 51.6523 54.4772 52.7433 56.28C53.2411 57.103 52.9965 58.1847 52.197 58.6962C51.9165 58.8769 51.6054 58.9629 51.2977 58.9629Z" fill="#3C4043"/>
<path d="M80.7559 60.0369C80.4101 60.0369 80.0585 59.957 79.7408 59.7905C78.8267 59.3092 78.5411 58.2834 79.1026 57.4999C80.5879 55.4259 81.3737 52.953 81.3737 50.3494C81.3737 47.7641 80.5966 45.3037 79.1278 43.2354C78.5702 42.4503 78.8607 41.4253 79.7767 40.9465C80.6928 40.4686 81.8896 40.7176 82.4462 41.5027C84.287 44.093 85.2594 47.1521 85.2594 50.3494C85.2594 53.5683 84.2753 56.644 82.4132 59.2426C82.0469 59.7547 81.4077 60.0369 80.7559 60.0369Z" fill="#3C4043"/>
<path d="M42.5053 60.0369C41.8528 60.0369 41.2149 59.7547 40.8488 59.2427C38.9855 56.6408 38 53.5653 38 50.3498C38 47.1535 38.9719 44.0946 40.812 41.5036C41.3693 40.7177 42.5636 40.4679 43.4802 40.9475C44.3958 41.4254 44.6871 42.4503 44.1288 43.2354C42.6597 45.3044 41.8829 47.7638 41.8829 50.349C41.8829 52.9492 42.6694 55.4211 44.157 57.4992C44.7182 58.2827 44.4327 59.3084 43.5181 59.7888C43.2035 59.9579 42.852 60.0369 42.5053 60.0369Z" fill="#3C4043"/>
</svg>
