<svg width="113" height="110" viewBox="0 0 113 110" fill="none" xmlns="http://www.w3.org/2000/svg">
<path d="M87.0532 4.17603C89.3452 4.75663 90.9593 6.57137 92.5734 8.1794C94.6009 10.2525 96.6163 12.3256 98.4675 14.5507C101.747 18.4963 104.504 23.1228 105.125 28.2935C105.477 31.2572 105.264 34.2484 105.061 37.2121C104.86 40.2884 104.629 43.3828 104.517 46.453C104.289 52.6541 104.316 58.8765 104.629 65.0776C104.982 72.0356 105.702 78.9602 106.72 85.8513C107.338 85.0549 107.942 84.2646 108.55 83.4621C94.8228 84.2007 81.0953 85.2008 67.4194 86.5596C63.9511 86.8848 60.51 87.2557 57.0721 87.6113C53.6675 87.9457 50.2387 88.1859 46.8494 88.7026C40.2045 89.7422 33.4957 90.4413 26.8173 91.3472C19.2787 92.3898 11.7432 93.4781 4.20458 94.5876C5.01315 95.2047 5.80651 95.8096 6.59989 96.4267C6.57253 95.7579 6.56041 95.0922 6.57257 94.4234C6.57257 94.2562 6.62725 94.0708 6.59989 93.9036C6.65157 94.3475 6.51174 94.2715 6.59989 94.0708C6.43574 94.3475 6.2716 94.6271 6.09529 94.9007L6.12265 94.8885C5.843 95.0527 5.56333 95.2138 5.28975 95.384L5.31712 95.3658C4.82468 95.308 4.33223 95.2411 3.85499 95.1743C3.85499 95.1743 3.8702 95.1743 3.8702 95.2016C3.64222 94.9554 3.42638 94.7365 3.17408 94.5116C3.28656 94.6575 2.94917 93.9006 3.0738 94.2684C3.09812 94.3414 3.09812 94.4386 3.12547 94.5116C2.92485 93.9219 3.12548 94.5815 3.15284 94.846C3.15284 95.0861 3.09812 95.3627 3.12547 95.6029C3.17715 95.9737 3.2258 95.1986 3.15284 95.4904C3.15284 95.5481 3.12547 95.6029 3.09811 95.6606C3.25314 95.1378 3.62704 94.77 4.20764 94.5845C5.01621 95.2016 5.80957 95.8065 6.60295 96.4236C5.84605 74.1878 4.89157 51.9641 4.23194 29.7495C4.05564 23.4755 3.9067 17.1953 3.78207 10.9182C3.15284 11.5505 2.52057 12.1797 1.8883 12.809C6.02541 12.6205 10.1838 12.2527 14.3209 12.0673C16.7527 11.9396 16.7679 8.15812 14.3209 8.27363C10.1868 8.47121 6.02541 8.82686 1.8883 9.01533C0.882139 9.067 -0.0267556 9.84518 0.000602201 10.9182C0.429208 33.1541 1.31378 55.3929 2.14364 77.6257C2.3929 83.8815 2.60568 90.1434 2.82454 96.4236C2.87622 97.6091 4.01003 98.6244 5.21986 98.2322C7.18354 97.6425 7.18354 94.8976 6.73366 93.2714C6.27769 91.6451 4.08605 90.9915 3.15284 92.6208C2.53273 93.6361 2.79718 95.2898 2.82454 96.4236C2.87622 97.755 3.99787 98.4389 5.21986 98.2322C11.8101 97.2565 18.4063 96.3111 24.9844 95.4022C31.7296 94.4538 38.4748 93.7 45.1897 92.7668C51.8072 91.8457 58.4248 91.2347 65.0575 90.566C71.8483 89.879 78.6452 89.2346 85.4391 88.73C93.1388 88.1767 100.842 87.6569 108.556 87.2496C109.891 87.1827 110.56 86.1036 110.374 84.8512C108.535 72.3335 107.851 59.6516 108.28 47.0032C108.38 43.857 108.608 40.7079 108.824 37.5769C109.052 34.4156 109.268 31.2512 108.897 28.0989C108.192 22.3386 105.508 17.3412 101.939 12.8454C99.8962 10.2677 97.6164 7.93621 95.3487 5.60168C93.23 3.47384 91.0627 1.28522 88.0624 0.528322C85.6914 -0.0765902 84.7065 3.57416 87.0532 4.17603Z" fill="#3C4043"/>
<path d="M10.5486 11.6015C28.8145 9.78983 47.0803 7.80487 65.3311 5.95365C70.4865 5.43689 75.6055 4.92014 80.7457 4.4429C81.7792 4.32739 82.6638 3.64648 82.6638 2.53089C82.6638 1.5916 81.7914 0.555047 80.7457 0.646239C62.495 2.40018 44.2655 4.36691 26.0118 6.25764C20.8594 6.7744 15.7131 7.31243 10.5455 7.80791C9.52414 7.92342 8.65479 8.61041 8.65479 9.71992C8.65782 10.6622 9.5272 11.7049 10.5486 11.6015Z" fill="#3C4043"/>
<path d="M83.676 4.7004C83.5757 4.14413 83.448 3.58481 83.3203 3.01638C83.2717 2.75192 83.1835 2.4601 83.22 2.18652C83.2747 1.7944 83.3993 1.66065 83.3477 1.23812C83.1714 -0.372953 80.8277 -0.451987 80.773 1.23812C80.3717 11.1417 80.2562 21.03 80.4721 30.9396C80.4994 31.9731 81.4296 32.6419 82.3993 32.4109C86.6975 31.429 90.9714 30.3772 95.221 29.21C97.3123 28.6385 99.4067 28.0245 101.477 27.4135C102.535 27.1034 103.568 26.7903 104.599 26.4499C105.684 26.1216 106.818 25.9331 107.398 24.8418C107.651 24.3464 107.55 23.6016 106.997 23.325C105.912 22.787 105.055 23.1335 103.957 23.477C102.912 23.7931 101.875 24.1062 100.845 24.4224C98.7015 25.0455 96.5737 25.6565 94.4033 26.2523C90.1568 27.4196 85.895 28.4683 81.5816 29.4805C82.2412 29.9578 82.8948 30.4563 83.5362 30.9426C83.2747 21.0513 83.1987 11.1417 83.3477 1.23812C82.5543 1.45698 81.7366 1.68496 80.9402 1.88558C81.2928 2.46313 81.8369 2.75496 82.1257 3.34467C82.4023 3.90095 82.6698 4.46026 82.9465 5.01654C83.144 5.46338 83.8006 5.12293 83.676 4.7004Z" fill="#3C4043"/>
<path d="M83.5488 2.51217C84.6552 2.34802 85.9198 2.70368 87.0019 2.92254C87.3302 2.98941 87.7071 2.62464 87.4822 2.29331C86.5247 0.831182 84.7586 0.645757 83.1962 1.23851C82.3876 1.53033 82.7128 2.66415 83.5488 2.51217Z" fill="#3C4043"/>
<path d="M82.3391 10.7175C83.6979 9.69614 85.0476 8.63831 86.3699 7.52879C87.604 6.49528 89.0418 5.5499 89.5981 3.97531C89.7379 3.58318 89.3215 3.29137 88.9962 3.3704C87.4064 3.65918 86.2483 4.95716 85.0871 5.99067C83.8134 7.1245 82.5914 8.29177 81.3664 9.49248C80.7494 10.1004 81.5792 11.2738 82.3391 10.7175Z" fill="#3C4043"/>
<path d="M83.9256 16.5137C85.6187 14.629 86.938 12.4738 88.7163 10.6439C89.5856 9.7563 90.5341 8.94165 91.4764 8.12396C92.2728 7.42481 93.6954 6.67704 93.7076 5.47633C93.7076 5.14804 93.4796 4.88357 93.1756 4.7711C91.9901 4.36681 90.7559 5.67999 89.8987 6.34874C88.8378 7.17859 87.8834 8.15132 86.9745 9.12708C85.1962 11.0391 83.345 13.2004 82.4118 15.6474C82.1109 16.4924 83.345 17.1794 83.9256 16.5137Z" fill="#3C4043"/>
<path d="M84.5547 22.3052C86.4607 20.2351 88.3362 18.1438 90.1297 15.9369C90.9838 14.8426 91.8806 13.7696 92.7894 12.7148C93.6558 11.6752 94.7896 10.6416 95.0693 9.29502C95.1696 8.73875 94.6923 8.08521 94.0874 8.31015C92.7378 8.75396 91.917 9.8969 91.0385 10.9578C90.1023 12.0673 89.1843 13.195 88.2785 14.3228C86.4607 16.6178 84.9864 19.0101 83.5881 21.5635C83.2598 22.1593 84.0775 22.8584 84.5547 22.3052Z" fill="#3C4043"/>
<path d="M84.8105 27.7701C86.5371 25.9341 88.2637 24.1072 89.975 22.2651C91.6408 20.4869 93.4069 18.584 94.5408 16.4531C94.866 15.8816 94.2003 15.0305 93.5832 15.4713C91.6165 16.903 89.9416 18.8272 88.4035 20.6966C86.8015 22.6451 85.1996 24.5845 83.5885 26.5269C82.8924 27.3841 84.0262 28.6 84.8105 27.7701Z" fill="#3C4043"/>
<path d="M15.0721 22.9883C13.689 22.9701 12.4001 22.9214 11.0657 22.657C10.9897 23.2132 10.9137 23.7513 10.8407 24.3076C11.935 24.3471 13.0689 24.1069 14.1419 23.9914C15.3031 23.879 16.4764 23.7513 17.6437 23.6206C19.8293 23.3804 22.0301 23.1616 24.2278 22.9214C28.6872 22.4351 33.1738 21.9517 37.6392 21.4897C46.564 20.5261 55.4978 19.5807 64.4256 18.6019C65.6476 18.4712 66.8726 18.3648 68.0946 18.2189C68.9518 18.1064 69.8607 17.7903 70.037 16.8267C70.4656 14.6776 66.9456 14.8083 67.5414 16.6534C67.7937 17.4924 69.0552 17.5502 69.3044 16.6534C69.3166 16.617 69.3166 16.5866 69.3318 16.547C69.1798 16.7325 69.043 16.9209 68.888 17.1033C68.6235 16.6808 68.3712 16.234 68.1219 15.8114C68.0672 15.8114 68.046 15.8236 67.9943 15.8236C67.8545 15.8114 67.4623 15.8996 67.3498 15.8996C66.9334 15.9573 66.5078 16.0121 66.0792 16.0516C65.0943 16.158 64.1125 16.2887 63.1276 16.4011C61.2369 16.617 59.3462 16.8267 57.4554 17.0638C53.6466 17.5106 49.8651 17.9545 46.0837 18.3952C38.4964 19.3041 30.8971 20.2008 23.322 21.1067C21.2276 21.3468 19.1606 21.587 17.0935 21.8453C15.984 21.9761 14.8745 22.1037 13.765 22.2344C12.7284 22.3682 11.6493 22.4016 10.628 22.66C9.57924 22.9366 10.0109 24.5295 11.0687 24.2711C12.4031 23.9397 13.692 23.806 15.0751 23.7148C15.5037 23.6783 15.5311 23.0096 15.0721 22.9883Z" fill="#3C4043"/>
<path d="M9.87996 31.7311C13.5611 31.7828 17.2149 31.3785 20.8717 31.0441C24.4982 30.728 28.1216 30.345 31.7358 29.9893C39.0617 29.2476 46.3601 28.4512 53.6707 27.6943C55.7621 27.4694 57.8534 27.2505 59.9478 27.0256C60.9297 26.9131 61.9115 26.8006 62.8842 26.673C63.9451 26.5605 65.0911 26.6 66.0213 25.986C66.8055 25.4692 66.6262 24.3415 65.7568 24.0253C64.9117 23.7092 64.1062 23.8733 63.249 23.9645C62.2671 24.0983 61.2944 24.2047 60.2974 24.2989C58.51 24.4995 56.7439 24.7032 54.9535 24.9281C51.3241 25.3719 47.7037 25.8127 44.0894 26.2595C36.7757 27.1502 29.4651 28.0196 22.1545 28.9832C18.0691 29.5182 13.9593 30.1687 9.8769 30.652C9.2112 30.731 9.17474 31.7159 9.87996 31.7311Z" fill="#3C4043"/>
<path d="M13.7652 78.0591C14.9264 75.5574 15.7805 72.9402 16.9934 70.4628C18.2032 67.9884 19.5529 65.5536 21.0667 63.2464C20.3706 63.2464 19.6654 63.2464 18.9601 63.2464C20.5104 66.3865 22.012 69.5569 23.5502 72.7244C23.9788 73.6272 25.2646 73.463 25.757 72.7244C32.715 61.7752 39.0286 50.4277 44.716 38.7459C43.8861 38.6395 43.0654 38.5271 42.2569 38.4298C45.4334 46.7618 48.0537 55.2761 50.2727 63.9243C50.5767 65.1675 52.2272 65.2739 52.8595 64.2769C55.6196 59.9787 58.5834 55.8324 61.8724 51.9263C61.0912 51.7257 60.3222 51.522 59.5531 51.3214C60.5076 55.6136 62.1369 59.7446 64.3681 63.5382C64.897 64.4319 66.1068 64.3589 66.6752 63.5382C71.0464 57.0179 75.4358 50.5432 79.8222 44.023C79.0136 43.9378 78.2446 43.8223 77.4664 43.7281C80.6064 51.5616 84.0201 60.0182 91.5739 64.6082C93.185 65.5901 94.6836 63.0215 93.0573 62.0731C86.1266 58.0606 82.7465 50.1754 79.9468 43.0381C79.5182 42.0046 78.2445 41.7857 77.6032 42.7219C73.1681 49.2027 68.8031 55.7048 64.3681 62.1825C65.1371 62.1825 65.9062 62.1825 66.6752 62.1825C64.5839 58.5561 63.1066 54.6621 62.225 50.5767C62.0244 49.5918 60.5623 49.1875 59.8905 49.9657C56.4221 54.0177 53.2243 58.2946 50.4004 62.8269C51.2697 62.9394 52.1391 63.0519 53.0085 63.1674C50.6861 54.5557 47.926 46.0596 44.8376 37.7033C44.4728 36.7275 42.9347 36.2655 42.3784 37.3872C36.6546 49.0325 30.341 60.3829 23.5471 71.4203C24.2767 71.4203 25.0062 71.4203 25.754 71.4203C24.1764 68.2894 22.6048 65.1614 21.0667 62.0153C20.6502 61.1459 19.4131 61.3101 18.9601 62.0153C17.3977 64.359 16.0085 66.8242 14.8504 69.4049C13.677 71.9371 12.5705 74.5665 12.0903 77.3448C11.9352 78.2719 13.3092 79.0744 13.7652 78.0591Z" fill="#3C4043"/>
<path d="M35.7086 74.8488C33.6537 75.3838 31.5988 75.7577 29.5196 76.2046C28.5104 76.4234 28.787 77.9433 29.7719 77.9798C33.6172 78.0862 37.5264 77.6089 41.3565 77.2563C45.2777 76.8855 49.2112 76.4538 53.1173 75.9948C60.8048 75.0677 68.4711 73.9399 76.1343 72.6116C78.2773 72.2225 80.4204 71.8303 82.5634 71.4261C84.7065 71.0157 87.0987 70.8151 89.0685 69.9062C90.254 69.3712 89.5975 67.5929 88.4363 67.5686C86.5486 67.5352 84.5697 68.1978 82.7124 68.5748C80.8247 68.9608 78.9187 69.3317 77.0189 69.6843C73.1949 70.3834 69.3648 71.0704 65.5469 71.6814C57.8715 72.9216 50.1657 73.9582 42.4538 74.788C38.1556 75.2531 33.7783 75.4416 29.5196 76.2046C29.7719 76.7578 29.9847 77.2898 30.2127 77.846C32.0913 77.0131 33.9334 76.1255 35.8484 75.3686C36.1494 75.241 36.049 74.7546 35.7086 74.8488Z" fill="#3C4043"/>
<path d="M10.8622 87.2738C11.7194 86.9212 11.8076 86.0396 11.2908 85.3314C10.5491 84.2918 9.12349 85.0335 8.81952 86.0488C8.24196 88.0915 10.233 89.66 12.0234 89.8819C14.0266 90.1069 15.8018 88.6964 15.8809 86.6597C15.9325 84.5836 14.1178 82.3676 11.9353 83.012C11.1054 83.2552 10.7862 84.6049 11.6708 85.0335C12.3243 85.3314 13.75 86.4196 12.9961 87.2495C12.68 87.6021 12.0265 87.5838 11.6222 87.4227C11.4215 87.3285 11.1905 87.1948 11.0902 87.0124C11.0416 86.9728 10.9139 86.6962 10.9656 86.7145C10.8653 86.6567 10.8653 86.8665 10.6859 86.8391C10.4731 86.7722 10.2695 86.675 10.0688 86.602C10.1114 86.4166 10.1327 86.2494 10.1843 86.0852C9.72837 86.5564 10.1844 87.5504 10.8622 87.2738Z" fill="#3C4043"/>
<path d="M97.261 78.2597C96.0269 78.585 95.1058 79.7583 95.0663 81.0502C95.042 82.4576 96.1515 83.2753 97.489 83.3635C98.6471 83.4577 99.8448 82.868 100.465 81.8922C100.842 81.2752 100.994 80.5365 100.842 79.8495C100.641 78.8525 100.124 78.2354 99.0758 78.1442C99.2673 78.1837 99.4557 78.2324 99.635 78.2962C98.6988 77.5545 97.4039 77.4025 96.4585 78.205C96.0785 78.5364 96.4038 79.1656 96.8598 79.1656C97.3644 79.1656 97.8416 79.3875 98.1212 79.81C98.0817 79.5334 98.0453 79.2416 98.021 78.9589C97.8963 79.4452 97.9206 79.7614 98.0969 80.2021C98.1213 80.2599 98.2216 80.5183 98.2216 80.4392C98.2337 80.6794 98.2216 80.6794 98.0696 80.8314C97.8173 81.0502 97.2884 81.26 96.9601 80.9834C97.0482 81.1293 97.1364 81.2752 97.2124 81.4272C97.0117 80.9074 97.2002 80.2781 97.7686 80.0897C98.9389 79.7219 98.4465 77.9557 97.261 78.2597Z" fill="#3C4043"/>
<path d="M10.1204 15.4337C9.37561 16.0508 8.60656 16.3669 7.69767 16.6405C6.92861 16.8806 6.70367 17.6375 6.60336 18.3792C6.45137 19.5647 7.00462 21.9145 8.51842 22.0482C11.2907 22.2883 13.3881 17.6558 10.5611 16.3061C9.75255 15.9322 8.45762 16.5827 8.87102 17.6223C9.07165 18.1391 9.52762 19.8413 8.51842 19.966C8.74336 20.0784 8.99869 20.1666 9.22363 20.2821C8.5184 19.6012 8.34212 18.6953 8.64305 17.7682C8.44547 17.9688 8.24179 18.1786 8.02597 18.3792C9.20236 17.9324 10.2116 17.3062 11.0657 16.376C11.6463 15.7346 10.7617 14.9017 10.1204 15.4337Z" fill="#3C4043"/>
<path d="M37.5638 109.92C46.2575 107.124 55.0029 104.352 63.6996 101.561C67.9675 100.181 72.2353 98.7493 76.4788 97.3206C78.6249 96.6215 80.698 95.9041 82.8684 95.2262C85.0144 94.5028 87.2395 93.8583 88.9996 92.8522C90.0969 92.2594 88.9995 91.1894 87.6347 91.4053C85.4825 91.7609 83.4733 92.5421 81.4488 93.2078C79.3027 93.9222 77.2114 94.67 75.0896 95.3843C70.7428 96.8373 66.3625 98.2934 62.046 99.8041C53.5104 102.777 45.0021 105.817 36.5151 108.799C35.3052 109.197 36.354 110.303 37.5638 109.92Z" fill="#3C4043"/>
<path d="M68.8789 103.788C74.9341 102.001 81.0045 100.201 86.85 98.2922C89.9323 97.3651 92.8687 96.4075 95.7808 95.45C97.1639 95.0275 98.5561 94.5715 99.9392 94.1399C101.404 93.696 103.164 93.307 104.237 92.5257C104.921 91.9482 104.55 90.8539 103.164 90.9177C101.462 90.9998 100.258 91.5196 98.8418 91.9968C97.486 92.4437 96.0908 92.8996 94.7108 93.3526C91.6133 94.3648 88.6313 95.3831 85.5398 96.3832C79.5393 98.3682 73.6239 100.438 67.7359 102.545C66.3923 102.998 67.5475 104.192 68.8789 103.788Z" fill="#3C4043"/>
<path d="M93.2391 101.497C96.4826 100.536 99.7838 99.6088 102.924 98.6027C105.939 97.6512 109.164 96.7667 111.779 95.4353C112.408 95.0553 111.618 94.3653 110.867 94.5021C107.642 95.0553 104.55 96.2013 101.617 97.2014C98.4767 98.2805 95.3883 99.4021 92.3212 100.493C91.3028 100.879 92.1661 101.807 93.2391 101.497Z" fill="#3C4043"/>
</svg>
