<svg width="532" height="610" viewBox="0 0 532 610" fill="none" xmlns="http://www.w3.org/2000/svg">
<path d="M415.828 483.885C415.775 483.908 415.737 483.892 415.713 483.84C415.581 483.829 415.44 483.85 415.324 483.805C414.75 483.578 414.178 483.347 413.558 483.273C413.54 483.322 413.504 483.349 413.451 483.35C413.389 483.456 413.32 483.457 413.243 483.37C413.191 483.384 413.157 483.368 413.14 483.319C412.909 483.397 412.722 483.285 412.529 483.191C412.369 483.216 412.211 483.244 412.052 483.269C412.043 483.323 412.013 483.348 411.959 483.342C411.562 483.532 411.181 483.756 410.729 483.798C410.56 483.929 410.365 483.973 410.156 483.953C409.96 484.121 409.757 484.269 409.476 484.207C409.243 484.39 409.012 484.578 408.695 484.584L408.688 484.587C408.592 484.675 408.501 484.772 408.353 484.749C408.026 485.022 407.589 484.907 407.229 485.068C407.231 485.069 407.232 485.068 407.233 485.07C407.131 485.146 407.033 485.23 406.892 485.211C406.799 485.309 406.696 485.385 406.549 485.342C406.377 485.469 406.193 485.548 405.975 485.465L405.977 485.465C405.91 485.522 405.834 485.55 405.747 485.512C405.673 485.572 405.598 485.564 405.521 485.515C405.156 485.805 404.762 486.006 404.275 485.912L404.269 485.915C404.204 485.977 404.133 486.002 404.047 485.968C403.949 486.055 403.841 486.104 403.705 486.077C403.647 486.153 403.573 486.171 403.488 486.141C403.289 486.304 403.105 486.504 402.807 486.392C402.727 486.445 402.647 486.436 402.566 486.396C402.308 486.474 402.048 486.548 401.773 486.537L401.767 486.539C401.619 486.637 401.554 486.858 401.329 486.841C401.06 486.97 400.132 487.15 399.73 487.149L399.736 487.15C399.657 487.145 399.58 487.147 399.502 487.174C399.412 487.278 399.306 487.34 399.163 487.302C399.093 487.38 399.009 487.399 398.912 487.362C398.903 487.414 398.874 487.435 398.823 487.428C398.391 487.767 397.909 487.939 397.353 487.864L397.349 487.864C397.286 487.926 397.215 487.957 397.129 487.93C396.776 488.242 396.316 488.246 395.893 488.354C395.799 488.457 395.695 488.531 395.544 488.481C395.48 488.543 395.406 488.565 395.321 488.53C395.141 488.66 394.948 488.731 394.723 488.673C394.702 488.724 394.666 488.743 394.614 488.727C394.532 488.835 394.438 488.917 394.289 488.899C394.269 488.958 394.228 488.986 394.166 488.983C394.121 489.062 394.055 489.086 393.971 489.062C393.846 489.188 393.716 489.31 393.516 489.282C393.384 489.393 393.287 489.567 393.072 489.53L393.07 489.532C393.005 489.609 392.928 489.609 392.843 489.571C392.383 489.902 391.941 490.247 391.906 490.883C392.087 491.165 392.202 491.469 392.225 491.807L392.282 491.843L392.29 491.911C392.418 492.011 392.545 492.108 392.672 492.207C393.182 492.384 393.359 492.936 393.788 493.209C393.962 493.321 394.102 493.487 394.256 493.626L394.265 493.627C394.461 493.555 394.59 493.691 394.675 493.81C395.136 494.453 395.777 494.911 396.331 495.457L396.404 495.472L396.452 495.529C396.629 495.485 396.792 495.544 396.881 495.679C397.301 496.315 397.971 496.672 398.512 497.172L398.591 497.181L398.646 497.24C398.821 497.218 398.928 497.267 398.89 497.471L398.894 497.479C399.19 497.883 399.775 498.022 399.917 498.572L399.972 498.599L400.008 498.646C400.618 498.646 400.976 499.139 401.307 499.489C401.592 499.793 401.915 500.049 402.239 500.301C401.969 500.703 401.702 501.108 401.3 501.398L401.295 501.408C401.1 501.966 400.679 502.355 400.285 502.765C400.257 502.872 400.186 502.927 400.075 502.93C399.967 503.289 399.632 503.393 399.361 503.568C399.177 504.426 398.579 504.97 397.914 505.463L397.883 505.563L397.779 505.582C397.358 506.281 396.609 506.739 396.342 507.549C396.325 507.641 396.339 507.786 396.287 507.816C394.939 508.582 394.52 510.193 393.311 511.081C393.322 511.241 393.287 511.382 393.14 511.474C393.107 511.876 392.787 511.995 392.486 512.132C392.24 512.667 391.873 513.112 391.439 513.504C391.247 514.066 390.827 514.473 390.477 514.929C390.431 515.204 390.269 515.366 389.99 515.411C389.842 515.484 389.697 515.558 389.55 515.632C389.802 516.275 389.147 516.51 388.905 516.881C388.401 517.655 387.9 518.472 387.097 519.009C386.741 520.158 385.916 520.975 385.108 521.802C385.123 521.977 385.045 522.095 384.887 522.165C384.9 522.317 384.861 522.437 384.692 522.477C384.614 522.664 384.457 522.742 384.272 522.78C384.24 522.869 384.196 522.956 384.176 523.048C383.942 524.089 383.278 524.768 382.354 525.231C382.288 526.027 381.949 526.657 381.227 527.051L381.24 527.02C380.965 527.698 380.607 528.324 380.06 528.826C379.817 529.251 379.576 529.675 379.335 530.099C379.336 530.099 379.337 530.098 379.338 530.098L379.328 530.112C379.133 530.514 378.82 530.771 378.381 530.873C377.975 531.798 377.099 532.499 377.079 533.612C377.078 533.675 376.84 533.732 376.714 533.793C376.531 534.014 376.278 534.096 376.009 534.147C376.02 534.331 375.959 534.477 375.789 534.564C375.725 534.93 375.363 535.002 375.142 535.216C375.17 535.688 375.073 536.101 374.607 536.34C374.527 536.708 374.186 536.807 373.933 536.996C373.447 537.523 373.397 538.344 372.739 538.751L372.735 538.761C372.687 538.949 372.702 539.21 372.581 539.314C371.655 540.099 371.269 541.312 370.341 542.089C370.382 542.261 370.315 542.381 370.157 542.457L370.148 542.469C370.157 542.729 369.995 542.881 369.808 543.018C369.784 543.462 369.356 543.455 369.1 543.639C369.025 544.581 368.132 545.034 367.793 545.819C367.792 545.817 367.792 545.817 367.792 545.816C367.504 546.303 366.933 546.6 366.836 547.215C366.872 547.405 366.801 547.533 366.618 547.598C366.137 548.055 366.074 548.875 365.318 549.093C365.304 549.191 365.249 549.234 365.151 549.223C365.149 549.41 365.045 549.527 364.89 549.61L364.887 549.619C364.684 550.225 364.877 551.026 364.05 551.327C364.051 551.326 364.052 551.323 364.052 551.322C363.777 551.662 363.503 552.002 363.228 552.341C363.232 552.664 362.991 552.741 362.745 552.81L362.71 552.912L362.606 552.931C362.617 553.129 362.536 553.269 362.345 553.334C361.762 554.06 361.661 555.093 360.855 555.678C360.878 555.846 360.818 555.972 360.668 556.053C360.67 556.223 360.577 556.329 360.43 556.4L360.42 556.413C360.429 556.7 360.206 556.794 360.006 556.907L359.998 556.922C360.001 557.177 359.852 557.333 359.651 557.454C359.668 557.615 359.596 557.737 359.476 557.835C359.523 558.005 359.5 558.148 359.325 558.237C359.324 558.236 359.325 558.235 359.325 558.235C359.113 558.747 358.452 558.843 358.259 559.376C358.355 559.719 358.254 559.982 357.947 560.166C357.759 560.903 357.09 561.29 356.684 561.872C356.28 562.45 355.348 563.802 355.074 564.545C354.904 565.007 354.563 565.341 354.221 565.673C354.173 566.244 353.809 566.517 353.288 566.641L353.285 566.646C353.183 566.995 353.011 567.302 352.735 567.546C352.65 568.478 351.91 568.919 351.302 569.459C351.274 569.711 351.123 569.875 350.914 569.997C350.544 571.023 349.934 571.893 349.205 572.691C349.226 572.864 349.173 572.993 348.98 573.032C348.967 573.129 348.912 573.173 348.813 573.162C348.811 573.348 348.709 573.466 348.549 573.544L348.539 573.557C348.402 574.037 348.341 574.555 347.884 574.873C347.865 575.145 347.692 575.287 347.456 575.375C347.42 575.632 347.28 575.647 347.082 575.526L347.049 575.595L346.974 575.584C346.991 576.194 346.55 576.527 346.18 576.9C345.938 577.331 345.994 577.942 345.408 578.161C345.389 578.255 345.333 578.294 345.238 578.276C345.239 578.458 345.15 578.588 345 578.683C344.952 579.061 344.837 579.403 344.484 579.608C344.291 579.91 344.209 580.285 343.885 580.496C343.876 580.787 343.667 580.898 343.436 580.991C343.304 581.464 342.915 581.63 342.505 581.771C342.061 582.488 342.2 583.563 341.187 583.931C341.124 584.186 340.903 584.284 340.706 584.407L340.701 584.416C340.613 584.923 340.461 585.399 340.043 585.743C340.013 586.189 339.548 586.127 339.325 586.348C339.342 586.504 339.32 586.646 339.164 586.733C339.17 587.046 338.895 587.091 338.7 587.214L338.691 587.229C338.71 587.496 338.51 587.62 338.343 587.766C338.359 587.91 338.419 588.105 338.356 588.162C337.319 589.089 336.454 590.116 335.787 591.37C335.461 591.986 334.644 592.342 334.05 592.814C334.03 592.908 333.973 592.949 333.878 592.932C333.843 593.219 333.647 593.368 333.413 593.483C333.136 593.965 332.9 594.493 332.225 594.531C332.196 594.637 332.126 594.692 332.016 594.695C331.963 594.943 331.861 595.153 331.605 595.25C331.22 595.946 330.667 596.432 329.897 596.675C329.528 596.791 329.205 596.976 328.921 597.279C328.668 597.549 328.292 597.722 327.944 597.879C326.472 598.545 326.327 598.431 326.429 596.881C326.477 596.158 326.798 595.458 326.581 594.709C326.522 594.506 326.746 594.387 326.907 594.278C327.003 593.759 327.211 593.296 327.592 592.921L327.529 592.837L327.573 592.741C327.699 591.392 328.306 590.163 328.555 588.844C328.608 588.565 328.754 588.286 329.045 588.142C329.124 588.031 329.204 587.921 329.284 587.81L329.287 587.799C328.892 586.786 329.605 586.148 330.076 585.428C330.037 585.198 330.041 584.98 330.207 584.793C330.141 584.619 330.191 584.491 330.357 584.408C330.428 584.287 330.468 584.152 330.538 584.033L330.542 584.023C330.493 583.862 330.494 583.723 330.693 583.668L330.732 583.558L330.845 583.524C330.981 582.885 330.649 582.109 331.397 581.653C331.563 581.194 331.729 580.734 332.063 580.361C331.964 579.867 332.359 579.698 332.653 579.463C332.607 579.24 332.575 579.021 332.741 578.827C332.467 578.117 332.922 577.695 333.36 577.267C333.312 577.106 333.345 576.968 333.482 576.861C333.461 576.547 333.608 576.308 333.834 576.107C333.794 575.813 334.003 575.695 334.202 575.572C334.245 574.434 334.445 573.371 335.537 572.728C335.433 572.2 335.338 571.674 335.841 571.275C335.805 571.05 335.797 570.834 336.013 570.68L336.025 570.656C335.995 570.393 336.165 570.252 336.344 570.115C336.317 569.956 336.367 569.829 336.495 569.731C336.466 569.569 336.517 569.438 336.65 569.338C336.627 569.165 336.69 569.04 336.86 568.976C336.885 568.73 337.04 568.573 337.225 568.435C337.364 567.741 337.253 566.953 337.964 566.473C337.987 566.204 338.199 566.093 338.391 565.966C338.374 565.817 338.423 565.694 338.537 565.596C338.487 565.368 338.427 565.138 338.599 564.928C338.6 564.931 338.601 564.932 338.602 564.935C339.349 563.434 339.858 561.836 340.47 560.282C340.469 560.282 340.469 560.282 340.468 560.283C340.638 559.901 340.807 559.519 340.976 559.137L340.984 559.115C340.941 558.964 340.976 558.831 341.088 558.721C340.898 558.345 341.081 557.981 341.314 557.789C342.156 557.092 342.051 555.921 342.717 555.153C342.947 554.889 342.742 554.58 342.808 554.304C342.881 553.985 342.886 553.615 343.306 553.516C343.261 553.358 343.303 553.224 343.43 553.118C343.288 552.297 344.093 551.875 344.249 551.179C344.172 551.111 344.147 551.027 344.173 550.929C344.033 550.771 344.083 550.64 344.219 550.522C344.148 550.121 344.281 549.74 344.513 549.462C344.955 548.934 345.25 548.389 345.206 547.681C345.201 547.603 345.417 547.513 345.53 547.428C345.588 546.619 346.062 545.996 346.47 545.345C346.211 544.916 346.2 544.525 346.664 544.215C346.597 544.147 346.6 544.082 346.672 544.019C346.587 543.858 346.622 543.735 346.787 543.651L346.787 543.65C346.745 543.483 346.822 543.366 346.95 543.271L346.951 543.261C346.723 542.753 347.146 542.582 347.416 542.331C347.368 542.109 347.287 541.88 347.487 541.683C347.445 541.52 347.488 541.385 347.616 541.275C347.553 540.929 347.813 540.748 348.007 540.534C347.941 540.355 348.016 540.237 348.169 540.153L348.174 540.144C348.137 539.984 348.187 539.858 348.322 539.765L348.325 539.755C348.269 539.592 348.301 539.459 348.446 539.36C348.401 539.137 348.32 538.911 348.489 538.7C348.402 538.023 348.718 537.453 348.974 536.867C348.902 536.693 348.933 536.539 349.07 536.408C348.995 536.349 348.986 536.281 349.042 536.205C348.929 536.046 348.976 535.917 349.107 535.804C349.234 534.663 348.978 533.473 349.529 532.386C349.59 531.526 349.379 530.709 348.87 530.05C348.62 529.727 348.574 529.335 348.477 528.968C348.337 528.732 348.2 528.494 348.082 528.25C347.593 527.956 347.098 527.673 346.701 527.255C346.135 527.46 345.699 527.187 345.276 526.866L345.266 526.864C345.118 526.915 344.979 526.913 344.857 526.803C344.18 526.917 343.551 527.487 342.805 526.995C342.793 526.986 342.766 526.998 342.75 526.996C342.633 527.02 342.518 527.058 342.401 527.087C342.4 527.088 342.398 527.089 342.396 527.09C340.992 527.746 339.611 528.451 338.187 529.06C336.343 529.847 334.762 531.096 332.957 531.944C332.868 532.283 332.678 532.411 332.34 532.238C332.28 532.32 332.208 532.333 332.124 532.278C331.715 532.588 331.308 532.899 330.9 533.212L330.855 533.275L330.78 533.255C330.71 533.573 330.463 533.673 330.189 533.743C330.022 533.947 329.791 534.042 329.547 534.109C329.443 534.369 329.259 534.441 329.004 534.356C328.763 534.812 328.298 534.915 327.864 535.068C327.756 535.248 327.575 535.309 327.385 535.356C327.298 535.76 326.993 535.893 326.633 535.958C326.463 536.054 326.293 536.15 326.123 536.247C326.072 536.627 325.769 536.759 325.478 536.902C325.477 536.901 325.477 536.898 325.477 536.895C325.185 537.512 324.378 537.375 324.012 537.88C324.03 537.975 324.064 538.131 324.062 538.132C323.198 538.327 322.773 539.141 322.061 539.544C322.034 539.634 321.979 539.702 321.897 539.749C321.686 539.824 321.475 539.9 321.264 539.976L321.268 539.918C321.174 539.954 321.08 539.991 320.986 540.027C320.952 540.126 320.883 540.178 320.779 540.181C320.776 540.339 320.721 540.461 320.552 540.502C320.534 540.617 320.467 540.679 320.353 540.69C319.383 541.438 318.629 542.461 317.467 542.966C317.466 542.965 317.465 542.962 317.464 542.96C317.025 543.413 316.724 544.024 316.042 544.197C315.883 544.653 315.383 544.67 315.079 544.941C315.06 545.203 314.927 545.22 314.727 545.098L314.692 545.167L314.616 545.156C314.619 545.3 314.685 545.519 314.618 545.576C313.744 546.279 313.135 547.274 312.129 547.828C312.05 548.82 311.109 549.007 310.539 549.541C310.327 549.74 309.999 549.867 309.808 550.081C309.772 550.142 309.736 550.199 309.7 550.256C309.644 550.398 309.637 550.571 309.731 550.808C309.894 551.218 309.47 551.159 309.331 551.183C308.514 551.322 308.037 551.766 307.864 552.578C307.741 553.16 307.161 553.349 306.773 553.707C306.675 553.848 306.583 553.992 306.477 554.128C306.473 554.232 306.419 554.279 306.317 554.272C306.03 555.298 304.895 555.659 304.496 556.657C304.319 557.097 304.03 557.597 303.699 558.01C303.66 558.025 303.621 558.041 303.582 558.056C303.43 558.117 303.279 558.176 303.128 558.236C303.128 558.237 303.128 558.24 303.129 558.242C303.198 558.573 303.175 558.862 302.804 559.007C302.804 559.007 302.804 559.007 302.805 559.009C302.81 559.046 302.827 559.08 302.836 559.115C302.849 559.161 302.856 559.208 302.876 559.251C302.227 559.674 301.633 560.144 301.422 560.943C301.387 560.951 301.36 560.974 301.328 560.987C301.271 561.009 301.213 561.024 301.163 561.06L301.153 561.039C301.188 561.218 301.089 561.34 300.972 561.453C300.994 561.541 301.027 561.624 301.075 561.701C301.036 561.775 300.975 561.811 300.892 561.812C300.825 562.344 299.63 562.378 300.267 563.222C299.37 563.129 299.979 564.262 299.332 564.372L299.303 564.481L299.192 564.5C298.648 564.844 298.691 565.61 298.152 565.959C297.76 567.364 297.38 568.772 296.753 570.097C296.906 570.727 297.105 571.351 296.887 572.005L296.956 572.042L296.945 572.119C297.458 572.484 297.866 572.898 297.619 573.606C297.626 573.598 297.628 573.591 297.635 573.584C297.703 573.724 297.77 573.865 297.837 574.006C298.278 573.98 298.67 574.054 298.925 574.485C299.204 574.957 299.566 575.319 300.165 575.337C300.28 575.34 300.515 575.258 300.471 575.455C300.255 576.444 301.417 576.265 301.644 576.865C302.112 576.792 302.586 576.733 302.939 576.363C302.547 575.47 302.155 574.578 301.761 573.685C301.435 573.563 301.32 573.249 301.139 572.993C300.884 572.984 300.866 572.869 301.004 572.687C300.946 572.618 300.911 572.539 300.9 572.449C300.491 572.317 300.081 572.248 300.018 571.656C299.878 570.357 299.913 569.136 300.98 568.187C301.05 568.057 301.11 567.922 301.119 567.769C301.119 567.77 301.118 567.773 301.119 567.774C301.315 567.165 301.117 566.351 301.986 566.087C301.999 565.641 302.637 565.483 302.509 564.969C302.7 564.853 302.892 564.735 303.083 564.618C303.116 564.597 303.151 564.576 303.184 564.555C303.185 564.555 303.187 564.554 303.188 564.553C303.183 564.538 303.174 564.526 303.167 564.511C303.146 564.456 303.122 564.401 303.09 564.351C303.159 564.274 303.171 564.191 303.125 564.099C303.161 564.071 303.181 564.035 303.208 564.002C303.257 563.946 303.289 563.883 303.306 563.81C303.317 563.766 303.336 563.727 303.334 563.676C303.455 563.582 303.576 563.486 303.697 563.391C303.677 563.223 303.741 563.098 303.907 563.033C304.415 562.143 305.02 561.326 305.795 560.645L305.807 560.615C305.772 560.347 305.936 560.206 306.133 560.085C306.106 559.911 306.17 559.796 306.351 559.753L306.39 559.64L306.505 559.606C306.531 559.145 307.01 559.18 307.235 558.936C307.139 558.31 307.616 558.017 307.986 557.663C308.114 557.323 308.445 557.224 308.712 557.051C308.755 556.647 308.957 556.22 309.282 556.131C309.859 555.973 309.797 555.414 310.116 555.122C310.118 555.122 310.118 555.123 310.119 555.125C310.12 555.125 310.12 555.125 310.12 555.122C310.562 554.69 311.004 554.258 311.447 553.825L311.447 553.827C312.083 553.005 312.417 552 313.442 551.4C313.963 551.095 314.438 550.472 314.982 550.045C315.094 549.462 315.555 549.203 316.025 548.974C316.64 548.677 317.091 548.207 317.493 547.678C317.47 547.38 317.672 547.265 317.911 547.195C318.52 547.01 318.96 546.563 319.462 546.212C319.512 545.964 319.661 545.794 319.882 545.68C319.882 545.683 319.881 545.683 319.882 545.686C320.272 545.049 321.226 545.076 321.515 544.32C321.513 544.32 321.511 544.321 321.51 544.322L321.527 544.297C321.528 544.302 321.527 544.304 321.527 544.309C322.453 543.374 323.711 542.95 324.754 542.194C324.709 541.891 324.777 541.673 325.115 541.542C325.973 541.205 326.707 540.658 327.433 540.102C327.488 539.836 327.678 539.715 327.92 539.648C328.151 539.345 328.518 539.316 328.838 539.189C329.023 538.85 329.346 538.678 329.673 538.514C330.107 537.874 330.815 537.703 331.482 537.461L331.533 537.348L331.652 537.317C332.393 536.383 333.526 536.065 334.5 535.496L334.55 535.384L334.669 535.352C335.03 534.571 335.939 534.839 336.522 534.367C337.416 533.644 338.519 533.179 339.521 532.587C339.875 532.377 340.219 532.258 340.613 532.432C341.318 531.949 341.991 531.418 342.81 531.126C343.08 531.031 343.33 530.929 343.6 531.089C343.912 530.989 344.219 530.828 344.553 531.02C344.55 531.021 344.548 531.022 344.546 531.024C345.205 531.198 345.129 531.667 344.988 532.16L344.987 532.165C345.061 532.327 345.01 532.455 344.896 532.568C345.265 533.034 345.076 533.462 344.807 533.884C344.874 534.123 344.968 534.364 344.803 534.604C344.885 534.663 344.897 534.734 344.84 534.816C344.991 535.187 344.693 535.233 344.472 535.333C344.397 535.621 344.446 535.946 344.217 536.189L344.287 536.269L344.25 536.367C344.691 536.944 344.044 537.332 343.994 537.824C343.996 537.823 343.997 537.82 343.999 537.819C344.294 538.401 343.912 538.708 343.518 539.009C343.544 539.166 343.495 539.294 343.367 539.389C343.398 539.549 343.358 539.684 343.232 539.79C343.299 540.964 342.574 541.9 342.288 542.968C342.233 543.123 342.178 543.279 342.124 543.433C342.21 543.583 342.191 543.715 342.06 543.827C342.108 544.129 341.896 544.244 341.682 544.359C341.704 544.531 341.646 544.675 341.515 544.793C341.587 544.862 341.585 544.927 341.513 544.993C341.593 545.147 341.584 545.278 341.424 545.372C341.437 545.656 341.208 545.781 341.048 545.952C341.115 546.032 341.11 546.104 341.033 546.175C341.125 546.328 341.05 546.431 340.929 546.521L340.927 546.532C340.984 546.694 340.954 546.828 340.807 546.927C340.846 547.081 340.825 547.22 340.712 547.336C340.751 547.514 340.814 547.739 340.629 547.821C340.111 548.054 340.062 548.596 339.788 548.987C339.811 549.21 339.9 549.442 339.703 549.635L339.7 549.649C339.762 549.805 339.752 549.946 339.62 550.065C339.568 550.641 339.574 551.241 339.008 551.614C339.018 551.778 338.976 551.91 338.794 551.958C338.738 552.035 338.681 552.11 338.625 552.187C338.493 553.086 338.631 554.078 337.753 554.719C337.551 555.013 337.346 555.304 337.142 555.598L337.139 555.614C337.196 555.833 337.338 556.054 337.105 556.257L337.097 556.275C337.157 556.442 337.08 556.552 336.948 556.638L336.939 556.665C337.006 556.831 336.943 556.948 336.798 557.031L336.79 557.053C336.778 557.437 336.522 557.693 336.31 557.973C336.342 558.137 336.291 558.268 336.159 558.367C336.304 558.999 335.831 559.303 335.474 559.669C335.515 560.39 335.443 561.081 334.96 561.67C334.971 561.771 334.924 561.828 334.824 561.838C334.827 562.057 334.882 562.29 334.652 562.441C334.666 562.544 334.621 562.605 334.517 562.619C334.532 562.798 334.467 562.938 334.326 563.044C334.354 563.206 334.305 563.337 334.162 563.424C334.182 563.587 334.108 563.71 333.985 563.809C334.031 563.978 333.984 564.109 333.819 564.188C333.682 564.585 333.545 564.98 333.409 565.379C333.46 565.57 333.396 565.697 333.188 565.737C333.171 565.829 333.116 565.867 333.024 565.854C333.051 566.186 332.96 566.468 332.678 566.671C332.601 567.158 332.754 567.699 332.339 568.105C332.318 568.509 332.034 568.753 331.786 569.019C331.866 569.354 331.774 569.615 331.464 569.788C331.395 570.06 331.368 570.354 331.106 570.536C331.035 570.662 330.985 570.794 330.95 570.933C331.018 571.098 330.986 571.234 330.835 571.333C330.855 571.499 330.785 571.623 330.646 571.712C330.69 571.875 330.635 572.003 330.511 572.108C330.642 572.449 330.625 572.794 330.347 573.035C329.611 573.677 329.277 574.482 329.174 575.44C329.131 575.845 329.027 576.306 328.563 576.514C328.261 577.372 328.062 578.28 327.428 578.987C327.45 579.153 327.4 579.287 327.256 579.381C327.096 580.682 326.283 581.736 325.901 582.951L325.964 583.036L325.919 583.13C326.025 583.286 325.994 583.422 325.865 583.543C325.9 583.713 325.849 583.845 325.698 583.932C325.594 584.345 325.661 584.842 325.147 585.053L325.139 585.075C325.183 585.229 325.147 585.362 325.033 585.471C325.103 585.636 325.08 585.78 324.941 585.899C324.939 585.894 324.942 585.891 324.939 585.885C324.257 586.98 324.038 588.258 323.562 589.433C323.637 589.491 323.646 589.559 323.59 589.636C323.884 590.154 323.424 590.446 323.242 590.819C323.312 591.107 323.366 591.41 323.194 591.666C322.322 592.967 322.588 594.612 321.876 595.971C321.665 596.371 321.868 596.921 321.6 597.353C321.663 597.583 321.74 597.814 321.528 598.009C321.561 598.32 321.898 598.596 321.654 598.939C321.849 599.896 322.293 600.748 322.748 601.598C323.61 602.408 324.731 602.607 325.813 602.889L325.841 602.898C325.984 602.855 326.12 602.856 326.242 602.952C326.618 602.74 326.997 602.535 327.439 602.775C327.849 602.637 328.235 602.375 328.702 602.544C328.829 602.488 328.957 602.432 329.085 602.376C329.128 602.089 329.271 602.026 329.513 602.189C329.749 602.093 329.984 601.996 330.22 601.9C331.123 601.231 331.877 600.296 333.134 600.262C333.131 600.26 333.128 600.26 333.123 600.255C333.805 599.458 334.379 598.553 335.346 598.045C335.501 597.307 336.141 597.08 336.694 596.759C336.798 596.411 337.162 596.352 337.39 596.145C337.375 595.982 337.447 595.858 337.573 595.761C337.573 595.765 337.57 595.767 337.571 595.772C338.222 595.047 338.872 594.323 339.524 593.597C339.973 592.573 340.815 591.878 341.635 591.192C341.987 590.897 342.31 590.596 342.428 590.188C342.585 589.655 342.769 589.213 343.316 588.977C343.474 588.908 343.686 588.684 343.674 588.548C343.572 587.268 344.64 586.891 345.385 586.264L345.435 586.16L345.55 586.135C345.575 585.858 345.777 585.712 345.97 585.561C346.012 584.851 346.36 584.325 346.945 583.939C347.347 583.424 347.75 582.907 348.152 582.392C348.266 582.034 348.341 581.65 348.756 581.494C348.755 581.236 348.917 581.084 349.114 580.96C349.067 580.036 350.335 579.95 350.345 578.893C350.352 578.131 351.143 577.422 351.757 576.815C351.901 576.675 352.094 576.644 352.293 576.723C352.324 576.615 352.357 576.507 352.388 576.399C352.28 576.22 352.344 576.097 352.513 576.009C352.912 575.312 353.267 574.581 353.951 574.1C353.875 573.655 354.131 573.395 354.463 573.177C354.441 573.001 354.494 572.872 354.689 572.831L354.737 572.727L354.848 572.701C354.914 572.289 355.165 572.007 355.487 571.773C355.573 571.405 355.79 571.124 356.071 570.885C355.958 570.508 356.034 570.22 356.449 570.084C356.836 569.958 357.078 569.651 357.324 569.355C357.434 568.737 357.893 568.355 358.287 567.929C358.27 567.77 358.331 567.645 358.461 567.55C358.405 566.643 358.996 566.085 359.573 565.52L359.578 565.513C359.644 564.709 360.58 564.632 360.845 563.994L360.849 563.986C360.817 563.828 360.856 563.699 361.012 563.625L361.024 563.598C361.036 563.165 361.455 563.172 361.69 562.98L361.694 562.972C362.31 561.836 362.726 560.572 363.796 559.731L363.796 559.732C364.171 559.196 364.439 558.576 365.017 558.204C364.998 558.047 365.049 557.918 365.171 557.819C365.14 557.649 365.187 557.516 365.349 557.434C365.384 557.187 365.575 557.055 365.747 556.911C365.718 556.744 365.766 556.608 365.927 556.524C366.466 555.504 367.121 554.565 367.904 553.716C367.893 553.545 367.966 553.425 368.131 553.362C368.635 552.469 369.019 551.484 369.975 550.933C370.228 550.418 370.351 549.818 370.9 549.494C370.887 549.332 370.945 549.206 371.096 549.131C371.124 548.844 371.324 548.729 371.571 548.66L371.619 548.557L371.731 548.53C371.718 548.347 371.778 548.204 371.944 548.115C371.939 547.856 372.099 547.703 372.29 547.57C372.214 547.308 371.999 546.946 372.286 546.84C373.241 546.493 373.545 545.427 374.423 545.027C374.383 544.284 374.75 543.766 375.344 543.372C375.32 543.217 375.369 543.091 375.494 542.995C375.432 542.664 375.477 542.376 375.812 542.203C375.863 541.933 376.056 541.815 376.3 541.749L376.35 541.644L376.463 541.618C376.619 541.151 377.013 540.877 377.343 540.552C377.344 540.554 377.343 540.555 377.344 540.556C377.801 539.84 378.258 539.125 378.716 538.41C378.69 538.253 378.655 538.091 378.878 538.043L378.933 537.93L379.056 537.907C379.565 536.996 380.217 536.195 380.914 535.425C380.915 535.427 380.915 535.427 380.916 535.428C381.303 534.602 381.696 533.779 382.608 533.388C382.799 532.93 382.837 532.378 383.377 532.128C383.378 532.13 383.377 532.13 383.377 532.131C384.302 530.838 385.141 529.478 386.262 528.336L386.317 528.238L386.427 528.22C386.439 527.648 386.805 527.262 387.122 526.843C387.681 526.097 388.12 525.26 388.859 524.658L388.937 524.544L389.069 524.507C389.151 524.166 389.424 523.999 389.687 523.822C389.612 523.484 389.667 523.203 390.027 523.05C390.07 522.782 390.279 522.671 390.496 522.569C390.583 522.457 390.633 522.328 390.648 522.187C390.58 522.011 390.634 521.877 390.794 521.782C390.962 521.208 391.631 521.116 391.898 520.638C392.097 519.765 392.696 519.157 393.285 518.543L393.283 518.442L393.374 518.401C393.485 518.27 393.596 518.137 393.705 518.007L393.713 517.985C393.672 517.713 393.826 517.562 394.035 517.442C394.034 517.275 394.128 517.17 394.27 517.095L394.274 517.088C394.508 516.273 395.011 515.659 395.698 515.186L395.707 515.173C395.741 514.78 396.11 514.721 396.344 514.53C396.326 514.373 396.349 514.23 396.504 514.144C396.522 513.581 396.9 513.324 397.358 513.131C397.373 512.458 397.64 511.943 398.288 511.672C398.321 511.375 398.537 511.191 398.717 510.984L398.729 510.953C399.561 510.047 399.961 508.823 400.897 507.993C400.99 507.639 401.362 507.587 401.575 507.362C401.556 507.269 401.504 507.151 401.542 507.1C402.386 505.93 402.859 504.475 404.156 503.652C404.104 503.172 404.205 502.761 404.675 502.516C404.677 502.5 404.688 502.491 404.692 502.476C404.999 502.731 405.299 502.995 405.55 503.312C405.622 503.359 405.694 503.408 405.764 503.457C405.761 503.459 405.756 503.459 405.752 503.462C406.098 503.504 406.337 503.67 406.391 504.035C406.393 504.032 406.392 504.029 406.393 504.025C406.786 504.388 407.164 504.764 407.644 505.025C407.845 505.132 408.073 505.262 408.091 505.546C408.43 505.8 408.683 506.149 409.112 506.314C409.349 506.407 409.613 506.622 409.682 506.944C409.877 507.128 410.072 507.313 410.269 507.497L410.334 507.494L410.378 507.545C410.572 507.512 410.749 507.54 410.875 507.708C411.147 508.07 411.559 508.16 411.958 508.277C411.957 508.276 411.956 508.276 411.954 508.278C412.51 508.419 413.052 508.617 413.399 509.095C413.593 509.365 413.95 509.26 414.12 509.512C414.334 509.42 414.549 509.327 414.786 509.434C415.096 509.126 415.468 508.874 415.352 508.311C415.317 508.137 415.554 507.907 415.671 507.7C415.648 507.554 415.744 507.467 415.838 507.379C415.871 507.219 415.982 507.116 416.096 507.014C416.133 506.811 416.17 506.611 416.208 506.408C416.072 506.272 415.986 506.126 416.134 505.947C416.085 505.864 416.081 505.781 416.118 505.694C415.976 505.554 415.835 505.413 415.693 505.273C415.591 505.22 415.584 505.147 415.642 505.058C415.58 504.914 415.69 504.816 415.738 504.7C415.679 504.637 415.659 504.564 415.693 504.48C415.48 504.172 415.581 503.915 415.824 503.681C415.803 503.63 415.814 503.591 415.863 503.565C415.786 503.405 415.867 503.288 415.97 503.177C415.934 503.047 415.998 502.942 416.055 502.836C415.986 502.733 415.89 502.64 415.952 502.495C415.873 502.353 415.956 502.245 416.032 502.136C416.018 501.831 416.164 501.575 416.286 501.312C416.287 501.314 416.287 501.314 416.289 501.316C416.368 500.458 416.212 499.572 416.614 498.756C416.567 498.674 416.583 498.599 416.636 498.527L416.637 498.521C416.553 498.261 416.55 498.011 416.749 497.791C416.689 497.733 416.693 497.674 416.749 497.618C416.701 497.523 416.703 497.437 416.792 497.367C416.775 497.318 416.792 497.284 416.841 497.265C416.791 497.18 416.79 497.094 416.836 497.008C416.786 496.931 416.792 496.855 416.843 496.78C416.799 496.703 416.779 496.63 416.861 496.561C416.839 496.512 416.852 496.476 416.904 496.453C416.855 496.369 416.856 496.284 416.899 496.199C416.785 495.972 416.704 495.745 416.884 495.511C416.723 495.286 416.695 495.032 416.721 494.766C416.729 494.692 416.794 494.604 416.772 494.542C416.598 494.051 416.755 493.571 416.805 493.088C416.748 493.011 416.741 492.931 416.798 492.851C416.766 492.652 416.789 492.46 416.866 492.275C416.738 492.114 416.758 491.966 416.906 491.827C416.884 491.779 416.896 491.741 416.944 491.717C416.913 491.613 416.847 491.507 416.858 491.41C416.961 490.542 416.734 489.675 416.863 488.808C416.811 488.721 416.822 488.643 416.895 488.573C416.86 488.444 416.9 488.331 416.965 488.222C416.757 487.77 416.934 487.301 416.896 486.842C416.694 486.468 416.903 486.071 416.829 485.69C416.758 485.626 416.743 485.551 416.784 485.464C416.744 485.372 416.673 485.278 416.674 485.184C416.679 484.649 416.464 484.237 416.025 483.94C415.954 483.968 415.886 483.952 415.828 483.885ZM302.975 563.774C302.959 563.764 302.942 563.756 302.927 563.744C302.927 563.743 302.926 563.741 302.926 563.74C302.944 563.753 302.963 563.76 302.982 563.772C302.98 563.772 302.978 563.773 302.975 563.774Z" fill="#3C4043"/>
<path d="M160.037 351.244C211.447 353.092 262.891 356.396 314.343 356.7C336.249 356.83 359.318 354.876 377.484 341.37C392.413 330.273 401.405 311.272 395.581 292.811C388.754 271.172 365.025 265.77 345.01 269.843C345.695 270.579 346.381 271.314 347.068 272.05C356.141 252.184 342.323 229.979 321.709 225.962C299.98 221.727 280.554 236.16 272.974 255.923C274.068 255.961 275.161 255.999 276.255 256.038C270.371 234.182 245.965 220.574 224.098 225.483C200.169 230.855 184.922 256.266 187.124 279.874C187.892 279.332 188.659 278.788 189.427 278.245C164.986 270.121 138.274 282.504 129.18 306.711C125.212 317.27 124.209 331.42 132.024 340.543C139.289 349.025 152.077 350.714 162.439 352.339C164.954 352.733 165.067 348.771 162.578 348.377C153.698 346.974 142.381 345.584 135.76 338.818C127.623 330.498 129.274 316.317 133.329 306.45C142.194 284.879 166.404 274.408 188.364 281.629C189.346 281.951 190.778 281.163 190.667 279.998C188.614 258.313 201.799 234.933 223.632 229.177C243.921 223.826 267.408 236.367 272.941 256.828C273.393 258.497 275.626 258.501 276.222 256.943C283.037 239.111 300.477 225.742 320.164 229.141C339.387 232.458 352.193 252.594 343.756 271.011C343.171 272.29 344.66 273.451 345.813 273.219C364.646 269.41 387.433 274.558 392.711 295.643C397.678 315.474 385.332 333.657 368.471 343C348.935 353.825 325.908 353.453 304.228 353.043C281.715 352.618 259.208 351.88 236.704 351.085C211.176 350.182 185.649 349.37 160.103 349.3C158.856 349.297 158.782 351.198 160.037 351.244Z" fill="#3C4043"/>
<path d="M112.704 391.097C148.286 395.47 184.45 396.852 220.239 398.621C256.118 400.396 292.027 401.623 327.948 402.247C348.557 402.606 369.201 402.994 389.813 402.737C392.446 402.704 392.617 398.644 389.957 398.625C318.055 398.112 246.322 397.092 174.504 393.185C153.933 392.066 133.342 390.358 112.752 389.72C111.852 389.691 111.836 390.989 112.704 391.097Z" fill="#3C4043"/>
<path d="M255.225 352C253.369 367.327 253.446 383.129 252.554 398.548C252.419 400.871 255.988 400.984 256.158 398.674C257.288 383.405 258.634 367.349 257.252 352.071C257.136 350.785 255.384 350.678 255.225 352Z" fill="#3C4043"/>
<path d="M114.287 391.247C114.137 391.185 113.986 391.124 113.836 391.06C113.415 390.886 112.797 391.125 112.581 391.522C110.701 394.95 111.717 399.768 111.77 403.517C111.843 408.818 111.448 414.448 112.445 419.666C112.76 421.309 115.04 420.884 115.216 419.389C115.998 412.781 114.848 405.617 114.467 398.977C114.421 398.166 114.987 391.539 114.287 391.247Z" fill="#3C4043"/>
<path d="M253.211 395.45C252.195 402.42 250.717 411.389 252.344 418.304C252.599 419.385 254.43 419.6 254.667 418.385C255.348 414.877 254.906 411.228 254.882 407.661C254.855 403.61 254.979 399.561 254.951 395.51C254.942 394.369 253.37 394.361 253.211 395.45Z" fill="#3C4043"/>
<path d="M388.763 399.404C388.546 407.67 388.131 415.985 388.272 424.25C388.308 426.405 391.613 426.552 391.641 424.368C391.746 416.088 391.295 407.762 391.044 399.484C391 398.03 388.802 397.92 388.763 399.404Z" fill="#3C4043"/>
<path d="M73.1269 423.202C93.3812 423.061 113.636 422.936 133.89 422.821C136.503 422.807 139.117 422.792 141.73 422.778C143.579 422.767 147.921 421.904 149.572 422.71C151.814 423.807 151.131 427.363 151.177 429.316C151.246 432.292 151.306 435.266 151.349 438.242C151.497 448.492 151.479 458.745 151.296 468.995C151.114 479.245 150.767 489.492 150.253 499.731C150.111 502.537 150.61 505.009 148.541 506.981C146.427 508.995 143.165 508.352 140.314 508.384C135.109 508.444 129.903 508.468 124.697 508.464C114.609 508.456 104.522 508.315 94.4381 508.039C90.0186 507.917 84.03 508.777 79.8044 507.548C76.5079 506.587 77.0321 504.468 77.0522 501.629C77.0735 498.671 77.0947 495.713 77.116 492.755C77.2825 469.419 77.448 446.084 77.6145 422.748C77.6317 420.42 74.0113 420.283 73.9926 422.622C73.7953 447.271 73.5979 471.921 73.4005 496.57C73.3738 499.943 72.2876 505.316 73.7965 508.527C75.5623 512.288 81.2199 511.311 84.5537 511.432C96.5849 511.866 108.623 512.11 120.663 512.165C126.52 512.192 132.377 512.173 138.235 512.103C141.907 512.059 148.514 513.282 151.637 510.68C154.11 508.62 153.657 504.724 153.801 501.841C154.131 495.236 154.393 488.626 154.584 482.016C154.931 470.115 155.053 458.207 154.953 446.302C154.901 440.35 154.805 434.396 154.635 428.446C154.554 425.697 155.186 421.346 152.212 419.776C150.413 418.826 147.682 419.356 145.769 419.401C142.499 419.476 139.232 419.569 135.962 419.654C128.77 419.841 121.578 420.028 114.386 420.214C100.656 420.571 86.9264 420.908 73.1971 421.248C71.9444 421.277 71.8599 423.21 73.1269 423.202Z" fill="#3C4043"/>
<path d="M223.018 510.961C226.134 479.565 226.166 447.8 225.015 416.293C224.45 416.819 223.885 417.346 223.319 417.872C251.672 418.671 279.987 420.331 308.239 422.846C307.668 422.232 307.095 421.619 306.523 421.006C304.8 452.098 303.1 483.193 301.436 514.287C302.083 513.683 302.729 513.08 303.377 512.477C274.966 511.46 246.547 510.733 218.123 510.296C215.711 510.26 215.572 514.008 217.992 514.045C246.416 514.483 274.836 515.21 303.246 516.227C304.271 516.263 305.13 515.431 305.185 514.418C306.848 483.323 308.475 452.227 310.08 421.131C310.13 420.136 309.31 419.372 308.364 419.292C280.105 416.888 251.787 415.328 223.435 414.6C222.599 414.579 221.707 415.285 221.742 416.18C222.977 447.789 222.066 479.296 220.934 510.889C220.887 512.24 222.886 512.286 223.018 510.961Z" fill="#3C4043"/>
<path d="M360.221 523.509C361.146 490.577 361.126 457.62 361.388 424.677C360.806 425.22 360.226 425.761 359.643 426.303C384.886 427.907 410.134 429.431 435.38 430.989C434.819 430.388 434.259 429.787 433.699 429.186C436.331 455.814 436.665 482.625 434.478 509.298C434.2 512.693 434.649 518.508 430.836 519.611C428.079 520.409 423.945 519.655 421.046 519.674C414.192 519.718 407.34 519.764 400.486 519.809C386.779 519.899 373.07 519.989 359.363 520.079C357.002 520.095 356.862 523.769 359.235 523.755C374.574 523.659 389.913 523.561 405.252 523.466C412.758 523.418 420.265 523.373 427.771 523.324C432.711 523.291 436.411 523.658 437.354 518.091C439.784 503.728 439.498 488.225 439.476 473.697C439.455 458.712 438.627 443.753 437.137 428.844C437.061 428.083 436.193 427.548 435.503 427.507C410.256 425.979 385.012 424.417 359.762 422.934C358.873 422.882 358.022 423.664 358.017 424.561C357.913 457.515 357.527 490.484 358.085 523.437C358.109 524.801 360.183 524.895 360.221 523.509Z" fill="#3C4043"/>
<path d="M92.1671 204.483C108.238 202.445 124.268 198.31 139.98 194.424C145.544 193.048 151.182 191.251 154.829 186.54C157.979 182.472 158.973 177.192 158.99 172.155C159.01 166.23 157.736 160.39 156.491 154.631C154.797 146.791 152.878 139 150.733 131.272C148.524 123.312 146.099 115.404 143.399 107.597C141.468 102.008 139.278 96.1365 134.684 92.1628C126.181 84.8052 114.058 87.2872 104.386 90.5984C89.9736 95.5318 75.8295 101.518 61.8379 107.525C46.9497 113.917 32.1235 120.597 17.6922 127.972C12.8023 130.47 9.00878 133.668 8.40097 139.43C7.67492 146.315 9.91903 153.885 11.1742 160.598C12.8307 169.466 14.7062 178.292 16.8374 187.058C17.9316 191.556 19.0459 196.06 20.314 200.514C21.1319 203.387 22.063 206.259 24.5227 208.152C27.0274 210.079 30.4224 210.644 33.4414 211.246C37.2945 212.014 41.1953 212.534 45.1196 212.763C53.3127 213.239 61.5165 212.421 69.4941 210.529C71.3451 210.089 70.6819 207.2 68.8288 207.647C56.2457 210.678 41.3416 211.502 28.904 207.211C25.0515 205.881 23.9141 202.821 22.9126 199.163C21.9483 195.636 21.0381 192.093 20.1601 188.543C18.4628 181.68 16.9174 174.778 15.5235 167.846C14.1771 161.154 12.9794 154.429 11.9426 147.682C11.4871 144.719 10.9969 141.663 11.5906 138.687C12.3742 134.755 15.2865 132.698 18.6519 130.954C30.8323 124.646 43.4402 119.021 55.9938 113.504C68.889 107.837 81.9208 102.482 95.0755 97.4441C104.71 93.7547 116.936 87.9386 127.412 91.59C133.615 93.752 136.889 99.3471 139.123 105.172C141.519 111.422 143.473 117.877 145.392 124.287C149.265 137.213 152.916 150.463 155.099 163.794C156.004 169.317 156.487 175.395 154.482 180.745C151.781 187.961 144.815 190.051 137.963 191.72C122.612 195.458 106.942 198.37 91.7729 202.785C90.6825 203.103 91.0647 204.623 92.1671 204.483Z" fill="#3C4043"/>
<path d="M91.4541 203.895C89.492 207.91 89.775 213.48 89.322 217.877C88.7488 223.452 88.1748 229.027 87.6046 234.602C88.3499 234.324 89.0946 234.047 89.8407 233.769C83.2106 224.809 76.5278 215.887 69.8478 206.964C68.8058 205.571 66.8404 207.438 67.8771 208.821C74.5542 217.741 81.2285 226.663 87.9563 235.545C88.6753 236.495 90.104 235.718 90.1915 234.711C90.657 229.376 91.1185 224.039 91.5801 218.703C91.9732 214.162 93.3911 208.442 92.178 204.015C92.0958 203.715 91.6156 203.565 91.4541 203.895Z" fill="#3C4043"/>
<path d="M127.459 155.802C113.279 158.389 99.1969 162.947 85.3167 166.808C71.381 170.683 57.1241 174.142 43.4525 178.873C42.2976 179.274 42.6473 181.079 43.8903 180.77C57.9494 177.268 71.7956 172.587 85.7364 168.626C99.6429 164.675 114.023 161.469 127.662 156.681C128.199 156.493 128.042 155.695 127.459 155.802Z" fill="#3C4043"/>
<path d="M132.026 136.657C117.063 140.93 102.319 146.208 87.5107 150.995C72.6965 155.784 57.669 160.207 43.0475 165.557C42.1987 165.868 42.4576 167.234 43.3732 166.968C58.324 162.622 73.0527 157.28 87.827 152.365C102.607 147.445 117.625 142.959 132.229 137.536C132.755 137.341 132.598 136.493 132.026 136.657Z" fill="#3C4043"/>
<path d="M113.073 128.256C100.111 130.775 87.2696 135.145 74.5203 138.597C68.2154 140.304 61.9106 142.011 55.6043 143.718C49.7391 145.307 43.3999 146.687 38.0991 149.768C37.2418 150.267 37.9359 151.413 38.8101 151.083C51.0459 146.469 63.667 143.207 76.2573 139.673C88.5207 136.23 101.304 133.495 113.286 129.181C113.847 128.979 113.687 128.136 113.073 128.256Z" fill="#3C4043"/>
<path d="M468.792 30.2014C452.064 6.73644 420.314 0.838415 393.366 5.00441C364.135 9.52242 336.046 26.0394 318.16 49.6474C301.498 71.6414 295.056 101.458 308.022 126.866C322.565 155.362 359.133 162.624 387.945 167.04C405.33 169.703 422.967 170.669 440.537 169.841C456.843 169.073 474.015 167.487 489.365 161.579C515.579 151.49 530.554 125.73 529.444 98.0034C528.276 68.8254 509.776 42.9154 487.023 25.9304C462.528 7.64444 431.362 -1.72459 400.84 0.26241C343.174 4.01741 282.665 51.8964 284.149 113.585C284.845 142.53 300.83 168.8 327.549 180.602C355.627 193.003 389.731 193.408 419.523 188.226C449.626 182.99 480.326 170.697 503.728 150.703C514.256 141.707 523.56 130.533 528.287 117.363C533.04 104.121 531.969 90.1214 526.313 77.3364C514.456 50.5314 487.886 31.2654 461.177 21.0884C430.001 9.2114 395.673 9.00245 363.313 15.7894C335.711 21.5794 302.602 31.3984 286.277 56.3914C270.448 80.6254 272.677 114.864 284.352 140.308C289.938 152.482 298.275 163.424 309.116 171.37C322.172 180.936 338.173 185.092 353.983 187.256C384.02 191.367 416.066 192.224 445.558 184.275C459.67 180.471 472.844 174.401 484.658 165.776C486.201 164.65 484.707 162.047 483.145 163.187C460.073 180.033 431.487 186.042 403.39 186.855C389.364 187.259 375.291 186.494 361.344 185.008C345.902 183.363 330.082 180.411 316.505 172.484C292.631 158.545 280.054 130.693 278.508 103.863C277.659 89.1294 279.789 73.7154 287.224 60.7594C294.275 48.4734 305.808 39.8334 318.332 33.6554C345.673 20.1714 378.449 13.7294 408.805 14.3604C437.544 14.9584 466.226 23.0554 489.784 39.8294C512.397 55.9294 534.68 83.5444 526.28 113.007C518.522 140.221 491.688 158.259 467.49 169.718C440.648 182.428 410.756 188.675 381.074 187.873C352.322 187.097 319.295 180.788 301.31 156.064C284.211 132.559 283.749 101.39 295.187 75.3794C306.631 49.3544 328.205 28.4634 353.587 16.0274C406.084 -9.68957 474.159 4.70842 509.21 52.4704C525.491 74.6564 532.167 104.148 519.869 129.775C506.001 158.675 474.29 164.444 445.2 166.355C413.348 168.449 380.75 164.857 350.327 155.06C336.166 150.499 322.511 143.583 314.011 130.909C306.541 119.771 303.419 105.992 304.227 92.6884C305.96 64.1484 326.111 39.8344 349.281 24.8404C373.514 9.15741 404.365 1.51942 432.742 8.96242C446.329 12.5254 459 19.5564 467.47 30.9744C468.048 31.7494 469.367 31.0104 468.792 30.2014Z" fill="#3C4043"/>
<path d="M413.986 88.2086C413.951 88.5234 413.878 88.8793 413.769 89.2762C413.685 89.6717 413.548 90.044 413.358 90.393C413.192 90.7146 412.972 90.9999 412.699 91.2489C412.423 91.472 412.091 91.5937 411.701 91.6142C411.415 91.6292 411.127 91.6181 410.838 91.5811C410.548 91.5181 410.247 91.4948 409.935 91.5111C409.805 91.5179 409.665 91.5774 409.514 91.6896C409.388 91.7745 409.26 91.8203 409.13 91.8271C409 91.8339 408.882 91.8271 408.777 91.8065C408.696 91.7586 408.591 91.738 408.461 91.7448C408.383 91.7489 408.241 91.7824 408.036 91.8453C407.831 91.9083 407.612 91.9719 407.381 92.0361C407.15 92.1004 406.932 92.177 406.728 92.2659C406.523 92.3289 406.382 92.3754 406.305 92.4055C405.615 92.6763 404.924 92.9211 404.231 93.14C403.539 93.3588 402.817 93.514 402.065 93.6056C401.906 93.5617 401.67 93.522 401.355 93.4863C401.039 93.4247 400.802 93.3979 400.646 93.4061C400.334 93.4224 400.133 93.5634 400.043 93.8289C399.978 94.093 399.82 94.2969 399.566 94.4406C399.264 94.639 398.879 94.7635 398.412 94.814C397.946 94.8645 397.48 94.9281 397.014 95.0046C396.549 95.0812 396.112 95.2084 395.704 95.3862C395.321 95.5367 395.049 95.8117 394.887 96.2114C394.756 96.1922 394.612 96.1867 394.456 96.1948C394.324 96.1757 394.181 96.1701 394.025 96.1783C393.192 96.2219 392.421 96.4319 391.711 96.8081C390.999 97.1583 390.273 97.4832 389.532 97.7828C389.674 98.0101 389.78 98.2914 389.85 98.6267C389.92 98.9621 389.99 99.2974 390.059 99.6328C390.128 99.9421 390.209 100.251 390.304 100.559C390.423 100.839 390.603 101.052 390.845 101.195C390.854 101.351 390.821 101.483 390.749 101.592C390.702 101.698 390.642 101.793 390.568 101.875L390.309 102.162C390.235 102.244 390.189 102.364 390.172 102.521C390.11 102.838 390.088 103.165 390.106 103.503C390.122 103.815 389.952 104.059 389.596 104.234C389.627 104.31 389.647 104.453 389.658 104.661C389.672 104.921 389.645 105.17 389.58 105.408C389.514 105.646 389.502 105.908 389.543 106.192C389.126 106.71 388.776 107.236 388.491 107.773C388.232 108.308 388.041 108.879 387.916 109.485C387.004 110.498 386.066 111.512 385.102 112.527C384.166 113.567 383.189 114.57 382.17 115.536C381.177 116.501 380.143 117.416 379.067 118.28C377.993 119.171 376.873 119.96 375.71 120.647L375.437 120.661C374.839 120.693 374.376 120.821 374.049 121.047C373.722 121.273 373.302 121.477 372.79 121.661C372.395 121.577 371.924 121.549 371.378 121.578C371.066 121.594 370.741 121.624 370.404 121.668C370.094 121.711 369.769 121.741 369.431 121.758C368.989 121.781 368.583 121.751 368.214 121.666C367.87 121.579 367.526 121.48 367.181 121.368C366.862 121.254 366.53 121.141 366.186 121.029C365.841 120.916 365.472 120.844 365.079 120.813C363.382 119.285 362.009 117.466 360.96 115.357C359.912 113.274 359.328 111.101 359.21 108.838C359.155 107.798 359.245 106.776 359.479 105.773C359.712 104.744 359.802 103.722 359.749 102.708C360.168 101.747 360.521 100.764 360.807 99.7576C361.119 98.7503 361.432 97.743 361.744 96.7357C362.056 95.7284 362.396 94.7457 362.763 93.7877C363.155 92.8023 363.627 91.8649 364.18 90.9753C364.275 90.2923 364.452 89.6963 364.712 89.1872C364.973 88.6781 365.256 88.1156 365.563 87.4998C365.533 86.9276 365.622 86.4014 365.832 85.921C366.066 85.4133 366.194 84.859 366.214 84.2581C366.61 83.8462 366.925 83.3864 367.159 82.8786C367.393 82.3709 367.614 81.8508 367.82 81.3184C368.027 80.7861 368.261 80.2783 368.523 79.7952C368.809 79.2847 369.203 78.8468 369.706 78.4815C369.748 78.2967 369.764 78.1003 369.753 77.8923C369.767 77.6569 369.822 77.4714 369.92 77.3359L370.692 76.3958C370.934 76.0441 371.15 75.6938 371.341 75.3448C371.556 74.9684 371.786 74.6304 372.031 74.3307C372.179 74.1665 372.341 74.0276 372.517 73.914C372.694 73.8005 372.844 73.6753 372.967 73.5384C373.09 73.4016 373.121 73.2305 373.058 73.0252C373.021 72.8185 373.064 72.6467 373.187 72.5099C373.236 72.4551 373.312 72.399 373.413 72.3416C373.514 72.2841 373.603 72.2273 373.678 72.1712C374.004 71.9195 374.277 71.6704 374.499 71.4241C374.721 71.1778 375.037 70.9917 375.448 70.8659C375.797 70.5607 376.107 70.2576 376.378 69.9566C376.675 69.6541 376.974 69.3777 377.273 69.1273C377.573 68.8769 377.902 68.6771 378.259 68.528C378.615 68.3529 379.066 68.2511 379.612 68.2224C379.716 68.217 379.821 68.2245 379.926 68.2451C380.03 68.2396 380.134 68.2342 380.238 68.2287C381.356 69.1611 382.083 70.3356 382.418 71.7523C382.151 72.1314 381.937 72.5337 381.777 72.9594C381.643 73.3836 381.483 73.8093 381.296 74.2363C380.862 74.4155 380.459 74.6713 380.085 75.0039C379.71 75.3104 379.335 75.6299 378.962 75.9624C378.614 76.2935 378.238 76.5871 377.834 76.8429C377.456 77.0974 377.02 77.2376 376.526 77.2635C376.328 77.4564 376.005 77.7732 375.559 78.2139C375.138 78.6271 374.691 79.0678 374.22 79.5357C373.775 80.0024 373.355 80.4416 372.959 80.8535C372.59 81.2641 372.357 81.5501 372.261 81.7116C372.19 81.8457 372.131 81.9661 372.084 82.0729C372.038 82.1796 371.992 82.2994 371.947 82.4321L371.023 84.2017C370.502 85.2199 369.968 86.2258 369.421 87.2194C368.871 88.1869 368.403 89.2024 368.016 90.2658C367.832 90.7448 367.687 91.2218 367.582 91.6967C367.476 92.1716 367.372 92.6726 367.27 93.1995C367.226 93.3583 367.169 93.5177 367.099 93.6778C367.029 93.8379 366.972 93.9844 366.927 94.1171C366.669 94.6783 366.462 95.1976 366.304 95.6753C366.147 96.1529 366.071 96.7045 366.078 97.33C365.504 98.8204 364.97 100.322 364.475 101.834C364.006 103.319 363.669 104.849 363.464 106.425C363.648 106.937 363.741 107.466 363.743 108.014C363.77 108.534 363.798 109.054 363.825 109.574C363.859 110.224 363.926 110.755 364.026 111.167C364.153 111.604 364.303 111.987 364.477 112.317C364.678 112.672 364.892 113.026 365.12 113.379C365.348 113.758 365.593 114.201 365.854 114.709C366.261 115.001 366.629 115.308 366.959 115.629C367.29 115.977 367.609 116.351 367.917 116.753C368.931 117.195 369.946 117.389 370.96 117.336C371.688 117.298 372.423 117.142 373.165 116.869C373.907 116.595 374.619 116.258 375.302 115.857C376.013 115.481 376.695 115.067 377.35 114.615C378.004 114.164 378.633 113.727 379.237 113.304C380.295 112.596 381.207 111.845 381.974 111.048C382.741 110.252 383.427 109.42 384.034 108.554C384.666 107.686 385.244 106.77 385.767 105.803C386.289 104.811 386.834 103.766 387.402 102.667C387.421 102.535 387.465 102.376 387.534 102.19L387.737 101.593C387.804 101.381 387.86 101.195 387.903 101.037C387.972 100.85 388.005 100.731 388.002 100.679C387.991 100.471 387.932 100.331 387.823 100.258C387.74 100.159 387.696 100.057 387.69 99.9525C387.679 99.7445 387.724 99.5987 387.824 99.5152C387.924 99.4318 388.036 99.3476 388.162 99.2628C388.314 99.1766 388.44 99.0788 388.538 98.9693C388.663 98.8584 388.718 98.66 388.703 98.3739C388.649 98.3506 388.558 98.3424 388.427 98.3492C388.297 98.356 388.168 98.3759 388.039 98.4087C387.911 98.4415 387.781 98.4613 387.651 98.4681C387.339 98.4845 387.074 98.3941 386.855 98.197C386.728 98.2558 386.602 98.3536 386.479 98.4905C386.354 98.6013 386.231 98.7251 386.107 98.862C386.01 98.9975 385.912 99.1199 385.814 99.2294C385.715 99.3389 385.627 99.3957 385.549 99.3998C385.419 99.4066 385.313 99.386 385.233 99.3381C385.178 99.2888 385.099 99.2669 384.995 99.2724C384.552 99.2955 384.168 99.42 383.841 99.6458C383.513 99.8715 383.158 100.06 382.775 100.21C382.697 100.214 382.619 100.218 382.541 100.222C382.462 100.2 382.383 100.192 382.305 100.196C382.019 100.211 381.735 100.278 381.455 100.397C381.199 100.488 380.944 100.593 380.689 100.711C380.46 100.827 380.218 100.931 379.962 101.023C379.706 101.114 379.447 101.154 379.186 101.141C378.625 101.379 378.103 101.628 377.621 101.888C377.165 102.147 376.624 102.267 375.997 102.247C375.819 102.335 375.629 102.436 375.426 102.551C375.248 102.639 375.072 102.752 374.897 102.892C374.743 102.952 374.628 102.984 374.55 102.988C374.42 102.995 374.312 102.935 374.227 102.809C374.032 103.054 373.767 103.238 373.435 103.36C373.101 103.455 372.754 103.552 372.394 103.649C372.032 103.72 371.685 103.816 371.353 103.938C371.045 104.032 370.807 104.214 370.638 104.484C370.34 104.265 369.996 104.166 369.606 104.186C369.216 104.206 368.843 104.304 368.487 104.479C368.129 104.628 367.743 104.714 367.327 104.736C367.171 104.744 367.065 104.723 367.01 104.674C366.891 104.393 366.759 104.114 366.614 103.834C366.469 103.555 366.25 103.358 365.957 103.243C365.89 102.96 365.824 102.689 365.759 102.432C365.718 102.147 365.69 101.875 365.677 101.615C365.64 100.913 365.814 100.264 366.201 99.6706C366.558 99.5214 366.916 99.3983 367.276 99.3012C367.661 99.1768 368.032 99.04 368.389 98.8909C368.678 98.9279 368.966 98.9519 369.254 98.9629C369.541 98.9739 369.828 98.972 370.114 98.957C371.18 98.9011 372.214 98.7165 373.214 98.4033C374.213 98.0641 375.199 97.7126 376.171 97.3487C377.092 97.0136 378.028 96.7038 378.978 96.4193C379.928 96.1348 380.876 95.8243 381.823 95.4878C382.721 95.2061 383.605 94.899 384.474 94.5666C385.342 94.2082 386.255 93.9647 387.213 93.8363C387.814 93.3615 388.553 93.0229 389.429 92.8205C390.331 92.6168 391.154 92.4041 391.899 92.1826C393.08 91.8338 394.248 91.4857 395.403 91.1383C396.557 90.7649 397.739 90.4292 398.949 90.131C400.287 89.7741 401.582 89.3542 402.834 88.8713C404.112 88.3871 405.39 87.8768 406.665 87.3406L407.055 87.3201C407.498 87.297 407.95 87.2211 408.413 87.0926C408.875 86.964 409.341 86.8875 409.809 86.8629C409.939 86.8561 410.043 86.8637 410.123 86.8856C410.227 86.8801 410.331 86.8747 410.435 86.8692C410.513 86.8651 410.705 86.8029 411.012 86.6825C411.317 86.5361 411.533 86.4335 411.661 86.3747C412.018 86.7211 412.412 87.0264 412.843 87.2906C413.274 87.5549 413.655 87.8609 413.986 88.2086ZM421.791 83.3795C421.648 83.6217 421.57 83.8865 421.559 84.174C421.548 84.4614 421.549 84.7221 421.561 84.9562C421.577 85.2682 421.594 85.5803 421.61 85.8924C421.651 86.1771 421.679 86.4625 421.694 86.7485L421.725 87.3337C421.682 87.5184 421.614 87.7046 421.519 87.8921C421.425 88.0796 421.356 88.2657 421.314 88.4505C421 89.4318 420.869 90.4035 420.919 91.3657L420.923 91.4438C420.809 91.7627 420.694 92.0555 420.578 92.3224C420.488 92.5879 420.397 92.8534 420.307 93.1189C420.215 93.3584 420.151 93.6226 420.114 93.9114C420.075 94.1742 420.079 94.4869 420.124 94.8496C419.807 95.7789 419.37 96.6363 418.811 97.4219C418.251 98.1814 417.706 98.9662 417.174 99.7764C416.639 100.013 416.146 100.313 415.696 100.675C415.272 101.037 414.862 101.436 414.468 101.874C413.675 102.176 412.898 102.517 412.135 102.896C411.373 103.275 410.695 103.767 410.1 104.372C409.609 104.45 409.119 104.553 408.63 104.683C408.142 104.813 407.669 104.995 407.212 105.227L406.744 105.252C406.509 105.264 406.338 105.221 406.228 105.122C405.9 105.322 405.555 105.47 405.195 105.567C404.834 105.639 404.471 105.684 404.107 105.703C403.639 105.727 403.17 105.726 402.699 105.698C402.253 105.643 401.793 105.589 401.321 105.536C401.042 105.185 400.664 104.931 400.186 104.774C399.707 104.59 399.281 104.417 398.907 104.254C398.098 103.253 397.5 102.281 397.111 101.336C396.721 100.366 396.312 99.279 395.884 98.0758C395.917 97.709 395.99 97.3531 396.102 97.0082C396.213 96.6373 396.245 96.2445 396.197 95.8298C396.594 94.4529 397.141 93.1986 397.838 92.0669C398.56 90.9077 399.388 89.7951 400.323 88.7291C400.315 88.5731 400.334 88.4417 400.381 88.3349C400.453 88.2268 400.458 88.0701 400.395 87.8648C400.423 87.8894 400.475 87.8997 400.553 87.8956C400.761 87.8847 400.889 87.8259 400.935 87.7191C400.98 87.5864 400.986 87.4427 400.952 87.288C401.857 86.6408 402.666 85.9073 403.379 85.0876C404.118 84.2666 404.968 83.5701 405.929 82.9982C405.995 82.76 406.115 82.5582 406.289 82.3926C406.463 82.227 406.596 82.0375 406.689 81.824C407.509 81.5463 408.245 81.1557 408.897 80.6521C409.548 80.1486 410.242 79.695 410.977 79.2914C411.38 79.0356 411.762 78.8591 412.122 78.762C412.507 78.6375 412.918 78.5117 413.354 78.3845C413.508 78.3243 413.649 78.2778 413.777 78.245C413.906 78.2122 414.048 78.1917 414.204 78.1835C414.672 78.1589 415.132 78.2261 415.584 78.385C416.034 78.5179 416.493 78.572 416.961 78.5475C417.092 78.5407 417.196 78.5352 417.274 78.5311C417.376 78.4997 417.479 78.4682 417.582 78.4368C418.052 78.9597 418.633 79.3465 419.324 79.5971C419.501 79.9791 419.701 80.3076 419.924 80.5828C420.173 80.8566 420.422 81.1304 420.671 81.4042C420.918 81.6519 421.142 81.9401 421.342 82.2686C421.566 82.5698 421.716 82.9401 421.791 83.3795ZM417.997 85.6124C417.99 85.4823 417.971 85.366 417.939 85.2633C417.675 85.1989 417.423 85.1079 417.182 84.9901C416.941 84.8723 416.677 84.821 416.391 84.8359C416.209 84.8455 416.029 84.894 415.851 84.9816C415.816 84.8009 415.731 84.675 415.597 84.6038C415.489 84.5312 415.355 84.473 415.197 84.4292C415.062 84.358 414.917 84.3134 414.759 84.2956C414.627 84.2504 414.505 84.1785 414.396 84.08C414.307 83.876 414.205 83.6727 414.09 83.4701C414 83.2402 413.835 83.0793 413.596 82.9875C413.374 83.2339 413.111 83.4432 412.807 83.6156C412.502 83.762 412.183 83.9091 411.852 84.0568C411.547 84.2032 411.243 84.3756 410.941 84.574C410.664 84.771 410.429 85.005 410.234 85.276L409.532 85.3128C409.391 85.607 409.181 85.8397 408.904 86.0107C408.624 86.1557 408.387 86.3637 408.193 86.6347C407.788 86.8645 407.411 87.145 407.064 87.4762C406.741 87.78 406.419 88.1097 406.098 88.4655C405.777 88.7953 405.456 89.1381 405.135 89.4939C404.841 89.8484 404.519 90.1781 404.17 90.4833C403.87 91.2292 403.527 91.8861 403.139 92.454C402.776 92.9946 402.427 93.5475 402.092 94.1127C401.782 94.6765 401.514 95.2903 401.289 95.9541C401.087 96.5905 401.011 97.3768 401.06 98.313L401.081 98.7031C401.087 98.8332 401.107 98.9625 401.14 99.0912C401.497 99.4375 401.791 99.8133 402.021 100.219C402.276 100.622 402.669 100.902 403.199 101.056C403.73 101.237 404.281 101.3 404.851 101.244C405.448 101.186 406.024 101.221 406.578 101.349C407.814 101.049 408.991 100.609 410.108 100.029C411.249 99.4219 412.32 98.7139 413.321 97.9052C413.47 97.767 413.646 97.6274 413.847 97.4865C414.047 97.3195 414.208 97.1546 414.329 96.9918C414.453 96.8549 414.549 96.7064 414.619 96.5463C414.715 96.3848 414.811 96.2363 414.909 96.1009C415.099 95.7519 415.315 95.4015 415.558 95.0498C415.8 94.6981 416.057 94.3717 416.328 94.0707C416.428 93.4917 416.568 92.9368 416.749 92.4057C416.928 91.8487 417.109 91.3047 417.289 90.7737C417.47 90.2426 417.611 89.7006 417.713 89.1477C417.84 88.5934 417.888 88.0172 417.857 87.419C417.85 87.289 417.829 87.1467 417.795 86.992C417.787 86.836 417.767 86.6936 417.734 86.5649C417.927 86.268 418.014 85.9504 417.997 85.6124ZM449.176 81.9443C449.032 82.1865 448.954 82.4514 448.943 82.7388C448.932 83.0262 448.933 83.287 448.945 83.521C448.962 83.8331 448.978 84.1452 448.994 84.4572C449.035 84.7419 449.063 85.0273 449.078 85.3134L449.109 85.8985C449.067 86.0833 448.998 86.2694 448.904 86.4569C448.809 86.6444 448.741 86.8305 448.698 87.0153C448.385 87.9966 448.253 88.9684 448.303 89.9306L448.307 90.0086C448.194 90.3275 448.079 90.6204 447.962 90.8873C447.872 91.1528 447.782 91.4183 447.691 91.6838C447.599 91.9233 447.535 92.1874 447.498 92.4762C447.46 92.739 447.463 93.0518 447.508 93.4145C447.192 94.3438 446.754 95.2012 446.196 95.9867C445.636 96.7462 445.09 97.5311 444.559 98.3412C444.023 98.5779 443.531 98.8775 443.08 99.2401C442.656 99.6014 442.247 100.001 441.852 100.439C441.06 100.741 440.282 101.082 439.52 101.461C438.757 101.84 438.079 102.332 437.485 102.936C436.993 103.014 436.503 103.118 436.015 103.248C435.526 103.378 435.053 103.559 434.596 103.792L434.128 103.817C433.894 103.829 433.722 103.786 433.613 103.687C433.284 103.887 432.94 104.035 432.58 104.132C432.218 104.203 431.856 104.249 431.492 104.268C431.023 104.292 430.554 104.291 430.083 104.263C429.637 104.208 429.178 104.154 428.706 104.101C428.426 103.75 428.048 103.496 427.57 103.339C427.091 103.155 426.665 102.982 426.291 102.819C425.483 101.818 424.884 100.846 424.496 99.9012C424.106 98.9307 423.697 97.8438 423.269 96.6406C423.302 96.2738 423.374 95.918 423.486 95.5731C423.597 95.2022 423.629 94.8094 423.581 94.3946C423.978 93.0178 424.526 91.7635 425.222 90.6317C425.944 89.4726 426.772 88.36 427.707 87.294C427.699 87.1379 427.718 87.0065 427.765 86.8998C427.838 86.7917 427.842 86.6349 427.779 86.4296C427.807 86.4543 427.86 86.4645 427.938 86.4605C428.146 86.4496 428.273 86.3907 428.319 86.284C428.365 86.1512 428.37 86.0075 428.336 85.8528C429.241 85.2056 430.05 84.4722 430.763 83.6525C431.502 82.8314 432.353 82.1349 433.314 81.563C433.379 81.3249 433.499 81.123 433.673 80.9574C433.847 80.7919 433.98 80.6023 434.073 80.3888C434.893 80.1111 435.629 79.7205 436.281 79.217C436.932 78.7135 437.626 78.2599 438.361 77.8563C438.765 77.6004 439.147 77.4239 439.507 77.3268C439.891 77.2024 440.302 77.0765 440.739 76.9493C440.892 76.8892 441.033 76.8426 441.162 76.8098C441.29 76.777 441.433 76.7565 441.589 76.7483C442.057 76.7238 442.517 76.791 442.968 76.9498C443.418 77.0827 443.878 77.1369 444.346 77.1123C444.476 77.1055 444.58 77.1001 444.658 77.096C444.761 77.0645 444.863 77.0331 444.966 77.0016C445.437 77.5246 446.017 77.9114 446.709 78.162C446.885 78.5439 447.085 78.8724 447.308 79.1476C447.557 79.4214 447.806 79.6952 448.055 79.969C448.303 80.2168 448.526 80.505 448.726 80.8335C448.951 81.1347 449.1 81.5049 449.176 81.9443ZM445.381 84.1772C445.374 84.0472 445.355 83.9308 445.324 83.8282C445.059 83.7638 444.807 83.6727 444.566 83.555C444.325 83.4372 444.062 83.3858 443.776 83.4008C443.594 83.4103 443.414 83.4589 443.236 83.5464C443.2 83.3658 443.115 83.2398 442.981 83.1686C442.873 83.0961 442.74 83.0379 442.581 82.994C442.447 82.9228 442.301 82.8783 442.144 82.8605C442.011 82.8153 441.89 82.7434 441.78 82.6448C441.691 82.4409 441.589 82.2376 441.474 82.035C441.384 81.805 441.219 81.6442 440.98 81.5524C440.758 81.7987 440.495 82.0081 440.191 82.1805C439.886 82.3269 439.568 82.4739 439.236 82.6217C438.931 82.768 438.627 82.9404 438.325 83.1388C438.048 83.3359 437.813 83.5699 437.618 83.8408L436.916 83.8776C436.775 84.1719 436.566 84.4045 436.288 84.5755C436.009 84.7206 435.772 84.9286 435.577 85.1995C435.172 85.4294 434.796 85.7099 434.448 86.041C434.125 86.3448 433.803 86.6746 433.483 87.0304C433.161 87.3602 432.84 87.703 432.52 88.0588C432.225 88.4132 431.904 88.743 431.554 89.0481C431.255 89.794 430.911 90.4509 430.523 91.0189C430.161 91.5594 429.811 92.1123 429.476 92.6775C429.167 93.2414 428.899 93.8552 428.673 94.519C428.471 95.1554 428.395 95.9417 428.444 96.8779L428.465 97.268C428.472 97.398 428.491 97.5274 428.524 97.656C428.881 98.0024 429.175 98.3782 429.405 98.7834C429.661 99.1872 430.053 99.4665 430.583 99.6213C431.114 99.8021 431.665 99.8645 432.236 99.8085C432.833 99.7511 433.408 99.7862 433.962 99.9136C435.198 99.6141 436.375 99.1743 437.492 98.5942C438.634 97.9868 439.705 97.2787 440.705 96.47C440.855 96.3318 441.03 96.1922 441.231 96.0513C441.431 95.8844 441.592 95.7195 441.714 95.5566C441.837 95.4198 441.933 95.2713 442.003 95.1112C442.099 94.9497 442.196 94.8012 442.293 94.6657C442.483 94.3167 442.7 93.9664 442.942 93.6147C443.184 93.263 443.441 92.9366 443.712 92.6355C443.812 92.0566 443.952 91.5016 444.133 90.9706C444.313 90.4135 444.493 89.8695 444.674 89.3385C444.854 88.8075 444.995 88.2655 445.097 87.7126C445.224 87.1583 445.272 86.582 445.241 85.9839C445.234 85.8539 445.214 85.7115 445.18 85.5568C445.171 85.4008 445.151 85.2585 445.118 85.1298C445.311 84.8328 445.399 84.5153 445.381 84.1772ZM478.257 83.7842C478.271 84.0443 478.189 84.2181 478.011 84.3056C477.833 84.3932 477.75 84.554 477.762 84.788C477.766 84.8661 477.796 84.9297 477.85 84.979C477.905 85.0283 477.935 85.1049 477.941 85.209L477.949 85.365C477.716 86.8897 477.329 88.2269 476.79 89.3765C476.276 90.5247 475.654 91.5874 474.923 92.5645C474.192 93.5416 473.354 94.4721 472.409 95.3561C471.491 96.2387 470.496 97.1644 469.426 98.1333C469.127 98.4097 468.816 98.6868 468.491 98.9645C468.193 99.241 467.908 99.5297 467.637 99.8308L466.822 100.695C466.797 100.722 466.657 100.795 466.403 100.912C466.147 101.004 465.994 101.064 465.943 101.093C465.587 101.268 465.206 101.471 464.801 101.7C464.422 101.929 464.098 102.207 463.828 102.534C463.308 102.561 462.87 102.662 462.514 102.837C462.158 103.012 461.766 103.242 461.337 103.525C461.207 103.532 461.089 103.512 460.982 103.465C460.901 103.417 460.808 103.37 460.701 103.324C460.594 103.277 460.476 103.257 460.346 103.264C460.24 103.243 460.098 103.264 459.919 103.325C459.579 102.822 459.218 102.397 458.835 102.052C458.452 101.707 457.946 101.512 457.318 101.467C457.217 101.029 457.017 100.7 456.719 100.481C456.419 100.236 456.119 99.9781 455.817 99.707C455.757 99.5537 455.709 99.3737 455.672 99.167C455.635 98.9603 455.573 98.768 455.485 98.59C455.398 98.4121 455.285 98.2615 455.149 98.1383C455.012 98.0151 454.826 97.9596 454.592 97.9719C454.558 97.8172 454.619 97.7358 454.775 97.7276C454.931 97.7194 455.006 97.6503 454.999 97.5203C454.991 97.3642 454.956 97.2096 454.896 97.0563C454.836 96.9029 454.801 96.7353 454.792 96.5532C454.785 96.4232 454.792 96.3055 454.812 96.2001C454.833 96.0947 454.866 95.9756 454.911 95.8429C454.796 95.1448 454.72 94.4317 454.681 93.7035C454.608 92.2992 454.627 90.9161 454.738 89.5543C454.874 88.165 454.905 86.7683 454.831 85.364C454.798 84.7398 454.727 84.1177 454.616 83.4977C454.531 82.8762 454.382 82.2712 454.169 81.6826C453.577 81.844 452.987 82.0314 452.399 82.2448C451.809 82.4322 451.261 82.6825 450.756 82.9958C450.461 82.8288 450.156 82.7404 449.843 82.7308C449.502 82.6965 449.173 82.6355 448.855 82.5478C448.654 82.1933 448.543 81.821 448.523 81.4309C448.504 81.0668 448.55 80.7123 448.663 80.3674L449 79.3328C449.617 79.17 450.231 78.9423 450.841 78.6495C451.426 78.3581 452.025 78.092 452.638 77.8512C452.843 77.7883 453.1 77.7097 453.408 77.6153C453.742 77.5196 453.973 77.4423 454.1 77.3835C454.278 77.2959 454.387 77.1467 454.428 76.936C454.494 76.6978 454.588 76.4973 454.71 76.3345L455.373 76.2997C455.529 76.2916 455.699 76.2957 455.882 76.3122C456.064 76.3026 456.235 76.3328 456.395 76.4026C457.319 76.1195 458.248 75.9274 459.182 75.8263C460.114 75.6992 461.071 75.5448 462.052 75.363C462.156 75.3575 462.311 75.3363 462.518 75.2994L463.175 75.1476C463.406 75.0834 463.612 75.0334 463.793 74.9979C463.998 74.935 464.14 74.9015 464.218 74.8974C464.296 74.8933 464.337 74.9303 464.341 75.0083L465.004 74.9735C466.123 74.9149 467.222 75.0007 468.304 75.2309L471.547 75.9215C472.008 76.2624 472.469 76.5903 472.929 76.9052C473.389 77.2201 473.898 77.4933 474.458 77.7247C474.61 78.134 474.823 78.4619 475.096 78.7083C475.395 78.9273 475.72 79.1711 476.074 79.4394C476.221 79.7707 476.409 80.1259 476.638 80.5051C476.891 80.8569 477.132 81.2224 477.36 81.6016C477.589 81.9808 477.791 82.3613 477.968 82.7432C478.143 83.0991 478.239 83.4461 478.257 83.7842ZM474.66 84.5595C474.342 83.9763 474.037 83.3665 473.743 82.73C473.448 82.0934 473.093 81.5253 472.675 81.0257C472.2 80.9202 471.711 80.7894 471.207 80.6332C470.728 80.4497 470.385 80.1156 470.177 79.6311C470.126 79.6598 470.036 79.6776 469.906 79.6844C469.672 79.6967 469.459 79.6165 469.268 79.444C469.076 79.2715 468.862 79.1654 468.625 79.1257C468.416 79.1106 468.128 79.0866 467.761 79.0536C467.42 79.0193 467.054 78.9994 466.662 78.9938C466.271 78.9883 465.879 78.9827 465.488 78.9771C465.123 78.9702 464.836 78.9722 464.628 78.9831C464.42 78.994 464.199 79.0186 463.967 79.0569C463.759 79.0678 463.538 79.0924 463.306 79.1306C463.097 79.1415 462.969 79.1874 462.922 79.2681C462.872 79.3229 462.771 79.3803 462.618 79.4405C462.485 79.3953 462.341 79.3768 462.184 79.385L461.716 79.4095C461.17 79.4381 460.629 79.5578 460.092 79.7684C459.58 79.9517 459.072 80.2 458.567 80.5134L458.575 80.6694C458.586 80.8774 458.683 80.9897 458.866 81.0062C459.05 81.0226 459.159 81.1212 459.195 81.3019C459.065 81.3087 458.961 81.3272 458.885 81.3572C458.807 81.3613 458.772 81.4544 458.782 81.6364C458.796 81.8965 458.837 82.1812 458.905 82.4906C458.999 82.7985 459.055 83.1086 459.071 83.4206C459.083 83.6547 459.072 83.9291 459.036 84.2439C459 84.5587 458.883 84.8126 458.685 85.0055C458.957 85.2259 459.103 85.5312 459.124 85.9213C459.138 86.1814 459.1 86.4571 459.011 86.7487C458.922 87.0402 458.805 87.2941 458.66 87.5103C458.665 88.6053 458.619 89.716 458.521 90.8424C458.424 91.9688 458.404 93.0782 458.461 94.1704C458.49 94.7165 458.544 95.2483 458.623 95.7657C458.728 96.2817 458.872 96.7957 459.056 97.3077C459.357 97.5787 459.667 97.7841 459.988 97.9238C460.334 98.0621 460.693 98.1997 461.065 98.3367L461.072 98.4537C461.076 98.5317 461.028 98.6125 460.928 98.696C460.828 98.7794 460.781 98.8862 460.788 99.0162C460.794 99.1202 460.848 99.1695 460.952 99.1641C462.028 98.7948 463.036 98.3638 463.975 97.8713C464.914 97.3788 465.78 96.7336 466.572 95.9358C466.646 95.8537 466.722 95.8106 466.8 95.8065C466.852 95.8038 466.918 95.8134 466.997 95.8353C467.103 95.8559 467.195 95.8771 467.274 95.899L467.227 95.745C467.219 95.589 467.251 95.4439 467.322 95.3098C467.419 95.1743 467.53 95.0512 467.655 94.9403L468.026 94.5688C468.149 94.432 468.247 94.2965 468.318 94.1624C468.523 94.0994 468.661 93.9879 468.731 93.8278C468.826 93.6663 468.991 93.5794 469.225 93.5672C469.262 93.2784 469.395 93.0628 469.622 92.9205C469.848 92.7522 469.979 92.5237 470.016 92.2349C470.521 91.9216 470.958 91.5466 471.326 91.1101C471.721 90.6722 472.074 90.2103 472.388 89.7245C472.728 89.2373 473.04 88.7385 473.327 88.228C473.611 87.6915 473.911 87.1804 474.224 86.6946L474.216 86.5385C474.194 86.1224 474.241 85.781 474.358 85.5141C474.5 85.2458 474.601 84.9276 474.66 84.5595Z" fill="#3C4043"/>
</svg>
