<svg width="23" height="23" viewBox="0 0 23 23" fill="none" xmlns="http://www.w3.org/2000/svg">
<path d="M16.9808 6.7923C17.606 6.7923 18.1128 6.28547 18.1128 5.66025C18.1128 5.03504 17.606 4.5282 16.9808 4.5282C16.3555 4.5282 15.8487 5.03504 15.8487 5.66025C15.8487 6.28547 16.3555 6.7923 16.9808 6.7923Z" fill="#3C4043"/>
<path d="M11.3205 5.66025C8.22669 5.66025 5.66025 8.17983 5.66025 11.3205C5.66025 14.4612 8.17982 16.9808 11.3205 16.9808C14.4143 16.9808 16.9807 14.4612 16.9807 11.3205C16.9924 8.17983 14.426 5.66025 11.3205 5.66025ZM11.3205 14.9182C9.32827 14.9182 7.68762 13.2776 7.68762 11.2854C7.68762 9.29313 9.32827 7.65248 11.3205 7.65248C13.3127 7.65248 14.9533 9.29313 14.9533 11.2854C14.9533 13.2776 13.3127 14.9182 11.3205 14.9182Z" fill="#3C4043"/>
<path d="M15.8372 0H6.80386C3.04961 0 0 3.05584 0 6.81777V15.8232C0 19.5852 3.04961 22.641 6.80386 22.641H15.8372C19.5914 22.641 22.641 19.6199 22.641 15.8695V6.81777C22.641 3.05584 19.5914 0 15.8372 0ZM20.504 15.8695C20.504 18.4508 18.4132 20.5459 15.8372 20.5459H6.80386C4.22786 20.5459 2.13703 18.4508 2.13703 15.8695V6.81777C2.13703 4.23651 4.22786 2.1414 6.80386 2.1414H15.8372C18.4132 2.1414 20.504 4.23651 20.504 6.81777V15.8695Z" fill="#3C4043"/>
</svg>
