<svg width="19" height="18" viewBox="0 0 19 18" fill="none" xmlns="http://www.w3.org/2000/svg">
<path d="M13.25 16.5H4.25C3.65326 16.5 3.08097 16.263 2.65901 15.841C2.23705 15.4191 2 14.8468 2 14.25V6.75003C2 6.1533 2.23705 5.581 2.65901 5.15904C3.08097 4.73709 3.65326 4.50004 4.25 4.50004H5C5.01261 3.86451 5.22676 3.24942 5.61156 2.74348C5.99636 2.23754 6.53191 1.8669 7.14098 1.68501C7.75005 1.50312 8.40115 1.5194 9.00037 1.73148C9.59959 1.94357 10.116 2.3405 10.475 2.86504C10.8113 3.3444 10.9944 3.91448 11 4.50004H13.25C13.4489 4.50004 13.6397 4.57905 13.7803 4.71971C13.921 4.86036 14 5.05112 14 5.25003V7.50003C14.6355 7.51265 15.2506 7.7268 15.7566 8.1116C16.2625 8.49639 16.6331 9.03195 16.815 9.64101C16.9969 10.2501 16.9806 10.9012 16.7686 11.5004C16.5565 12.0996 16.1595 12.616 15.635 12.975C15.1556 13.3114 14.5856 13.4944 14 13.5V15.75C14 15.9489 13.921 16.1397 13.7803 16.2804C13.6397 16.421 13.4489 16.5 13.25 16.5ZM4.25 6.00003C4.05109 6.00003 3.86032 6.07905 3.71967 6.21971C3.57902 6.36036 3.5 6.55112 3.5 6.75003V14.25C3.5 14.4489 3.57902 14.6397 3.71967 14.7804C3.86032 14.921 4.05109 15 4.25 15H12.5V12.615C12.4994 12.4948 12.5276 12.3761 12.5825 12.2691C12.6373 12.1621 12.717 12.0698 12.815 12C12.9127 11.9304 13.0256 11.8852 13.1444 11.8682C13.2631 11.8513 13.3842 11.863 13.4975 11.9025C13.7112 11.9897 13.944 12.0197 14.1729 11.9894C14.4017 11.9592 14.6188 11.8698 14.8025 11.73C14.9854 11.6185 15.1423 11.4691 15.2626 11.2919C15.3829 11.1146 15.4638 10.9137 15.5 10.7025C15.5289 10.4896 15.5117 10.2729 15.4496 10.0671C15.3875 9.86141 15.2819 9.67141 15.14 9.51004C14.948 9.27687 14.6866 9.11111 14.3939 9.03691C14.1011 8.9627 13.7923 8.98395 13.5125 9.09754C13.3992 9.13705 13.2781 9.14882 13.1594 9.13186C13.0406 9.11489 12.9277 9.06968 12.83 9.00004C12.732 8.93029 12.6523 8.83801 12.5975 8.73097C12.5426 8.62394 12.5144 8.50529 12.515 8.38504V6.00003H10.115C9.99174 6.00702 9.86866 5.98347 9.75668 5.93147C9.64471 5.87947 9.5473 5.80064 9.4731 5.70196C9.39891 5.60328 9.35022 5.48781 9.33137 5.3658C9.31251 5.24379 9.32406 5.11901 9.365 5.00253C9.45219 4.78879 9.48215 4.556 9.45189 4.32715C9.42164 4.09829 9.33224 3.88128 9.1925 3.69754C9.08176 3.50941 8.93012 3.34861 8.7488 3.22706C8.56747 3.1055 8.36113 3.0263 8.14504 2.99533C7.92895 2.96436 7.70866 2.9824 7.50049 3.04813C7.29233 3.11386 7.10162 3.22559 6.9425 3.37504C6.79473 3.5216 6.67908 3.6973 6.6029 3.89098C6.52672 4.08466 6.49167 4.29208 6.5 4.50004C6.50174 4.67206 6.53478 4.84234 6.5975 5.00253C6.63715 5.11595 6.64897 5.23723 6.63197 5.35616C6.61497 5.4751 6.56965 5.58821 6.49982 5.68598C6.42999 5.78374 6.33769 5.8633 6.23069 5.91795C6.1237 5.97261 6.00514 6.00076 5.885 6.00003H4.25Z" fill="white"/>
</svg>
