<svg width="185" height="120" viewBox="0 0 185 120" fill="none" xmlns="http://www.w3.org/2000/svg">
<path d="M11.0762 23.336C12.3692 23.5783 13.6601 23.8185 14.9489 24.0191C16.2398 24.2112 17.5829 24.1152 18.8946 24.1152C21.6748 24.1632 24.4007 23.971 27.1788 23.8687C32.6848 23.6264 38.2369 23.4321 43.791 23.1919C54.801 22.7031 65.8633 22.2123 76.9214 21.7298C99.0376 20.7501 121.106 19.7308 143.226 18.7553C155.746 18.1705 168.267 17.5835 180.787 17.0529C180.202 16.3219 179.669 15.5908 179.082 14.8117C174.746 31.2777 175.331 48.4267 177.083 65.183C177.961 73.7094 179.082 82.2359 180.058 90.7143C180.25 92.8094 180.499 94.9065 180.691 96.9995C180.885 98.8042 181.23 100.751 180.983 102.552C180.789 104.212 179.767 104.793 178.209 105.039C176.112 105.378 173.969 105.428 171.924 105.62C154.238 107.13 136.6 108.542 118.919 109.764C101.185 110.932 83.4008 111.951 65.6168 112.778C47.8809 113.66 30.0551 114.291 12.2961 114.779C10.1279 114.825 7.9347 114.923 5.76444 114.972C3.23282 115.02 3.23282 118.967 5.76444 118.869C23.868 118.435 41.9403 117.8 60.0627 116.922C78.089 116.095 96.0652 115.122 114.089 113.902C132.168 112.682 150.242 111.272 168.269 109.714C170.51 109.513 172.801 109.321 175.043 109.079C176.939 108.935 178.988 108.885 180.789 108.202C184.639 106.692 184.881 102.844 184.588 99.2826C183.761 90.66 182.637 82.1336 181.616 73.5612C179.569 56.5082 177.862 39.0688 181.031 22.066C181.424 19.9229 181.906 17.83 182.445 15.7809C182.74 14.7114 181.906 13.4894 180.789 13.5396C158.673 14.6153 136.55 15.6367 114.484 16.7062C92.3659 17.7819 70.2456 18.8514 48.1775 19.9229C41.8923 20.2175 35.6092 20.5558 29.372 20.9005C26.3036 21.0948 23.2352 21.1908 20.1145 21.383C18.5563 21.5292 16.998 21.6796 15.4857 21.8718C14.0006 22.066 12.5133 22.6509 11.0762 23.0394C10.9321 23.0896 10.9321 23.2859 11.0762 23.336Z" fill="#3C4043"/>
<path d="M12.611 24.942C13.5134 24.6454 14.4178 24.3571 15.3432 24.1148C15.9781 23.8683 15.9009 22.7968 15.174 22.8469C11.9551 23.0892 8.74047 23.4318 5.54879 23.8203C5.06628 23.8683 4.60049 24.1169 4.47934 24.5994C3.70022 27.6699 3.35557 30.8345 2.96706 34.0032C2.57436 37.0236 2.213 40.0941 1.92266 43.1145C1.33571 49.4457 0.894959 55.7308 0.579551 62.064C-0.0784203 74.6846 -0.174501 87.2549 0.282945 99.8712C0.410362 103.328 0.579541 106.741 0.77171 110.198C0.89286 111.951 0.988966 113.71 1.13936 115.462C1.1874 116.339 1.1644 117.263 1.35657 118.092C1.52576 118.969 1.96651 119.41 2.69968 119.897C3.03806 120.091 3.50385 119.995 3.79211 119.748C4.95975 118.629 4.76548 117.457 4.6694 115.953C4.54616 114.292 4.42712 112.588 4.33104 110.934C4.15558 107.863 4.01143 104.843 3.89028 101.772C3.62291 95.537 3.52685 89.2518 3.50178 83.0167C3.47672 70.6406 3.96129 58.3209 4.93467 45.9929C5.20622 42.4816 5.49867 38.9766 5.81617 35.4173C6.13158 31.9603 6.62034 28.4491 6.66838 24.9441C6.39684 25.2824 6.1065 25.6271 5.84122 26.0135C9.03082 25.4287 12.1995 24.7999 15.3411 24.1169C15.1719 23.7242 15.0215 23.3378 14.8523 22.9451C14.0021 23.3378 13.1248 23.7242 12.2726 24.1169C11.8068 24.3091 12.1264 25.0882 12.611 24.942Z" fill="#3C4043"/>
<path d="M20.4067 31.4669C18.8464 31.0784 16.9978 30.3494 15.3414 30.3974C15.3414 31.2726 15.3414 32.1499 15.3414 32.9771C35.5108 32.3421 55.6279 31.6131 75.7493 30.8319C95.7266 30.1008 115.704 29.3217 135.673 28.5425C147.027 28.106 158.376 27.6172 169.779 27.1828C169.29 26.5478 168.803 25.9148 168.316 25.2799C165.588 44.7662 165.639 64.5513 168.511 83.9876C169.338 89.5417 170.412 95.0937 171.677 100.552C172.262 99.8207 172.801 99.1376 173.334 98.4086C151.899 100.36 130.461 101.864 108.978 103.083C87.5385 104.257 66.0093 105.084 44.5699 105.519C32.3943 105.765 20.3085 105.864 8.18094 105.912C8.7846 106.49 9.41962 107.125 10.0295 107.76C8.90786 88.1756 9.12928 68.5451 10.5434 49.0086C10.9319 43.4043 11.4917 37.8001 11.9283 32.1979C12.0766 30.3974 8.98514 29.9065 8.71359 31.7614C7.22637 41.5035 6.4723 51.394 6.01068 61.2322C5.54488 71.1227 5.42584 81.0152 5.61801 90.9015C5.73916 96.5078 5.98563 102.158 6.30104 107.758C6.34699 108.779 7.10523 109.609 8.17887 109.609C29.6601 109.609 51.1955 109.22 72.6788 108.393C94.1641 107.614 115.599 106.442 137.087 104.882C149.164 104.007 161.25 102.935 173.332 101.765C174.453 101.667 175.235 100.792 174.942 99.6264C170.508 80.9651 168.755 61.673 169.728 42.4769C170.019 36.9708 170.508 31.5149 171.239 26.059C171.337 25.1838 170.846 24.1122 169.779 24.1623C149.655 24.9895 129.486 25.6725 109.364 26.4997C89.3913 27.2788 69.4161 28.1081 49.4409 28.8872C38.0904 29.376 26.7378 29.8606 15.3414 30.3995C13.6849 30.4475 13.6599 33.0753 15.3414 32.9792C16.9978 32.9311 18.8464 32.1019 20.4067 31.6152C20.5028 31.6152 20.5028 31.4669 20.4067 31.4669Z" fill="#3C4043"/>
<path d="M23.5482 50.673C25.7414 48.7763 28.0788 47.0698 30.5624 45.5617C31.6862 44.9267 32.8538 44.2436 34.0736 43.6588C35.2935 43.028 36.6533 42.4912 37.729 41.6139C37.2883 41.3193 36.8517 41.077 36.411 40.8347C35.776 42.6353 34.3159 44.534 33.1003 45.9961C32.8037 46.4369 33.1963 46.9257 33.6809 46.7293C35.5818 45.9021 37.4805 45.0249 39.3834 44.0995C41.0377 43.2222 43.1348 42.4911 44.4946 41.1752C44.9354 40.7888 44.4946 40.1559 43.962 40.3C42.1071 40.6426 40.3066 41.9564 38.6022 42.8316C36.7473 43.8113 34.9948 44.8306 33.1943 45.9502C33.4366 46.1486 33.6308 46.3429 33.8292 46.5351C34.9008 44.8787 36.2167 42.8316 37.7269 41.6159C38.2596 41.1752 37.823 40.1559 37.1421 40.252C34.3619 40.4943 31.5399 42.3491 29.2506 43.8113C26.767 45.4197 24.4276 47.2661 22.2364 49.3153C21.3591 50.1403 22.6709 51.4521 23.5482 50.673Z" fill="#3C4043"/>
<path d="M8.25383 87.1584C11.7108 88.7668 15.1197 86.4253 17.9709 84.5224C21.3297 82.185 24.6968 79.7975 28.0076 77.3619C34.6353 72.5389 41.1628 67.5195 47.496 62.3101C51.1034 59.2897 54.7045 56.2192 58.3118 53.1006C57.727 53.1006 57.092 53.1006 56.4612 53.1006C59.6299 56.9983 62.598 60.9921 65.9109 64.7456C69.0796 68.4971 72.3903 72.1003 75.9434 75.4653C82.7675 81.9427 90.4167 87.5428 99.1374 91.1982C103.91 93.193 108.93 94.511 114.145 95.0478C116.334 95.2421 116.334 91.7851 114.145 91.5386C95.6324 89.7381 80.7246 76.9735 68.8811 63.6219C65.278 59.578 61.7208 55.486 58.3118 51.3001C57.8231 50.7152 56.9479 50.8593 56.4612 51.3001C44.8182 61.7231 32.5862 71.5196 19.9218 80.6268C16.6048 83.0143 12.7803 86.5234 8.44809 86.4253C8.0554 86.3772 7.8862 86.9579 8.25383 87.1584Z" fill="#3C4043"/>
<path d="M96.4575 85.0615C97.7191 85.5503 98.9411 84.9634 100.161 84.4266C101.473 83.8877 102.791 83.309 104.057 82.674C106.59 81.356 108.976 79.6996 111.315 78.0933C115.992 74.7826 120.38 71.1752 124.713 67.5199C129.147 63.8686 133.577 60.1652 138.405 56.9986C139.522 56.2675 140.888 55.3422 142.254 55.6346C143.566 55.8811 144.54 56.9986 145.469 57.8759C147.658 59.9709 150.002 61.9658 152.437 63.8206C157.743 67.8144 163.882 71.5679 170.215 73.6108C171.876 74.1497 172.995 71.5679 171.389 70.8369C168.513 69.4729 165.593 68.253 162.764 66.6948C160.13 65.2368 157.551 63.5762 155.065 61.7757C152.583 59.9751 150.242 58.0242 148.051 55.8853C145.908 53.8383 143.714 51.8372 140.5 52.4701C137.628 53.057 134.994 55.3463 132.704 57.0028C130.317 58.7553 128.028 60.56 125.784 62.4107C121.155 66.1642 116.727 70.158 112 73.7612C109.416 75.7121 106.787 77.5607 104.059 79.2171C102.645 80.0443 101.281 80.8777 99.8184 81.6568C98.5567 82.3879 96.798 82.9184 96.163 84.3326C96.0189 84.6689 96.1128 84.9153 96.4575 85.0615Z" fill="#3C4043"/>
<path d="M82.5255 79.0181C82.5255 79.0181 81.6983 79.8933 82.5255 79.2646C82.7197 79.1142 82.914 78.9199 83.1103 78.7758C83.643 78.287 84.2279 77.8024 84.8148 77.3617C85.9825 76.4385 87.2503 75.6093 88.5161 74.8301C90.9997 73.2698 93.6295 72.098 96.5058 71.5653C99.0374 71.1246 101.671 71.2687 104.155 72.0479C105.371 72.4406 106.542 72.9732 107.612 73.7043C108.734 74.3873 109.513 75.4129 110.534 76.192C111.798 77.2134 113.653 75.9936 112.826 74.4333C111.998 72.7789 110.144 71.5152 108.585 70.6337C106.929 69.7105 105.078 69.0254 103.232 68.687C99.2317 67.9559 95.2379 68.5428 91.5323 70.1011C89.6357 70.8802 87.7851 71.8536 86.1788 73.1214C84.5704 74.3371 82.7177 75.7512 81.6002 77.4077C81.2075 77.9445 80.867 78.7236 81.4059 79.3085C81.55 79.5508 82.0346 79.7931 82.3292 79.697C82.7177 79.651 83.1082 79.0161 82.6194 78.8698C82.5255 78.8239 82.4754 78.9701 82.5255 79.0181Z" fill="#3C4043"/>
<path d="M73.5075 60.5549C73.073 61.2338 73.1211 61.7706 73.708 62.063C73.9023 62.3095 74.1425 62.5038 74.3848 62.744C74.7294 63.0886 75.0678 63.427 75.4104 63.7696C76.1436 64.5027 76.8725 65.2317 77.6036 65.9586C79.1639 67.4709 80.7222 68.979 82.2804 70.4913C83.1076 71.2704 85.1045 73.6579 86.4685 72.6344C87.8346 71.661 85.8335 69.6621 85.1525 68.979C82.082 66.1571 79.0135 63.2808 75.895 60.5549C74.8736 59.6275 73.0709 58.5079 72.0495 60.0682C71.3665 61.0416 71.9471 62.5998 73.2652 62.5497C74.3367 62.5038 74.6814 60.7972 73.5075 60.5549Z" fill="#3C4043"/>
<path d="M84.8626 64.3046C85.5456 65.4764 86.2287 66.5939 86.9096 67.7658C87.4903 68.7851 88.0292 69.959 89.0987 70.5877C89.7337 70.9324 90.6569 70.4917 90.611 69.7125C90.563 68.4488 89.8318 67.4713 89.201 66.3997C88.4699 65.2822 87.7869 64.1584 87.0579 63.0409C86.2287 61.6748 84.0835 62.8884 84.8626 64.3046Z" fill="#3C4043"/>
<path d="M91.8306 51.3005C92.3674 54.1246 92.8521 56.9027 92.9983 59.7748C93.0464 61.1388 93.0463 62.507 92.9502 63.8709C92.9022 65.1326 92.3215 66.8433 92.8542 68.059C93.1487 68.79 94.2182 69.377 94.8532 68.5979C95.7764 67.4741 95.7304 65.9618 95.8265 64.554C95.9706 62.9456 95.9706 61.3331 95.8745 59.7748C95.6803 56.7105 95.1915 53.5398 94.074 50.6677C93.533 49.3016 91.534 49.7903 91.8306 51.3005Z" fill="#3C4043"/>
<path d="M101.619 58.0674C99.5279 60.7996 97.8715 64.1584 98.0156 67.6696C98.0636 69.1819 100.549 69.7145 100.79 68.0581C101.278 65.0377 101.865 62.1656 103.424 59.4857C104.109 58.4121 102.448 57.0481 101.619 58.0674Z" fill="#3C4043"/>
<path d="M113.071 52.4196C111.511 55.1496 109.903 57.8755 108.246 60.5032C107.419 61.8213 106.544 63.0892 105.667 64.3048C104.839 65.4767 103.377 66.8406 103.131 68.2506C102.888 69.3744 103.91 70.1535 104.936 69.6647C106.197 69.0297 107.125 67.2772 107.908 66.1597C108.833 64.7456 109.708 63.3315 110.586 61.8693C112.242 59.0452 113.656 56.2191 114.822 53.1486C115.214 52.1272 113.606 51.4922 113.071 52.4196Z" fill="#3C4043"/>
<path d="M126.515 49.7397C123.157 53.0985 119.988 56.6056 116.871 60.2129C113.851 63.7701 110.586 67.3253 108.151 71.3191C107.908 71.7598 107.957 72.2423 108.151 72.635C109.414 74.8762 111.802 71.0266 112.533 70.1034C114.194 67.9101 115.85 65.7649 117.552 63.5717C120.865 59.2876 124.274 55.0933 127.637 50.8572C128.272 50.0802 127.247 49.0107 126.515 49.7397Z" fill="#3C4043"/>
<path d="M114.726 94.8003C119.796 96.0682 124.909 97.1398 130.075 98.2155C132.608 98.7481 135.14 99.2369 137.678 99.7737C140.113 100.256 142.935 101.236 145.423 100.941C146.495 100.797 147.127 99.4291 146.004 98.8024C143.865 97.5826 141.087 97.3883 138.699 96.9476C136.069 96.415 133.435 95.9262 130.854 95.4353C125.64 94.4139 120.529 93.4405 115.313 92.7094C113.947 92.511 113.312 94.4619 114.726 94.8003Z" fill="#3C4043"/>
<path d="M11.0278 94.2693C16.9976 91.7878 23.0405 95.0964 28.3001 97.7763C30.934 99.1403 33.6578 100.458 36.5842 101.139C39.7007 101.866 42.8673 101.918 46.034 101.866C52.6617 101.672 59.2853 101.288 65.913 101.334C72.5846 101.382 79.3106 101.672 85.9822 102.161C93.4371 102.746 100.792 103.913 108.247 104.692C109.613 104.839 109.903 102.597 108.587 102.355C101.964 100.941 95.0935 100.36 88.3195 99.7753C81.5999 99.2385 74.8259 98.898 68.054 98.8521C61.3323 98.7497 54.6064 98.9962 47.8826 99.3847C44.5718 99.533 41.1629 99.6813 37.8521 99.0923C34.7336 98.5074 31.8573 97.1413 28.981 95.7335C23.3308 92.9053 16.7031 89.8848 10.4179 92.8572C9.63875 93.1935 10.2007 94.6077 11.0278 94.2693Z" fill="#3C4043"/>
<path d="M9.30036 99.5797C10.9798 98.0674 12.8116 96.7034 14.7563 95.5316C16.3145 94.6062 18.7501 93.9232 19.8216 92.413C20.0201 92.2188 19.8216 91.7843 19.5793 91.7363C17.5845 91.4397 15.2931 93.1462 13.7098 94.1718C11.7589 95.4334 9.93326 96.8977 8.25386 98.5039C7.54785 99.187 8.59226 100.211 9.30036 99.5797Z" fill="#3C4043"/>
<path d="M75.8974 20.3147C80.5722 18.2677 84.1816 14.5621 87.3963 10.6164C90.0783 7.30355 92.9984 3.40587 97.481 2.57871C97.0444 2.4325 96.6538 2.33642 96.2131 2.23825C98.5045 5.11034 100.746 8.03465 102.985 11.007C104.061 12.371 105.13 13.7851 106.2 15.1449C106.738 15.828 107.323 16.511 107.856 17.2421C108.153 17.5805 108.441 18.0692 108.786 18.3595C109.124 18.7042 109.613 18.8985 110.001 19.2369C110.924 20.0682 112.389 18.9946 111.754 17.8269C111.511 17.4342 111.415 16.9517 111.173 16.511C110.975 16.1183 110.636 15.7298 110.346 15.4394C109.809 14.7083 109.27 14.0253 108.685 13.3423C107.518 11.8801 106.352 10.42 105.18 9.00593C102.793 6.13383 100.405 3.25757 98.0679 0.381294C97.7713 -0.00722245 97.2407 -0.0531813 96.8 0.0429033C92.1232 0.96824 89.0067 4.67169 86.2307 8.22473C84.6704 10.1778 83.1602 12.1224 81.3555 13.8812C79.3607 15.7778 77.1653 17.4342 75.0222 19.1387C74.289 19.7277 75.2186 20.6029 75.8974 20.3147Z" fill="#3C4043"/>
<path d="M83.1096 5.30846C81.6475 4.4813 80.3796 6.37999 80.9665 7.69594C81.9879 9.93721 85.4971 8.76748 87.2517 8.52309C90.2721 8.0364 93.3405 7.59987 96.3609 7.109C97.9213 6.8667 99.4795 6.62022 101.038 6.47401C102.5 6.32988 104.058 6.32987 105.13 5.15806C105.566 4.67345 105.518 3.8442 104.935 3.50164C103.081 2.52826 101.136 3.54968 99.233 3.94237C97.2863 4.33089 95.2393 4.62541 93.2925 4.96379C91.2914 5.30636 89.2987 5.69487 87.3457 6.03952C86.3723 6.23378 85.4491 6.42805 84.4694 6.57217C84.0809 6.66826 83.7384 6.71631 83.3519 6.76644C83.0135 6.76644 82.7671 6.66825 82.5728 6.62021C83.352 6.82073 83.7927 5.74502 83.1096 5.30846Z" fill="#3C4043"/>
</svg>
