<svg width="162" height="188" viewBox="0 0 162 188" fill="none" xmlns="http://www.w3.org/2000/svg">
<path d="M159.786 3.08868C160.6 2.93348 161.134 2.14798 160.979 1.33422C160.824 0.520461 160.038 -0.0134071 159.224 0.141792L159.786 3.08868ZM7.51187 186.289C7.93627 187 8.85706 187.233 9.56853 186.808L21.1625 179.893C21.8739 179.468 22.1066 178.547 21.6822 177.836C21.2578 177.124 20.3371 176.892 19.6256 177.316L9.31986 183.464L3.17235 173.158C2.74794 172.446 1.82715 172.214 1.11568 172.638C0.404223 173.063 0.171509 173.983 0.595915 174.695L7.51187 186.289ZM159.505 1.61523C159.224 0.141792 159.223 0.14206 159.221 0.142409C159.22 0.142633 159.218 0.143064 159.215 0.143513C159.211 0.144413 159.204 0.145641 159.196 0.147204C159.181 0.150331 159.158 0.154801 159.129 0.160671C159.071 0.172411 158.987 0.189753 158.877 0.213162C158.658 0.259979 158.336 0.331064 157.919 0.430131C157.084 0.628262 155.864 0.938345 154.303 1.39011C151.18 2.29359 146.689 3.76398 141.179 6.03923C130.159 10.5897 115.06 18.3608 98.675 31.2564C65.8841 57.0634 28.0256 103.327 7.34581 185.153L10.2544 185.888C30.7745 104.693 68.2687 59.0043 100.53 33.6139C116.671 20.9107 131.524 13.2719 142.324 8.81211C147.724 6.58222 152.11 5.14739 155.136 4.27195C156.65 3.83424 157.822 3.53643 158.612 3.34903C159.007 3.25533 159.306 3.18924 159.503 3.14708C159.602 3.126 159.675 3.1109 159.723 3.10132C159.746 3.09653 159.764 3.09312 159.774 3.09103C159.78 3.08998 159.783 3.08927 159.785 3.08888C159.786 3.08869 159.787 3.08864 159.787 3.08854C159.787 3.08857 159.786 3.08868 159.505 1.61523Z" fill="#E26559"/>
</svg>
