<svg width="73" height="276" viewBox="0 0 73 276" fill="none" xmlns="http://www.w3.org/2000/svg">
<path d="M31.361 3.01294C30.8015 2.40194 30.8433 1.45311 31.4543 0.893679C32.0653 0.334246 33.0142 0.376053 33.5736 0.987057L31.361 3.01294ZM3.30342 275.379C2.47793 275.449 1.75225 274.836 1.68257 274.011L0.547057 260.559C0.477375 259.733 1.09008 259.007 1.91557 258.938C2.74106 258.868 3.46674 259.481 3.53643 260.306L4.54577 272.264L16.5032 271.254C17.3287 271.185 18.0544 271.797 18.1241 272.623C18.1938 273.448 17.5811 274.174 16.7556 274.244L3.30342 275.379ZM32.4673 2C33.5736 0.987057 33.5747 0.988211 33.5761 0.989799C33.5771 0.990908 33.579 0.992933 33.581 0.99515C33.585 0.999585 33.5906 1.00576 33.5978 1.01366C33.6121 1.02947 33.6327 1.05222 33.6592 1.08185C33.7124 1.14113 33.7897 1.22801 33.8898 1.34221C34.0901 1.57061 34.3819 1.90835 34.7546 2.35331C35.5001 3.24321 36.5697 4.56215 37.8796 6.29321C40.4992 9.75501 44.0816 14.8669 47.9561 21.4933C55.7039 34.744 64.6293 54.0671 69.3494 78.3722C78.8035 127.054 71.3378 195.481 4.32337 274.852L2.03114 272.917C68.4957 194.197 75.675 126.682 66.4044 78.9442C61.7621 55.0396 52.9827 36.0336 45.3663 23.0076C41.5587 16.4956 38.0441 11.4823 35.4873 8.10348C34.209 6.41422 33.1705 5.13399 32.4549 4.27979C32.0972 3.85271 31.8202 3.53217 31.6344 3.32031C31.5415 3.21438 31.4714 3.13562 31.4254 3.0843C31.4024 3.05865 31.3854 3.03985 31.3746 3.02794C31.3692 3.02199 31.3654 3.01776 31.3631 3.01526C31.3619 3.01401 31.3614 3.01343 31.3608 3.0128C31.3607 3.01266 31.361 3.01294 32.4673 2Z" fill="#E26559"/>
</svg>
