<svg width="822" height="201" viewBox="0 0 822 201" fill="none" xmlns="http://www.w3.org/2000/svg">
<path d="M377.7 129.5C376.7 129.5 375.7 128.9 375.2 128L361.6 102.1H361H345.2C343.6 102.1 342.4 103.4 342.4 104.9V126.6C342.4 128.2 341.1 129.4 339.6 129.4H319.4C317.8 129.4 316.6 128.1 316.6 126.6V33.3C316.6 31.7 317.9 30.5 319.4 30.5H361C374.1 30.5 384.2 33.5 391.4 39.6C398.6 45.7 402.2 54.2 402.2 65.2C402.2 72.6 400.7 79.1 397.7 84.5C395.1 89.1 391.6 92.8 387.1 95.7C385.8 96.5 385.3 98.3 386.2 99.6L402.5 125.1C403.7 127 402.3 129.4 400.1 129.4H377.7V129.5ZM342.4 78.7C342.4 80.3 343.7 81.5 345.2 81.5H361.2C366.5 81.5 370.5 80.2 373.4 77.5C376.3 74.9 377.7 71.1 377.7 66.1C377.7 61.3 376.3 57.6 373.4 55C370.5 52.4 366.5 51.1 361.2 51.1H345.2C343.6 51.1 342.4 52.4 342.4 53.9V78.7Z" fill="white"/>
<path d="M423 53.2H442.3C443.9 53.2 445.1 54.5 445.1 56V126.7C445.1 128.3 443.8 129.5 442.3 129.5H423C421.4 129.5 420.2 128.2 420.2 126.7V56C420.2 54.4 421.5 53.2 423 53.2Z" fill="white"/>
<path d="M542.8 27.6V126.7C542.8 128.3 541.5 129.5 540 129.5H520.5C518.9 129.5 517.7 128.2 517.7 126.7C517.7 124.3 514.9 123 513.1 124.5C511.6 125.8 509.9 126.8 508.1 127.7C504.3 129.5 500 130.5 495.2 130.5C488.1 130.5 481.9 128.9 476.6 125.6C471.2 122.3 467.1 117.7 464.1 111.7C461.1 105.7 459.7 98.8 459.7 91C459.7 83.3 461.2 76.5 464.1 70.7C467 64.9 471.1 60.4 476.4 57.2C481.7 54 487.8 52.3999 494.7 52.3999C499.6 52.3999 504 53.2999 507.9 55.1999C509.8 56.0999 511.6 57.3 513.3 58.6C515.1 60.1 517.9 58.7999 517.9 56.3999V27.6999C517.9 26.0999 519.2 24.8999 520.7 24.8999H540C541.6 24.7999 542.8 26.1 542.8 27.6ZM513.2 105.4C516.2 101.9 517.7 97.3 517.7 91.6C517.7 85.9 516.2 81.2999 513.2 77.7999C510.2 74.2999 506.2 72.6 501.3 72.6C496.4 72.6 492.4 74.3999 489.4 77.8999C486.3 81.3999 484.8 86 484.8 91.7C484.8 97.3 486.3 101.9 489.4 105.5C492.5 109 496.4 110.8 501.3 110.8C506.2 110.7 510.2 109 513.2 105.4Z" fill="white"/>
<path d="M641.2 27.6V126.7C641.2 128.3 639.9 129.5 638.4 129.5H618.9C617.3 129.5 616.1 128.2 616.1 126.7C616.1 124.3 613.3 123 611.5 124.5C610 125.8 608.3 126.8 606.5 127.7C602.7 129.5 598.4 130.5 593.6 130.5C586.5 130.5 580.3 128.9 575 125.6C569.6 122.3 565.5 117.7 562.5 111.7C559.5 105.7 558.1 98.8 558.1 91C558.1 83.3 559.6 76.5 562.5 70.7C565.4 64.9 569.5 60.4 574.8 57.2C580.1 54 586.2 52.3999 593.1 52.3999C598 52.3999 602.4 53.2999 606.3 55.1999C608.2 56.0999 610 57.3 611.7 58.6C613.5 60.1 616.3 58.7999 616.3 56.3999V27.6999C616.3 26.0999 617.6 24.8999 619.1 24.8999H638.6C639.9 24.7999 641.2 26.1 641.2 27.6ZM611.6 105.4C614.6 101.9 616.1 97.3 616.1 91.6C616.1 85.9 614.6 81.2999 611.6 77.7999C608.6 74.2999 604.6 72.6 599.7 72.6C594.8 72.6 590.8 74.3999 587.8 77.8999C584.7 81.3999 583.2 86 583.2 91.7C583.2 97.3 584.7 101.9 587.8 105.5C590.9 109 594.8 110.8 599.7 110.8C604.6 110.7 608.6 109 611.6 105.4Z" fill="white"/>
<path d="M724.8 63.2999C731.5 70.5999 734.8 80.6999 734.8 93.4999C734.8 94.0999 734.8 94.6999 734.8 95.1999C734.8 96.6999 733.5 97.9999 732 97.9999H685.7C683.6 97.9999 682.2 100.2 683.2 102.1C684.4 104.5 686 106.4 688 107.9C691 110.2 694.7 111.4 699 111.4C702.3 111.4 705.5 110.7 708.5 109.4C710.8 108.4 712.9 107.1 715 105.4C716.1 104.4 717.8 104.5 718.9 105.5L728.2 114.8C729.3 115.9 729.3 117.7 728.2 118.8C724.7 122.2 720.5 124.9 715.8 126.9C710.2 129.2 703.9 130.4 696.8 130.4C688.6 130.4 681.5 128.8 675.3 125.6C669.2 122.4 664.5 117.9 661.3 112.1C658.1 106.3 656.4 99.4999 656.4 91.7999C656.4 83.9999 658 77.0999 661.3 71.0999C664.6 65.0999 669.2 60.4999 675.3 57.2999C681.3 54.0999 688.3 52.3999 696.2 52.3999C708.5 52.2999 718.1 55.9999 724.8 63.2999ZM707.3 84.5999C709.1 84.5999 710.4 82.9999 710.1 81.1999C709.6 78.2999 708.4 75.8999 706.5 73.8999C703.9 71.1999 700.5 69.8999 696.3 69.8999C692.3 69.8999 689 71.1999 686.4 73.8999C684.5 75.7999 683.1 78.0999 682.1 80.8999C681.5 82.6999 682.9 84.5999 684.8 84.5999H707.3Z" fill="white"/>
<path d="M779 152.9C774.1 156.3 768 158.1 760.8 158.1C756.6 158.1 752.6 157.5 748.9 156.2C746 155.2 743.1 153.7 740.3 151.8C739.1 151 738.7 149.3 739.5 148L747 135.5C747.8 134.1 749.6 133.7 751 134.6C751.9 135.2 752.8 135.7 753.7 136.1C755.3 136.8 757 137.1 758.8 137.1C762.9 137.1 766 135.2 768 131.3L769.2 129C769.6 128.3 769.6 127.4 769.3 126.6L739.9 57.2001C739.1 55.3001 740.5 53.3 742.5 53.3H762C763.2 53.3 764.2 54.0001 764.6 55.1001L779.3 95.3C780.2 97.8 783.8 97.7001 784.6 95.2001L797.7 55.2C798.1 54 799.2 53.3 800.4 53.3H819.2C821.2 53.3 822.5 55.3001 821.8 57.1001L790.6 137.1C787.8 144.1 783.8 149.4 779 152.9Z" fill="white"/>
<path d="M337.3 152.5C339.1 153.8 340 155.7 340 158C340 159.7 339.5 161.2 338.5 162.4C337.9 163.1 337.3 163.6 336.5 164.1C336 164.4 336.1 165.2 336.6 165.4C337.7 165.8 338.7 166.5 339.4 167.4C340.6 168.8 341.2 170.5 341.2 172.5C341.2 175.1 340.2 177.1 338.3 178.6C336.4 180.1 333.7 180.8 330.3 180.8H317.9C317.5 180.8 317.2 180.5 317.2 180.1V151.8C317.2 151.1 317.7 150.6 318.4 150.6H330.1C333.2 150.5 335.6 151.2 337.3 152.5ZM334.2 162.2C335.2 161.4 335.7 160.3 335.7 158.8C335.7 157.4 335.2 156.3 334.2 155.5C333.2 154.7 331.7 154.4 329.9 154.4H322C321.6 154.4 321.3 154.7 321.3 155.1V162.7C321.3 163.1 321.6 163.4 322 163.4H329.8C331.7 163.3 333.2 163 334.2 162.2ZM335.1 175.7C336.8 174.6 337.3 172.8 336.8 170.5C336.8 170.4 336.8 170.3 336.7 170.3C335.6 168.3 333.3 167.2 329.8 167.2H322C321.6 167.2 321.3 167.5 321.3 167.9V176.3C321.3 176.7 321.6 177 322 177H329.8C332.1 177 333.9 176.5 335.1 175.7Z" fill="white"/>
<path d="M369 160.9C370.8 163 371.7 165.9 371.7 169.6C371.7 170.2 371.7 170.6 371.7 170.9H354.5C354 170.9 353.7 171.3 353.8 171.8C354.2 173.4 355 174.8 356.2 175.8C357.6 177 359.3 177.6 361.4 177.6C362.8 177.6 364 177.4 365.2 176.9C366.1 176.5 367 176 367.7 175.3C368 175 368.4 175 368.7 175.3L369.9 176.6C370.2 176.9 370.2 177.3 369.9 177.6C368.9 178.6 367.7 179.3 366.3 179.9C364.7 180.6 363 180.9 361 180.9C358.8 180.9 356.8 180.4 355 179.5C353.3 178.5 351.9 177.2 350.9 175.4C349.9 173.6 349.5 171.6 349.5 169.4C349.5 167.2 350 165.2 350.9 163.4C351.9 161.7 353.2 160.3 354.9 159.3C356.6 158.3 358.6 157.8 360.8 157.8C364.5 157.8 367.2 158.8 369 160.9ZM367.3 167.8C367.7 167.8 368.1 167.4 368 167C367.8 165.3 367.1 164 366 162.9C364.7 161.7 363.1 161.1 361 161.1C359 161.1 357.3 161.7 356 162.9C354.9 163.9 354.1 165.3 353.8 166.9C353.7 167.3 354 167.8 354.5 167.8H367.3Z" fill="white"/>
<path d="M393.5 178.7C393.6 179 393.5 179.4 393.2 179.5C391.6 180.4 390 180.9 388.3 180.9C386.5 180.9 385 180.4 383.9 179.3C382.8 178.2 382.2 176.6 382.2 174.4V162.5C382.2 162.1 381.9 161.8 381.5 161.8H379.7C379.3 161.8 379 161.5 379 161.1V159.4C379 159 379.3 158.7 379.7 158.7H381.5C381.9 158.7 382.2 158.4 382.2 158V153.3C382.2 152.9 382.5 152.6 382.9 152.6H385.5C385.9 152.6 386.2 152.9 386.2 153.3V158C386.2 158.4 386.5 158.7 386.9 158.7H392.5C392.9 158.7 393.2 159 393.2 159.4V161.1C393.2 161.5 392.9 161.8 392.5 161.8H386.9C386.5 161.8 386.2 162.1 386.2 162.5V173.7C386.2 175 386.4 175.9 386.9 176.4C387.4 176.9 388 177.2 389 177.2C389.9 177.2 390.8 177 391.9 176.5C392.3 176.3 392.7 176.5 392.8 176.9L393.5 178.7Z" fill="white"/>
<path d="M416.8 179.8C416.8 179 415.9 178.6 415.3 179C413.7 180.2 411.5 180.9 408.8 180.9C407.2 180.9 405.8 180.6 404.6 180C403.4 179.4 402.5 178.6 401.8 177.5C401.2 176.4 400.8 175.2 400.8 173.9C400.8 171.9 401.6 170.2 403.1 169C404.6 167.8 406.7 167.2 409.4 167.2H416.6V166.1C416.6 164.5 416.1 163.2 415.1 162.4C414.1 161.5 412.7 161.1 410.8 161.1C408.7 161.1 406.6 161.8 404.4 163.2C404.1 163.4 403.6 163.3 403.4 163L402.5 161.5C402.3 161.2 402.4 160.7 402.7 160.5C404.1 159.6 405.4 159 406.7 158.6C408.1 158.1 409.8 157.9 411.7 157.9C414.5 157.9 416.7 158.6 418.3 160C419.9 161.4 420.6 163.3 420.7 165.8V180.1C420.7 180.5 420.4 180.8 420 180.8H417.7C417.2 180.7 416.8 180.3 416.8 179.8ZM414.4 176.2C415.7 175.3 416.5 174.1 416.7 172.7C416.7 172.6 416.7 172.6 416.7 172.5V171C416.7 170.6 416.4 170.3 416 170.3H410C408.2 170.3 406.8 170.6 406 171.1C405.1 171.6 404.7 172.5 404.7 173.7C404.7 174.9 405.1 175.8 406 176.5C406.9 177.2 408.1 177.5 409.6 177.5C411.5 177.6 413.1 177.1 414.4 176.2Z" fill="white"/>
<path d="M445.1 157.9H447.8C448.1 157.9 448.4 158.1 448.5 158.4L454.5 175C454.7 175.6 455.6 175.6 455.8 175L461.8 158.4C461.9 158.1 462.2 157.9 462.5 157.9H465C465.5 157.9 465.8 158.4 465.7 158.9L457.4 180.3C457.3 180.6 457 180.7 456.7 180.7H453.5C453.2 180.7 453 180.5 452.8 180.3L444.4 158.9C444.3 158.4 444.6 157.9 445.1 157.9Z" fill="white"/>
<path d="M490.6 160.9C492.4 163 493.3 165.9 493.3 169.6C493.3 170.2 493.3 170.6 493.3 170.9H476.1C475.6 170.9 475.3 171.3 475.4 171.8C475.8 173.4 476.6 174.8 477.8 175.8C479.2 177 480.9 177.6 483 177.6C484.4 177.6 485.6 177.4 486.8 176.9C487.7 176.5 488.6 176 489.3 175.3C489.6 175 490 175 490.3 175.3L491.5 176.6C491.8 176.9 491.8 177.3 491.5 177.6C490.5 178.6 489.3 179.3 487.9 179.9C486.3 180.6 484.6 180.9 482.6 180.9C480.4 180.9 478.4 180.4 476.6 179.5C474.9 178.5 473.5 177.2 472.5 175.4C471.5 173.6 471.1 171.6 471.1 169.4C471.1 167.2 471.6 165.2 472.5 163.4C473.5 161.7 474.8 160.3 476.5 159.3C478.2 158.3 480.2 157.8 482.4 157.8C486.1 157.8 488.7 158.8 490.6 160.9ZM488.9 167.8C489.3 167.8 489.7 167.4 489.6 167C489.4 165.3 488.7 164 487.6 162.9C486.3 161.7 484.7 161.1 482.6 161.1C480.6 161.1 478.9 161.7 477.6 162.9C476.5 163.9 475.7 165.3 475.4 166.9C475.3 167.3 475.6 167.8 476.1 167.8H488.9Z" fill="white"/>
<path d="M510.3 159.1C511.5 158.4 512.9 157.9 514.5 157.8C514.9 157.8 515.2 158.1 515.2 158.5V160.9C515.2 161.3 514.9 161.6 514.5 161.6C512.5 161.6 510.8 162.3 509.6 163.4C508.2 164.7 507.3 166.4 507.1 168.6V180C507.1 180.4 506.8 180.7 506.4 180.7H503.8C503.4 180.7 503.1 180.4 503.1 180V158.6C503.1 158.2 503.4 157.9 503.8 157.9H505.9C506.6 157.9 507.1 158.4 507.1 159.1V160.4C507.1 161.1 507.9 161.4 508.3 160.9C508.9 160.1 509.5 159.6 510.3 159.1Z" fill="white"/>
<path d="M533.2 161.6C532.1 161.3 531 161.1 529.9 161.1C528.7 161.1 527.7 161.3 527 161.8C526.3 162.2 525.9 162.9 525.9 163.8C525.9 164.7 526.3 165.4 527.1 165.9C527.9 166.4 529.2 166.9 530.8 167.3C532.4 167.8 533.7 168.2 534.7 168.7C535.7 169.2 536.6 169.8 537.3 170.7C538 171.6 538.4 172.8 538.4 174.2C538.4 176.4 537.6 178 536 179.1C534.4 180.2 532.4 180.8 529.9 180.8C528.2 180.8 526.6 180.5 525 180C523.6 179.5 522.4 178.9 521.4 178C521.1 177.8 521.1 177.4 521.2 177.1L522.1 175.4C522.3 175 522.8 174.9 523.1 175.1C523.9 175.7 524.9 176.2 526 176.6C527.4 177.1 528.8 177.4 530.1 177.4C531.4 177.4 532.5 177.2 533.3 176.7C534.1 176.2 534.5 175.5 534.5 174.5C534.5 173.5 534.1 172.7 533.2 172.2C532.4 171.7 531.1 171.2 529.3 170.6C527.8 170.2 526.5 169.7 525.6 169.3C524.7 168.9 523.8 168.2 523.1 167.3C522.4 166.4 522.1 165.3 522.1 163.9C522.1 161.8 522.9 160.2 524.4 159.1C526 158 527.9 157.5 530.2 157.5C531.6 157.5 532.9 157.7 534.3 158.1C535.4 158.4 536.4 158.8 537.2 159.3C537.5 159.5 537.6 159.9 537.5 160.2L536.6 162C536.4 162.4 536 162.5 535.6 162.3C534.9 162.2 534.1 161.8 533.2 161.6Z" fill="white"/>
<path d="M551.8 149.6C552.3 150.1 552.5 150.7 552.5 151.5C552.5 152.2 552.3 152.9 551.8 153.4C551.3 153.9 550.7 154.1 550 154.1C549.3 154.1 548.7 153.9 548.2 153.4C547.7 152.9 547.5 152.3 547.5 151.5C547.5 150.8 547.7 150.1 548.2 149.6C548.7 149.1 549.3 148.9 550 148.9C550.7 148.8 551.3 149.1 551.8 149.6ZM548.7 157.9H551.3C551.7 157.9 552 158.2 552 158.6V180C552 180.4 551.7 180.7 551.3 180.7H548.7C548.3 180.7 548 180.4 548 180V158.6C548 158.2 548.3 157.9 548.7 157.9Z" fill="white"/>
<path d="M579.7 159.3C581.5 160.3 582.8 161.6 583.8 163.4C584.8 165.1 585.3 167.1 585.3 169.4C585.3 171.7 584.8 173.6 583.8 175.4C582.8 177.2 581.4 178.5 579.7 179.5C577.9 180.5 575.9 181 573.6 181C571.3 181 569.3 180.5 567.5 179.5C565.7 178.5 564.4 177.2 563.4 175.4C562.4 173.7 561.9 171.7 561.9 169.4C561.9 167.2 562.4 165.2 563.4 163.4C564.4 161.7 565.8 160.3 567.5 159.3C569.3 158.3 571.3 157.8 573.6 157.8C575.9 157.8 577.9 158.3 579.7 159.3ZM569.6 162.3C568.4 163 567.5 163.9 566.9 165.2C566.3 166.4 565.9 167.8 565.9 169.4C565.9 171 566.2 172.4 566.9 173.6C567.5 174.8 568.5 175.8 569.6 176.5C570.7 177.2 572.1 177.5 573.6 177.5C575.1 177.5 576.4 177.2 577.5 176.5C578.7 175.8 579.6 174.9 580.2 173.6C580.8 172.4 581.2 171 581.2 169.4C581.2 167.8 580.9 166.5 580.2 165.2C579.6 164 578.6 163 577.5 162.3C576.3 161.6 575 161.3 573.6 161.3C572.1 161.3 570.8 161.6 569.6 162.3Z" fill="white"/>
<path d="M614.2 160.1C615.7 161.7 616.5 163.8 616.5 166.6V180C616.5 180.4 616.2 180.7 615.8 180.7H613.2C612.8 180.7 612.5 180.4 612.5 180V167.7C612.5 165.8 612 164.3 610.9 163.2C609.8 162.1 608.3 161.6 606.4 161.6C604.4 161.6 602.7 162.3 601.4 163.6C600.1 164.9 599.4 166.5 599.2 168.6V180C599.2 180.4 598.9 180.7 598.5 180.7H595.9C595.5 180.7 595.2 180.4 595.2 180V158.6C595.2 158.2 595.5 157.9 595.9 157.9H598C598.7 157.9 599.2 158.4 599.2 159.1V160.3C599.2 160.9 600 161.3 600.4 160.8C602.1 158.8 604.5 157.8 607.8 157.8C610.5 157.8 612.6 158.6 614.2 160.1Z" fill="white"/>
<path d="M441.4 43.2999H424C422 43.2999 420.3 41.5999 420.3 39.5999V22.0999C420.3 20.0999 422 18.3999 424 18.3999H441.5C443.5 18.3999 445.2 20.0999 445.2 22.0999V39.5999C445.1 41.6999 443.5 43.2999 441.4 43.2999ZM426.2 37.2999H439.1V24.3999H426.2V37.2999Z" fill="#E36458"/>
<path d="M439.5 23.8999H432.7V30.7999H439.5V23.8999Z" fill="#E36458"/>
<path d="M126.9 201C39.5 201 3.39998 142.7 1.89998 140.3L0.799988 138.6L26.5 63.6001V1.20004L75.7 14.4C84.7 9.30004 126.5 -11.5 176.4 14.4L227.3 0.300049V64L253 138.5L251.9 140.2C250.4 142.7 214.3 201 126.9 201ZM10.4 137.4C16.9 146.7 52.6 192.3 126.9 192.3C201.4 192.3 236.9 146.7 243.4 137.4L218.6 65.5V11.8L175.4 23.7L173.9 22.9C122.7 -4.59996 80.5 21.6 78.8 22.7L77.2 23.7L75.3 23.2L35.3 12.4V64.8L10.4 137.4Z" fill="#E36458"/>
<path d="M52.1 46.2H43.4V22.8L63.2 28L61 36.5L52.1 34.1001V46.2Z" fill="#E36458"/>
<path d="M210.4 46.2H201.6V34.1001L192.8 36.5L190.6 28L210.4 22.8V46.2Z" fill="#E36458"/>
<path d="M181.5 121.8H156.1C153.1 121.8 150.7 119.4 150.7 116.4V91.0001C150.7 88.0001 153.1 85.6001 156.1 85.6001H181.5C184.5 85.6001 186.9 88.0001 186.9 91.0001V116.4C186.9 119.4 184.4 121.8 181.5 121.8ZM159.4 113.1H178.1V94.4001H159.4V113.1Z" fill="#E36458"/>
<path d="M99.1 121.8H73.7C70.7 121.8 68.3 119.4 68.3 116.4V91.0001C68.3 88.0001 70.7 85.6001 73.7 85.6001H99.1C102.1 85.6001 104.5 88.0001 104.5 91.0001V116.4C104.5 119.4 102.1 121.8 99.1 121.8ZM77 113.1H95.7V94.4001H77V113.1Z" fill="#E36458"/>
<path d="M154 157.7H101.1C98.1 157.7 95.7 155.3 95.7 152.3V118.5C95.7 115.5 98.1 113.1 101.1 113.1H154C157 113.1 159.4 115.5 159.4 118.5V152.3C159.4 155.3 157 157.7 154 157.7ZM104.5 149H150.7V121.8H104.5V149Z" fill="white"/>
<path d="M96.5 93.5H86.4V103.6H96.5V93.5Z" fill="#E36458"/>
<path d="M132.2 157.6H122.9V166.9H132.2V157.6Z" fill="white"/>
<path d="M132.2 175.4H122.9V184.7H132.2V175.4Z" fill="white"/>
<path d="M179 93.4001H168.8V103.6H179V93.4001Z" fill="#E36458"/>
</svg>
