<svg width="19" height="20" viewBox="0 0 19 20" fill="none" xmlns="http://www.w3.org/2000/svg">
<path d="M15.0413 3.6665H3.95801C3.32812 3.6665 2.72403 3.91673 2.27863 4.36213C1.83323 4.80752 1.58301 5.41161 1.58301 6.0415V13.9582C1.58301 14.5881 1.83323 15.1922 2.27863 15.6375C2.72403 16.0829 3.32812 16.3332 3.95801 16.3332H15.0413C15.6712 16.3332 16.2753 16.0829 16.7207 15.6375C17.1661 15.1922 17.4163 14.5881 17.4163 13.9582V6.0415C17.4163 5.41161 17.1661 4.80752 16.7207 4.36213C16.2753 3.91673 15.6712 3.6665 15.0413 3.6665ZM14.7168 5.24984L10.0618 9.90484C9.98816 9.97904 9.9006 10.0379 9.80413 10.0781C9.70766 10.1183 9.60418 10.139 9.49967 10.139C9.39516 10.139 9.29169 10.1183 9.19522 10.0781C9.09875 10.0379 9.01119 9.97904 8.93759 9.90484L4.28259 5.24984H14.7168ZM15.833 13.9582C15.833 14.1681 15.7496 14.3695 15.6011 14.518C15.4527 14.6664 15.2513 14.7498 15.0413 14.7498H3.95801C3.74804 14.7498 3.54668 14.6664 3.39822 14.518C3.24975 14.3695 3.16634 14.1681 3.16634 13.9582V6.36609L7.82134 11.0211C8.26665 11.4658 8.8703 11.7157 9.49967 11.7157C10.1291 11.7157 10.7327 11.4658 11.178 11.0211L15.833 6.36609V13.9582Z" fill="#E26559"/>
</svg>
