<svg width="144" height="144" viewBox="0 0 144 144" fill="none" xmlns="http://www.w3.org/2000/svg">
<g opacity="0.1">
<path d="M41 2H5C3.34315 2 2 3.34315 2 5V41" stroke="#E26559" stroke-width="3.5"/>
<path d="M41 142H5C3.34315 142 2 140.657 2 139V103" stroke="#E26559" stroke-width="3.5"/>
<path d="M103 2H139C140.657 2 142 3.34315 142 5V41" stroke="#E26559" stroke-width="3.5"/>
<path d="M103 142H139C140.657 142 142 140.657 142 139V103" stroke="#E26559" stroke-width="3.5"/>
</g>
<path d="M 94.3266 102.6396 L 81.0166 89.3196 a 1.32 1.32 0 0 0 -0.93 -0.38 h -0.19 a 1.32 1.32 0 0 0 -1 0.66 l -4.49 8.1 L 61.7666 64.4096 l 33.3 12.67 l -8.1 4.49 a 1.34 1.34 0 0 0 -0.66 1 A 1.32 1.32 0 0 0 86.6766 83.6596 l 13.32 13.32 z M 89.7766 83.0296 l 9.05 -5 A 1.32 1.32 0 0 0 98.6766 75.6296 L 59.9666 60.9096 a 1.32 1.32 0 0 0 -1.7 1.7 L 72.9866 101.3196 a 1.31 1.31 0 0 0 1.14 0.84 a 1.33 1.33 0 0 0 1.24 -0.67 l 5 -9.05 l 13 13 a 1.32 1.32 0 0 0 1.87 0 l 7.52 -7.52 a 1.31 1.31 0 0 0 0.39 -0.93 a 1.33 1.33 0 0 0 -0.39 -0.94 z M 94.3266 102.6396 L 81.0166 89.3196 a 1.32 1.32 0 0 0 -0.93 -0.38 h -0.19 a 1.32 1.32 0 0 0 -1 0.66 l -4.49 8.1 L 61.7666 64.4096 l 33.3 12.67 l -8.1 4.49 a 1.34 1.34 0 0 0 -0.66 1 A 1.32 1.32 0 0 0 86.6766 83.6596 l 13.32 13.32 z M 89.7766 83.0296 l 9.05 -5 A 1.32 1.32 0 0 0 98.6766 75.6296 L 59.9666 60.9096 a 1.32 1.32 0 0 0 -1.7 1.7 L 72.9866 101.3196 a 1.31 1.31 0 0 0 1.14 0.84 a 1.33 1.33 0 0 0 1.24 -0.67 l 5 -9.05 l 13 13 a 1.32 1.32 0 0 0 1.87 0 l 7.52 -7.52 a 1.31 1.31 0 0 0 0.39 -0.93 a 1.33 1.33 0 0 0 -0.39 -0.94 z" fill="#3C4043" stroke="#3C4043" stroke-width="0.5"/>
<path d="M59.5 49.25C60.4389 49.25 61.25 48.5651 61.25 47.6609V44.3391C61.25 43.4349 60.4389 42.75 59.5 42.75C58.5611 42.75 57.75 43.4349 57.75 44.3391V47.6609C57.75 48.5651 58.5611 49.25 59.5 49.25Z" fill="#3C4043" stroke="#3C4043" stroke-width="0.5"/>
<path d="M41.339 60.75C40.4356 60.75 39.75 61.5602 39.75 62.5C39.75 63.4398 40.4356 64.25 41.339 64.25H44.661C45.5644 64.25 46.25 63.4398 46.25 62.5C46.25 61.5602 45.5644 60.75 44.661 60.75H41.339Z" fill="#3C4043" stroke="#3C4043" stroke-width="0.5"/>
<path d="M71.5496 48.2134L69.2134 50.5496C68.5955 51.1675 68.5955 52.1686 69.2134 52.7866C69.5223 53.0954 69.9275 53.25 70.3319 53.25C70.7364 53.25 71.1416 53.0954 71.4505 52.7866L73.7866 50.4504C74.4045 49.8325 74.4045 48.8314 73.7866 48.2134C73.1686 47.5955 72.1675 47.5955 71.5496 48.2134Z" fill="#3C4043" stroke="#3C4043" stroke-width="0.5"/>
<path d="M47.5499 72.2133L47.5498 72.2134L45.2134 74.5501C45.2134 74.5501 45.2134 74.5501 45.2134 74.5502C44.5955 75.1679 44.5955 76.1689 45.2134 76.7867C45.5222 77.0955 45.9274 77.25 46.3318 77.25C46.7362 77.25 47.1413 77.0955 47.4501 76.7867L47.4502 76.7866L49.7866 74.4499C50.4045 73.8321 50.4045 72.8311 49.7866 72.2133C49.1687 71.5956 48.1677 71.5956 47.5499 72.2133Z" fill="#3C4043" stroke="#3C4043" stroke-width="0.5"/>
<path d="M49.7866 50.5496L49.7866 50.5495L47.4502 48.2135C47.4502 48.2134 47.4501 48.2134 47.4501 48.2134C46.8323 47.5955 45.8312 47.5955 45.2134 48.2135C44.5955 48.8314 44.5955 49.8325 45.2134 50.4504L45.2134 50.4505L47.5498 52.7865C47.5498 52.7866 47.5499 52.7866 47.5499 52.7866C47.8587 53.0954 48.2638 53.25 48.6682 53.25C49.0726 53.25 49.4778 53.0954 49.7866 52.7865C50.4045 52.1686 50.4045 51.1675 49.7866 50.5496Z" fill="#3C4043" stroke="#3C4043" stroke-width="0.5"/>
</svg>
