<svg width="23" height="22" viewBox="0 0 23 22" fill="none" xmlns="http://www.w3.org/2000/svg">
<circle cx="11" cy="11" r="10.5" transform="matrix(-1 0 0 1 22.5 0)" fill="white" stroke="#D8D9D9"/>
<path d="M15.4139 8.20575C15.3596 8.15108 15.2951 8.10768 15.224 8.07807C15.1529 8.04845 15.0767 8.0332 14.9997 8.0332C14.9227 8.0332 14.8464 8.04845 14.7753 8.07807C14.7043 8.10768 14.6397 8.15108 14.5855 8.20575L10.2397 12.5574L8.41385 10.7258C8.35755 10.6714 8.29108 10.6286 8.21825 10.5999C8.14542 10.5712 8.06765 10.5571 7.98937 10.5585C7.9111 10.5598 7.83386 10.5766 7.76207 10.6078C7.69027 10.639 7.62532 10.684 7.57094 10.7403C7.51655 10.7966 7.47378 10.8631 7.44508 10.9359C7.41638 11.0088 7.4023 11.0865 7.40365 11.1648C7.40501 11.2431 7.42177 11.3203 7.45297 11.3921C7.48417 11.4639 7.52921 11.5289 7.58552 11.5833L9.82552 13.8233C9.87975 13.8779 9.94426 13.9213 10.0153 13.9509C10.0864 13.9806 10.1627 13.9958 10.2397 13.9958C10.3167 13.9958 10.3929 13.9806 10.464 13.9509C10.5351 13.9213 10.5996 13.8779 10.6539 13.8233L15.4139 9.06325C15.4731 9.00863 15.5203 8.94233 15.5526 8.86854C15.585 8.79475 15.6016 8.71506 15.6016 8.6345C15.6016 8.55394 15.585 8.47426 15.5526 8.40047C15.5203 8.32667 15.4731 8.26038 15.4139 8.20575Z" fill="#E26559"/>
</svg>
