<svg width="310" height="25" viewBox="0 0 310 25" fill="none" xmlns="http://www.w3.org/2000/svg">
<line y1="12" x2="310" y2="12" stroke="#E26559"/>
<rect x="69" width="156" height="25" rx="12.5" fill="#E26559"/>
<path d="M94.8061 15.7217C94.6131 15.8207 94.3941 15.6472 94.4331 15.4257L94.8481 13.0608L93.0866 11.3828C92.9221 11.2257 93.0076 10.9388 93.2281 10.9078L95.6771 10.5598L96.7691 8.39625C96.8676 8.20125 97.1341 8.20125 97.2326 8.39625L98.3246 10.5598L100.774 10.9078C100.994 10.9388 101.08 11.2257 100.915 11.3828L99.1536 13.0608L99.5686 15.4257C99.6076 15.6472 99.3886 15.8207 99.1956 15.7217L97.0001 14.5938L94.8056 15.7217H94.8061Z" fill="#F8F8F8"/>
<path d="M113.432 17L111.896 14.456C111.776 14.468 111.644 14.468 111.512 14.468H109.52V17H108.104V8.6H111.512C113.66 8.6 114.896 9.644 114.896 11.468C114.896 12.812 114.272 13.76 113.156 14.192L115.04 17H113.432ZM109.52 13.196H111.512C112.808 13.196 113.552 12.644 113.552 11.504C113.552 10.4 112.808 9.872 111.512 9.872H109.52V13.196ZM119.32 10.568C121.564 10.568 122.476 12.032 122.308 14.336H117.484C117.7 15.32 118.456 15.932 119.464 15.932C120.16 15.932 120.796 15.668 121.264 15.188L121.996 15.968C121.372 16.652 120.46 17.048 119.356 17.048C117.388 17.048 116.092 15.74 116.092 13.82C116.092 11.888 117.424 10.58 119.32 10.568ZM117.46 13.328H121.108C121.06 12.296 120.376 11.672 119.332 11.672C118.324 11.672 117.616 12.308 117.46 13.328ZM126.363 10.568C127.515 10.568 128.415 10.94 129.003 11.612L128.247 12.5C127.803 12.044 127.191 11.768 126.423 11.78C125.319 11.78 124.527 12.608 124.527 13.82C124.527 15.032 125.319 15.86 126.423 15.86C127.227 15.86 127.875 15.596 128.307 15.092L129.075 15.86C128.499 16.616 127.575 17.048 126.363 17.048C124.467 17.048 123.147 15.74 123.147 13.82C123.147 11.888 124.467 10.568 126.363 10.568ZM132.998 10.568C134.966 10.568 136.322 11.876 136.322 13.808C136.322 15.728 134.966 17.048 132.998 17.048C131.018 17.048 129.662 15.728 129.662 13.808C129.662 11.876 131.018 10.568 132.998 10.568ZM132.998 11.756C131.846 11.756 131.042 12.596 131.042 13.82C131.042 15.056 131.846 15.896 132.998 15.896C134.138 15.896 134.942 15.056 134.942 13.82C134.942 12.596 134.138 11.756 132.998 11.756ZM146.09 10.568C147.554 10.568 148.43 11.504 148.43 13.028V17H147.05V13.412C147.05 12.44 146.474 11.852 145.538 11.852C144.446 11.888 143.786 12.728 143.786 13.844V17H142.406V13.412C142.406 12.44 141.842 11.852 140.906 11.852C139.802 11.888 139.13 12.728 139.13 13.844V17H137.762V10.616H139.13V11.852C139.574 10.952 140.39 10.568 141.446 10.568C142.586 10.568 143.366 11.132 143.666 12.104C144.074 11.036 144.926 10.568 146.09 10.568ZM158.606 10.568C160.07 10.568 160.946 11.504 160.946 13.028V17H159.566V13.412C159.566 12.44 158.99 11.852 158.054 11.852C156.962 11.888 156.302 12.728 156.302 13.844V17H154.922V13.412C154.922 12.44 154.358 11.852 153.422 11.852C152.318 11.888 151.646 12.728 151.646 13.844V17H150.278V10.616H151.646V11.852C152.09 10.952 152.906 10.568 153.962 10.568C155.102 10.568 155.882 11.132 156.182 12.104C156.59 11.036 157.442 10.568 158.606 10.568ZM165.421 10.568C167.665 10.568 168.577 12.032 168.409 14.336H163.585C163.801 15.32 164.557 15.932 165.565 15.932C166.261 15.932 166.897 15.668 167.365 15.188L168.097 15.968C167.473 16.652 166.561 17.048 165.457 17.048C163.489 17.048 162.193 15.74 162.193 13.82C162.193 11.888 163.525 10.58 165.421 10.568ZM163.561 13.328H167.209C167.161 12.296 166.477 11.672 165.433 11.672C164.425 11.672 163.717 12.308 163.561 13.328ZM173.58 10.568C175.068 10.568 175.956 11.504 175.956 13.028V17H174.576V13.412C174.576 12.452 174 11.864 173.04 11.864C171.984 11.876 171.324 12.608 171.228 13.604V17H169.848V10.616H171.228V11.84C171.684 10.952 172.5 10.568 173.58 10.568ZM183.889 8.096V17H182.509V15.908C182.053 16.652 181.285 17.06 180.265 17.06C178.429 17.06 177.205 15.728 177.205 13.784C177.205 11.864 178.441 10.556 180.241 10.556C181.273 10.556 182.041 10.976 182.509 11.72V8.096H183.889ZM180.553 15.908C181.705 15.908 182.509 15.044 182.509 13.832C182.509 12.596 181.705 11.732 180.553 11.732C179.401 11.732 178.597 12.608 178.585 13.832C178.597 15.044 179.389 15.908 180.553 15.908ZM188.613 10.568C190.857 10.568 191.769 12.032 191.601 14.336H186.777C186.993 15.32 187.749 15.932 188.757 15.932C189.453 15.932 190.089 15.668 190.557 15.188L191.289 15.968C190.665 16.652 189.753 17.048 188.649 17.048C186.681 17.048 185.385 15.74 185.385 13.82C185.385 11.888 186.717 10.58 188.613 10.568ZM186.753 13.328H190.401C190.353 12.296 189.669 11.672 188.625 11.672C187.617 11.672 186.909 12.308 186.753 13.328ZM199.124 8.096V17H197.744V15.908C197.288 16.652 196.52 17.06 195.5 17.06C193.664 17.06 192.44 15.728 192.44 13.784C192.44 11.864 193.676 10.556 195.476 10.556C196.508 10.556 197.276 10.976 197.744 11.72V8.096H199.124ZM195.788 15.908C196.94 15.908 197.744 15.044 197.744 13.832C197.744 12.596 196.94 11.732 195.788 11.732C194.636 11.732 193.832 12.608 193.82 13.832C193.832 15.044 194.624 15.908 195.788 15.908Z" fill="#F8F8F8"/>
</svg>
