<svg width="86" height="59" viewBox="0 0 86 59" fill="none" xmlns="http://www.w3.org/2000/svg">
<path d="M56.0375 22.4994C56.7759 22.515 57.5201 21.962 57.5423 21.1274C57.613 18.5255 57.8455 15.9338 58.2062 13.3684L58.2065 13.3666C58.4366 11.6862 58.7848 10.0456 59.1527 8.39404C60.4687 9.816 61.7646 11.2605 63.0635 12.7083C64.1235 13.8898 65.1855 15.0736 66.262 16.2491L66.2632 16.2504C69.2835 19.5251 72.3581 22.7817 75.4693 25.9979C76.8462 27.4214 78.2305 28.8307 79.6221 30.2278C71.7178 35.2549 64.5137 41.3375 58.3055 48.3309L58.305 48.3314C57.4493 49.2984 56.6136 50.2751 55.7973 51.266C55.7998 51.2243 55.8022 51.1826 55.8046 51.1409C55.9948 47.8798 56.1853 44.614 56.3572 41.3386L56.3573 41.3363C56.3763 40.939 56.2155 40.5581 55.9717 40.2789C55.7264 39.998 55.3598 39.7787 54.9293 39.7709L54.921 39.7707L54.9127 39.7708C43.1332 39.9488 31.3653 40.1071 19.5972 40.2655C18.2794 40.2832 16.9616 40.301 15.6438 40.3187L15.6437 40.3187C12.4556 40.3623 9.25869 40.4045 6.06146 40.4335C6.66724 34.0063 6.66147 27.5446 6.0576 21.0942C10.7385 21.3667 15.4374 21.4638 20.1182 21.5606C21.8728 21.5969 23.6248 21.6331 25.3724 21.6784L25.3739 21.6785L25.7248 21.6865C32.1337 21.8332 38.5423 21.98 44.9475 22.1714L44.9489 22.1714C48.6513 22.2719 52.3429 22.3745 56.0311 22.4993L56.0311 22.4993L56.0375 22.4994ZM16.7813 18.8445C13.1641 18.7666 9.52801 18.6883 5.89349 18.737L5.39792 18.686L5.3909 18.8326C5.29022 18.8759 5.20027 18.9322 5.12113 18.9983C4.84278 18.8757 4.51844 18.8249 4.21217 18.89C3.79515 18.9651 3.48142 19.2029 3.2935 19.5253C3.11118 19.8382 3.05901 20.2073 3.09907 20.5549C3.82538 27.5963 3.80995 34.7234 3.08328 41.7397L3.08324 41.7397L3.08268 41.7458C3.04587 42.1502 3.21434 42.5295 3.45251 42.7962C3.68945 43.0615 4.05089 43.276 4.46729 43.2655C13.9237 43.122 23.3763 43.0351 32.8312 42.9482C36.458 42.9149 40.0852 42.8816 43.7131 42.845C46.9094 42.8213 50.1077 42.7811 53.3052 42.7386C53.1799 45.0913 53.061 47.4411 52.9423 49.788C52.8496 51.6195 52.757 53.4492 52.6615 55.2773L52.4712 55.5324L52.6452 55.5886C52.6431 55.628 52.6411 55.6675 52.639 55.707L52.6389 55.7093C52.6032 56.4557 53.0818 56.9746 53.6485 57.1502C54.1988 57.3208 54.8735 57.1831 55.2875 56.6357L55.2899 56.6324C55.323 56.5878 55.3562 56.5433 55.3894 56.4987L55.4933 56.5322L55.5039 56.3456C61.212 48.7231 67.9897 41.9533 75.6674 36.2936L75.6693 36.2922C77.8601 34.6606 80.1357 33.1409 82.4761 31.6891C82.8054 31.4864 83.0577 31.1513 83.1469 30.7676C83.2402 30.3664 83.1512 29.9148 82.7993 29.5593L82.7967 29.5567C82.55 29.3111 82.3035 29.0653 82.0572 28.8192L82.0759 28.7078L81.9951 28.7572C75.949 22.7154 70.0265 16.539 64.3586 10.1433L64.3577 10.1423C64.2324 10.0016 64.107 9.86098 63.9817 9.72042C62.4247 7.9742 60.8728 6.23371 59.4292 4.40761C59.0507 3.925 58.473 3.81486 57.9979 3.92165C57.5306 4.02666 57.0721 4.35867 56.9001 4.8819L56.9 4.88217C56.8113 5.15244 56.7268 5.42483 56.6462 5.69899L56.6097 5.7067L56.636 5.73399C55.9554 8.05954 55.5511 10.5107 55.2033 12.8677L55.2029 12.8703C54.8861 15.0991 54.714 17.3335 54.6593 19.5744C43.8317 19.4268 32.9947 19.1934 22.1586 18.96C20.4295 18.9227 18.7003 18.8855 16.9713 18.8486C16.9713 18.8486 16.9712 18.8486 16.9712 18.8486L16.7813 18.8445Z" fill="#E26559" stroke="#E26559"/>
</svg>
