<svg width="1196" height="59" viewBox="0 0 1196 59" fill="none" xmlns="http://www.w3.org/2000/svg">
<path d="M601.037 22.4994C601.776 22.515 602.52 21.962 602.542 21.1274C602.613 18.5255 602.846 15.9338 603.206 13.3684L603.206 13.3666C603.437 11.6862 603.785 10.0456 604.153 8.39404C605.469 9.816 606.765 11.2605 608.063 12.7083C609.123 13.8898 610.185 15.0736 611.262 16.2491L611.263 16.2504C614.284 19.5251 617.358 22.7817 620.469 25.9979C621.846 27.4214 623.231 28.8307 624.622 30.2278C616.718 35.2549 609.514 41.3375 603.306 48.3309L603.305 48.3314C602.449 49.2984 601.614 50.2751 600.797 51.266C600.8 51.2243 600.802 51.1826 600.805 51.1409C600.995 47.8798 601.185 44.614 601.357 41.3386L601.357 41.3363C601.376 40.939 601.215 40.5581 600.972 40.2789C600.726 39.998 600.36 39.7787 599.929 39.7709L599.921 39.7707L599.913 39.7708C588.133 39.9488 576.365 40.1071 564.597 40.2655C563.279 40.2832 561.962 40.301 560.644 40.3187L560.644 40.3187C557.456 40.3623 554.259 40.4045 551.061 40.4335C551.667 34.0063 551.661 27.5446 551.058 21.0942C555.738 21.3667 560.437 21.4638 565.118 21.5606C566.873 21.5969 568.625 21.6331 570.372 21.6784L570.374 21.6785L570.725 21.6865C577.134 21.8332 583.542 21.98 589.948 22.1714L589.949 22.1714C593.651 22.2719 597.343 22.3745 601.031 22.4993L601.031 22.4993L601.037 22.4994ZM561.781 18.8445C558.164 18.7666 554.528 18.6883 550.893 18.737L550.398 18.686L550.391 18.8326C550.29 18.8759 550.2 18.9322 550.121 18.9983C549.843 18.8757 549.518 18.8249 549.212 18.89C548.795 18.9651 548.481 19.2029 548.293 19.5253C548.111 19.8382 548.059 20.2073 548.099 20.5549C548.825 27.5963 548.81 34.7234 548.083 41.7397L548.083 41.7397L548.083 41.7458C548.046 42.1502 548.214 42.5295 548.453 42.7962C548.689 43.0615 549.051 43.276 549.467 43.2655C558.924 43.122 568.376 43.0351 577.831 42.9482C581.458 42.9149 585.085 42.8816 588.713 42.845C591.909 42.8213 595.108 42.7811 598.305 42.7386C598.18 45.0913 598.061 47.4411 597.942 49.788C597.85 51.6195 597.757 53.4492 597.662 55.2773L597.471 55.5324L597.645 55.5886C597.643 55.628 597.641 55.6675 597.639 55.707L597.639 55.7093C597.603 56.4557 598.082 56.9746 598.649 57.1502C599.199 57.3208 599.874 57.1831 600.287 56.6357L600.29 56.6324C600.323 56.5878 600.356 56.5433 600.389 56.4987L600.493 56.5322L600.504 56.3456C606.212 48.7231 612.99 41.9533 620.667 36.2936L620.669 36.2922C622.86 34.6606 625.136 33.1409 627.476 31.6891C627.805 31.4864 628.058 31.1513 628.147 30.7676C628.24 30.3664 628.151 29.9148 627.799 29.5593L627.797 29.5567C627.55 29.3111 627.304 29.0653 627.057 28.8192L627.076 28.7078L626.995 28.7572C620.949 22.7154 615.027 16.539 609.359 10.1433L609.358 10.1423C609.232 10.0016 609.107 9.86098 608.982 9.72042C607.425 7.9742 605.873 6.23371 604.429 4.40761C604.051 3.925 603.473 3.81486 602.998 3.92165C602.531 4.02666 602.072 4.35867 601.9 4.8819L601.9 4.88217C601.811 5.15244 601.727 5.42483 601.646 5.69899L601.61 5.7067L601.636 5.73399C600.955 8.05954 600.551 10.5107 600.203 12.8677L600.203 12.8703C599.886 15.0991 599.714 17.3335 599.659 19.5744C588.832 19.4268 577.995 19.1934 567.159 18.96C565.429 18.9227 563.7 18.8855 561.971 18.8486C561.971 18.8486 561.971 18.8486 561.971 18.8486L561.781 18.8445Z" fill="#E26559" stroke="#E26559"/>
<line x1="1.5" y1="30.5" x2="549.5" y2="30.5" stroke="#E26559" stroke-width="3" stroke-linecap="round"/>
<line x1="625.5" y1="30.5" x2="1194.5" y2="30.5" stroke="#E26559" stroke-width="3" stroke-linecap="round"/>
</svg>
