<svg width="256" height="71" viewBox="0 0 256 71" fill="none" xmlns="http://www.w3.org/2000/svg">
<path d="M30.9495 56.2764C30.4429 56.2764 29.9364 55.9725 29.6831 55.5166L22.7942 42.3973H22.4903H14.487C13.6765 42.3973 13.0687 43.0558 13.0687 43.8156V54.8075C13.0687 55.6179 12.4102 56.2258 11.6504 56.2258H1.4183C0.607839 56.2258 0 55.5673 0 54.8075V7.54746C0 6.737 0.658493 6.12915 1.4183 6.12915H22.4903C29.1259 6.12915 34.242 7.64877 37.8891 10.7386C41.5361 13.8285 43.3597 18.1341 43.3597 23.706C43.3597 27.4544 42.5999 30.7469 41.0802 33.4822C39.7632 35.8123 37.9903 37.6865 35.7109 39.1554C35.0524 39.5607 34.7992 40.4724 35.2551 41.1309L43.5116 54.0477C44.1195 55.0101 43.4103 56.2258 42.2959 56.2258H30.9495V56.2764ZM13.0687 30.5443C13.0687 31.3548 13.7272 31.9626 14.487 31.9626H22.5916C25.2763 31.9626 27.3024 31.3041 28.7714 29.9364C30.2403 28.6194 30.9495 26.6946 30.9495 24.1619C30.9495 21.7305 30.2403 19.8563 28.7714 18.5393C27.3024 17.2223 25.2763 16.5638 22.5916 16.5638H14.487C13.6765 16.5638 13.0687 17.2223 13.0687 17.9821V30.5443Z" fill="#3C4043"/>
<path d="M53.8958 17.6276H63.672C64.4825 17.6276 65.0903 18.2861 65.0903 19.0459V54.8581C65.0903 55.6686 64.4318 56.2764 63.672 56.2764H53.8958C53.0854 56.2764 52.4775 55.6179 52.4775 54.8581V19.0459C52.4775 18.2354 53.136 17.6276 53.8958 17.6276Z" fill="#3C4043"/>
<path d="M114.579 4.66017V54.8581C114.579 55.6685 113.921 56.2764 113.161 56.2764H103.283C102.473 56.2764 101.865 55.6179 101.865 54.8581C101.865 53.6424 100.447 52.9839 99.535 53.7437C98.7751 54.4022 97.914 54.9087 97.0023 55.3646C95.0774 56.2764 92.8993 56.7829 90.4679 56.7829C86.8715 56.7829 83.731 55.9725 81.0463 54.3009C78.311 52.6293 76.2342 50.2992 74.7146 47.26C73.195 44.2208 72.4858 40.7257 72.4858 36.7747C72.4858 32.8743 73.2456 29.4299 74.7146 26.492C76.1835 23.554 78.2604 21.2746 80.945 19.6537C83.6297 18.0328 86.7196 17.2223 90.2147 17.2223C92.6967 17.2223 94.9255 17.6782 96.901 18.6406C97.8634 19.0965 98.7752 19.7043 99.6363 20.3628C100.548 21.1227 101.966 20.4641 101.966 19.2485V4.71081C101.966 3.90035 102.625 3.29251 103.385 3.29251H113.161C113.971 3.24185 114.579 3.90036 114.579 4.66017ZM99.5856 44.0688C101.105 42.2959 101.865 39.9659 101.865 37.0786C101.865 34.1913 101.105 31.8612 99.5856 30.0884C98.066 28.3155 96.0398 27.4544 93.5578 27.4544C91.0758 27.4544 89.0496 28.3661 87.53 30.139C85.9598 31.9119 85.1999 34.242 85.1999 37.1293C85.1999 39.9659 85.9598 42.2959 87.53 44.1195C89.1003 45.8924 91.0758 46.8041 93.5578 46.8041C96.0398 46.7535 98.066 45.8924 99.5856 44.0688Z" fill="#3C4043"/>
<path d="M164.422 4.66017V54.8581C164.422 55.6685 163.764 56.2764 163.004 56.2764H153.127C152.316 56.2764 151.708 55.6179 151.708 54.8581C151.708 53.6424 150.29 52.9839 149.378 53.7437C148.618 54.4022 147.757 54.9087 146.846 55.3646C144.921 56.2764 142.743 56.7829 140.311 56.7829C136.715 56.7829 133.574 55.9725 130.89 54.3009C128.154 52.6293 126.077 50.2992 124.558 47.26C123.038 44.2208 122.329 40.7257 122.329 36.7747C122.329 32.8743 123.089 29.4299 124.558 26.492C126.027 23.554 128.104 21.2746 130.788 19.6537C133.473 18.0328 136.563 17.2223 140.058 17.2223C142.54 17.2223 144.769 17.6782 146.744 18.6406C147.707 19.0965 148.618 19.7043 149.48 20.3628C150.391 21.1227 151.81 20.4641 151.81 19.2485V4.71081C151.81 3.90035 152.468 3.29251 153.228 3.29251H163.105C163.764 3.24185 164.422 3.90036 164.422 4.66017ZM149.429 44.0688C150.948 42.2959 151.708 39.9659 151.708 37.0786C151.708 34.1913 150.948 31.8612 149.429 30.0884C147.909 28.3155 145.883 27.4544 143.401 27.4544C140.919 27.4544 138.893 28.3661 137.373 30.139C135.803 31.9119 135.043 34.242 135.043 37.1293C135.043 39.9659 135.803 42.2959 137.373 44.1195C138.944 45.8924 140.919 46.8041 143.401 46.8041C145.883 46.7535 147.909 45.8924 149.429 44.0688Z" fill="#3C4043"/>
<path d="M206.769 22.7436C210.163 26.4413 211.834 31.5573 211.834 38.041C211.834 38.345 211.834 38.6489 211.834 38.9022C211.834 39.662 211.176 40.3205 210.416 40.3205H186.963C185.899 40.3205 185.19 41.4348 185.697 42.3973C186.305 43.613 187.115 44.5754 188.128 45.3352C189.648 46.5002 191.522 47.1081 193.7 47.1081C195.372 47.1081 196.993 46.7535 198.512 46.095C199.677 45.5884 200.741 44.9299 201.805 44.0688C202.362 43.5623 203.223 43.6129 203.78 44.1195L208.491 48.8303C209.048 49.3875 209.048 50.2992 208.491 50.8564C206.718 52.5787 204.591 53.9463 202.21 54.9594C199.373 56.1244 196.182 56.7323 192.586 56.7323C188.432 56.7323 184.836 55.9218 181.695 54.3009C178.605 52.68 176.225 50.4006 174.604 47.4626C172.983 44.5247 172.122 41.0803 172.122 37.1799C172.122 33.2289 172.932 29.7338 174.604 26.6946C176.275 23.6554 178.605 21.3253 181.695 19.7043C184.734 18.0834 188.28 17.2223 192.282 17.2223C198.512 17.1717 203.375 19.0458 206.769 22.7436ZM197.904 33.5328C198.816 33.5328 199.475 32.7224 199.323 31.8106C199.069 30.3417 198.462 29.126 197.499 28.1129C196.182 26.7452 194.46 26.0867 192.332 26.0867C190.306 26.0867 188.635 26.7452 187.318 28.1129C186.355 29.0753 185.646 30.2403 185.14 31.6586C184.836 32.5704 185.545 33.5328 186.507 33.5328H197.904Z" fill="#3C4043"/>
<path d="M234.223 68.1294C231.741 69.8517 228.651 70.7634 225.004 70.7634C222.877 70.7634 220.85 70.4595 218.976 69.801C217.507 69.2945 216.038 68.5347 214.62 67.5722C214.012 67.167 213.81 66.3059 214.215 65.6474L218.014 59.3157C218.419 58.6065 219.331 58.4039 220.04 58.8598C220.496 59.1637 220.952 59.417 221.408 59.6196C222.218 59.9742 223.079 60.1261 223.991 60.1261C226.068 60.1261 227.638 59.1637 228.651 57.1882L229.259 56.0232C229.462 55.6686 229.462 55.2127 229.31 54.8075L214.417 19.6538C214.012 18.6913 214.721 17.6783 215.734 17.6783H225.612C226.22 17.6783 226.726 18.0328 226.929 18.59L234.375 38.9528C234.831 40.2192 236.654 40.1685 237.06 38.9022L243.695 18.6407C243.898 18.0328 244.455 17.6783 245.063 17.6783H254.586C255.599 17.6783 256.257 18.6913 255.903 19.6031L240.099 60.1261C238.681 63.6719 236.654 66.3566 234.223 68.1294Z" fill="#3C4043"/>
<path d="M63.2163 12.6128H54.4025C53.3894 12.6128 52.5283 11.7517 52.5283 10.7386V1.8742C52.5283 0.861121 53.3894 0 54.4025 0H63.2669C64.28 0 65.1411 0.861121 65.1411 1.8742V10.7386C65.0905 11.8023 64.28 12.6128 63.2163 12.6128ZM55.5169 9.57357H62.0512V3.03923H55.5169V9.57357Z" fill="#E36458"/>
<path d="M62.2535 2.78595H58.8091V6.28107H62.2535V2.78595Z" fill="#E36458"/>
</svg>
