<svg width="545" height="434" viewBox="0 0 545 434" fill="none" xmlns="http://www.w3.org/2000/svg">
<path d="M272.5 433.709C83.63 433.709 5.61854 307.724 2.37706 302.538L0 298.864L55.5373 136.79V1.94487L161.858 30.4698C181.306 19.4488 271.636 -25.4996 379.469 30.4698L489.463 0V137.655L545 298.648L542.623 302.322C539.381 307.724 461.37 433.709 272.5 433.709ZM20.7454 296.271C34.7918 316.368 111.939 414.909 272.5 414.909C433.493 414.909 510.208 316.368 524.255 296.271L470.662 140.896V24.8513L377.308 50.567L374.066 48.8382C263.424 -10.5888 172.23 46.0289 168.557 48.406L165.099 50.567L160.993 49.4865L74.5539 26.1479V139.383L20.7454 296.271Z" fill="#E36458"/>
<path d="M110.857 99.1891H92.0566V48.6221L134.844 59.8592L130.09 78.2276L110.857 73.0413V99.1891Z" fill="#E36458"/>
<path d="M452.944 99.1891H433.927V73.0413L414.91 78.2276L410.156 59.8592L452.944 48.6221V99.1891Z" fill="#E36458"/>
<mask id="mask0" mask-type="alpha" maskUnits="userSpaceOnUse" x="138" y="205" width="96" height="48">
<path d="M138.303 205.293H233.386V252.835H138.303V205.293Z" fill="#C4C4C4"/>
</mask>
<g mask="url(#mask0)">
<path d="M212.425 245.272H157.536C151.054 245.272 145.867 240.085 145.867 233.602V178.713C145.867 172.23 151.054 167.044 157.536 167.044H212.425C218.908 167.044 224.095 172.23 224.095 178.713V233.602C224.095 240.085 218.908 245.272 212.425 245.272ZM164.668 226.471H205.078V186.061H164.668V226.471Z" fill="#E36458"/>
</g>
<mask id="mask1" mask-type="alpha" maskUnits="userSpaceOnUse" x="315" y="205" width="96" height="48">
<path d="M315.504 205.293H410.587V252.835H315.504V205.293Z" fill="#C4C4C4"/>
</mask>
<g mask="url(#mask1)">
<path d="M389.625 245.272H334.736C328.253 245.272 323.066 240.085 323.066 233.602V178.713C323.066 172.23 328.253 167.044 334.736 167.044H389.625C396.108 167.044 401.294 172.23 401.294 178.713V233.602C401.294 240.085 396.108 245.272 389.625 245.272ZM341.867 226.471H382.277V186.061H341.867V226.471Z" fill="#E36458"/>
</g>
<path d="M331.063 340.139H216.747C210.265 340.139 205.078 334.952 205.078 328.47V255.428C205.078 248.945 210.265 243.759 216.747 243.759H331.063C337.546 243.759 342.733 248.945 342.733 255.428V328.47C342.733 334.952 337.546 340.139 331.063 340.139ZM224.095 321.338H323.932V262.56H224.095V321.338Z" fill="#3C4043"/>
<path d="M283.953 339.923H263.855V360.02H283.953V339.923Z" fill="#3C4043"/>
<path d="M283.953 378.388H263.855V398.485H283.953V378.388Z" fill="#3C4043"/>
<path d="M145.866 265.801L146.275 265.513L145.857 264.919L145.451 265.522L145.866 265.801ZM145.866 265.801C146.275 265.513 146.275 265.513 146.275 265.513L146.275 265.514L146.276 265.514L146.278 265.518L146.288 265.531L146.324 265.583C146.356 265.629 146.404 265.697 146.466 265.787C146.59 265.966 146.773 266.231 147.006 266.574C147.474 267.26 148.147 268.258 148.969 269.511C150.613 272.018 152.854 275.544 155.244 279.622C158.424 285.047 161.871 291.459 164.526 297.754C167.174 304.037 169.056 310.257 169.056 315.283C169.056 324.024 166.135 330.166 161.739 334.117C157.353 338.059 151.552 339.774 145.866 339.774C134.436 339.774 122.676 331.331 122.676 315.283C122.676 310.63 124.603 304.506 127.296 298.199C129.997 291.875 133.496 285.302 136.698 279.729C139.042 275.647 141.23 272.096 142.832 269.566C143.632 268.301 144.287 267.291 144.741 266.596C144.968 266.249 145.146 265.981 145.266 265.799C145.326 265.709 145.373 265.639 145.404 265.593L145.439 265.54L145.448 265.527L145.45 265.523L145.451 265.522L145.451 265.522C145.451 265.522 145.451 265.522 145.866 265.801ZM141.252 306.658C142.546 303.387 144.206 299.847 146.029 296.295C147.716 299.58 149.246 302.867 150.455 305.961C152.352 310.821 152.93 313.9 152.93 315.283C152.93 317.743 152.554 319.343 152.126 320.377C151.7 321.403 151.216 321.892 150.958 322.123C150.152 322.848 148.492 323.648 145.866 323.648C144.011 323.648 142.246 322.942 141.047 321.812C140.069 320.89 138.803 319.082 138.803 315.283C138.803 314.412 139.29 311.619 141.252 306.658Z" fill="#E26559" stroke="#E26559"/>
<path d="M383.575 287.411L383.984 287.123L383.566 286.529L383.16 287.132L383.575 287.411ZM383.575 287.411C383.984 287.123 383.984 287.123 383.984 287.123L383.984 287.123L383.985 287.124L383.987 287.128L383.997 287.141L384.033 287.193C384.065 287.239 384.113 287.307 384.175 287.397C384.299 287.576 384.482 287.841 384.715 288.184C385.183 288.869 385.856 289.868 386.678 291.121C388.322 293.628 390.563 297.153 392.953 301.232C396.133 306.657 399.58 313.068 402.235 319.364C404.883 325.646 406.765 331.867 406.765 336.893C406.765 345.634 403.844 351.775 399.448 355.727C395.062 359.669 389.261 361.384 383.575 361.384C372.145 361.384 360.385 352.941 360.385 336.893C360.385 332.24 362.312 326.116 365.005 319.809C367.706 313.485 371.205 306.912 374.407 301.338C376.751 297.256 378.939 293.706 380.541 291.176C381.341 289.911 381.996 288.9 382.45 288.206C382.677 287.859 382.855 287.591 382.975 287.409C383.035 287.318 383.082 287.249 383.113 287.203L383.148 287.15L383.157 287.136L383.159 287.133L383.16 287.132L383.16 287.132C383.16 287.132 383.16 287.132 383.575 287.411ZM378.961 328.268C380.255 324.997 381.915 321.457 383.738 317.905C385.425 321.189 386.955 324.477 388.164 327.571C390.061 332.431 390.639 335.51 390.639 336.893C390.639 339.353 390.263 340.952 389.834 341.986C389.409 343.013 388.925 343.502 388.667 343.733C387.861 344.458 386.2 345.257 383.575 345.257C381.72 345.257 379.955 344.552 378.756 343.422C377.778 342.5 376.512 340.692 376.512 336.893C376.512 336.022 376.999 333.229 378.961 328.268Z" fill="#E26559" stroke="#E26559"/>
<path d="M184.765 345.757L185.173 345.47L184.755 344.875L184.35 345.478L184.765 345.757ZM184.765 345.757C185.173 345.47 185.173 345.47 185.174 345.47L185.174 345.47L185.174 345.471L185.177 345.474L185.186 345.488L185.222 345.54C185.255 345.586 185.302 345.654 185.364 345.743C185.488 345.923 185.671 346.187 185.905 346.53C186.372 347.216 187.045 348.215 187.867 349.468C189.511 351.974 191.753 355.5 194.143 359.578C197.322 365.003 200.77 371.415 203.424 377.71C206.073 383.993 207.955 390.213 207.955 395.239C207.955 403.98 205.034 410.122 200.637 414.073C196.252 418.016 190.451 419.731 184.765 419.731C173.334 419.731 161.574 411.287 161.574 395.239C161.574 390.586 163.502 384.463 166.195 378.156C168.895 371.831 172.395 365.258 175.596 359.685C177.941 355.603 180.129 352.053 181.73 349.522C182.531 348.257 183.185 347.247 183.64 346.553C183.867 346.206 184.044 345.937 184.165 345.756C184.225 345.665 184.271 345.596 184.302 345.549L184.337 345.496L184.346 345.483L184.349 345.48L184.349 345.479L184.35 345.478C184.35 345.478 184.35 345.478 184.765 345.757ZM180.151 386.614C181.445 383.343 183.104 379.804 184.927 376.252C186.614 379.536 188.145 382.824 189.353 385.918C191.251 390.777 191.828 393.857 191.828 395.239C191.828 397.699 191.452 399.299 191.024 400.333C190.599 401.359 190.114 401.848 189.857 402.08C189.051 402.804 187.39 403.604 184.765 403.604C182.91 403.604 181.144 402.899 179.945 401.768C178.967 400.846 177.701 399.039 177.701 395.239C177.701 394.368 178.188 391.576 180.151 386.614Z" fill="#E26559" stroke="#E26559"/>
</svg>
