<svg width="19" height="18" viewBox="0 0 19 18" fill="none" xmlns="http://www.w3.org/2000/svg">
<path d="M16.49 7.1625L15.0725 6.69L15.74 5.355C15.8077 5.21527 15.8303 5.05798 15.8048 4.90483C15.7793 4.75169 15.7068 4.61024 15.5975 4.5L14 2.9025C13.8892 2.79157 13.7464 2.71816 13.5917 2.6926C13.437 2.66704 13.2781 2.69061 13.1375 2.76L11.8025 3.4275L11.33 2.01C11.2801 1.86225 11.1854 1.73372 11.059 1.64231C10.9327 1.55091 10.781 1.50116 10.625 1.5H8.375C8.21777 1.4996 8.06439 1.54862 7.93653 1.64013C7.80868 1.73165 7.71282 1.86104 7.6625 2.01L7.19 3.4275L5.855 2.76C5.71527 2.69234 5.55798 2.66971 5.40483 2.69523C5.25169 2.72075 5.11024 2.79318 5 2.9025L3.4025 4.5C3.29157 4.61083 3.21816 4.75363 3.1926 4.90834C3.16704 5.06305 3.19061 5.22189 3.26 5.3625L3.9275 6.6975L2.51 7.17C2.36225 7.2199 2.23372 7.31462 2.14231 7.44098C2.05091 7.56734 2.00116 7.71905 2 7.875V10.125C1.9996 10.2822 2.04862 10.4356 2.14013 10.5635C2.23165 10.6913 2.36104 10.7872 2.51 10.8375L3.9275 11.31L3.26 12.645C3.19234 12.7847 3.16971 12.942 3.19523 13.0952C3.22075 13.2483 3.29318 13.3898 3.4025 13.5L5 15.0975C5.11083 15.2084 5.25363 15.2818 5.40834 15.3074C5.56305 15.333 5.72189 15.3094 5.8625 15.24L7.1975 14.5725L7.67 15.99C7.72032 16.139 7.81618 16.2684 7.94403 16.3599C8.07189 16.4514 8.22527 16.5004 8.3825 16.5H10.6325C10.7897 16.5004 10.9431 16.4514 11.071 16.3599C11.1988 16.2684 11.2947 16.139 11.345 15.99L11.8175 14.5725L13.1525 15.24C13.2913 15.306 13.4471 15.3277 13.5987 15.3022C13.7503 15.2767 13.8904 15.2052 14 15.0975L15.5975 13.5C15.7084 13.3892 15.7818 13.2464 15.8074 13.0917C15.833 12.937 15.8094 12.7781 15.74 12.6375L15.0725 11.3025L16.49 10.83C16.6378 10.7801 16.7663 10.6854 16.8577 10.559C16.9491 10.4327 16.9988 10.281 17 10.125V7.875C17.0004 7.71777 16.9514 7.56439 16.8599 7.43653C16.7684 7.30868 16.639 7.21282 16.49 7.1625ZM15.5 9.585L14.6 9.885C14.393 9.95213 14.2032 10.0635 14.0435 10.2113C13.8839 10.3592 13.7584 10.54 13.6756 10.7412C13.5928 10.9424 13.5548 11.1592 13.5642 11.3766C13.5736 11.594 13.6302 11.8067 13.73 12L14.1575 12.855L13.3325 13.68L12.5 13.23C12.3077 13.1342 12.097 13.0808 11.8822 13.0735C11.6675 13.0662 11.4537 13.1051 11.2552 13.1875C11.0568 13.27 10.8785 13.3942 10.7322 13.5516C10.5859 13.7091 10.4752 13.8961 10.4075 14.1L10.1075 15H8.915L8.615 14.1C8.54787 13.893 8.43652 13.7032 8.28868 13.5435C8.14083 13.3839 7.96003 13.2584 7.75882 13.1756C7.5576 13.0928 7.34079 13.0548 7.12342 13.0642C6.90605 13.0736 6.69333 13.1302 6.5 13.23L5.645 13.6575L4.82 12.8325L5.27 12C5.36982 11.8067 5.42639 11.594 5.43579 11.3766C5.44518 11.1592 5.40718 10.9424 5.32441 10.7412C5.24164 10.54 5.11609 10.3592 4.95646 10.2113C4.79684 10.0635 4.60696 9.95213 4.4 9.885L3.5 9.585V8.415L4.4 8.115C4.60696 8.04787 4.79684 7.93652 4.95646 7.78868C5.11609 7.64083 5.24164 7.46003 5.32441 7.25882C5.40718 7.0576 5.44518 6.84079 5.43579 6.62342C5.42639 6.40605 5.36982 6.19333 5.27 6L4.8425 5.1675L5.6675 4.3425L6.5 4.77C6.69333 4.86982 6.90605 4.92639 7.12342 4.93579C7.34079 4.94518 7.5576 4.90718 7.75882 4.82441C7.96003 4.74164 8.14083 4.61609 8.28868 4.45646C8.43652 4.29684 8.54787 4.10696 8.615 3.9L8.915 3H10.085L10.385 3.9C10.4521 4.10696 10.5635 4.29684 10.7113 4.45646C10.8592 4.61609 11.04 4.74164 11.2412 4.82441C11.4424 4.90718 11.6592 4.94518 11.8766 4.93579C12.094 4.92639 12.3067 4.86982 12.5 4.77L13.355 4.3425L14.18 5.1675L13.73 6C13.6342 6.19234 13.5808 6.40301 13.5735 6.61777C13.5662 6.83253 13.6051 7.04635 13.6875 7.24476C13.77 7.44318 13.8942 7.62155 14.0516 7.76781C14.2091 7.91407 14.3961 8.0248 14.6 8.0925L15.5 8.3925V9.585ZM9.5 6C8.90666 6 8.32664 6.17595 7.83329 6.50559C7.33994 6.83524 6.95543 7.30377 6.72836 7.85195C6.5013 8.40013 6.44189 9.00333 6.55765 9.58527C6.6734 10.1672 6.95912 10.7018 7.37868 11.1213C7.79824 11.5409 8.33279 11.8266 8.91473 11.9424C9.49667 12.0581 10.0999 11.9987 10.6481 11.7716C11.1962 11.5446 11.6648 11.1601 11.9944 10.6667C12.3241 10.1734 12.5 9.59335 12.5 9C12.5 8.20435 12.1839 7.44129 11.6213 6.87868C11.0587 6.31607 10.2957 6 9.5 6ZM9.5 10.5C9.20333 10.5 8.91332 10.412 8.66665 10.2472C8.41997 10.0824 8.22771 9.84812 8.11418 9.57403C8.00065 9.29994 7.97095 8.99834 8.02882 8.70737C8.0867 8.4164 8.22956 8.14912 8.43934 7.93934C8.64912 7.72956 8.9164 7.5867 9.20737 7.52882C9.49834 7.47095 9.79994 7.50065 10.074 7.61418C10.3481 7.72771 10.5824 7.91997 10.7472 8.16665C10.912 8.41332 11 8.70333 11 9C11 9.39783 10.842 9.77936 10.5607 10.0607C10.2794 10.342 9.89783 10.5 9.5 10.5Z" fill="white"/>
</svg>
