<svg width="560" height="542" viewBox="0 0 560 542" fill="none" xmlns="http://www.w3.org/2000/svg">
<path d="M532.596 88.0277L387.056 340.111L241.516 88.0277L532.596 88.0277Z" stroke="#F6D00A" stroke-width="4"/>
<rect x="239.829" y="85.5548" width="295.898" height="258.306" stroke="#E26559" stroke-width="0.5" stroke-dasharray="3 3 3 3 3 3"/>
<rect x="235.742" y="81.4673" width="7.67506" height="7.67506" fill="white" stroke="#E26559"/>
<rect x="532.14" y="81.4673" width="7.67506" height="7.67506" fill="white" stroke="#E26559"/>
<rect x="532.14" y="340.273" width="7.67506" height="7.67506" fill="white" stroke="#E26559"/>
<rect x="235.742" y="340.273" width="7.67506" height="7.67506" fill="white" stroke="#E26559"/>
<circle cx="100.486" cy="325.486" r="94.1486" stroke="#E26559" stroke-width="4"/>
<rect x="4.58789" y="229.588" width="191.797" height="191.797" stroke="#E26559" stroke-width="0.5" stroke-dasharray="3 3 3 3 3 3"/>
<rect x="0.5" y="225.5" width="7.67506" height="7.67506" fill="white" stroke="#E26559"/>
<rect x="0.5" y="417.797" width="7.67506" height="7.67506" fill="white" stroke="#E26559"/>
<rect x="192.797" y="225.5" width="7.67506" height="7.67506" fill="white" stroke="#E26559"/>
<rect x="192.797" y="417.797" width="7.67506" height="7.67506" fill="white" stroke="#E26559"/>
<circle cx="297.172" cy="480.617" r="55.8337" stroke="#0057FF" stroke-width="4"/>
<rect x="239.588" y="421.588" width="115.167" height="115.167" stroke="#E26559" stroke-width="0.5" stroke-dasharray="3 3 3 3 3 3"/>
<rect x="235.5" y="417.5" width="7.67506" height="7.67506" fill="white" stroke="#E26559"/>
<rect x="235.5" y="533.168" width="7.67506" height="7.67506" fill="white" stroke="#E26559"/>
<rect x="351.168" y="417.5" width="7.67506" height="7.67506" fill="white" stroke="#E26559"/>
<rect x="351.168" y="533.168" width="7.67506" height="7.67506" fill="white" stroke="#E26559"/>
</svg>
