<svg width="532" height="218" viewBox="0 0 532 218" fill="none" xmlns="http://www.w3.org/2000/svg">
<g opacity="0.2">
<path d="M402.274 34.2922C367.55 7.64888 301.643 0.951977 245.704 5.68226C185.026 10.8122 126.719 29.5664 89.5913 56.3721C55.0043 81.3452 41.6319 115.201 68.5468 144.05C98.7352 176.406 174.643 184.652 234.451 189.666C270.539 192.69 307.15 193.786 343.622 192.846C377.47 191.974 413.116 190.173 444.979 183.465C499.395 172.01 530.48 142.761 528.176 111.278C525.751 78.1478 487.349 48.7283 440.118 29.4427C389.271 8.67988 324.577 -1.95818 261.219 0.297954C141.516 4.56157 15.9106 58.9257 18.9911 128.97C20.4359 161.836 53.6177 191.664 109.081 205.065C167.365 219.146 238.159 219.605 300.001 213.722C362.489 207.776 426.216 193.818 474.794 171.116C496.648 160.902 515.961 148.214 525.774 133.26C535.64 118.225 533.417 102.328 521.676 87.8116C497.063 57.3759 441.909 35.5003 386.467 23.9448C321.751 10.4591 250.493 10.2218 183.32 17.9281C126.024 24.5024 57.296 35.6513 23.4085 64.0296C-9.44944 91.5461 -4.82248 130.423 19.4125 159.313C31.008 173.136 48.3139 185.56 70.8177 194.582C97.9194 205.444 131.134 210.163 163.953 212.62C226.304 217.288 292.825 218.261 354.045 209.235C383.338 204.916 410.685 198.024 435.209 188.231C438.412 186.952 435.31 183.997 432.068 185.291C384.175 204.419 324.836 211.242 266.512 212.165C237.397 212.624 208.184 211.755 179.233 210.068C147.178 208.2 114.339 204.848 86.1559 195.847C36.5981 180.02 10.4907 148.396 7.28153 117.932C5.51917 101.202 9.94064 83.7001 25.3742 68.9892C40.0107 55.0391 63.951 45.2288 89.9484 38.214C146.703 22.9036 214.739 15.5891 277.753 16.3055C337.409 16.9845 396.947 26.1783 445.849 45.2243C492.789 63.505 539.044 94.8604 521.608 128.314C505.504 159.214 449.801 179.696 399.571 192.707C343.852 207.138 281.802 214.231 220.188 213.321C160.505 212.44 91.9473 205.276 54.614 177.203C19.1198 150.514 18.1608 115.124 41.9039 85.5895C65.6594 56.0394 110.443 32.3188 163.131 18.1983C272.104 -11.002 413.415 5.34617 486.174 59.5775C519.97 84.7686 533.828 118.255 508.3 147.353C479.512 180.168 413.687 186.718 353.301 188.888C287.183 191.266 219.516 187.187 156.364 176.063C126.968 170.884 98.6231 163.032 80.9788 148.641C65.4725 135.994 58.9919 120.349 60.6691 105.243C64.2665 72.8373 106.096 45.23 154.192 28.205C204.495 10.3978 268.536 1.72523 327.441 10.1764C355.645 14.222 381.948 22.2054 399.53 35.1699C400.729 36.0499 403.467 35.2108 402.274 34.2922Z" fill="#E26559"/>
</g>
</svg>
