<svg width="20" height="20" viewBox="0 0 20 20" fill="none" xmlns="http://www.w3.org/2000/svg">
<path d="M3.57143 1C2.15313 1 1 2.15313 1 3.57143V16.4286C1 17.8469 2.15313 19 3.57143 19H16.4286C17.8469 19 19 17.8469 19 16.4286V3.57143C19 2.15313 17.8469 1 16.4286 1H3.57143ZM15.5085 4.375L11.3379 9.14018L16.2437 15.625H12.4027L9.39732 11.6915L5.95402 15.625H4.04554L8.50536 10.5263L3.80045 4.375H7.73795L10.458 7.97098L13.6 4.375H15.5085ZM13.9897 14.4839L7.16339 5.4558H6.02634L12.929 14.4839H13.9857H13.9897Z" fill="#F8F8F8"/>
</svg>
