<svg width="590" height="391" viewBox="0 0 590 391" fill="none" xmlns="http://www.w3.org/2000/svg">
<circle r="190.513" transform="matrix(-1 0 0 1 395.498 194.503)" fill="#FFD5D1"/>
<mask id="mask0" mask-type="alpha" maskUnits="userSpaceOnUse" x="204" y="3" width="383" height="383">
<circle r="190.513" transform="matrix(-1 0 0 1 395.498 194.503)" fill="#FFD5D1"/>
</mask>
<g mask="url(#mask0)">
<path d="M431.405 280.283V388.008L365.574 397.982L294.755 371.051L299.742 331.153L317.696 318.186L337.645 314.196H361.584V280.283L340.638 260.334L326.673 241.383L334.653 208.467L350.612 180.538L375.548 155.602L400.485 141.638L426.418 131.663H455.344H468.311L471.303 187.52L482.275 190.513L495.242 201.485V215.449L490.255 228.416L495.242 237.393L486.265 244.375H477.288L471.303 237.393L468.311 244.375L461.329 252.355L431.405 280.283Z" fill="white"/>
<path d="M512.199 386.013H430.408V282.278L462.327 251.357L467.314 239.388L479.283 245.372H486.266L490.255 235.398L486.266 227.418L493.248 212.457L490.255 195.5L479.283 190.513L467.314 186.523V130.666H434.398L399.487 140.64L367.569 160.589L340.638 195.5L323.681 235.398L326.674 245.372L357.595 278.288V297.24H350.612L326.674 282.278L307.722 267.316L289.768 239.388L278.796 204.477L280.791 165.576L289.768 137.648L304.73 111.714L340.638 86.778L364.577 73.8112L403.477 71.8163L441.38 82.7883L479.283 105.73L502.225 143.633L512.199 190.513V386.013Z" fill="#FFD5D1"/>
<path d="M511.201 385.838V188.343C510.536 168.726 500.628 122.91 466.316 96.5775C423.426 63.6616 369.563 70.6438 343.63 83.6106C317.696 96.5775 278.796 127.498 278.796 188.343C278.796 249.187 316.699 284.098 351.609 297.065C352.607 297.397 355.4 298.262 358.591 299.06" stroke="#E26559" stroke-width="8"/>
<path d="M358.593 277.116V313.024H332.659C317.697 313.024 294.557 326.988 293.759 350.927V385.838" stroke="#E26559" stroke-width="8"/>
<path d="M384.526 149.442C416.445 128.695 453.018 129.493 467.314 132.486V228.241C467.314 244.998 460.665 253.842 457.34 256.169C450.025 262.819 431.406 278.911 415.447 290.083C399.488 301.254 382.199 294.737 375.549 290.083C355.6 276.118 333.656 259.162 323.682 240.21C327.672 212.282 344.628 175.376 384.526 149.442Z" stroke="#E26559" stroke-width="8"/>
<path d="M468.311 187.55C472.976 186.873 483.082 187.55 487.747 194.661C493.515 203.456 494.744 218.027 485.415 229.201L483.86 231.233" stroke="#E26559" stroke-width="8"/>
<circle r="10.9617" transform="matrix(-1 0 0 1 481.278 236.22)" stroke="#E26559" stroke-width="8"/>
<path d="M430.407 278.113V385.838" stroke="#E26559" stroke-width="8"/>
<path d="M342.633 314.021V349.93" stroke="#E26559" stroke-width="8"/>
<path d="M429.409 349.929H293.756" stroke="#E26559" stroke-width="8"/>
<mask id="path-13-inside-1" fill="white">
<rect width="35.9082" height="35.9082" rx="3" transform="matrix(-1 0 0 1 440.383 185.35)"/>
</mask>
<rect width="35.9082" height="35.9082" rx="3" transform="matrix(-1 0 0 1 440.383 185.35)" stroke="#E26559" stroke-width="16" mask="url(#path-13-inside-1)"/>
<mask id="path-14-inside-2" fill="white">
<rect width="35.9082" height="35.9082" rx="3" transform="matrix(-1 0 0 1 384.526 185.35)"/>
</mask>
<rect width="35.9082" height="35.9082" rx="3" transform="matrix(-1 0 0 1 384.526 185.35)" stroke="#E26559" stroke-width="16" mask="url(#path-14-inside-2)"/>
<path d="M412.454 255.172C406.469 261.193 390.909 269.624 376.546 255.172" stroke="#E26559" stroke-width="8" stroke-linecap="round"/>
<path d="M402.479 235.223C399.82 236.728 392.904 238.836 386.52 235.223" stroke="#E26559" stroke-width="8" stroke-linecap="round"/>
<path d="M434.397 171.386L408.464 171.386" stroke="#E26559" stroke-width="8" stroke-linecap="round"/>
<path d="M380.534 171.386L360.585 171.386" stroke="#E26559" stroke-width="8" stroke-linecap="round"/>
<rect width="13.9643" height="13.9643" rx="1" transform="matrix(-1 0 0 1 422.428 203.304)" fill="#E26559"/>
<rect width="13.9643" height="13.9643" rx="1" transform="matrix(-1 0 0 1 366.572 203.304)" fill="#E26559"/>
</g>
<circle r="191.5" transform="matrix(-1 0 0 1 394.5 195.5)" stroke="#E26559" stroke-width="8"/>
<circle cx="97.5" cy="291.5" r="95.5" fill="#DFE6EC"/>
<path d="M57 299V287.5H52.5L44.5 294L45.5 301.5L52.5 307.5L57 310L62.5 328L77 340.5L67 348.5L82 370L91.5 362.5L96.5 366L100 364.5L110.5 371.5L125 348.5L118.5 342V338.5L129.5 331L135 321L138 307.5H142L147 301.5L148.5 295L142 287.5H138L136 299L129.5 292.5L125 281.5L123.5 270L125 261.5L129.5 253.5V250L118.5 240.5L105.5 235.5H86L69.5 242.5L62.5 251.5L69.5 259V272L67 285L62.5 295L57 299Z" fill="white"/>
<mask id="mask1" mask-type="alpha" maskUnits="userSpaceOnUse" x="2" y="196" width="191" height="191">
<circle cx="97.5" cy="291.5" r="95.5" fill="#C4C4C4"/>
</mask>
<g mask="url(#mask1)">
<path d="M56 259.5V299L64.5 294L67.5 281L69.5 265.5L67.5 258L62.5 253L59.5 255L56 259.5Z" fill="#DFE6EC"/>
<path d="M126 258L123 262.5V270.5L126 282.5L131 294L137 300.5L136 262.5V255L131 253L126 258Z" fill="#DFE6EC"/>
<path d="M41 385H151.5L152.5 368.5L149.5 359.5L138.5 350L131 348.5H126L111 371.5L100 364L96 366L92 364L82 371.5L67.5 350H59.5L50 353L44 360.5L41 368V385Z" fill="#DFE6EC"/>
<mask id="path-26-inside-3" fill="white">
<rect x="74.5" y="283.5" width="18" height="18" rx="3"/>
</mask>
<rect x="74.5" y="283.5" width="18" height="18" rx="3" stroke="#3C4043" stroke-width="10" mask="url(#path-26-inside-3)"/>
<mask id="path-27-inside-4" fill="white">
<rect x="102.5" y="283.5" width="18" height="18" rx="3"/>
</mask>
<rect x="102.5" y="283.5" width="18" height="18" rx="3" stroke="#3C4043" stroke-width="10" mask="url(#path-27-inside-4)"/>
<path d="M86.5 319C90.3333 322.018 100.3 326.244 109.5 319" stroke="#3C4043" stroke-width="5" stroke-linecap="round"/>
<path d="M93.5 308.5C94.8333 309.255 98.3 310.311 101.5 308.5" stroke="#3C4043" stroke-width="5" stroke-linecap="round"/>
<path d="M77.5 276.5L90.5 276.5" stroke="#3C4043" stroke-width="5" stroke-linecap="round"/>
<path d="M91.5 290.5L104.5 290.5" stroke="#3C4043" stroke-width="5" stroke-linecap="round"/>
<path d="M104.5 276.5L114.5 276.5" stroke="#3C4043" stroke-width="5" stroke-linecap="round"/>
<rect x="83.5" y="286" width="7" height="7" rx="1" fill="#3C4043"/>
<rect x="111.5" y="286" width="7" height="7" rx="1" fill="#3C4043"/>
<path d="M62 253C64.5 247 74.9 235 96.5 235C118.1 235 128.5 247 131 253" stroke="#3C4043" stroke-width="5"/>
<path d="M62 253C59.2 253 57.1667 256.667 56.5 258.5V298.5C58 298.833 62 297.2 66 288C71 276.5 70 266 70 263C70 260 65.5 253 62 253Z" stroke="#3C4043" stroke-width="5"/>
<path d="M131.582 253.5C134.382 253.5 136.415 257.167 137.082 259V299C135.582 299.333 131.582 297.7 127.582 288.5C122.582 277 123.582 266.5 123.582 263.5C123.582 260.5 128.082 253.5 131.582 253.5Z" stroke="#3C4043" stroke-width="5"/>
<path d="M56.5 298.5V311C56.5 319 70 345.5 96 345.5C128.5 345.5 137 316.5 137 311C137 307.8 137 302 137 299" stroke="#3C4043" stroke-width="5"/>
<path d="M56.4998 286.5C52.4998 287 44.5498 289 44.9998 298C45.3998 306 52.8331 308.333 56.4998 308.5" stroke="#3C4043" stroke-width="5"/>
<path d="M137.5 286.5C141.32 287 148.912 289 148.482 298C148.1 306 141.002 308.333 137.5 308.5" stroke="#3C4043" stroke-width="5"/>
<path d="M41.5 385V369C41.8333 362.167 47.6 348.6 68 349" stroke="#3C4043" stroke-width="5"/>
<path d="M152 385.009V368.509C151.667 361.675 145.9 348.109 125.5 348.509" stroke="#3C4043" stroke-width="5"/>
<path d="M76 339.5L67.5 349L82 371L92.5 363.5L96.5 366.5L100 363.5L110.5 371L126 348.5" stroke="#3C4043" stroke-width="5"/>
<path d="M74.5 341.5L92.5 363.5" stroke="#3C4043" stroke-width="5"/>
<path d="M119.5 342.5L100 363.5" stroke="#3C4043" stroke-width="5"/>
<path d="M117.5 340.5L126 349" stroke="#3C4043" stroke-width="5"/>
</g>
<circle cx="98" cy="293" r="95.5" stroke="#3C4043" stroke-width="5"/>
</svg>
