<svg width="535" height="410" viewBox="0 0 535 410" fill="none" xmlns="http://www.w3.org/2000/svg">
<rect x="20" y="49" width="515" height="340" fill="#E26559"/>
<rect width="72" height="22" transform="translate(193 61)" fill="white"/>
<path d="M209.25 71.25H207.75V68.25C207.75 68.0511 207.671 67.8603 207.53 67.7197C207.39 67.579 207.199 67.5 207 67.5C206.801 67.5 206.61 67.579 206.47 67.7197C206.329 67.8603 206.25 68.0511 206.25 68.25V72C206.25 72.1989 206.329 72.3897 206.47 72.5303C206.61 72.671 206.801 72.75 207 72.75H209.25C209.449 72.75 209.64 72.671 209.78 72.5303C209.921 72.3897 210 72.1989 210 72C210 71.8011 209.921 71.6103 209.78 71.4697C209.64 71.329 209.449 71.25 209.25 71.25ZM207 64.5C205.517 64.5 204.067 64.9399 202.833 65.764C201.6 66.5881 200.639 67.7594 200.071 69.1299C199.503 70.5003 199.355 72.0083 199.644 73.4632C199.934 74.918 200.648 76.2544 201.697 77.3033C202.746 78.3522 204.082 79.0665 205.537 79.3559C206.992 79.6453 208.5 79.4968 209.87 78.9291C211.241 78.3614 212.412 77.4001 213.236 76.1668C214.06 74.9334 214.5 73.4834 214.5 72C214.5 71.0151 214.306 70.0398 213.929 69.1299C213.552 68.2199 213 67.3931 212.303 66.6967C211.607 66.0003 210.78 65.4478 209.87 65.0709C208.96 64.694 207.985 64.5 207 64.5ZM207 78C205.813 78 204.653 77.6481 203.667 76.9888C202.68 76.3295 201.911 75.3925 201.457 74.2961C201.003 73.1997 200.884 71.9933 201.115 70.8295C201.347 69.6656 201.918 68.5965 202.757 67.7574C203.596 66.9182 204.666 66.3468 205.829 66.1153C206.993 65.8838 208.2 66.0026 209.296 66.4567C210.392 66.9108 211.33 67.6799 211.989 68.6666C212.648 69.6533 213 70.8133 213 72C213 73.5913 212.368 75.1174 211.243 76.2426C210.117 77.3679 208.591 78 207 78Z" fill="#E26559"/>
<path d="M225.124 71.19C226.888 71.47 227.784 72.562 227.784 74.004C227.784 75.656 226.51 77.168 223.724 77.168C222.352 77.168 220.938 76.79 219.986 76.118L220.868 74.382C221.61 74.942 222.646 75.264 223.668 75.264C224.802 75.264 225.502 74.802 225.502 74.004C225.502 73.262 224.956 72.8 223.668 72.8H222.632V71.302L224.648 69.02H220.476V67.2H227.336V68.67L225.124 71.19ZM237.805 73.094V74.942H236.209V77H233.997V74.942H228.719V73.416L233.339 67.2H235.719L231.435 73.094H234.067V71.26H236.209V73.094H237.805ZM239.881 72.086C239.125 72.086 238.523 71.512 238.523 70.714C238.523 69.902 239.125 69.37 239.881 69.37C240.637 69.37 241.239 69.902 241.239 70.714C241.239 71.512 240.637 72.086 239.881 72.086ZM239.881 77.112C239.125 77.112 238.523 76.538 238.523 75.74C238.523 74.928 239.125 74.396 239.881 74.396C240.637 74.396 241.239 74.928 241.239 75.74C241.239 76.538 240.637 77.112 239.881 77.112ZM246.457 77.168C244.049 77.168 242.257 75.334 242.257 72.1C242.257 68.866 244.049 67.032 246.457 67.032C248.879 67.032 250.657 68.866 250.657 72.1C250.657 75.334 248.879 77.168 246.457 77.168ZM246.457 75.25C247.591 75.25 248.375 74.326 248.375 72.1C248.375 69.874 247.591 68.95 246.457 68.95C245.337 68.95 244.553 69.874 244.553 72.1C244.553 74.326 245.337 75.25 246.457 75.25ZM256.2 71.19C257.964 71.47 258.86 72.562 258.86 74.004C258.86 75.656 257.586 77.168 254.8 77.168C253.428 77.168 252.014 76.79 251.062 76.118L251.944 74.382C252.686 74.942 253.722 75.264 254.744 75.264C255.878 75.264 256.578 74.802 256.578 74.004C256.578 73.262 256.032 72.8 254.744 72.8H253.708V71.302L255.724 69.02H251.552V67.2H258.412V68.67L256.2 71.19Z" fill="#E26559"/>
<path d="M284.792 68.88H278.92V71.84H284.104V73.92H278.92V78H276.328V66.8H284.792V68.88ZM292.328 69.392H294.824V78H292.456V76.976C291.8 77.728 290.84 78.128 289.784 78.128C287.624 78.128 286.104 76.912 286.104 74.256V69.392H288.6V73.888C288.6 75.328 289.24 75.968 290.344 75.968C291.496 75.968 292.328 75.232 292.328 73.648V69.392ZM302.368 69.264C304.4 69.264 305.936 70.448 305.936 73.072V78H303.44V73.456C303.44 72.064 302.8 71.424 301.696 71.424C300.496 71.424 299.632 72.16 299.632 73.744V78H297.136V69.392H299.52V70.4C300.192 69.664 301.2 69.264 302.368 69.264ZM313.431 69.264C315.463 69.264 316.999 70.448 316.999 73.072V78H314.503V73.456C314.503 72.064 313.863 71.424 312.759 71.424C311.559 71.424 310.695 72.16 310.695 73.744V78H308.199V69.392H310.583V70.4C311.255 69.664 312.263 69.264 313.431 69.264ZM325.249 69.392H327.649L323.761 78.528C322.929 80.608 321.745 81.232 320.193 81.232C319.313 81.232 318.353 80.944 317.793 80.448L318.705 78.672C319.089 79.008 319.617 79.216 320.113 79.216C320.801 79.216 321.185 78.912 321.521 78.144L321.553 78.064L317.825 69.392H320.401L322.817 75.232L325.249 69.392ZM328.098 74.496V72.496H332.626V74.496H328.098ZM336.507 78V68.912H332.923V66.8H342.683V68.912H339.099V78H336.507ZM346.937 69.264C349.561 69.264 351.081 70.48 351.081 73.088V78H348.745V76.928C348.281 77.712 347.385 78.128 346.121 78.128C344.105 78.128 342.905 77.008 342.905 75.52C342.905 74 343.977 72.944 346.601 72.944H348.585C348.585 71.872 347.945 71.248 346.601 71.248C345.689 71.248 344.745 71.552 344.121 72.048L343.225 70.304C344.169 69.632 345.561 69.264 346.937 69.264ZM346.745 76.448C347.577 76.448 348.297 76.064 348.585 75.28V74.4H346.873C345.705 74.4 345.337 74.832 345.337 75.408C345.337 76.032 345.865 76.448 346.745 76.448ZM355.9 76.08H360.428V78H352.748V76.496L357.132 71.312H352.86V69.392H360.284V70.896L355.9 76.08Z" fill="white"/>
<rect x="219.538" y="151" width="126.029" height="126.029" rx="2" fill="white"/>
<mask id="mask0_931_7669" style="mask-type:alpha" maskUnits="userSpaceOnUse" x="219" y="151" width="127" height="127">
<rect x="219.538" y="151" width="126.029" height="126.029" rx="2" fill="white"/>
</mask>
<g mask="url(#mask0_931_7669)">
<g opacity="0.35">
<path fill-rule="evenodd" clip-rule="evenodd" d="M324.539 236.937L296.618 209.016C296.525 208.923 296.43 208.852 296.337 208.805L297.428 207.714C298.038 207.15 298.625 206.728 299.188 206.446L335.031 198.278L326.862 234.12C326.581 234.683 326.159 235.27 325.595 235.88L324.539 236.937Z" fill="#AA4C43"/>
<path fill-rule="evenodd" clip-rule="evenodd" d="M296.337 208.805C296.431 208.852 296.525 208.922 296.619 209.016L324.539 236.936L268.879 292.596C264.983 296.492 260.277 298.452 254.761 298.476C249.291 298.452 244.609 296.492 240.713 292.596C236.816 288.7 234.856 284.017 234.833 278.548C234.857 273.031 236.816 268.325 240.713 264.429L296.337 208.805Z" fill="#AA4C43"/>
</g>
</g>
<path fill-rule="evenodd" clip-rule="evenodd" d="M311.381 213.7L283.46 185.78C283.367 185.686 283.272 185.616 283.179 185.569L284.27 184.477C284.88 183.914 285.467 183.491 286.03 183.21L321.873 175.041L313.704 210.884C313.423 211.447 313.001 212.033 312.437 212.644L311.381 213.7Z" fill="#3C4043"/>
<path fill-rule="evenodd" clip-rule="evenodd" d="M283.179 185.568C283.272 185.616 283.367 185.686 283.46 185.78L311.381 213.7L243.985 281.096C240.089 284.992 235.382 286.952 229.866 286.975C224.397 286.952 219.714 284.992 215.818 281.096C211.922 277.199 209.962 272.517 209.938 267.047C209.962 261.531 211.922 256.825 215.818 252.929L283.179 185.568Z" fill="white"/>
<g filter="url(#filter0_d_931_7669)">
<path fill-rule="evenodd" clip-rule="evenodd" d="M5.0811 294.391L13.0743 313.39C13.4183 314.207 14.5775 314.206 14.919 313.387L16.7512 308.994L20.8787 313.121C22.0502 314.293 23.9497 314.293 25.1213 313.121C26.2929 311.95 26.2929 310.05 25.1213 308.879L20.9939 304.751L25.3868 302.919C26.2055 302.578 26.2072 301.418 25.3896 301.074L6.39065 293.081C5.56453 292.734 4.73354 293.565 5.0811 294.391Z" fill="#12131A"/>
</g>
<path fill-rule="evenodd" clip-rule="evenodd" d="M16.0546 305.469L22.2929 311.707C22.6834 312.098 23.3166 312.098 23.7071 311.707C24.0976 311.317 24.0976 310.683 23.7071 310.293L17.4688 304.055L22.4137 301.992L7.87567 295.876L13.992 310.414L16.0546 305.469ZM25.3868 302.919C26.2055 302.578 26.2072 301.418 25.3896 301.074L6.39065 293.081C5.56453 292.734 4.73354 293.565 5.0811 294.391L13.0743 313.39C13.4183 314.207 14.5775 314.206 14.919 313.387L16.7512 308.994L20.8787 313.121C22.0502 314.293 23.9497 314.293 25.1213 313.121C26.2929 311.95 26.2929 310.05 25.1213 308.879L20.9939 304.751L25.3868 302.919Z" fill="white"/>
<rect width="65" height="20" transform="translate(32 303)" fill="#63CCCA"/>
<path d="M43.272 317L42.528 315.2H38.628L37.884 317H35.892L39.636 308.6H41.556L45.312 317H43.272ZM39.252 313.724H41.916L40.584 310.508L39.252 313.724ZM47.8395 311.396C48.2955 310.772 49.0635 310.448 50.0595 310.448V312.176C49.9035 312.164 49.7835 312.152 49.6395 312.152C48.6075 312.152 47.9235 312.716 47.9235 313.952V317H46.0515V310.544H47.8395V311.396ZM51.1726 317V308.096H53.0446V317H51.1726ZM61.106 313.796C61.106 313.94 61.082 314.144 61.07 314.3H56.186C56.366 315.104 57.05 315.596 58.034 315.596C58.718 315.596 59.21 315.392 59.654 314.972L60.65 316.052C60.05 316.736 59.15 317.096 57.986 317.096C55.754 317.096 54.302 315.692 54.302 313.772C54.302 311.84 55.778 310.448 57.746 310.448C59.642 310.448 61.106 311.72 61.106 313.796ZM57.758 311.864C56.906 311.864 56.294 312.38 56.162 313.208H59.342C59.21 312.392 58.598 311.864 57.758 311.864ZM66.2763 310.448C67.8003 310.448 68.9523 311.336 68.9523 313.304V317H67.0803V313.592C67.0803 312.548 66.6003 312.068 65.7723 312.068C64.8723 312.068 64.2243 312.62 64.2243 313.808V317H62.3523V310.544H64.1403V311.3C64.6443 310.748 65.4003 310.448 66.2763 310.448ZM77.0435 313.796C77.0435 313.94 77.0195 314.144 77.0075 314.3H72.1235C72.3035 315.104 72.9875 315.596 73.9715 315.596C74.6555 315.596 75.1475 315.392 75.5915 314.972L76.5875 316.052C75.9875 316.736 75.0875 317.096 73.9235 317.096C71.6915 317.096 70.2395 315.692 70.2395 313.772C70.2395 311.84 71.7155 310.448 73.6835 310.448C75.5795 310.448 77.0435 311.72 77.0435 313.796ZM73.6955 311.864C72.8435 311.864 72.2315 312.38 72.0995 313.208H75.2795C75.1475 312.392 74.5355 311.864 73.6955 311.864ZM91.2882 317H89.4642L89.4522 311.96L86.9802 316.112H86.1042L83.6442 312.068V317H81.8202V308.6H83.4282L86.5722 313.82L89.6682 308.6H91.2642L91.2882 317Z" fill="white"/>
<g filter="url(#filter1_d_931_7669)">
<path fill-rule="evenodd" clip-rule="evenodd" d="M97 94C97 92.3431 98.3431 91 100 91C101.892 91 103.63 91.6567 105 92.7546C106.37 91.6567 108.108 91 110 91C111.657 91 113 92.3431 113 94C113 95.6569 111.657 97 110 97C108.895 97 108 97.8954 108 99V111C108 112.105 108.895 113 110 113C111.657 113 113 114.343 113 116C113 117.657 111.657 119 110 119C108.108 119 106.37 118.343 105 117.245C103.63 118.343 101.892 119 100 119C98.3431 119 97 117.657 97 116C97 114.343 98.3431 113 100 113C101.105 113 102 112.105 102 111V99C102 97.8954 101.105 97 100 97C98.3431 97 97 95.6569 97 94Z" fill="#12131A"/>
</g>
<path fill-rule="evenodd" clip-rule="evenodd" d="M105 95.3179L103.749 94.3151C102.721 93.4914 101.421 93 100 93C99.4477 93 99 93.4477 99 94C99 94.5523 99.4477 95 100 95C102.209 95 104 96.7909 104 99V111C104 113.209 102.209 115 100 115C99.4477 115 99 115.448 99 116C99 116.552 99.4477 117 100 117C101.421 117 102.721 116.509 103.749 115.685L105 114.682L106.251 115.685C107.279 116.509 108.579 117 110 117C110.552 117 111 116.552 111 116C111 115.448 110.552 115 110 115C107.791 115 106 113.209 106 111V99C106 96.7909 107.791 95 110 95C110.552 95 111 94.5523 111 94C111 93.4477 110.552 93 110 93C108.579 93 107.279 93.4914 106.251 94.3151L105 95.3179ZM105 92.7546C103.63 91.6567 101.892 91 100 91C98.3431 91 97 92.3431 97 94C97 95.6569 98.3431 97 100 97C101.105 97 102 97.8954 102 99V111C102 112.105 101.105 113 100 113C98.3431 113 97 114.343 97 116C97 117.657 98.3431 119 100 119C101.892 119 103.63 118.343 105 117.245C106.37 118.343 108.108 119 110 119C111.657 119 113 117.657 113 116C113 114.343 111.657 113 110 113C108.895 113 108 112.105 108 111V99C108 97.8954 108.895 97 110 97C111.657 97 113 95.6569 113 94C113 92.3431 111.657 91 110 91C108.108 91 106.37 91.6567 105 92.7546Z" fill="white"/>
<rect width="53" height="20" transform="translate(121 104)" fill="#FFB800"/>
<path d="M127.544 118.144C126.416 118.144 125.42 117.712 124.808 116.92L125.888 115.624C126.344 116.236 126.848 116.548 127.448 116.548C128.228 116.548 128.636 116.08 128.636 115.156V111.16H125.684V109.6H130.568V115.048C130.568 117.124 129.524 118.144 127.544 118.144ZM135.428 118.096C133.376 118.096 131.876 116.716 131.876 114.772C131.876 112.828 133.376 111.448 135.428 111.448C137.48 111.448 138.968 112.828 138.968 114.772C138.968 116.716 137.48 118.096 135.428 118.096ZM135.428 116.56C136.364 116.56 137.072 115.888 137.072 114.772C137.072 113.656 136.364 112.984 135.428 112.984C134.492 112.984 133.772 113.656 133.772 114.772C133.772 115.888 134.492 116.56 135.428 116.56ZM144.143 111.448C145.667 111.448 146.819 112.336 146.819 114.304V118H144.947V114.592C144.947 113.548 144.467 113.068 143.639 113.068C142.739 113.068 142.091 113.62 142.091 114.808V118H140.219V109.096H142.091V112.216C142.595 111.712 143.315 111.448 144.143 111.448ZM152.44 111.448C153.964 111.448 155.116 112.336 155.116 114.304V118H153.244V114.592C153.244 113.548 152.764 113.068 151.936 113.068C151.036 113.068 150.388 113.62 150.388 114.808V118H148.516V111.544H150.304V112.3C150.808 111.748 151.564 111.448 152.44 111.448ZM160.344 118V109.6H164.16C166.908 109.6 168.792 111.256 168.792 113.8C168.792 116.344 166.908 118 164.16 118H160.344ZM162.288 116.404H164.064C165.732 116.404 166.824 115.408 166.824 113.8C166.824 112.192 165.732 111.196 164.064 111.196H162.288V116.404Z" fill="white"/>
<g filter="url(#filter2_d_931_7669)">
<path fill-rule="evenodd" clip-rule="evenodd" d="M324.105 267.21C324.452 265.936 325.617 265 327 265C328.383 265 329.548 265.936 329.895 267.21C330.237 267.075 330.61 267 331 267C332.657 267 334 268.343 334 270V271.171C334.313 271.06 334.649 271 335 271C336.657 271 338 272.343 338 274V282.344C338 284.259 337.5 286.14 336.551 287.802L334.732 290.985C334.02 292.231 332.694 293 331.259 293H323.544C322.252 293 321.04 292.376 320.289 291.325L317.304 287.146C316.456 285.959 316 284.536 316 283.077V277C316 275.343 317.343 274 319 274C319.351 274 319.687 274.06 320 274.171V270C320 268.343 321.343 267 323 267C323.39 267 323.763 267.075 324.105 267.21Z" fill="white"/>
</g>
<path fill-rule="evenodd" clip-rule="evenodd" d="M324.105 267.21C324.452 265.936 325.617 265 327 265C328.383 265 329.548 265.936 329.895 267.21C330.237 267.075 330.61 267 331 267C332.657 267 334 268.343 334 270V271.171C334.313 271.06 334.649 271 335 271C336.657 271 338 272.343 338 274V282.344C338 284.259 337.5 286.14 336.551 287.802L334.732 290.985C334.02 292.231 332.694 293 331.259 293H323.544C322.252 293 321.04 292.376 320.289 291.325L317.304 287.146C316.456 285.959 316 284.536 316 283.077V277C316 275.343 317.343 274 319 274C319.351 274 319.687 274.06 320 274.171V270C320 268.343 321.343 267 323 267C323.39 267 323.763 267.075 324.105 267.21ZM326 277C326 277.552 325.552 278 325 278C324.448 278 324 277.552 324 277V270C324 269.448 323.552 269 323 269C322.448 269 322 269.448 322 270V281C322 281.552 321.552 282 321 282C320.448 282 320 281.552 320 281V277C320 276.448 319.552 276 319 276C318.448 276 318 276.448 318 277V283.077C318 284.119 318.326 285.135 318.931 285.983L321.916 290.162C322.292 290.688 322.898 291 323.544 291H331.259C331.977 291 332.639 290.615 332.996 289.992L334.814 286.81C335.591 285.45 336 283.911 336 282.344V274C336 273.448 335.552 273 335 273C334.448 273 334 273.448 334 274V278C334 278.552 333.552 279 333 279C332.448 279 332 278.552 332 278V270C332 269.448 331.552 269 331 269C330.448 269 330 269.448 330 270V277C330 277.552 329.552 278 329 278C328.448 278 328 277.552 328 277V268C328 267.448 327.552 267 327 267C326.448 267 326 267.448 326 268V277Z" fill="#12131A"/>
<rect width="62" height="20" transform="translate(343 278)" fill="#4F86C6"/>
<path d="M349.928 290.44H354.5V292H347.996V283.6H354.344V285.16H349.928V286.984H353.828V288.496H349.928V290.44ZM358.04 292.096C356.948 292.096 355.844 291.796 355.244 291.4L355.868 290.056C356.444 290.428 357.32 290.68 358.112 290.68C358.976 290.68 359.3 290.452 359.3 290.092C359.3 289.036 355.4 290.116 355.4 287.536C355.4 286.312 356.504 285.448 358.388 285.448C359.276 285.448 360.26 285.652 360.872 286.012L360.248 287.344C359.612 286.984 358.976 286.864 358.388 286.864C357.548 286.864 357.188 287.128 357.188 287.464C357.188 288.568 361.088 287.5 361.088 290.044C361.088 291.244 359.972 292.096 358.04 292.096ZM365.903 290.368L366.407 291.688C366.023 291.964 365.459 292.096 364.883 292.096C363.359 292.096 362.471 291.316 362.471 289.78V287.128H361.475V285.688H362.471V284.116H364.343V285.688H365.951V287.128H364.343V289.756C364.343 290.308 364.643 290.608 365.147 290.608C365.423 290.608 365.699 290.524 365.903 290.368ZM371.382 285.448C372.906 285.448 374.058 286.336 374.058 288.304V292H372.186V288.592C372.186 287.548 371.706 287.068 370.878 287.068C369.978 287.068 369.33 287.62 369.33 288.808V292H367.458V283.096H369.33V286.216C369.834 285.712 370.554 285.448 371.382 285.448ZM382.149 288.796C382.149 288.94 382.125 289.144 382.113 289.3H377.229C377.409 290.104 378.093 290.596 379.077 290.596C379.761 290.596 380.253 290.392 380.697 289.972L381.693 291.052C381.093 291.736 380.193 292.096 379.029 292.096C376.797 292.096 375.345 290.692 375.345 288.772C375.345 286.84 376.821 285.448 378.789 285.448C380.685 285.448 382.149 286.72 382.149 288.796ZM378.801 286.864C377.949 286.864 377.337 287.38 377.205 288.208H380.385C380.253 287.392 379.641 286.864 378.801 286.864ZM385.183 286.396C385.639 285.772 386.407 285.448 387.403 285.448V287.176C387.247 287.164 387.127 287.152 386.983 287.152C385.951 287.152 385.267 287.716 385.267 288.952V292H383.395V285.544H385.183V286.396ZM397.854 283.6H399.798V292H397.854V288.556H394.038V292H392.094V283.6H394.038V286.912H397.854V283.6Z" fill="white"/>
<g filter="url(#filter3_d_931_7669)">
<path fill-rule="evenodd" clip-rule="evenodd" d="M380.081 6.3907L388.074 25.3897C388.418 26.2073 389.577 26.2055 389.919 25.3869L391.751 20.994L395.879 25.1214C397.05 26.293 398.95 26.293 400.121 25.1214C401.293 23.9498 401.293 22.0503 400.121 20.8787L395.994 16.7513L400.387 14.919C401.205 14.5775 401.207 13.4183 400.39 13.0743L381.391 5.08117C380.565 4.7336 379.734 5.56458 380.081 6.3907Z" fill="#12131A"/>
</g>
<path fill-rule="evenodd" clip-rule="evenodd" d="M391.055 17.4689L397.293 23.7072C397.683 24.0977 398.317 24.0977 398.707 23.7072C399.098 23.3166 399.098 22.6835 398.707 22.293L392.469 16.0546L397.414 13.9921L382.876 7.87573L388.992 22.4137L391.055 17.4689ZM400.387 14.919C401.205 14.5775 401.207 13.4183 400.39 13.0743L381.391 5.08117C380.565 4.7336 379.734 5.56458 380.081 6.3907L388.074 25.3897C388.418 26.2073 389.577 26.2055 389.919 25.3869L391.751 20.994L395.879 25.1214C397.05 26.293 398.95 26.293 400.121 25.1214C401.293 23.9498 401.293 22.0503 400.121 20.8787L395.994 16.7513L400.387 14.919Z" fill="white"/>
<rect width="60" height="20" transform="translate(407 15)" fill="#4F86C6"/>
<path d="M411.996 29V20.6H415.812C418.56 20.6 420.444 22.256 420.444 24.8C420.444 27.344 418.56 29 415.812 29H411.996ZM413.94 27.404H415.716C417.384 27.404 418.476 26.408 418.476 24.8C418.476 23.192 417.384 22.196 415.716 22.196H413.94V27.404ZM428.102 25.796C428.102 25.94 428.078 26.144 428.066 26.3H423.182C423.362 27.104 424.046 27.596 425.03 27.596C425.714 27.596 426.206 27.392 426.65 26.972L427.646 28.052C427.046 28.736 426.146 29.096 424.982 29.096C422.75 29.096 421.298 27.692 421.298 25.772C421.298 23.84 422.774 22.448 424.742 22.448C426.638 22.448 428.102 23.72 428.102 25.796ZM424.754 23.864C423.902 23.864 423.29 24.38 423.158 25.208H426.338C426.206 24.392 425.594 23.864 424.754 23.864ZM433.839 22.544H435.639L432.915 29H430.983L428.271 22.544H430.203L431.991 26.936L433.839 22.544ZM439.299 29.096C437.247 29.096 435.747 27.716 435.747 25.772C435.747 23.828 437.247 22.448 439.299 22.448C441.351 22.448 442.839 23.828 442.839 25.772C442.839 27.716 441.351 29.096 439.299 29.096ZM439.299 27.56C440.235 27.56 440.943 26.888 440.943 25.772C440.943 24.656 440.235 23.984 439.299 23.984C438.363 23.984 437.643 24.656 437.643 25.772C437.643 26.888 438.363 27.56 439.299 27.56ZM448.015 22.448C449.539 22.448 450.691 23.336 450.691 25.304V29H448.819V25.592C448.819 24.548 448.339 24.068 447.511 24.068C446.611 24.068 445.963 24.62 445.963 25.808V29H444.091V22.544H445.879V23.3C446.383 22.748 447.139 22.448 448.015 22.448ZM455.918 29V20.6H457.862V27.416H462.074V29H455.918Z" fill="white"/>
<g filter="url(#filter4_d_931_7669)">
<path d="M402 386H398.004C397.113 386 396.667 384.923 397.297 384.293L404.293 377.297C404.683 376.906 405.317 376.906 405.707 377.297L412.703 384.293C413.333 384.923 412.887 386 411.996 386H408V396H411.998C412.888 396 413.335 397.076 412.705 397.706L405.708 404.711C405.317 405.102 404.683 405.102 404.293 404.711L397.295 397.706C396.666 397.076 397.112 396 398.002 396H402V386Z" fill="#12131A"/>
</g>
<path fill-rule="evenodd" clip-rule="evenodd" d="M404 398H400.415L405 402.59L409.585 398H406V384H409.582L405 379.418L400.418 384H404V398ZM411.998 396C412.888 396 413.335 397.076 412.705 397.706L405.708 404.711C405.317 405.102 404.683 405.102 404.293 404.711L397.295 397.706C396.666 397.076 397.112 396 398.002 396H402V386H398.004C397.113 386 396.667 384.923 397.297 384.293L404.293 377.297C404.683 376.906 405.317 376.906 405.707 377.297L412.703 384.293C413.333 384.923 412.887 386 411.996 386H408V396H411.998Z" fill="white"/>
<rect width="68" height="20" transform="translate(421 390)" fill="#248232"/>
<path d="M427.544 404.144C426.416 404.144 425.42 403.712 424.808 402.92L425.888 401.624C426.344 402.236 426.848 402.548 427.448 402.548C428.228 402.548 428.636 402.08 428.636 401.156V397.16H425.684V395.6H430.568V401.048C430.568 403.124 429.524 404.144 427.544 404.144ZM438.68 400.796C438.68 400.94 438.656 401.144 438.644 401.3H433.76C433.94 402.104 434.624 402.596 435.608 402.596C436.292 402.596 436.784 402.392 437.228 401.972L438.224 403.052C437.624 403.736 436.724 404.096 435.56 404.096C433.328 404.096 431.876 402.692 431.876 400.772C431.876 398.84 433.352 397.448 435.32 397.448C437.216 397.448 438.68 398.72 438.68 400.796ZM435.332 398.864C434.48 398.864 433.868 399.38 433.736 400.208H436.916C436.784 399.392 436.172 398.864 435.332 398.864ZM441.715 398.396C442.171 397.772 442.939 397.448 443.935 397.448V399.176C443.779 399.164 443.659 399.152 443.515 399.152C442.483 399.152 441.799 399.716 441.799 400.952V404H439.927V397.544H441.715V398.396ZM448.061 404.096C446.009 404.096 444.509 402.716 444.509 400.772C444.509 398.828 446.009 397.448 448.061 397.448C450.113 397.448 451.601 398.828 451.601 400.772C451.601 402.716 450.113 404.096 448.061 404.096ZM448.061 402.56C448.997 402.56 449.705 401.888 449.705 400.772C449.705 399.656 448.997 398.984 448.061 398.984C447.125 398.984 446.405 399.656 446.405 400.772C446.405 401.888 447.125 402.56 448.061 402.56ZM461.12 397.448C462.656 397.448 463.76 398.336 463.76 400.304V404H461.888V400.592C461.888 399.548 461.42 399.068 460.664 399.068C459.824 399.068 459.236 399.608 459.236 400.76V404H457.364V400.592C457.364 399.548 456.92 399.068 456.14 399.068C455.312 399.068 454.724 399.608 454.724 400.76V404H452.852V397.544H454.64V398.288C455.12 397.736 455.84 397.448 456.668 397.448C457.568 397.448 458.336 397.796 458.792 398.504C459.308 397.844 460.148 397.448 461.12 397.448ZM471.833 400.796C471.833 400.94 471.809 401.144 471.797 401.3H466.913C467.093 402.104 467.777 402.596 468.761 402.596C469.445 402.596 469.937 402.392 470.381 401.972L471.377 403.052C470.777 403.736 469.877 404.096 468.713 404.096C466.481 404.096 465.029 402.692 465.029 400.772C465.029 398.84 466.505 397.448 468.473 397.448C470.369 397.448 471.833 398.72 471.833 400.796ZM468.485 398.864C467.633 398.864 467.021 399.38 466.889 400.208H470.069C469.937 399.392 469.325 398.864 468.485 398.864ZM482.777 399.632C483.713 399.932 484.313 400.652 484.313 401.708C484.313 403.16 483.161 404 480.953 404H476.609V395.6H480.713C482.813 395.6 483.893 396.476 483.893 397.784C483.893 398.624 483.461 399.272 482.777 399.632ZM480.473 397.064H478.541V399.044H480.473C481.421 399.044 481.937 398.708 481.937 398.048C481.937 397.388 481.421 397.064 480.473 397.064ZM480.809 402.536C481.817 402.536 482.357 402.224 482.357 401.504C482.357 400.796 481.817 400.46 480.809 400.46H478.541V402.536H480.809Z" fill="white"/>
<defs>
<filter id="filter0_d_931_7669" x="1.99994" y="291.5" width="27.0019" height="27.002" filterUnits="userSpaceOnUse" color-interpolation-filters="sRGB">
<feFlood flood-opacity="0" result="BackgroundImageFix"/>
<feColorMatrix in="SourceAlpha" type="matrix" values="0 0 0 0 0 0 0 0 0 0 0 0 0 0 0 0 0 0 127 0" result="hardAlpha"/>
<feOffset dy="1.5"/>
<feGaussianBlur stdDeviation="1.5"/>
<feComposite in2="hardAlpha" operator="out"/>
<feColorMatrix type="matrix" values="0 0 0 0 0.0705882 0 0 0 0 0.0745098 0 0 0 0 0.101961 0 0 0 0.25 0"/>
<feBlend mode="normal" in2="BackgroundImageFix" result="effect1_dropShadow_931_7669"/>
<feBlend mode="normal" in="SourceGraphic" in2="effect1_dropShadow_931_7669" result="shape"/>
</filter>
<filter id="filter1_d_931_7669" x="94" y="89.5" width="22" height="34" filterUnits="userSpaceOnUse" color-interpolation-filters="sRGB">
<feFlood flood-opacity="0" result="BackgroundImageFix"/>
<feColorMatrix in="SourceAlpha" type="matrix" values="0 0 0 0 0 0 0 0 0 0 0 0 0 0 0 0 0 0 127 0" result="hardAlpha"/>
<feOffset dy="1.5"/>
<feGaussianBlur stdDeviation="1.5"/>
<feComposite in2="hardAlpha" operator="out"/>
<feColorMatrix type="matrix" values="0 0 0 0 0.0705882 0 0 0 0 0.0745098 0 0 0 0 0.101961 0 0 0 0.25 0"/>
<feBlend mode="normal" in2="BackgroundImageFix" result="effect1_dropShadow_931_7669"/>
<feBlend mode="normal" in="SourceGraphic" in2="effect1_dropShadow_931_7669" result="shape"/>
</filter>
<filter id="filter2_d_931_7669" x="313" y="263.5" width="28" height="34" filterUnits="userSpaceOnUse" color-interpolation-filters="sRGB">
<feFlood flood-opacity="0" result="BackgroundImageFix"/>
<feColorMatrix in="SourceAlpha" type="matrix" values="0 0 0 0 0 0 0 0 0 0 0 0 0 0 0 0 0 0 127 0" result="hardAlpha"/>
<feOffset dy="1.5"/>
<feGaussianBlur stdDeviation="1.5"/>
<feComposite in2="hardAlpha" operator="out"/>
<feColorMatrix type="matrix" values="0 0 0 0 0.0705882 0 0 0 0 0.0745098 0 0 0 0 0.101961 0 0 0 0.25 0"/>
<feBlend mode="normal" in2="BackgroundImageFix" result="effect1_dropShadow_931_7669"/>
<feBlend mode="normal" in="SourceGraphic" in2="effect1_dropShadow_931_7669" result="shape"/>
</filter>
<filter id="filter3_d_931_7669" x="377" y="3.5" width="27.0019" height="27.002" filterUnits="userSpaceOnUse" color-interpolation-filters="sRGB">
<feFlood flood-opacity="0" result="BackgroundImageFix"/>
<feColorMatrix in="SourceAlpha" type="matrix" values="0 0 0 0 0 0 0 0 0 0 0 0 0 0 0 0 0 0 127 0" result="hardAlpha"/>
<feOffset dy="1.5"/>
<feGaussianBlur stdDeviation="1.5"/>
<feComposite in2="hardAlpha" operator="out"/>
<feColorMatrix type="matrix" values="0 0 0 0 0.0705882 0 0 0 0 0.0745098 0 0 0 0 0.101961 0 0 0 0.25 0"/>
<feBlend mode="normal" in2="BackgroundImageFix" result="effect1_dropShadow_931_7669"/>
<feBlend mode="normal" in="SourceGraphic" in2="effect1_dropShadow_931_7669" result="shape"/>
</filter>
<filter id="filter4_d_931_7669" x="394" y="375.504" width="21.9992" height="34.001" filterUnits="userSpaceOnUse" color-interpolation-filters="sRGB">
<feFlood flood-opacity="0" result="BackgroundImageFix"/>
<feColorMatrix in="SourceAlpha" type="matrix" values="0 0 0 0 0 0 0 0 0 0 0 0 0 0 0 0 0 0 127 0" result="hardAlpha"/>
<feOffset dy="1.5"/>
<feGaussianBlur stdDeviation="1.5"/>
<feComposite in2="hardAlpha" operator="out"/>
<feColorMatrix type="matrix" values="0 0 0 0 0.0705882 0 0 0 0 0.0745098 0 0 0 0 0.101961 0 0 0 0.25 0"/>
<feBlend mode="normal" in2="BackgroundImageFix" result="effect1_dropShadow_931_7669"/>
<feBlend mode="normal" in="SourceGraphic" in2="effect1_dropShadow_931_7669" result="shape"/>
</filter>
</defs>
</svg>
