<svg width="53" height="42" viewBox="0 0 53 42" fill="none" xmlns="http://www.w3.org/2000/svg">
<path d="M26.2583 41.7926C8.05866 41.7926 0.541407 29.6526 0.229056 29.1528L0 28.7988L5.35162 13.1812V0.18741L15.5967 2.9361C17.4709 1.87411 26.175 -2.45717 36.5659 2.9361L47.1651 0V13.2645L52.5167 28.778L52.2876 29.132C51.9753 29.6526 44.458 41.7926 26.2583 41.7926ZM1.99905 28.5489C3.35257 30.4855 10.7865 39.981 26.2583 39.981C41.7718 39.981 49.1641 30.4855 50.5176 28.5489L45.3534 13.5769V2.39469L36.3577 4.87268L36.0454 4.70609C25.3838 -1.02035 16.5963 4.43539 16.2423 4.66445L15.9091 4.87268L15.5135 4.76856L7.18408 2.51963V13.4311L1.99905 28.5489Z" fill="#E36458"/>
<path d="M10.6822 9.55792H8.87061V4.68524L12.9936 5.76806L12.5355 7.53805L10.6822 7.03829V9.55792Z" fill="#E36458"/>
<path d="M43.6455 9.55792H41.813V7.03829L39.9806 7.53805L39.5225 5.76806L43.6455 4.68524V9.55792Z" fill="#E36458"/>
<path d="M37.628 25.3005H32.3388C31.7141 25.3005 31.2144 24.8008 31.2144 24.1761V18.8869C31.2144 18.2622 31.7141 17.7625 32.3388 17.7625H37.628C38.2527 17.7625 38.7524 18.2622 38.7524 18.8869V24.1761C38.7524 24.8008 38.2318 25.3005 37.628 25.3005ZM33.026 23.4889H36.92V19.5949H33.026V23.4889Z" fill="#E36458"/>
<path d="M20.4693 25.3005H15.1801C14.5554 25.3005 14.0557 24.8008 14.0557 24.1761V18.8869C14.0557 18.2622 14.5554 17.7625 15.1801 17.7625H20.4693C21.094 17.7625 21.5937 18.2622 21.5937 18.8869V24.1761C21.5937 24.8008 21.094 25.3005 20.4693 25.3005ZM15.8673 23.4889H19.7613V19.5949H15.8673V23.4889Z" fill="#E36458"/>
<path d="M31.9013 32.7761H20.8857C20.261 32.7761 19.7612 32.2763 19.7612 31.6516V24.6133C19.7612 23.9886 20.261 23.4888 20.8857 23.4888H31.9013C32.526 23.4888 33.0258 23.9886 33.0258 24.6133V31.6516C33.0258 32.2763 32.526 32.7761 31.9013 32.7761ZM21.5937 30.9644H31.2141V25.3004H21.5937V30.9644Z" fill="#3C4043"/>
<path d="M19.9279 19.4074H17.8247V21.5106H19.9279V19.4074Z" fill="#E36458"/>
<path d="M27.3624 32.7553H25.4258V34.6919H27.3624V32.7553Z" fill="#3C4043"/>
<path d="M27.3624 36.4618H25.4258V38.3984H27.3624V36.4618Z" fill="#3C4043"/>
<path d="M37.1074 19.3866H34.9834V21.5106H37.1074V19.3866Z" fill="#E36458"/>
</svg>
