<svg width="20" height="20" viewBox="0 0 20 20" fill="none" xmlns="http://www.w3.org/2000/svg">
<path d="M8 13L13.19 10L8 7V13ZM19.56 5.17C19.69 5.64 19.78 6.27 19.84 7.07C19.91 7.87 19.94 8.56 19.94 9.16L20 10C20 12.19 19.84 13.8 19.56 14.83C19.31 15.73 18.73 16.31 17.83 16.56C17.36 16.69 16.5 16.78 15.18 16.84C13.88 16.91 12.69 16.94 11.59 16.94L10 17C5.81 17 3.2 16.84 2.17 16.56C1.27 16.31 0.69 15.73 0.44 14.83C0.31 14.36 0.22 13.73 0.16 12.93C0.0900001 12.13 0.0599999 11.44 0.0599999 10.84L0 10C0 7.81 0.16 6.2 0.44 5.17C0.69 4.27 1.27 3.69 2.17 3.44C2.64 3.31 3.5 3.22 4.82 3.16C6.12 3.09 7.31 3.06 8.41 3.06L10 3C14.19 3 16.8 3.16 17.83 3.44C18.73 3.69 19.31 4.27 19.56 5.17Z" fill="#F8F8F8"/>
</svg>
